<svg id="OBJECTS" xmlns="http://www.w3.org/2000/svg" xmlns:xlink="http://www.w3.org/1999/xlink" viewBox="0 0 636.26 474.47"><defs><style>.cls-1,.cls-10,.cls-13,.cls-19,.cls-2,.cls-20,.cls-21,.cls-22,.cls-24,.cls-25,.cls-26,.cls-7{fill:none;}.cls-2{stroke:#ded8d5;stroke-width:1.97px;}.cls-10,.cls-2,.cls-21,.cls-26{stroke-miterlimit:10;}.cls-3{fill:#ffb1a5;}.cls-4{fill:#ead254;}.cls-5{fill:#00857b;}.cls-6{fill:#c98bd2;}.cls-10,.cls-26,.cls-7{stroke:#fff;}.cls-13,.cls-19,.cls-20,.cls-22,.cls-24,.cls-25,.cls-7{stroke-linecap:round;stroke-linejoin:round;}.cls-7{stroke-width:1.65px;}.cls-8{fill:#fff;}.cls-9{fill:#cf56a1;}.cls-10{stroke-width:1.18px;}.cls-11{clip-path:url(#clip-path);}.cls-12{fill:#8e716c;}.cls-13,.cls-19,.cls-20,.cls-22,.cls-24,.cls-25{stroke:#282828;}.cls-13{stroke-width:1.23px;}.cls-14{fill:#f3978e;}.cls-15{fill:#372f5f;}.cls-16{fill:#261b43;}.cls-17{fill:#e6e6e6;}.cls-18{fill:#282828;}.cls-19{stroke-width:0.99px;}.cls-20{stroke-width:1.23px;}.cls-21{stroke:#c98bd2;stroke-width:1.34px;}.cls-22{stroke-width:1.23px;}.cls-23{fill:#005683;}.cls-24{stroke-width:1.4px;}.cls-25{stroke-width:1.53px;}.cls-26{stroke-width:1.95px;}</style><clipPath id="clip-path" transform="translate(-61.89 -35.3)"><rect class="cls-1" x="171.98" y="101.42" width="459.27" height="332.68"/></clipPath></defs><line class="cls-2" x1="64.09" y1="123.37" x2="563.46" y2="123.37"/><rect class="cls-2" x="64.09" y="90.64" width="499.37" height="308.96" rx="6.52"/><path class="cls-3" d="M158.89,142.64a4.57,4.57,0,1,1-4.57-4.56A4.57,4.57,0,0,1,158.89,142.64Z" transform="translate(-61.89 -35.3)"/><path class="cls-4" d="M176.64,142.64a4.57,4.57,0,1,1-4.57-4.56A4.57,4.57,0,0,1,176.64,142.64Z" transform="translate(-61.89 -35.3)"/><path class="cls-5" d="M194.39,142.64a4.57,4.57,0,1,1-4.57-4.56A4.56,4.56,0,0,1,194.39,142.64Z" transform="translate(-61.89 -35.3)"/><rect class="cls-6" x="595.21" y="175.55" width="73.04" height="62.03" rx="6.02" transform="translate(1201.57 377.83) rotate(180)"/><polygon class="cls-7" points="586.5 181.58 557.95 181.58 552.8 181.58 552.8 158.97 586.5 158.97 586.5 164.62 586.5 181.58"/><polyline class="cls-7" points="552.8 158.97 569.65 172.25 586.5 158.97"/><rect class="cls-3" x="19.94" y="234.18" width="71.33" height="69.34" rx="6.64"/><path class="cls-8" d="M103.67,290.54a20.17,20.17,0,1,0,28.52,0A20.25,20.25,0,0,0,103.67,290.54Zm28.47,2.91h-6.42a41.93,41.93,0,0,0-2.5-6.06A18.14,18.14,0,0,1,132.14,293.45Zm-21.61,10.17a32.74,32.74,0,0,1,1-7.82h12.9a32.75,32.75,0,0,1,1,7.82ZM125.26,306a38.24,38.24,0,0,1-1.39,7.82H112a38.21,38.21,0,0,1-1.38-7.82Zm-7.33-19.37a17.87,17.87,0,0,1,2.85.22,36.75,36.75,0,0,1,2.92,6.62H112.16a37.15,37.15,0,0,1,2.92-6.62A17.87,17.87,0,0,1,117.93,286.61Zm-5.29.78a41.93,41.93,0,0,0-2.5,6.06h-6.42A18.18,18.18,0,0,1,112.64,287.39Zm-10.52,8.41h7.36a34.47,34.47,0,0,0-1,7.82H99.78A18.11,18.11,0,0,1,102.12,295.8Zm0,18A18.07,18.07,0,0,1,99.78,306h8.7a37.86,37.86,0,0,0,1.23,7.82Zm1.6,2.36h6.69a48.28,48.28,0,0,0,2.48,6.13A18.26,18.26,0,0,1,103.72,316.16ZM117.93,323a18.65,18.65,0,0,1-2.38-.16,54.4,54.4,0,0,1-2.82-6.68h10.4a52.89,52.89,0,0,1-2.82,6.68A18.65,18.65,0,0,1,117.93,323Zm5-.71a49.9,49.9,0,0,0,2.49-6.13h6.68A18.21,18.21,0,0,1,123,322.29Zm10.78-8.49h-7.6a37.86,37.86,0,0,0,1.23-7.82h8.71A18.2,18.2,0,0,1,133.75,313.8Zm2.34-10.18h-8.67a35.64,35.64,0,0,0-1-7.82h7.36A18.25,18.25,0,0,1,136.09,303.62Z" transform="translate(-61.89 -35.3)"/><path class="cls-6" d="M167.08,97.43H65.68a3.79,3.79,0,0,1-3.79-3.79h0a3.79,3.79,0,0,1,3.79-3.79h101.4a3.79,3.79,0,0,1,3.79,3.79h0A3.79,3.79,0,0,1,167.08,97.43Z" transform="translate(-61.89 -35.3)"/><path class="cls-9" d="M694.35,345.12H645.13a3.8,3.8,0,0,1-3.79-3.8h0a3.79,3.79,0,0,1,3.79-3.79h49.22a3.79,3.79,0,0,1,3.79,3.79h0A3.8,3.8,0,0,1,694.35,345.12Z" transform="translate(-61.89 -35.3)"/><rect class="cls-6" x="589.12" y="342.32" width="11.74" height="11.37" rx="2.86"/><rect class="cls-3" x="19.07" y="368.6" width="11.74" height="11.37" rx="2.86"/><rect class="cls-3" x="385.13" y="27.75" width="106.11" height="30.46" rx="3.01"/><line class="cls-10" x1="399.58" y1="38.6" x2="470.76" y2="38.6"/><line class="cls-10" x1="399.58" y1="45.91" x2="428.57" y2="45.91"/><polygon class="cls-3" points="396.68 54.76 396.68 66.64 411.61 54.76 396.68 54.76"/><path class="cls-9" d="M304.22,95.33H255.77a8.52,8.52,0,0,1-8.52-8.52V41.76a6.46,6.46,0,0,1,6.46-6.46h50.51a6.47,6.47,0,0,1,6.46,6.46V88.87A6.47,6.47,0,0,1,304.22,95.33Z" transform="translate(-61.89 -35.3)"/><path class="cls-8" d="M293.76,69.75l-3.61-3.61a3.14,3.14,0,0,0-2.32-1.09,3.31,3.31,0,0,0-2.32,1l-2.07,2.06-.38-.19c-.26-.13-.45-.2-.65-.32a22.42,22.42,0,0,1-5.35-4.91,11.36,11.36,0,0,1-1.68-2.64c.52-.45,1-1,1.42-1.42l.58-.58a3.14,3.14,0,0,0,0-4.77l-1.8-1.81a6.21,6.21,0,0,1-.59-.64l-1.22-1.23a3.37,3.37,0,0,0-2.32-1,3.19,3.19,0,0,0-2.32,1l-2.26,2.26a5.12,5.12,0,0,0-1.48,3.16,11.77,11.77,0,0,0,.83,4.9,26.65,26.65,0,0,0,5,8.45,31.32,31.32,0,0,0,10.32,8.06,17.1,17.1,0,0,0,5.81,1.74h.45a5.13,5.13,0,0,0,3.87-1.67l.06-.07a10.57,10.57,0,0,1,1.16-1.16l.84-.84A3.23,3.23,0,0,0,293.76,69.75Zm-1.48,3.36-.77.77c-.46.39-.84.84-1.29,1.29a3.07,3.07,0,0,1-2.33,1h-.32a13.54,13.54,0,0,1-5-1.55A29.33,29.33,0,0,1,272.93,67a27.85,27.85,0,0,1-4.71-7.8,8,8,0,0,1-.77-4,2.71,2.71,0,0,1,.9-1.87l2.19-2.19a1.39,1.39,0,0,1,.91-.45,1.23,1.23,0,0,1,.9.45l1.16,1.16a6.63,6.63,0,0,0,.65.65l1.8,1.8a1.47,1.47,0,0,1,.45.9,1.35,1.35,0,0,1-.45.91l-.58.58-1.61,1.61-.07.06a1.43,1.43,0,0,0-.38,1.62v.06A14.77,14.77,0,0,0,275.45,64a23.88,23.88,0,0,0,5.87,5.36,5.64,5.64,0,0,0,.83.45,5.64,5.64,0,0,1,.65.32l.06.07a1.49,1.49,0,0,0,1.81-.33l2.26-2.25a1.31,1.31,0,0,1,.9-.46,1.36,1.36,0,0,1,.84.46l3.61,3.61A1.22,1.22,0,0,1,292.28,73.11Z" transform="translate(-61.89 -35.3)"/><g class="cls-11"><path class="cls-12" d="M515,322.58l-36.5-4.86.29,3.63-31.21,4.15S427.42,376,445.15,487h25.39l9.13-112.55h3.25L491.77,487h25.38C534.88,376,515,322.58,515,322.58Z" transform="translate(-61.89 -35.3)"/><line class="cls-13" x1="406.18" y1="339.11" x2="432.67" y2="339.11"/><path class="cls-3" d="M536.28,269.34c-3.12-5-20.67-4.81-21.59-4.92-4.74-.55,3,37.18,12.9,70.17a11.08,11.08,0,0,0,14.93,7l.2-.08a11.08,11.08,0,0,0,6.57-12.27C544.6,304.39,539.89,275.1,536.28,269.34Z" transform="translate(-61.89 -35.3)"/><polygon class="cls-14" points="478.57 247.68 456.18 256.37 454.08 245.75 477.27 239.96 478.57 247.68"/><path class="cls-14" d="M544.69,304.25s-10.61,14.24-10.1,13.59,8.32-23,8.32-23Z" transform="translate(-61.89 -35.3)"/><path class="cls-3" d="M559.86,285.09,529.45,324.5a11.18,11.18,0,0,0,2.76,16.21h0a11.19,11.19,0,0,0,15.92-4L573.45,290Z" transform="translate(-61.89 -35.3)"/><path class="cls-3" d="M567.73,295.21a12.54,12.54,0,1,1,15.8-8.08A12.54,12.54,0,0,1,567.73,295.21Z" transform="translate(-61.89 -35.3)"/><path class="cls-3" d="M580.73,275.73s3.44-3.56-2.65-6.06-13.62-1.92-18.43,9.75Z" transform="translate(-61.89 -35.3)"/><path class="cls-15" d="M587,250.83l12.74,5.52a1.31,1.31,0,0,1,.57,1.88L583.6,289.52a1.6,1.6,0,0,1-2,.76l-12.73-5.52a1.31,1.31,0,0,1-.58-1.87l16.75-31.29A1.6,1.6,0,0,1,587,250.83Z" transform="translate(-61.89 -35.3)"/><path class="cls-16" d="M585.83,250.28l12.73,5.52a1.31,1.31,0,0,1,.58,1.87L582.39,289a1.6,1.6,0,0,1-2,.77l-12.74-5.52a1.31,1.31,0,0,1-.57-1.88L583.84,251A1.6,1.6,0,0,1,585.83,250.28Z" transform="translate(-61.89 -35.3)"/><polygon class="cls-17" points="522.5 218.16 533.69 223.01 520.04 248.51 508.85 243.66 522.5 218.16"/><polygon class="cls-8" points="533.69 223.01 508.85 243.66 522.5 218.16 533.69 223.01"/><path class="cls-3" d="M574.42,268.63a20.24,20.24,0,0,1,5.4,2,2.9,2.9,0,0,1,1.39,3.2h0a2.87,2.87,0,0,1-2.42,2.15l-6.62.83s-3.45,6-8,6.62L568.34,273Z" transform="translate(-61.89 -35.3)"/><path class="cls-9" d="M489.88,219.72c-.73,0,46.94,6.6,54.81,61L520,284.47l-5,41H446l-13.71-75.82s15.29-21.91,43.69-30Z" transform="translate(-61.89 -35.3)"/><line class="cls-13" x1="458.06" y1="249.16" x2="460.21" y2="225.43"/><path class="cls-3" d="M494.41,220.5V201.62H472.28v19.1a43.08,43.08,0,0,0-5.94,2.41l17.25,10.28,17.65-10.28A28.63,28.63,0,0,0,494.41,220.5Z" transform="translate(-61.89 -35.3)"/><path class="cls-18" d="M472.08,203.92s4,10.55,14.58,9.64c9.75-.83,8.2-15.46,8.2-15.46Z" transform="translate(-61.89 -35.3)"/><path class="cls-14" d="M462.43,189.89c-3.47,3.15-11.23-8.78-7.87-12.13s5.9,1.9,5.9,1.9l1.5,3.56,1.13,4.83.27,1.26Z" transform="translate(-61.89 -35.3)"/><path class="cls-19" d="M456.17,182s2.63-1.18,5,2.63" transform="translate(-61.89 -35.3)"/><path class="cls-14" d="M503.44,189.53c3.19,3.43,11.93-7.81,8.87-11.43s-6,1.4-6,1.4l-1.79,3.42-1.53,4.72-.38,1.23Z" transform="translate(-61.89 -35.3)"/><path class="cls-19" d="M510.34,182.18s-2.52-1.4-5.16,2.19" transform="translate(-61.89 -35.3)"/><path class="cls-18" d="M456.34,166.37c0,15.8,12.05,23.29,26.9,23.29s26.9-7.49,26.9-23.29-12-26.54-26.9-26.54S456.34,150.58,456.34,166.37Z" transform="translate(-61.89 -35.3)"/><path class="cls-3" d="M460,167.47a107.73,107.73,0,0,0,2.74,24c1.34,5.82,5.1,9.88,10.43,13.15l1,.6a18.29,18.29,0,0,0,18.63.2h0c5.77-3.36,9.81-7.79,11.05-14a158.2,158.2,0,0,0,2.51-23.92s2.15-24.47-22.84-24S460,167.47,460,167.47Z" transform="translate(-61.89 -35.3)"/><path class="cls-20" d="M481.65,181.44v3.39a1.56,1.56,0,0,0,.11.57,1.51,1.51,0,0,0,1.8.83l1.55-.41" transform="translate(-61.89 -35.3)"/><path class="cls-18" d="M477.68,168.31l-12.42,2.91s.56-3.16,5.64-4.31S477.68,168.31,477.68,168.31Z" transform="translate(-61.89 -35.3)"/><path class="cls-18" d="M488.7,168.31l12,2.91s-.55-3.16-5.45-4.31S488.7,168.31,488.7,168.31Z" transform="translate(-61.89 -35.3)"/><ellipse class="cls-18" cx="411.07" cy="142.12" rx="2.09" ry="2.09"/><path class="cls-18" d="M494.9,177.43a2.09,2.09,0,1,1-2.09-2.09A2.09,2.09,0,0,1,494.9,177.43Z" transform="translate(-61.89 -35.3)"/><path class="cls-8" d="M475.05,190.17H491.2S484,198.88,475.05,190.17Z" transform="translate(-61.89 -35.3)"/><circle class="cls-21" cx="472.08" cy="178.24" r="8.9" transform="translate(-49.65 350.71) rotate(-45)"/><circle class="cls-21" cx="493.95" cy="178.24" r="8.9" transform="translate(-43.25 366.18) rotate(-45)"/><path class="cls-21" d="M481,178.24s2.11-2,4.07,0" transform="translate(-61.89 -35.3)"/><line class="cls-21" x1="401.28" y1="142.94" x2="398.48" y2="142.86"/><line class="cls-21" x1="440.97" y1="142.94" x2="443.79" y2="142.86"/><path class="cls-18" d="M506,175.59s-10-13.51-7.69-27.19a19.67,19.67,0,0,1,9.35,13.36C509.6,171.39,506,175.59,506,175.59Z" transform="translate(-61.89 -35.3)"/><path class="cls-18" d="M460,176.5s11.61-15.34,9.3-29a22.84,22.84,0,0,0-10,14.28C457.37,171.39,460,176.5,460,176.5Z" transform="translate(-61.89 -35.3)"/><path class="cls-18" d="M505.17,153.79s-12.83,14-47.92,11.64c0,0,5.37-20.61,22.38-22.8C479.63,142.63,499.27,140.28,505.17,153.79Z" transform="translate(-61.89 -35.3)"/><circle class="cls-18" cx="504.27" cy="137.37" r="16.76" transform="translate(226.41 578) rotate(-80.83)"/><path class="cls-18" d="M299.72,322.54l-31.2-4.15.28-3.63-36.5,4.86S212.38,373,230.11,484h25.38l8.85-112.55h3.25L276.73,484h25.38C319.84,373,299.72,322.54,299.72,322.54Z" transform="translate(-61.89 -35.3)"/><path class="cls-18" d="M297.24,170.7a57.41,57.41,0,0,1-10.48-18.9c-3.09-8.73-13.19-5.18-13.19-5.18s-8.42-10.83-21.09-7.06-17.07,12.79-17.33,23.5-8.69,12.4-15.18,24.8c-11.46,21.89,7.83,40.32,43,35.21l0-.34a36.83,36.83,0,0,0,12.88,1.2C318,221.43,314,190.39,297.24,170.7Z" transform="translate(-61.89 -35.3)"/><path class="cls-14" d="M283.42,186.93c3.47,3.15,11.22-8.78,7.87-12.13s-5.9,1.9-5.9,1.9l-1.5,3.56-1.13,4.83-.27,1.26Z" transform="translate(-61.89 -35.3)"/><path class="cls-19" d="M289.67,179s-2.62-1.18-4.95,2.63" transform="translate(-61.89 -35.3)"/><path class="cls-14" d="M242.41,186.57c-3.19,3.43-11.93-7.8-8.87-11.43s6,1.4,6,1.4l1.8,3.43,1.53,4.71.37,1.23Z" transform="translate(-61.89 -35.3)"/><path class="cls-19" d="M235.51,179.22s2.51-1.4,5.16,2.19" transform="translate(-61.89 -35.3)"/><path class="cls-18" d="M289.5,163.42c0,15.79-12,23.28-26.89,23.28s-26.9-7.49-26.9-23.28,12-26.54,26.9-26.54S289.5,147.62,289.5,163.42Z" transform="translate(-61.89 -35.3)"/><rect class="cls-3" x="189.55" y="163.35" width="22.13" height="28.65"/><path class="cls-18" d="M248.21,196.87s6.16,12.29,13.74,14.21a10.63,10.63,0,0,0,6.14-.35c2.85-1,6.46-5.26,7.08-10l.28-2.69S262,205.41,248.21,196.87Z" transform="translate(-61.89 -35.3)"/><path class="cls-3" d="M285.85,164.51a107.9,107.9,0,0,1-2.74,24c-1.34,5.81-5.11,9.87-10.43,13.14l-1,.6a18.29,18.29,0,0,1-18.63.2h0c-5.77-3.36-9.81-7.79-11.05-14a158.2,158.2,0,0,1-2.51-23.92s-2.15-24.47,22.83-24S285.85,164.51,285.85,164.51Z" transform="translate(-61.89 -35.3)"/><path class="cls-22" d="M260.94,179.81v2a1.56,1.56,0,0,0,.11.57,1.51,1.51,0,0,0,1.8.83l1.55-.41" transform="translate(-61.89 -35.3)"/><path class="cls-18" d="M266.14,166.54l13.3,3.15s-.61-3.42-6.05-4.66S266.14,166.54,266.14,166.54Z" transform="translate(-61.89 -35.3)"/><path class="cls-18" d="M259.16,166.54l-13.46,3.15s.61-3.42,6.12-4.66S259.16,166.54,259.16,166.54Z" transform="translate(-61.89 -35.3)"/><path class="cls-18" d="M254.34,174.79a2.1,2.1,0,1,1-2.09-2.08A2.09,2.09,0,0,1,254.34,174.79Z" transform="translate(-61.89 -35.3)"/><path class="cls-18" d="M274.19,174.79a2.09,2.09,0,1,1-2.09-2.08A2.08,2.08,0,0,1,274.19,174.79Z" transform="translate(-61.89 -35.3)"/><path class="cls-8" d="M253,186.7h18.38s-1.3,5.05-9.63,5.05A9.75,9.75,0,0,1,253,186.7Z" transform="translate(-61.89 -35.3)"/><path class="cls-18" d="M239.84,172.63s10-13.51,7.69-27.19a19.67,19.67,0,0,0-9.35,13.36C236.25,168.44,239.84,172.63,239.84,172.63Z" transform="translate(-61.89 -35.3)"/><path class="cls-18" d="M285.86,172.18s-11.6-14-9.3-27.66a22.84,22.84,0,0,1,10,14.28C288.48,168.44,285.86,172.18,285.86,172.18Z" transform="translate(-61.89 -35.3)"/><path class="cls-18" d="M240.68,150.83s11.46,15.41,46.55,13c0,0-4-22-21-24.16C266.22,139.67,246.58,137.32,240.68,150.83Z" transform="translate(-61.89 -35.3)"/><path class="cls-3" d="M208.69,390.31c-.51.81,29.21-129.3,20.38-127.34-.8.18-16.25,1.62-18.55,6.29-6.66,13.53-11.43,120.07-11.43,120.07Z" transform="translate(-61.89 -35.3)"/><path class="cls-3" d="M199.09,389.33S194.3,411.55,212.41,414a2.53,2.53,0,0,0,2.73-1.68l.06-.15a2.55,2.55,0,0,0-1.41-3.15c-2.95-1.32-7.53-4.65-5.26-12.23,0,0,2.62-.32,4.06,4.56a2.1,2.1,0,0,0,2.95,1.3h0a2.1,2.1,0,0,0,1.14-2.15c-.44-3.42-2.16-11.65-8.76-13.86Z" transform="translate(-61.89 -35.3)"/><path class="cls-14" d="M205.18,300.52s17.12,24.11,17.21,23.65,6-33.86,6-33.86l-20.78-9Z" transform="translate(-61.89 -35.3)"/><path class="cls-5" d="M252.76,222.59c.73,0-42.32.77-50.19,55.13l24.74,3.79,5,41h69L315,246.72s-9.74-16.42-38.13-24.47Z" transform="translate(-61.89 -35.3)"/><path class="cls-3" d="M231.72,229.16s6.08,8.08,31,8.08c24.69,0,31-8.5,31-8.5s-14.56-8.13-31.45-10.76A111.73,111.73,0,0,0,231.72,229.16Z" transform="translate(-61.89 -35.3)"/><polygon class="cls-23" points="254.53 366.06 254.59 474.47 308.21 474.47 312.34 366.06 254.53 366.06"/><polygon class="cls-23" points="370.97 366.06 370.91 474.47 317.28 474.47 313.16 366.06 370.97 366.06"/><rect class="cls-23" x="286.23" y="366.06" width="55.45" height="37.66"/><line class="cls-24" x1="293.97" y1="403.72" x2="332.22" y2="403.72"/><path class="cls-3" d="M466.74,306.76c3.32,36.74-.19,63.5.78,131.09l-32,1.35-4.77-126.53Z" transform="translate(-61.89 -35.3)"/><path class="cls-14" d="M434.69,335.43s19.82-1.82,33.38-10.76l-.36-7.86-33,4.5Z" transform="translate(-61.89 -35.3)"/><path class="cls-6" d="M402.89,222.19s63,15.83,74.37,95.75c0,0-30.81,13.36-61.69,7.61l6.94-26.73Z" transform="translate(-61.89 -35.3)"/><path class="cls-3" d="M214.83,255.42l46.88,55.36-14.34,40.4s-35.63-49.54-51.64-87.83Z" transform="translate(-61.89 -35.3)"/><path class="cls-3" d="M216.37,257.41s-16.46,9.31-20.64,5.94c-7.32-5.88-13.37-27.4-13.37-27.4s30.79-11.6,30.5-11.15S216.37,257.41,216.37,257.41Z" transform="translate(-61.89 -35.3)"/><path class="cls-3" d="M216.37,257.41c-.29-1.65,6.11-19.53,8.3-26.23a3,3,0,0,0-2.34-3.73h0a3.42,3.42,0,0,0-3.81,1.56l-7.72,13.2Z" transform="translate(-61.89 -35.3)"/><path class="cls-3" d="M215.81,238.09l-5.3-26.37a3.33,3.33,0,0,0-3.84-2.64h0a2.88,2.88,0,0,0-2.35,3.17l2.32,19.64Z" transform="translate(-61.89 -35.3)"/><path class="cls-3" d="M205.27,228.36l-7.2-18.83a3.32,3.32,0,0,0-4.09-2h0a2.85,2.85,0,0,0-1.88,3.38l5.34,21.76Z" transform="translate(-61.89 -35.3)"/><path class="cls-3" d="M197.53,233.91l-9.11-18.5a3.6,3.6,0,0,0-4.62-1.77h0a3.15,3.15,0,0,0-1.63,4.16l7.27,17.47Z" transform="translate(-61.89 -35.3)"/><path class="cls-3" d="M182.36,236l-7.14-11.33a2.56,2.56,0,0,1,1.25-3.43h0a2.94,2.94,0,0,1,3.57,1l9.4,13Z" transform="translate(-61.89 -35.3)"/><path class="cls-25" d="M214.37,236.11s-10.73-1.13-11.84,13.17" transform="translate(-61.89 -35.3)"/><path class="cls-3" d="M237.86,332.28s8.82,30.51,26.39,26.46,44.95-41.58,44.95-41.58l-6.13-64.08-49.31,60.7Z" transform="translate(-61.89 -35.3)"/><path class="cls-14" d="M269.05,294.92s16.65,25.12,30.85,34l9.3-11.73-35.86-27.74Z" transform="translate(-61.89 -35.3)"/><path class="cls-6" d="M341.89,220.8S293,231.82,267,288.63c0,0,15.74,23.71,41,34.25l16.9-20.69Z" transform="translate(-61.89 -35.3)"/><path class="cls-6" d="M341.89,220.63a122.29,122.29,0,0,0-31.09,22.78l3.76,166.06H434.89l-.39-165.2s-15.17-14.85-31.61-22.08C388.93,216,355.47,213.67,341.89,220.63Z" transform="translate(-61.89 -35.3)"/><path class="cls-24" d="M320.21,232.77h33.47a0,0,0,0,1,0,0V249.5a16.74,16.74,0,0,1-16.74,16.74h0a16.74,16.74,0,0,1-16.74-16.74V232.77a0,0,0,0,1,0,0Z"/><line class="cls-24" x1="372.81" y1="290.86" x2="374.37" y2="236.54"/><line class="cls-24" x1="250.76" y1="281.81" x2="248.16" y2="234.72"/><path class="cls-18" d="M343.3,160l-5-24.81c-.29-2-1.07-5.14-.11-8.07,1.59-4.85,7.43-14.16,17.41-9.9l2.16,9.83s-10.37,2.09-14.53,15.64Z" transform="translate(-61.89 -35.3)"/><path class="cls-18" d="M354.85,122.31c-.18,3.26-3.06,17.53-13.17,22.73C341.68,145,332.81,126,354.85,122.31Z" transform="translate(-61.89 -35.3)"/><path class="cls-3" d="M390.35,216.06h0V173.92H351.5v42.14l-11.56,5.27s2.71,17.46,31.39,17.85,31.56-17,31.56-17Z" transform="translate(-61.89 -35.3)"/><path class="cls-18" d="M355.59,117.19s7.13-18.81,29.11-8.81c13.31,6.05,17,14.17,18.62,19.92a23.07,23.07,0,0,1,.59,6.7l-5.32,25-20.76-34.55L357.75,127Z" transform="translate(-61.89 -35.3)"/><path class="cls-14" d="M398.59,160s2.62-4.16,8-2.11,3,15.16-5.14,16.84a6.41,6.41,0,0,1-5.18-1.36S398.28,163.65,398.59,160Z" transform="translate(-61.89 -35.3)"/><path class="cls-24" d="M405.54,162.49s-4.52-1.51-7.73,5.15" transform="translate(-61.89 -35.3)"/><path class="cls-14" d="M343.3,160s-2.62-4.16-8-2.11-3,15.16,5.15,16.84a6.41,6.41,0,0,0,5.18-1.36S343.62,163.65,343.3,160Z" transform="translate(-61.89 -35.3)"/><path class="cls-24" d="M336.35,162.49s4.53-1.51,7.74,5.15" transform="translate(-61.89 -35.3)"/><path class="cls-3" d="M399.13,147.53c0,7.9-.77,24.45-5.63,34.27-4.56,9.22-12.11,14.18-22,14.47s-17.27-3.51-23.18-15.48-5.63-33.12-5.63-33.12,0-28.25,27.92-28.25C400,119.42,399.13,147.53,399.13,147.53Z" transform="translate(-61.89 -35.3)"/><path class="cls-18" d="M351.79,186.69s3.26,16.5,17.62,18.4c16.53,2.18,20.94-18,20.94-18s-7.31,9.15-18.86,9.16A25.27,25.27,0,0,1,351.79,186.69Z" transform="translate(-61.89 -35.3)"/><path class="cls-24" d="M368.92,159.25v6.54a2.15,2.15,0,0,0,.15.8,2.1,2.1,0,0,0,2.51,1.16l2.17-.57" transform="translate(-61.89 -35.3)"/><path class="cls-18" d="M360.67,156.13a2.54,2.54,0,1,1-2.54-2.54A2.54,2.54,0,0,1,360.67,156.13Z" transform="translate(-61.89 -35.3)"/><path class="cls-18" d="M384.5,156.13a2.54,2.54,0,1,1-2.54-2.54A2.54,2.54,0,0,1,384.5,156.13Z" transform="translate(-61.89 -35.3)"/><path class="cls-18" d="M375.45,143.49l17.09,4.41s-.77-4.79-7.76-6.53S375.45,143.49,375.45,143.49Z" transform="translate(-61.89 -35.3)"/><path class="cls-18" d="M364.84,143.49l-17.09,4.41s.77-4.79,7.76-6.53S364.84,143.49,364.84,143.49Z" transform="translate(-61.89 -35.3)"/><path class="cls-24" d="M361.44,172.38s2.52,1.93,9.15,1.93a23.16,23.16,0,0,0,9.79-1.93" transform="translate(-61.89 -35.3)"/><circle class="cls-26" cx="295.56" cy="121.57" r="10.8"/><circle class="cls-26" cx="322.09" cy="121.57" r="10.8"/><path class="cls-26" d="M368.25,156.87s2.55-2.38,4.93,0" transform="translate(-61.89 -35.3)"/><line class="cls-26" x1="284.76" y1="121.57" x2="281.14" y2="121.48"/><line class="cls-26" x1="332.89" y1="121.57" x2="336.93" y2="121.51"/><path class="cls-18" d="M351.79,123s5.19,14.73,28.6,14.28c15.9-.31,19.7,11.2,19.7,11.2s-2.77-25.72-3.5-25.48-24.2-6.27-24.2-6.27Z" transform="translate(-61.89 -35.3)"/></g></svg>