<?xml version="1.0" encoding="UTF-8"?>
<svg xmlns="http://www.w3.org/2000/svg" xmlns:xlink="http://www.w3.org/1999/xlink" width="810pt" height="809.999993pt" viewBox="0 0 810 809.999993" version="1.2">
<defs>
<clipPath id="clip1">
  <path d="M 43.675781 43.675781 L 766.675781 43.675781 L 766.675781 766.675781 L 43.675781 766.675781 Z M 43.675781 43.675781 "/>
</clipPath>
</defs>
<g id="surface1">
<g clip-path="url(#clip1)" clip-rule="nonzero">
<path style=" stroke:none;fill-rule:nonzero;fill:rgb(100%,100%,100%);fill-opacity:1;" d="M 676.621094 767.042969 L 134.097656 767.042969 C 84.1875 767.042969 43.675781 726.53125 43.675781 676.621094 L 43.675781 134.097656 C 43.675781 84.1875 84.1875 43.675781 134.097656 43.675781 L 676.621094 43.675781 C 726.53125 43.675781 767.039062 84.1875 767.039062 134.097656 L 767.039062 676.621094 C 767.039062 726.53125 726.53125 767.042969 676.621094 767.042969 Z M 321.449219 589.09375 C 491.980469 589.09375 585.296875 447.675781 585.296875 325.246094 C 585.296875 321.269531 585.296875 317.289062 585.113281 313.3125 C 603.199219 300.289062 618.933594 283.835938 631.410156 265.207031 C 614.773438 272.621094 596.871094 277.503906 578.0625 279.855469 C 597.230469 268.460938 611.878906 250.199219 618.933594 228.496094 C 601.027344 239.167969 581.136719 246.761719 559.976562 250.921875 C 542.980469 232.835938 518.925781 221.625 492.34375 221.625 C 441.164062 221.625 399.574219 263.21875 399.574219 314.394531 C 399.574219 321.628906 400.476562 328.683594 401.921875 335.554688 C 324.886719 331.757812 256.527344 294.683594 210.773438 238.625 C 202.816406 252.367188 198.296875 268.28125 198.296875 285.28125 C 198.296875 317.472656 214.753906 345.863281 239.527344 362.5 C 224.335938 361.957031 210.050781 357.796875 197.574219 350.925781 C 197.574219 351.289062 197.574219 351.648438 197.574219 352.191406 C 197.574219 397.039062 229.582031 434.65625 271.898438 443.15625 C 264.121094 445.324219 255.984375 446.410156 247.484375 446.410156 C 241.515625 446.410156 235.730469 445.867188 230.125 444.78125 C 241.878906 481.675781 276.238281 508.4375 316.746094 509.160156 C 284.917969 534.117188 244.953125 548.945312 201.550781 548.945312 C 194.136719 548.945312 186.722656 548.585938 179.488281 547.679688 C 220.359375 573.722656 269.1875 589.09375 321.449219 589.09375 "/>
</g>
</g>
</svg>
