<?xml version="1.0" encoding="UTF-8"?>
<svg xmlns="http://www.w3.org/2000/svg" xmlns:xlink="http://www.w3.org/1999/xlink" width="810pt" height="809.999993pt" viewBox="0 0 810 809.999993" version="1.2">
<defs>
<clipPath id="clip1">
  <path d="M 45.886719 51 L 764.386719 51 L 764.386719 760 L 45.886719 760 Z M 45.886719 51 "/>
</clipPath>
</defs>
<g id="surface1">
<g clip-path="url(#clip1)" clip-rule="nonzero">
<path style=" stroke:none;fill-rule:nonzero;fill:rgb(100%,100%,100%);fill-opacity:1;" d="M 405.136719 51.871094 C 206.738281 51.871094 45.886719 212.726562 45.886719 411.121094 C 45.886719 579.460938 161.804688 720.316406 318.078125 759.296875 C 316.402344 754.445312 315.324219 748.816406 315.324219 741.84375 L 315.324219 680.441406 C 300.742188 680.441406 276.316406 680.441406 270.175781 680.441406 C 245.597656 680.441406 223.746094 669.871094 213.144531 650.234375 C 201.382812 628.410156 199.34375 595.027344 170.1875 574.613281 C 161.535156 567.816406 168.121094 560.0625 178.089844 561.109375 C 196.5 566.320312 211.769531 578.953125 226.140625 597.695312 C 240.449219 616.464844 247.183594 620.714844 273.917969 620.714844 C 286.882812 620.714844 306.28125 619.96875 324.542969 617.09375 C 334.363281 592.15625 351.339844 569.191406 372.085938 558.355469 C 252.453125 546.050781 195.363281 486.535156 195.363281 405.734375 C 195.363281 370.945312 210.183594 337.296875 235.359375 308.945312 C 227.097656 280.804688 216.710938 223.414062 238.535156 201.558594 C 292.359375 201.558594 324.902344 236.46875 332.71875 245.898438 C 359.539062 236.707031 389 231.496094 419.953125 231.496094 C 450.96875 231.496094 480.546875 236.707031 507.433594 245.957031 C 515.15625 236.585938 547.726562 201.558594 601.675781 201.558594 C 623.589844 223.445312 613.082031 281.074219 604.730469 309.15625 C 629.757812 337.445312 644.484375 371.007812 644.484375 405.734375 C 644.484375 486.476562 587.484375 545.960938 468.035156 558.324219 C 500.90625 575.480469 524.886719 623.679688 524.886719 659.992188 L 524.886719 741.84375 C 524.886719 744.957031 524.195312 747.203125 523.835938 749.867188 C 663.824219 700.796875 764.386719 567.875 764.386719 411.121094 C 764.386719 212.726562 603.53125 51.871094 405.136719 51.871094 Z M 405.136719 51.871094 "/>
</g>
</g>
</svg>
