<svg id="surface1" xmlns="http://www.w3.org/2000/svg" width="33.791" height="33.792" viewBox="0 0 33.791 33.792">
  <path id="Path_1" data-name="Path 1" d="M259.9,243a16.9,16.9,0,1,0,16.9,16.9A16.915,16.915,0,0,0,259.9,243Zm0,32.306a15.41,15.41,0,1,1,15.41-15.41A15.428,15.428,0,0,1,259.9,275.306Zm0,0" transform="translate(-243 -243)" fill="#fff"/>
  <path id="Path_2" data-name="Path 2" d="M362.863,357.957a4.906,4.906,0,1,0,4.906,4.906A4.912,4.912,0,0,0,362.863,357.957Zm0,8.43a3.523,3.523,0,1,1,3.523-3.523A3.527,3.527,0,0,1,362.863,366.387Zm0,0" transform="translate(-345.968 -345.968)" fill="#fff"/>
  <path id="Path_3" data-name="Path 3" d="M325.125,312.43h-6.082a6.621,6.621,0,0,0-6.614,6.614v6.082a6.621,6.621,0,0,0,6.614,6.614h6.082a6.621,6.621,0,0,0,6.614-6.614v-6.082A6.621,6.621,0,0,0,325.125,312.43Zm0,17.926h-6.082a5.237,5.237,0,0,1-5.231-5.231v-6.082a5.237,5.237,0,0,1,5.231-5.231h6.082a5.237,5.237,0,0,1,5.231,5.231v6.082A5.237,5.237,0,0,1,325.125,330.356Zm0,0" transform="translate(-305.189 -305.189)" fill="#fff"/>
  <path id="Path_4" data-name="Path 4" d="M437.808,338.773a1.839,1.839,0,1,0,1.839,1.839A1.84,1.84,0,0,0,437.808,338.773Zm0,2.294a.456.456,0,1,1,.456-.456A.456.456,0,0,1,437.808,341.067Zm0,0" transform="translate(-415.843 -328.784)" fill="#fff"/>
</svg>
