<svg xmlns="http://www.w3.org/2000/svg" xmlns:xlink="http://www.w3.org/1999/xlink" width="648.246" height="642.619" viewBox="0 0 648.246 642.619">
  <defs>
    <clipPath id="clip-path">
      <path id="Path_37" data-name="Path 37" d="M269.637,344.418c25.992-1.026,34.151-26.039,36.708-40.574-10.842-3-16.444-8.285-18.1-12.246s-3.33-22.6-2.667-26.907l-37.2-1.01s.994,21.936-4.324,31.232c-2.714,4.734-8.49,6.912-14.945,7.891C231.572,313.234,241.562,345.539,269.637,344.418Z" transform="translate(-229.11 -263.68)" fill="#fff" stroke="#263238" stroke-linecap="round" stroke-linejoin="round" stroke-width="1"/>
    </clipPath>
    <clipPath id="clip-path-2">
      <path id="Path_53" data-name="Path 53" d="M304.827,457.076c-7.039-2.541-19.317-9.011-36.14-25.6-27.618-27.27-44.977-50.154-66.282-59.623s-41.821,11.442-40.637,33.93,17.754,54.052,67.071,72.2a200.125,200.125,0,0,0,57.224,11.82C303.991,482.327,305.664,466.545,304.827,457.076Z" transform="translate(-161.719 -369.519)" fill="#696969" stroke="#263238" stroke-linecap="round" stroke-linejoin="round" stroke-width="1"/>
    </clipPath>
    <clipPath id="clip-path-3">
      <path id="Path_62" data-name="Path 62" d="M250.06,457.059c7.023-2.541,19.3-9.011,36.14-25.6,27.618-27.223,44.977-50.106,66.282-59.575s41.821,11.442,40.637,33.93-17.754,54.052-67.071,72.2a200.109,200.109,0,0,1-57.24,11.82C250.9,482.309,249.24,466.528,250.06,457.059Z" transform="translate(-249.896 -369.549)" fill="#696969" stroke="#263238" stroke-linecap="round" stroke-linejoin="round" stroke-width="1"/>
    </clipPath>
  </defs>
  <g id="Mental_health-bro_1_" data-name="Mental health-bro (1)" transform="translate(-48.039 -52.119)">
    <g id="freepik--background-simple--inject-9" transform="translate(48.039 52.119)" opacity="0.07">
      <path id="Path_14" data-name="Path 14" d="M581.756,91.748S509.335,32.6,415.135,58.828,281.5,166.142,227.477,221.993c-28.3,29.212-70.086,39.975-103.7,62.463C16.3,356.356,32.244,518.022,115.1,579c71.743,52.789,161.382,58.313,278.055,19.38s200.141-62.337,272.484-173.865S670.969,172.028,581.756,91.748Z" transform="translate(-48.039 -52.119)" fill="#2a4a53"/>
    </g>
    <g id="freepik--Carpet--inject-9" transform="translate(134.776 627.956)">
      <path id="Path_16" data-name="Path 16" d="M563.82,483.282H103L149.082,417H517.738Z" transform="translate(-103 -417)" fill="#263238" stroke="#263238" stroke-linecap="round" stroke-linejoin="round" stroke-width="1" opacity="0.6"/>
    </g>
    <g id="freepik--Plants--inject-9" transform="translate(75.679 410.163)">
      <path id="Path_17" data-name="Path 17" d="M419.933,474.031s-46.619-71.1-39.675-87.414,31.563,11.663,31.563,11.663-36.14-95.573-11.663-116.562S432.8,367.979,432.8,367.979s22.094-61.785,39.627-38.475-26.829,72.264-26.829,72.264,30.3,1.168,22.094,20.989-30.3,40.8-30.3,40.8Z" transform="translate(115.986 -278.995)" fill="#2a4a53"/>
      <path id="Path_18" data-name="Path 18" d="M403.557,440.221s-27.965-39.627-13.982-47.786,20.974,16.318,20.974,16.318,1.168-107.22,23.325-99.061,13.982,73.416,13.982,73.416,27.965-18.638,26.829,8.159-38.475,50.154-38.475,50.154" transform="translate(119.517 -261.503)" fill="none" stroke="#263238" stroke-linecap="round" stroke-linejoin="round" stroke-width="1"/>
      <line id="Line_1" data-name="Line 1" x1="24.477" y1="26.813" transform="translate(524.257 154.241)" fill="none" stroke="#263238" stroke-linecap="round" stroke-linejoin="round" stroke-width="1"/>
      <line id="Line_2" data-name="Line 2" x1="1.168" y1="66.424" transform="translate(548.734 127.444)" fill="none" stroke="#263238" stroke-linecap="round" stroke-linejoin="round" stroke-width="1"/>
      <line id="Line_3" data-name="Line 3" y1="29.133" x2="22.141" transform="translate(551.07 142.594)" fill="none" stroke="#263238" stroke-linecap="round" stroke-linejoin="round" stroke-width="1"/>
      <path id="Path_19" data-name="Path 19" d="M449.919,389.29H388.15l6.171,54.778h49.428Z" transform="translate(120.957 -215.227)" fill="#263238" stroke="#263238" stroke-linecap="round" stroke-linejoin="round" stroke-width="1"/>
      <path id="Path_20" data-name="Path 20" d="M105.933,474.028s-46.619-71.1-39.675-87.414,31.563,11.663,31.563,11.663-36.187-95.6-11.71-116.562,32.636,86.262,32.636,86.262,22.094-61.785,39.627-38.475-26.829,72.264-26.829,72.264,30.3,1.168,22.094,20.989-30.3,40.8-30.3,40.8Z" transform="translate(-65.553 -278.992)" fill="#2a4a53"/>
      <path id="Path_21" data-name="Path 21" d="M96.1,434.187s-28.975-27.223-29.859-39.454,18.449,2.635,26.339,7.891S72.4,368.378,73.264,339.4s16.681-17.549,21.952-5.255,7.891,23.672,10.542,26.339,7.023-20.2,18.433-14.061c18.243,9.832-11.41,43.02-5.271,49.175s20.2-26.339,27.223-8.775-22.836,49.159-22.836,49.159" transform="translate(-65.172 -254.585)" fill="none" stroke="#263238" stroke-linecap="round" stroke-linejoin="round" stroke-width="1"/>
      <line id="Line_4" data-name="Line 4" x1="21.952" y1="65.84" transform="translate(27.408 111.994)" fill="none" stroke="#263238" stroke-linecap="round" stroke-linejoin="round" stroke-width="1"/>
      <line id="Line_5" data-name="Line 5" y1="20.185" x2="8.775" transform="translate(37.95 124.288)" fill="none" stroke="#263238" stroke-linecap="round" stroke-linejoin="round" stroke-width="1"/>
      <path id="Path_22" data-name="Path 22" d="M78.47,379.856l24.588,6.139,12.294-8.774" transform="translate(-58.085 -222.206)" fill="none" stroke="#263238" stroke-linecap="round" stroke-linejoin="round" stroke-width="1"/>
      <path id="Path_23" data-name="Path 23" d="M135.919,389.29H74.15l6.171,54.778h49.428Z" transform="translate(-60.583 -215.227)" fill="#263238" stroke="#263238" stroke-linecap="round" stroke-linejoin="round" stroke-width="1"/>
    </g>
    <g id="freepik--Character--inject-9" transform="translate(174.724 61.644)">
      <g id="freepik--Hair--inject-9" transform="translate(0)">
        <path id="Path_24" data-name="Path 24" d="M281.957,430.354s-23.151,2.1-31.563-12.625,6.313-32.62-9.469-38.933-34.719,14.74-66.282-3.156-14.74-41.032-6.313-58.912,12.625-26.308-7.37-37.876S118.871,233.606,132.553,201s48.4-17.9,66.282-34.719,2.1-36.834,1.057-64.183,35.761-48.4,71.538-43.131,43.131,43.131,43.131,67.324,37.876,30.521,55.772,3.156,32.6-33.662,58.912-22.094,4.214,50.5,16.839,56.813,23.136-24.193,61.011-6.313,16.839,65.225-2.1,76.809c-27.555,16.87,4.94,49.585,10.163,69.612,7.654,29.275-15.908,52.694-44.883,51.385-46.287-2.115-57.871-9.469-67.34,4.2s20,16.839,15.781,38.933S406.094,429.3,387.157,429.3s-30.506-16.823-50.5-8.412S291.426,435.609,281.957,430.354Z" transform="translate(-128.313 -58.155)" fill="#faf6f3"/>
      </g>
      <path id="Path_25" data-name="Path 25" d="M203.934,392.559a113.627,113.627,0,0,0-3.551,38.665c1.973,20.121,12.231,30.774,56.813,37.481s75.357,1.184,100.213-10.653,19.222-54.3,12.767-64.041-31.311-11.71-71.553-8.159-65.1-2.762-79.7-.395S203.934,392.559,203.934,392.559Z" transform="translate(-86.856 130.353)" fill="#696969" stroke="#263238" stroke-linecap="round" stroke-linejoin="round" stroke-width="1"/>
      <path id="Path_26" data-name="Path 26" d="M336.937,393.5s-21.305,5.524-36.3,9.469-16.571,5.524-3.156,7.1,38.665,0,38.665,0S300.64,426.641,281.7,430.587s-53.657-8.68-57.6-11.836,16.571-3.156,22.094-5.523,2.367-5.524-17.36-8.68-15.782,14.992,1.578,27.618,27.618,16.571,50.106,12.625,53.263-13.414,63.521-32.352S336.937,393.5,336.937,393.5Z" transform="translate(-77.825 135.725)" opacity="0.3"/>
      <path id="Path_27" data-name="Path 27" d="M197.57,313.485l-2.62,52.71s-4.734,12.246,3.788,20.106,19.506,5.539,25.25-4.656,4.955-33.788,6.407-43.115-9.9-18.938-19.222-22.426S197.57,313.485,197.57,313.485Z" transform="translate(-90.545 89.409)" fill="#fff" stroke="#263238" stroke-linecap="round" stroke-linejoin="round" stroke-width="1"/>
      <path id="Path_28" data-name="Path 28" d="M325.177,313.485l2.62,52.71s4.656,12.246-3.788,20.106-19.522,5.539-25.345-4.656-4.955-33.788-6.407-43.115,9.911-18.938,19.222-22.426S325.177,313.485,325.177,313.485Z" transform="translate(-33.602 89.409)" fill="#fff" stroke="#263238" stroke-linecap="round" stroke-linejoin="round" stroke-width="1"/>
      <path id="Path_29" data-name="Path 29" d="M270.777,263.68s.994,21.936-4.324,31.232-22.268,8.727-33.22,8.727-27.255,8.964-32.573,17.944A163.518,163.518,0,0,0,190.37,344.5l36.55,19.6s-3.993,7.654,0,18.938,9.958,15.624,8.3,21.273-23.262,45.845-25.25,52.158a59.479,59.479,0,0,0-2.32,8.964s46.177,8.98,86.372,7.654,81.732-9.311,81.732-9.311-12.294-21.589-18.938-33.883-12.625-24.919-11.3-29.243,8.98-15.939,8.648-36.219c0,0,29.559-7.638,40.527-19.932,0,0-12.957-32.226-26.245-37.544s-28.565,0-39.454-2.983-16.618-8.317-18.275-12.294-3.33-22.6-2.667-26.907Z" transform="translate(-92.435 60.67)" fill="#2a4a53" stroke="#263238" stroke-linecap="round" stroke-linejoin="round" stroke-width="1"/>
      <path id="Path_30" data-name="Path 30" d="M221.639,349.964s-11.047-11.836,1.578-13.414,30.774,11.047,50.5,15.781,43.4-16.571,53.657-13.414,3.945,18.938-7.1,26.039-41.821,6.313-59.181,5.524S235.053,364.956,221.639,349.964Z" transform="translate(-76.943 102.721)" opacity="0.3"/>
      <path id="Path_31" data-name="Path 31" d="M229,349.914s6.013,4.813,22.094,4.813,28.407-7.212,39.675-5.208" transform="translate(-70.101 110.094)" fill="none" stroke="#263238" stroke-linecap="round" stroke-linejoin="round" stroke-width="1"/>
      <path id="Path_32" data-name="Path 32" d="M224.68,350.4s6.8,5.618,20.832,6.013" transform="translate(-72.598 110.807)" fill="none" stroke="#263238" stroke-linecap="round" stroke-linejoin="round" stroke-width="1"/>
      <path id="Path_33" data-name="Path 33" d="M213.53,331.5s1.152-5.95,8.775-11.568" transform="translate(-79.045 93.191)" fill="none" stroke="#263238" stroke-linecap="round" stroke-linejoin="round" stroke-width="1"/>
      <path id="Path_34" data-name="Path 34" d="M297.779,332.564s-2.667-11.489-9.879-13.9" transform="translate(-36.048 92.457)" fill="none" stroke="#263238" stroke-linecap="round" stroke-linejoin="round" stroke-width="1"/>
      <path id="Path_35" data-name="Path 35" d="M269.637,344.418c25.992-1.026,34.151-26.039,36.708-40.574-10.842-3-16.444-8.285-18.1-12.246s-3.33-22.6-2.667-26.907l-37.2-1.01s.994,21.936-4.324,31.232c-2.714,4.734-8.49,6.912-14.945,7.891C231.572,313.234,241.562,345.539,269.637,344.418Z" transform="translate(-70.037 60.67)" fill="#fff"/>
      <g id="Group_5" data-name="Group 5" transform="translate(159.073 324.35)" clip-path="url(#clip-path)">
        <path id="Path_36" data-name="Path 36" d="M279.378,280.061a88.373,88.373,0,0,1-.647-15.371l-37.2-1.01a122.933,122.933,0,0,1-.584,16.934C247.484,284.89,260.724,290,279.378,280.061Z" transform="translate(-222.265 -263.68)" opacity="0.3"/>
      </g>
      <path id="Path_38" data-name="Path 38" d="M269.637,344.418c25.992-1.026,34.151-26.039,36.708-40.574-10.842-3-16.444-8.285-18.1-12.246s-3.33-22.6-2.667-26.907l-37.2-1.01s.994,21.936-4.324,31.232c-2.714,4.734-8.49,6.912-14.945,7.891C231.572,313.234,241.562,345.539,269.637,344.418Z" transform="translate(-70.037 60.67)" fill="none" stroke="#263238" stroke-linecap="round" stroke-linejoin="round" stroke-width="1"/>
      <path id="Path_39" data-name="Path 39" d="M235.482,236.661s-4.734-7.717-9.39-3.014,0,14.077,3.014,18.433,8.711,7.7,10.053,6.029S235.482,236.661,235.482,236.661Z" transform="translate(-72.922 42.428)" fill="#fff" stroke="#263238" stroke-linecap="round" stroke-linejoin="round" stroke-width="1"/>
      <path id="Path_40" data-name="Path 40" d="M278.7,236.015s6.707-8.711,10.4-.331-6.313,21.116-11.047,23.467-2.351-5.366-2.02-8.049S278.7,236.015,278.7,236.015Z" transform="translate(-43.422 42.379)" fill="#fff" stroke="#263238" stroke-linecap="round" stroke-linejoin="round" stroke-width="1"/>
      <path id="Path_41" data-name="Path 41" d="M229,219.573s2.351,31.847,4.024,47.928,7.67,30.506,26.1,35.24,33.141-1.673,38.554-12.4,8.38-31.168,8.38-47.928V215.58S258.464,202.15,229,219.573Z" transform="translate(-70.101 30.004)" fill="#fff" stroke="#263238" stroke-linecap="round" stroke-linejoin="round" stroke-width="1"/>
      <path id="Path_42" data-name="Path 42" d="M251.49,245.18a12.452,12.452,0,0,0,5.7,2.02,14.583,14.583,0,0,0,6.029-2.02" transform="translate(-57.098 49.974)" fill="none" stroke="#263238" stroke-linecap="round" stroke-linejoin="round" stroke-width="1"/>
      <path id="Path_43" data-name="Path 43" d="M248.73,252.019s8.38,5.366,20.516-.679" transform="translate(-58.694 53.535)" fill="none" stroke="#263238" stroke-linecap="round" stroke-linejoin="round" stroke-width="1"/>
      <path id="Path_44" data-name="Path 44" d="M240.24,234.626s7.039-.994,11.047,1.689" transform="translate(-63.602 43.768)" fill="none" stroke="#263238" stroke-linecap="round" stroke-linejoin="round" stroke-width="2"/>
      <path id="Path_45" data-name="Path 45" d="M261.05,235.993s6.707-3.346,13.067-.331" transform="translate(-51.571 43.743)" fill="none" stroke="#263238" stroke-linecap="round" stroke-linejoin="round" stroke-width="2"/>
      <path id="Path_46" data-name="Path 46" d="M230.988,243.644a53.294,53.294,0,0,0,5.35-12.357,37.244,37.244,0,0,0,1.846-17.707A55.633,55.633,0,0,0,229,217.873S229.884,230.356,230.988,243.644Z" transform="translate(-70.101 31.704)" fill="#263238" stroke="#263238" stroke-linecap="round" stroke-linejoin="round" stroke-width="1"/>
      <path id="Path_47" data-name="Path 47" d="M280.982,241.6V214.457s-3.283-.915-8.632-1.957C272.7,217.708,274.26,233.411,280.982,241.6Z" transform="translate(-45.038 31.08)" fill="#263238" stroke="#263238" stroke-linecap="round" stroke-linejoin="round" stroke-width="1"/>
      <path id="Path_48" data-name="Path 48" d="M238.54,229.257s5.7-7.7,17.754-5.366" transform="translate(-64.585 37.411)" fill="none" stroke="#263238" stroke-linecap="round" stroke-linejoin="round" stroke-width="1"/>
      <path id="Path_49" data-name="Path 49" d="M260.62,224.736A16.4,16.4,0,0,1,277,227.75" transform="translate(-51.82 37.577)" fill="none" stroke="#263238" stroke-linecap="round" stroke-linejoin="round" stroke-width="1"/>
      <path id="Path_50" data-name="Path 50" d="M311.692,458.654s-15.387,0-43-27.223-44.977-50.106-66.282-59.575-41.821,11.442-40.637,33.93,17.754,54.052,67.071,72.2,91.533,10.653,95.873,10.653,25.645,10.653,38.27,11.836a98.219,98.219,0,0,0,20.911,0s3.551.395,5.524.395,4.34-2.367,4.34-2.367,3.993,1.042,5.571-1.72.347-3.8.347-3.8,6.754.584,9.122-3.756-1.01-4.166-1.01-4.166,4.624-.9,4.513-4.624a8.1,8.1,0,0,0-.789-4.024s2.762-4.34,1.578-7.891-5.524-4.734-9.863-2.762-25.25,1.184-42.216,0S311.692,458.654,311.692,458.654Z" transform="translate(-108.999 121.861)" fill="#fff" stroke="#263238" stroke-linecap="round" stroke-linejoin="round" stroke-width="1"/>
      <path id="Path_51" data-name="Path 51" d="M304.827,457.076c-7.039-2.541-19.317-9.011-36.14-25.6-27.618-27.27-44.977-50.154-66.282-59.623s-41.821,11.442-40.637,33.93,17.754,54.052,67.071,72.2a200.125,200.125,0,0,0,57.224,11.82C303.991,482.327,305.664,466.545,304.827,457.076Z" transform="translate(-108.999 121.861)" fill="#696969"/>
      <g id="Group_6" data-name="Group 6" transform="translate(52.72 491.38)" clip-path="url(#clip-path-2)">
        <path id="Path_52" data-name="Path 52" d="M298.118,478.637c-7.78-2.951-16.87-6.107-27.065-9.216-36.3-11.047-63.126-24.461-81.275-44.977s-11.836-46.555-11.836-46.555L173.76,374.1a36.85,36.85,0,0,0-11.994,29.038c1.184,22.489,17.754,54.052,67.071,72.2a200.125,200.125,0,0,0,57.224,11.82,31.405,31.405,0,0,0,12.057-8.522Z" transform="translate(-161.717 -366.871)" opacity="0.3"/>
      </g>
      <path id="Path_54" data-name="Path 54" d="M304.827,457.076c-7.039-2.541-19.317-9.011-36.14-25.6-27.618-27.27-44.977-50.154-66.282-59.623s-41.821,11.442-40.637,33.93,17.754,54.052,67.071,72.2a200.125,200.125,0,0,0,57.224,11.82C303.991,482.327,305.664,466.545,304.827,457.076Z" transform="translate(-108.999 121.861)" fill="none" stroke="#263238" stroke-linecap="round" stroke-linejoin="round" stroke-width="1"/>
      <path id="Path_55" data-name="Path 55" d="M322.81,437.536a8.869,8.869,0,0,0-7.67.189" transform="translate(-20.299 160.734)" fill="#fff" stroke="#263238" stroke-linecap="round" stroke-linejoin="round" stroke-width="1"/>
      <path id="Path_56" data-name="Path 56" d="M319.953,442.933a9.264,9.264,0,0,0-6.313,0" transform="translate(-21.166 163.985)" fill="#fff" stroke="#263238" stroke-linecap="round" stroke-linejoin="round" stroke-width="1"/>
      <path id="Path_57" data-name="Path 57" d="M314.362,448.306a7.559,7.559,0,0,0-5.082-1.5" transform="translate(-23.687 166.534)" fill="#fff" stroke="#263238" stroke-linecap="round" stroke-linejoin="round" stroke-width="1"/>
      <path id="Path_58" data-name="Path 58" d="M310.016,452.116s-1.689-3.046-4.166-3.046" transform="translate(-25.67 167.853)" fill="#fff" stroke="#263238" stroke-linecap="round" stroke-linejoin="round" stroke-width="1"/>
      <path id="Path_59" data-name="Path 59" d="M282.914,458.654s15.387,0,43-27.223S370.9,381.325,392.2,371.856s41.821,11.442,40.637,33.93-17.754,54.052-67.071,72.2-91.533,10.653-95.873,10.653-25.645,10.653-38.27,11.836a98.219,98.219,0,0,1-20.91,0s-3.551.395-5.524.395-4.34-2.367-4.34-2.367-3.993,1.042-5.571-1.72-.347-3.8-.347-3.8-6.77.584-9.138-3.756,1.01-4.166,1.01-4.166-4.624-.9-4.514-4.624a7.89,7.89,0,0,1,.8-4.024s-2.762-4.34-1.578-7.891,5.524-4.734,9.863-2.762,25.25,1.184,42.216,0S282.914,458.654,282.914,458.654Z" transform="translate(-97.723 121.861)" fill="#fff" stroke="#263238" stroke-linecap="round" stroke-linejoin="round" stroke-width="1"/>
      <path id="Path_60" data-name="Path 60" d="M250.06,457.059c7.023-2.541,19.3-9.011,36.14-25.6,27.618-27.223,44.977-50.106,66.282-59.575s41.821,11.442,40.637,33.93-17.754,54.052-67.071,72.2a200.109,200.109,0,0,1-57.24,11.82C250.9,482.309,249.24,466.528,250.06,457.059Z" transform="translate(-58.02 121.878)" fill="#696969"/>
      <g id="Group_7" data-name="Group 7" transform="translate(191.876 491.428)" clip-path="url(#clip-path-3)">
        <path id="Path_61" data-name="Path 61" d="M389.791,405.306c.821-15.671-8.9-30.553-22.094-34.956l-5.776,4.182s19.727,11.836,14.992,34.719-43.4,46.555-74.173,59.181a350.818,350.818,0,0,1-47.061,14.724,32.9,32.9,0,0,0,9.8,6.171,200.112,200.112,0,0,0,57.24-11.82C372.037,459.358,388.608,427.795,389.791,405.306Z" transform="translate(-246.551 -369.086)" opacity="0.3"/>
      </g>
      <path id="Path_63" data-name="Path 63" d="M250.06,457.059c7.023-2.541,19.3-9.011,36.14-25.6,27.618-27.223,44.977-50.106,66.282-59.575s41.821,11.442,40.637,33.93-17.754,54.052-67.071,72.2a200.109,200.109,0,0,1-57.24,11.82C250.9,482.309,249.24,466.528,250.06,457.059Z" transform="translate(-58.02 121.878)" fill="none" stroke="#263238" stroke-linecap="round" stroke-linejoin="round" stroke-width="1"/>
      <path id="Path_64" data-name="Path 64" d="M182.41,437.536a8.869,8.869,0,0,1,7.67.189" transform="translate(-97.037 160.734)" fill="#fff" stroke="#263238" stroke-linecap="round" stroke-linejoin="round" stroke-width="1"/>
      <path id="Path_65" data-name="Path 65" d="M184.76,442.933a9.264,9.264,0,0,1,6.313,0" transform="translate(-95.678 163.985)" fill="#fff" stroke="#263238" stroke-linecap="round" stroke-linejoin="round" stroke-width="1"/>
      <path id="Path_66" data-name="Path 66" d="M189.91,448.306a7.559,7.559,0,0,1,5.082-1.5" transform="translate(-92.701 166.534)" fill="#fff" stroke="#263238" stroke-linecap="round" stroke-linejoin="round" stroke-width="1"/>
      <path id="Path_67" data-name="Path 67" d="M193.92,452.156s1.7-3.156,4.166-3.156" transform="translate(-90.382 167.813)" fill="#fff" stroke="#263238" stroke-linecap="round" stroke-linejoin="round" stroke-width="1"/>
      <path id="Path_68" data-name="Path 68" d="M235.279,349.111s-5.823-1.168-16.3,4.072-20.106,14.566-25.645,17.77-9.311,5.255-14.2.3S163.694,352.6,153.784,352.9s-13.4,13.982-11.647,16.886,4.371,3.5,6.407,1.168,4.656-6.991,7.275-5.239,1.168,9.911-2.9,11.363-15.15,8.443-12.531,12.531,17.486,9.611,28.549,10.479,24.761-6.691,33.788-8.159,33.5-3.156,44.851-12.515a23.83,23.83,0,0,0,8.459-22.441" transform="translate(-121.563 109.997)" fill="#fff" stroke="#263238" stroke-linecap="round" stroke-linejoin="round" stroke-width="1"/>
      <path id="Path_69" data-name="Path 69" d="M144.388,375.891s-1.152-12.815-4.94-13.7-4.371,7.891-3.788,16.318,5.239,10.779,8.143,8.443S144.388,375.891,144.388,375.891Z" transform="translate(-124.177 117.589)" fill="#fff" stroke="#263238" stroke-linecap="round" stroke-linejoin="round" stroke-width="1"/>
      <path id="Path_70" data-name="Path 70" d="M150.263,378.467s1.1-12.83-2.462-14.361-5.681,6.975-6.612,15.387,3.267,11.536,6.549,9.769S150.263,378.467,150.263,378.467Z" transform="translate(-120.945 118.627)" fill="#fff" stroke="#263238" stroke-linecap="round" stroke-linejoin="round" stroke-width="1"/>
      <path id="Path_71" data-name="Path 71" d="M155.236,380.321s1.12-12.815-2.462-14.345-5.681,6.975-6.6,15.387,3.251,11.536,6.534,9.753S155.236,380.321,155.236,380.321Z" transform="translate(-118.059 119.708)" fill="#fff" stroke="#263238" stroke-linecap="round" stroke-linejoin="round" stroke-width="1"/>
      <path id="Path_72" data-name="Path 72" d="M171.33,388.057a38.222,38.222,0,0,1-16.886,3.5,62.3,62.3,0,0,1-.584-7.291c0-3.156,6.691-16.3,16.6-15.434" transform="translate(-113.543 121.442)" fill="#fff" stroke="#263238" stroke-linecap="round" stroke-linejoin="round" stroke-width="1"/>
      <path id="Path_73" data-name="Path 73" d="M160.74,382.887s3.709-10.037.647-12.373-6.833,3.882-9.469,10.416.694,10.353,4.166,9.927S160.74,382.887,160.74,382.887Z" transform="translate(-115.215 122.146)" fill="#fff" stroke="#263238" stroke-linecap="round" stroke-linejoin="round" stroke-width="1"/>
      <path id="Path_74" data-name="Path 74" d="M316.517,349.111s5.823-1.168,16.318,4.072,20.09,14.566,25.629,17.77,9.327,5.255,14.282.3S388.181,352.6,398.076,352.9s13.4,13.982,11.663,16.886-4.371,3.5-6.407,1.168-4.734-6.991-7.291-5.239-1.168,9.911,2.92,11.363,15.15,8.443,12.515,12.531-17.47,9.611-28.533,10.479-24.761-6.691-33.8-8.159-33.488-3.156-44.851-12.515a23.8,23.8,0,0,1-8.443-22.441" transform="translate(-31.65 109.997)" fill="#fff" stroke="#263238" stroke-linecap="round" stroke-linejoin="round" stroke-width="1"/>
      <path id="Path_75" data-name="Path 75" d="M368.394,375.891s1.168-12.815,4.955-13.7,4.371,7.891,3.788,16.318-5.239,10.779-8.159,8.443S368.394,375.891,368.394,375.891Z" transform="translate(9.979 117.589)" fill="#fff" stroke="#263238" stroke-linecap="round" stroke-linejoin="round" stroke-width="1"/>
      <path id="Path_76" data-name="Path 76" d="M362.371,378.467s-1.12-12.83,2.446-14.361,5.7,6.975,6.612,15.387-3.235,11.536-6.534,9.8S362.371,378.467,362.371,378.467Z" transform="translate(6.912 118.627)" fill="#fff" stroke="#263238" stroke-linecap="round" stroke-linejoin="round" stroke-width="1"/>
      <path id="Path_77" data-name="Path 77" d="M357.379,380.321s-1.1-12.815,2.462-14.345,5.7,6.975,6.612,15.387-3.267,11.536-6.534,9.753S357.379,380.321,357.379,380.321Z" transform="translate(4.028 119.708)" fill="#fff" stroke="#263238" stroke-linecap="round" stroke-linejoin="round" stroke-width="1"/>
      <path id="Path_78" data-name="Path 78" d="M344.26,388.057a38.27,38.27,0,0,0,16.949,3.5,62.287,62.287,0,0,0,.584-7.291c0-3.156-6.707-16.3-16.618-15.434" transform="translate(-3.463 121.442)" fill="#fff" stroke="#263238" stroke-linecap="round" stroke-linejoin="round" stroke-width="1"/>
      <path id="Path_79" data-name="Path 79" d="M352.681,382.887s-3.709-10.037-.647-12.373,6.818,3.882,9.469,10.416-.694,10.353-4.166,9.927S352.681,382.887,352.681,382.887Z" transform="translate(0.331 122.146)" fill="#fff" stroke="#263238" stroke-linecap="round" stroke-linejoin="round" stroke-width="1"/>
    </g>
    <g id="freepik--Graphics--inject-9" transform="translate(227.491 109.376)">
      <path id="Path_80" data-name="Path 80" d="M281.273,204.868c-3.709-5.382-9.469-.142-10.952,1.468-1.578-1.578-7.244-6.849-10.937-1.468-4.024,5.855,10.81,18.054,10.937,17.991S285.249,210.723,281.273,204.868Z" transform="translate(-105.702 -22.434)" fill="none" stroke="#2a4a53" stroke-linecap="round" stroke-linejoin="round" stroke-width="1"/>
      <path id="Path_81" data-name="Path 81" d="M258.5,231.57a42.878,42.878,0,0,0-18.054-14.061c-11.552-4.514-4.024-13.541.994-11.047a70.638,70.638,0,0,0,10.037,4.008s-13.051-10.542-13.541-19.569,13.541,2.509,13.541,2.509-17.06-23.483-11.536-27.586,10.526,3.519,14.046,10.037a125.5,125.5,0,0,1,6.518,15.056s-.994-16.555,4.529-11.536,2,30.111,2,30.111,7.528-20.516,11.047-9.469S260.01,230.055,258.5,231.57Z" transform="translate(-119.775 -44.306)" fill="none" stroke="#2a4a53" stroke-linecap="round" stroke-linejoin="round" stroke-width="1"/>
      <path id="Path_82" data-name="Path 82" d="M252.772,227.3s8.033-24.1-8.522-55.235" transform="translate(-114.051 -40.032)" fill="none" stroke="#2a4a53" stroke-linecap="round" stroke-linejoin="round" stroke-width="1"/>
      <path id="Path_83" data-name="Path 83" d="M249.458,115.686a31.721,31.721,0,0,0-16.365,4.4c-7.891,4.734-9.785-3.677-6.06-5.524a54.083,54.083,0,0,0,6.849-4.135s-12.057,3-17.612-.742,7.528-6.881,7.528-6.881-21.542-.442-21.447-5.492,6.77-4.734,12.2-3.819a94.833,94.833,0,0,1,11.8,2.856s-10.226-6.8-4.813-7.891,18.685,12.246,18.685,12.246-8.79-13.619-.71-10.779S249.237,114.124,249.458,115.686Z" transform="translate(-138.276 -88.4)" fill="none" stroke="#2a4a53" stroke-linecap="round" stroke-linejoin="round" stroke-width="1"/>
      <path id="Path_84" data-name="Path 84" d="M245.538,112.871s-10.637-15.5-36.408-19.6" transform="translate(-134.356 -85.584)" fill="none" stroke="#2a4a53" stroke-linecap="round" stroke-linejoin="round" stroke-width="1"/>
      <path id="Path_85" data-name="Path 85" d="M303.81,172.444a6.092,6.092,0,0,0-1.326.174,5.76,5.76,0,1,0-9.69-4.892,5.76,5.76,0,1,0-8.869,6.912,5.76,5.76,0,1,0,6.628,9.248,5.744,5.744,0,0,0,11.457-.205,6.154,6.154,0,0,0,1.8.316,5.776,5.776,0,0,0,0-11.552Z" transform="translate(-92.952 -45.45)" fill="none" stroke="#2a4a53" stroke-linecap="round" stroke-linejoin="round" stroke-width="1"/>
      <circle id="Ellipse_2" data-name="Ellipse 2" cx="3.993" cy="3.993" r="3.993" transform="translate(197.034 127.546)" fill="none" stroke="#2a4a53" stroke-linecap="round" stroke-linejoin="round" stroke-width="1"/>
      <path id="Path_86" data-name="Path 86" d="M230.63,201.24a6.125,6.125,0,0,0-1.341.174,5.76,5.76,0,1,0-9.674-4.892,5.757,5.757,0,1,0-8.869,6.912,5.76,5.76,0,1,0,6.628,9.248,5.744,5.744,0,0,0,11.442-.205,5.682,5.682,0,0,0,1.815.316,5.776,5.776,0,0,0,0-11.552Z" transform="translate(-135.261 -28.811)" fill="none" stroke="#2a4a53" stroke-linecap="round" stroke-linejoin="round" stroke-width="1"/>
      <circle id="Ellipse_3" data-name="Ellipse 3" cx="3.993" cy="3.993" r="3.993" transform="translate(81.529 172.981)" fill="none" stroke="#2a4a53" stroke-linecap="round" stroke-linejoin="round" stroke-width="1"/>
      <path id="Path_87" data-name="Path 87" d="M225.442,154.484a3.681,3.681,0,0,0-.836.11,3.519,3.519,0,0,0,1.12-2.588,3.582,3.582,0,1,0-7.15-.458,3.582,3.582,0,1,0-5.507,4.308,3.535,3.535,0,0,0-1.988,3.156,3.6,3.6,0,0,0,6.186,2.6,3.582,3.582,0,0,0,7.133-.142,3.283,3.283,0,0,0,1.12.205,3.6,3.6,0,0,0,0-7.2Z" transform="translate(-133.229 -53.829)" fill="none" stroke="#2a4a53" stroke-linecap="round" stroke-linejoin="round" stroke-width="1"/>
      <circle id="Ellipse_4" data-name="Ellipse 4" cx="2.493" cy="2.493" r="2.493" transform="translate(83.596 100.986)" fill="none" stroke="#2a4a53" stroke-linecap="round" stroke-linejoin="round" stroke-width="1"/>
      <path id="Path_88" data-name="Path 88" d="M204.823,224.214a3.55,3.55,0,0,0-.821.111,3.578,3.578,0,1,0-6.029-3.046,3.582,3.582,0,1,0-5.523,4.308,3.582,3.582,0,1,0,4.119,5.76,3.582,3.582,0,0,0,7.133-.142,3.361,3.361,0,0,0,1.121.205,3.6,3.6,0,0,0,0-7.2Z" transform="translate(-145.136 -13.373)" fill="none" stroke="#2a4a53" stroke-linecap="round" stroke-linejoin="round" stroke-width="1"/>
      <circle id="Ellipse_5" data-name="Ellipse 5" cx="2.493" cy="2.493" r="2.493" transform="translate(51.07 211.173)" fill="none" stroke="#2a4a53" stroke-linecap="round" stroke-linejoin="round" stroke-width="1"/>
      <path id="Path_89" data-name="Path 89" d="M249.1,116.51a3.55,3.55,0,0,0-.821.11,3.582,3.582,0,1,0-6.029-3.062,3.582,3.582,0,0,0-6.818,1.578,3.519,3.519,0,0,0,1.294,2.73,3.582,3.582,0,0,0,1.578,6.8,3.535,3.535,0,0,0,2.509-1.042,3.582,3.582,0,0,0,7.133-.126,3.8,3.8,0,0,0,1.121.205,3.6,3.6,0,0,0,0-7.2Z" transform="translate(-119.564 -75.651)" fill="none" stroke="#2a4a53" stroke-linecap="round" stroke-linejoin="round" stroke-width="1"/>
      <circle id="Ellipse_6" data-name="Ellipse 6" cx="2.493" cy="2.493" r="2.493" transform="translate(120.919 41.19)" fill="none" stroke="#2a4a53" stroke-linecap="round" stroke-linejoin="round" stroke-width="1"/>
      <path id="Path_90" data-name="Path 90" d="M297.941,130.984a3.678,3.678,0,0,0-.836.11,3.519,3.519,0,0,0,1.12-2.588,3.582,3.582,0,1,0-7.15-.458,3.582,3.582,0,1,0-5.507,4.308,3.535,3.535,0,0,0-1.989,3.156,3.6,3.6,0,0,0,6.107,2.572,3.582,3.582,0,0,0,7.133-.142,3.283,3.283,0,0,0,1.121.205,3.6,3.6,0,0,0,0-7.2Z" transform="translate(-91.313 -67.416)" fill="none" stroke="#2a4a53" stroke-linecap="round" stroke-linejoin="round" stroke-width="1"/>
      <circle id="Ellipse_7" data-name="Ellipse 7" cx="2.493" cy="2.493" r="2.493" transform="translate(198.012 63.899)" fill="none" stroke="#2a4a53" stroke-linecap="round" stroke-linejoin="round" stroke-width="1"/>
      <path id="Path_91" data-name="Path 91" d="M263,166.285a103.43,103.43,0,0,1,7.37-15.782c3.677-5.792,16.823-6.833,16.823-6.833s-6.833,11.047-9.99,16.3S263,166.285,263,166.285Z" transform="translate(-103.211 -56.445)" fill="none" stroke="#2a4a53" stroke-linecap="round" stroke-linejoin="round" stroke-width="1"/>
      <path id="Path_92" data-name="Path 92" d="M263,165.707s9.99-14.2,21.573-21.037" transform="translate(-103.211 -55.867)" fill="none" stroke="#2a4a53" stroke-linecap="round" stroke-linejoin="round" stroke-width="1"/>
      <path id="Path_93" data-name="Path 93" d="M166.87,191.325a104.154,104.154,0,0,1,17.249-2.415c6.849,0,14.913,10.384,14.913,10.384s-13,.284-19.127.505S166.87,191.325,166.87,191.325Z" transform="translate(-158.789 -30.29)" fill="none" stroke="#2a4a53" stroke-linecap="round" stroke-linejoin="round" stroke-width="1"/>
      <path id="Path_94" data-name="Path 94" d="M166.87,190.44s17.36.647,29.4,6.612" transform="translate(-158.789 -29.405)" fill="none" stroke="#2a4a53" stroke-linecap="round" stroke-linejoin="round" stroke-width="1"/>
      <path id="Path_95" data-name="Path 95" d="M321.16,186.94s-2.557-11.883-8.127-11.189-1.073,14.677-1.073,14.677-7.323,2.083-6.975,5.224,5.555.521,10.069-.174c0,0-1.815,8.159,3.062,9.469s3.945-10.763,3.945-10.763,10.889,2.225,13.951-2.651C339.562,185.93,325.69,186.23,321.16,186.94Z" transform="translate(-78.944 -37.915)" fill="none" stroke="#2a4a53" stroke-linecap="round" stroke-linejoin="round" stroke-width="1"/>
      <path id="Path_96" data-name="Path 96" d="M318.743,180.92S308.58,196.37,309.179,198s11.6-13.414,13.43-15.245S321.189,178.269,318.743,180.92Z" transform="translate(-76.527 -35.557)" fill="#263238" stroke="#2a4a53" stroke-linecap="round" stroke-linejoin="round" stroke-width="1"/>
      <path id="Path_97" data-name="Path 97" d="M317.68,183.223s6.707-6.107,9.958-3.661-.6,2.841-1.01,2.036" transform="translate(-71.598 -36.029)" fill="none" stroke="#2a4a53" stroke-linecap="round" stroke-linejoin="round" stroke-width="1"/>
      <path id="Path_98" data-name="Path 98" d="M316.48,183.918s1.831-8.948-.205-10.779-2.856.615-1.42,2.036" transform="translate(-73.649 -39.786)" fill="none" stroke="#2a4a53" stroke-linecap="round" stroke-linejoin="round" stroke-width="1"/>
      <path id="Path_99" data-name="Path 99" d="M266.161,136.838c-5.429-7.891-13.825-.205-16.081,2.146-2.273-2.351-10.668-10.069-16.1-2.146-5.918,8.6,15.892,26.529,16.1,26.45S272.048,145.424,266.161,136.838Z" transform="translate(-120.576 -62.413)" fill="none" stroke="#2a4a53" stroke-linecap="round" stroke-linejoin="round" stroke-width="1"/>
      <path id="Path_100" data-name="Path 100" d="M213.581,116.382c-5.618-3.346-8.6,3.8-9.343,5.887-2.067-.8-9.469-3.156-10.558,3.251-1.2,6.991,17.36,11.883,17.47,11.773S219.673,120.011,213.581,116.382Z" transform="translate(-143.32 -72.73)" fill="none" stroke="#2a4a53" stroke-linecap="round" stroke-linejoin="round" stroke-width="1"/>
      <path id="Path_101" data-name="Path 101" d="M178.217,157.308c-6.518-.489-6.013,7.244-5.729,9.469-2.209.205-9.879,1.357-8,7.607,2.036,6.8,20.847,2.888,20.879,2.746S185.287,157.845,178.217,157.308Z" transform="translate(-160.336 -48.573)" fill="none" stroke="#2a4a53" stroke-linecap="round" stroke-linejoin="round" stroke-width="1"/>
      <path id="Path_102" data-name="Path 102" d="M310.952,230.315c5.176-3.993-.363-9.469-2.036-10.858,1.578-1.578,6.455-7.607.884-11.047-6.06-3.709-17.454,11.757-17.36,11.883S305.334,234.639,310.952,230.315Z" transform="translate(-86.19 -19.348)" fill="none" stroke="#2a4a53" stroke-linecap="round" stroke-linejoin="round" stroke-width="1"/>
      <path id="Path_103" data-name="Path 103" d="M285.05,157.833a54.936,54.936,0,0,1,11.757-8.333" transform="translate(-90.463 -53.075)" fill="none" stroke="#2a4a53" stroke-linecap="round" stroke-linejoin="round" stroke-width="1"/>
      <path id="Path_104" data-name="Path 104" d="M266.5,214.894s3.693-31.421,20.989-54.3" transform="translate(-101.187 -46.663)" fill="none" stroke="#2a4a53" stroke-linecap="round" stroke-linejoin="round" stroke-width="1"/>
      <path id="Path_105" data-name="Path 105" d="M236.94,203.45a67.542,67.542,0,0,1,4.04,7.181" transform="translate(-118.277 -21.884)" fill="none" stroke="#2a4a53" stroke-linecap="round" stroke-linejoin="round" stroke-width="1"/>
      <path id="Path_106" data-name="Path 106" d="M199.71,179.82a26.529,26.529,0,0,0,7.559,4.229c12.483,4.734,29.906,9.469,43.462,23.388" transform="translate(-139.802 -35.545)" fill="none" stroke="#2a4a53" stroke-linecap="round" stroke-linejoin="round" stroke-width="1"/>
      <path id="Path_107" data-name="Path 107" d="M196.089,170.5a14.487,14.487,0,0,0,1.578,9.674" transform="translate(-142.036 -40.934)" fill="none" stroke="#2a4a53" stroke-linecap="round" stroke-linejoin="round" stroke-width="1"/>
      <path id="Path_108" data-name="Path 108" d="M288.41,123.22a43.083,43.083,0,0,0,9.611-12.72" transform="translate(-88.52 -75.623)" fill="none" stroke="#2a4a53" stroke-linecap="round" stroke-linejoin="round" stroke-width="1"/>
      <path id="Path_109" data-name="Path 109" d="M258.78,162.193a65.665,65.665,0,0,1,10.605-17.8c8.98-10.684,18.654-15.782,27.255-21.542" transform="translate(-105.651 -68.483)" fill="none" stroke="#2a4a53" stroke-linecap="round" stroke-linejoin="round" stroke-width="1"/>
      <path id="Path_110" data-name="Path 110" d="M255.5,168.052a59.894,59.894,0,0,1,1.028-11.06" transform="translate(-107.547 -48.743)" fill="none" stroke="#2a4a53" stroke-linecap="round" stroke-linejoin="round" stroke-width="1"/>
      <path id="Path_111" data-name="Path 111" d="M286.68,208.673c6.565-3.314,15.781-5.808,28.123-4.861,30.774,2.367,44.977,11.836,58.392-6.313" transform="translate(-89.52 -25.324)" fill="none" stroke="#2a4a53" stroke-linecap="round" stroke-linejoin="round" stroke-width="1"/>
      <path id="Path_112" data-name="Path 112" d="M278,214.151a27.429,27.429,0,0,1,5.113-5.871" transform="translate(-94.539 -19.091)" fill="none" stroke="#2a4a53" stroke-linecap="round" stroke-linejoin="round" stroke-width="1"/>
      <path id="Path_113" data-name="Path 113" d="M323.056,169.7h-4.214c-2.541,0-7.181-2.951-5.066-5.492s9.28,3.377,9.28,3.377l-6.313-19.837,13.509-6.313,5.492,18.575s-8.443-3.377-9.3.41,5.492,3.377,9.3,1.689" transform="translate(-74.165 -57.735)" fill="none" stroke="#2a4a53" stroke-linecap="round" stroke-linejoin="round" stroke-width="1"/>
      <line id="Line_6" data-name="Line 6" y1="6.328" x2="13.083" transform="translate(243.826 87.903)" fill="none" stroke="#2a4a53" stroke-linecap="round" stroke-linejoin="round" stroke-width="1"/>
      <path id="Path_114" data-name="Path 114" d="M340.226,162.2h-2.778c-1.689,0-4.734-1.957-3.361-3.63s6.139,2.225,6.139,2.225l-4.182-13.114,8.932-4.182,3.63,12.278s-5.587-2.225-6.139.284,3.63,2.225,6.139,1.1" transform="translate(-62.312 -56.544)" fill="none" stroke="#2a4a53" stroke-linecap="round" stroke-linejoin="round" stroke-width="1"/>
      <line id="Line_7" data-name="Line 7" y1="4.182" x2="8.648" transform="translate(274.568 89.75)" fill="none" stroke="#2a4a53" stroke-linecap="round" stroke-linejoin="round" stroke-width="1"/>
      <path id="Path_115" data-name="Path 115" d="M184.726,153.2h-2.778c-1.689,0-4.734-1.957-3.361-3.63s6.139,2.225,6.139,2.225l-4.182-13.114,8.932-4.182,3.63,12.278s-5.587-2.225-6.139.284,3.63,2.225,6.139,1.1" transform="translate(-152.214 -61.747)" fill="none" stroke="#2a4a53" stroke-linecap="round" stroke-linejoin="round" stroke-width="1"/>
      <line id="Line_8" data-name="Line 8" y1="4.182" x2="8.648" transform="translate(29.166 75.546)" fill="none" stroke="#2a4a53" stroke-linecap="round" stroke-linejoin="round" stroke-width="1"/>
      <path id="Path_116" data-name="Path 116" d="M354.33,181.289s11.426-3.44,9.611-10.195c-1.578-5.713-6.912,0-6.912,0s3.314-5.366-1.578-7.891-6.313,4.387-6.313,4.387-.978-6.407-5.429-3.456,4.94,18.764,4.94,18.764Z" transform="translate(-57.241 -45.473)" fill="none" stroke="#2a4a53" stroke-linecap="round" stroke-linejoin="round" stroke-width="1"/>
      <path id="Path_117" data-name="Path 117" d="M340.72,203.739a60.744,60.744,0,0,0,8.885-22.725l4.861-15.024" transform="translate(-58.277 -43.541)" fill="none" stroke="#2a4a53" stroke-linecap="round" stroke-linejoin="round" stroke-width="1"/>
      <path id="Path_118" data-name="Path 118" d="M347.847,188.552a12.625,12.625,0,0,0-1.973-8.9,35.145,35.145,0,0,0-6.407-7.891s-1.483,5.429-.505,8.885S347.847,188.552,347.847,188.552Z" transform="translate(-59.486 -40.205)" fill="none" stroke="#2a4a53" stroke-linecap="round" stroke-linejoin="round" stroke-width="1"/>
      <path id="Path_119" data-name="Path 119" d="M343.54,185.8a10.211,10.211,0,0,1,6.912-2.462h9.374S347.975,192.715,343.54,185.8Z" transform="translate(-56.647 -33.511)" fill="none" stroke="#2a4a53" stroke-linecap="round" stroke-linejoin="round" stroke-width="1"/>
      <path id="Path_120" data-name="Path 120" d="M345.39,167.6l1.483,11.678,8.285-6.155" transform="translate(-55.577 -42.61)" fill="none" stroke="#2a4a53" stroke-linecap="round" stroke-linejoin="round" stroke-width="1"/>
      <path id="Path_121" data-name="Path 121" d="M187.744,208.988s-7.48-9.28-13.051-5.066c-4.734,3.582,2.6,6.407,2.6,6.407s-6.234-1.042-6.66,4.466,6.423,4.087,6.423,4.087-5.571,3.33-1.152,6.313,15.529-11.647,15.529-11.647Z" transform="translate(-156.622 -22.245)" fill="none" stroke="#2a4a53" stroke-linecap="round" stroke-linejoin="round" stroke-width="1"/>
      <path id="Path_122" data-name="Path 122" d="M213.974,209.878a60.57,60.57,0,0,0-24.382.316l-15.782,1.168" transform="translate(-154.776 -18.796)" fill="none" stroke="#2a4a53" stroke-linecap="round" stroke-linejoin="round" stroke-width="1"/>
      <path id="Path_123" data-name="Path 123" d="M195.428,208.83a12.625,12.625,0,0,0-7.5,5.176,35.114,35.114,0,0,0-4.892,8.917s5.587-.663,8.412-2.888S195.428,208.83,195.428,208.83Z" transform="translate(-149.44 -18.773)" fill="none" stroke="#2a4a53" stroke-linecap="round" stroke-linejoin="round" stroke-width="1"/>
      <path id="Path_124" data-name="Path 124" d="M196.642,213.952a10.211,10.211,0,0,1-4.892-5.476c-1.657-4.119-3.519-8.7-3.519-8.7S201.376,207.229,196.642,213.952Z" transform="translate(-146.439 -24.005)" fill="none" stroke="#2a4a53" stroke-linecap="round" stroke-linejoin="round" stroke-width="1"/>
      <path id="Path_125" data-name="Path 125" d="M176.84,217.626,187.1,211.85l-8.822-5.35" transform="translate(-153.024 -20.12)" fill="none" stroke="#2a4a53" stroke-linecap="round" stroke-linejoin="round" stroke-width="1"/>
      <path id="Path_126" data-name="Path 126" d="M236.545,186.023a34.573,34.573,0,0,0-1.578-3.156c-2.825-5.192-6.975-9.753-13.493-8.822-11.047,1.578,9.469,18.938,13.162,19.459C239.181,194.15,238.013,189.526,236.545,186.023Z" transform="translate(-129.088 -38.955)" fill="#2a4a53"/>
      <path id="Path_127" data-name="Path 127" d="M231.215,144.693a24.008,24.008,0,0,0-1.578-3.156c-2.841-5.208-6.975-9.753-13.493-8.822-11.047,1.578,9.469,18.938,13.162,19.459C233.851,152.82,232.683,148.181,231.215,144.693Z" transform="translate(-132.169 -62.85)" fill="#2a4a53"/>
      <path id="Path_128" data-name="Path 128" d="M299.867,185.926c-1.4.41-2.636.884-3.314,1.152-5.492,2.209-10.495,5.808-10.321,12.389.3,11.158,19.9-7.228,20.847-10.842C308.231,184.253,303.5,184.9,299.867,185.926Z" transform="translate(-89.782 -32.45)" fill="#2a4a53"/>
      <path id="Path_129" data-name="Path 129" d="M308.867,148.6a33.637,33.637,0,0,0-3.314,1.152c-5.492,2.209-10.495,5.792-10.321,12.373.3,11.158,19.9-7.228,20.847-10.826C317.231,146.914,312.5,147.545,308.867,148.6Z" transform="translate(-84.579 -54.039)" fill="#2a4a53"/>
      <path id="Path_130" data-name="Path 130" d="M360.111,146.295a30.64,30.64,0,0,0-3.3,1.152c-5.492,2.209-10.495,5.792-10.321,12.373.3,11.158,19.9-7.228,20.847-10.826C368.491,144.559,363.757,145.19,360.111,146.295Z" transform="translate(-54.943 -55.393)" fill="#2a4a53"/>
      <path id="Path_131" data-name="Path 131" d="M217.851,182.176a16.569,16.569,0,0,0-.742-1.578c-1.373-2.525-3.393-4.734-6.581-4.308-5.4.773,4.624,9.248,6.423,9.469C219.145,186.137,218.577,183.88,217.851,182.176Z" transform="translate(-134.46 -37.617)" fill="#2a4a53"/>
      <path id="Path_132" data-name="Path 132" d="M193.887,155.122c-.537-.458-1.073-.836-1.357-1.042-2.383-1.657-5.176-2.73-7.812-.9-4.482,3.156,8.27,6.186,9.99,5.618C196.759,158.089,195.291,156.337,193.887,155.122Z" transform="translate(-149.019 -51.5)" fill="#2a4a53"/>
      <path id="Path_133" data-name="Path 133" d="M229.521,168.506a15.906,15.906,0,0,0-.742-1.578c-1.389-2.541-3.409-4.734-6.581-4.308-5.4.773,4.624,9.232,6.423,9.469C230.8,172.483,230.231,170.21,229.521,168.506Z" transform="translate(-127.713 -45.521)" fill="#2a4a53"/>
      <path id="Path_134" data-name="Path 134" d="M170.651,145.986a14.792,14.792,0,0,0-.742-1.578c-1.373-2.541-3.393-4.734-6.581-4.308-5.4.773,4.624,9.248,6.423,9.469C171.945,149.947,171.377,147.69,170.651,145.986Z" transform="translate(-161.749 -58.541)" fill="#2a4a53"/>
      <path id="Path_135" data-name="Path 135" d="M187.039,179.567a15.44,15.44,0,0,0-1.578-.836c-2.588-1.263-5.524-1.894-7.891.316-3.945,3.772,9.137,4.845,10.747,4.009C190.4,182.044,188.617,180.529,187.039,179.567Z" transform="translate(-153.029 -36.838)" fill="#2a4a53"/>
      <path id="Path_136" data-name="Path 136" d="M226.521,129.176a16.56,16.56,0,0,0-.742-1.578c-1.389-2.525-3.409-4.734-6.581-4.308-5.4.773,4.624,9.248,6.423,9.469C227.8,133.137,227.231,130.88,226.521,129.176Z" transform="translate(-129.448 -68.259)" fill="#2a4a53"/>
      <path id="Path_137" data-name="Path 137" d="M261.845,168.356c-.426.552-.789,1.089-.978,1.389-1.578,2.43-2.541,5.287-.6,7.891,3.283,4.356,5.871-8.506,5.224-10.211C264.7,165.31,263,166.9,261.845,168.356Z" transform="translate(-105.417 -43.303)" fill="#2a4a53"/>
      <path id="Path_138" data-name="Path 138" d="M277.845,189.356c-.426.552-.789,1.089-.978,1.389-1.578,2.43-2.541,5.287-.6,7.891,3.283,4.356,5.871-8.506,5.224-10.211C280.7,186.31,279,187.9,277.845,189.356Z" transform="translate(-96.166 -31.162)" fill="#2a4a53"/>
      <path id="Path_139" data-name="Path 139" d="M301.619,134.144a15.611,15.611,0,0,0-1.578.521c-2.7,1.026-5.176,2.73-5.161,5.934,0,5.445,9.785-3.314,10.29-5.066C305.722,133.323,303.418,133.576,301.619,134.144Z" transform="translate(-84.779 -62.18)" fill="#2a4a53"/>
      <path id="Path_140" data-name="Path 140" d="M261.855,122c-.505.489-.947.963-1.184,1.231-1.91,2.162-3.314,4.829-1.783,7.654,2.572,4.734,7.086-7.512,6.723-9.28C265.154,119.429,263.213,120.739,261.855,122Z" transform="translate(-105.964 -69.875)" fill="#2a4a53"/>
      <path id="Path_141" data-name="Path 141" d="M192.211,193.375a15.084,15.084,0,0,0,1.294,1.1c2.288,1.783,5.034,3,7.764,1.31,4.624-2.856-7.891-6.612-9.69-6.123C189.449,190.218,190.869,192.065,192.211,193.375Z" transform="translate(-145.133 -29.878)" fill="#2a4a53"/>
      <path id="Path_142" data-name="Path 142" d="M319.654,134.37h-1.7c-2.888.174-5.76,1.057-6.707,4.119-1.578,5.208,10.337-.237,11.331-1.752C323.789,134.891,321.516,134.449,319.654,134.37Z" transform="translate(-75.402 -61.822)" fill="#2a4a53"/>
    </g>
  </g>
</svg>
