<svg id="surface1" xmlns="http://www.w3.org/2000/svg" width="90.193" height="90.193" viewBox="0 0 90.193 90.193">
  <path id="Path_482" data-name="Path 482" d="M411.411,468.3a2.91,2.91,0,1,1-5.82,0,2.67,2.67,0,0,1,.131-.784,8.679,8.679,0,0,1,3.8-1.915A2.893,2.893,0,0,1,411.411,468.3Zm8.7,5.177a5.833,5.833,0,0,0-2.881,5.007,5.685,5.685,0,0,0,.312,1.846,8.72,8.72,0,0,1-14.228-9.45,5.8,5.8,0,1,0,10.376-5.177A8.748,8.748,0,0,1,420.111,473.48Zm-8.7,12.28a11.6,11.6,0,0,0,8.967-4.222l.636-.767-.488-.875a2.85,2.85,0,0,1-.387-1.409,2.913,2.913,0,0,1,1.932-2.722l.9-.438.068-.949c.005-.085.011-.169.011-.255a11.638,11.638,0,1,0-11.637,11.638" transform="translate(-356.132 -401.386)" fill="#243244"/>
  <path id="Path_483" data-name="Path 483" d="M329.744,317.356l-.085.085a44.5,44.5,0,0,1-19.8,11.325,17.386,17.386,0,0,0,0-26.06,44.554,44.554,0,0,1,19.8,11.325l.085.085a2.7,2.7,0,0,1,0,3.239Zm-62.843.085-.086-.085a2.7,2.7,0,0,1,0-3.239l.086-.085a44.494,44.494,0,0,1,19.8-11.325,17.386,17.386,0,0,0,0,26.06A44.544,44.544,0,0,1,266.9,317.441Zm-6.444-17.707H250.274a4.364,4.364,0,0,1-4.364-4.364V275a7.28,7.28,0,0,1,7.274-7.274h15.03a4.389,4.389,0,0,0,2.619-.875l9.819-7.358a2.453,2.453,0,0,1,1.472-.495h.608a2.459,2.459,0,0,1,2.454,2.454,2.425,2.425,0,0,1-.948,1.932l-9.218,7.171a7.315,7.315,0,0,1-4.466,1.534H259v21.821h5.819a4.366,4.366,0,0,1,4.365,4.365V308.2a47.018,47.018,0,0,0-4.319,3.756l-.273.278a5.7,5.7,0,0,0-.59.932,2.862,2.862,0,0,1-.637-1.8v-8.728A2.915,2.915,0,0,0,260.457,299.734Zm-8.729,27.641a2.909,2.909,0,0,1-5.819,0V301.15a7.185,7.185,0,0,0,4.364,1.494h1.455Zm-1.455-69.827a7.274,7.274,0,1,1,7.274,7.274A7.281,7.281,0,0,1,250.274,257.547Zm24.731.171v-3.25l20.366-2.545v8.341l-7.733-.966a5.362,5.362,0,0,0-4.9-3.206h-.608a5.386,5.386,0,0,0-3.217,1.075l-1.187.892Zm23.276-8.9h8.728v14.547H298.28Zm0,34.914h2.909v14.643c-.965-.057-1.938-.1-2.909-.1Zm14.547,32a14.547,14.547,0,1,1-14.547-14.547A14.565,14.565,0,0,1,312.827,315.736Zm-2.91-37.823h2.91v22.634c-.96-.307-1.932-.592-2.91-.842Zm11.638-5.819h2.909V306.1c-.95-.625-1.926-1.2-2.909-1.762ZM309.917,245.91h2.91v20.366h-2.91Zm22.048,66.326-.273-.278a47.16,47.16,0,0,0-4.318-3.756V269.185h-8.729v33.646c-.955-.449-1.927-.865-2.91-1.251V275h-8.728V299.08c-.96-.176-1.931-.318-2.909-.437v-17.82H295.37v17.553a47.183,47.183,0,0,0-23.276,7.729V298.28a7.28,7.28,0,0,0-7.274-7.274h-2.91V275h8.643a10.253,10.253,0,0,0,6.251-2.142l9.223-7.171a5.321,5.321,0,0,0,1.977-3.416l7.365.921v3.079h11.637a2.915,2.915,0,0,0,2.91,2.91h2.91a2.915,2.915,0,0,0,2.909-2.91V245.91a2.915,2.915,0,0,0-2.909-2.91h-2.91a2.915,2.915,0,0,0-2.91,2.91H295.37v3.08l-23.276,2.91v8.387l2.273.284-5.278,3.962a1.475,1.475,0,0,1-.875.289h-3.552a10.19,10.19,0,1,0-13.894.3A10.2,10.2,0,0,0,243,275v52.37a5.819,5.819,0,0,0,11.637,0V302.644h5.82v8.723a5.833,5.833,0,0,0,2.966,5.057,5.641,5.641,0,0,0,1.17,2.812l.273.278a47.649,47.649,0,0,0,66.826,0l.273-.278a5.6,5.6,0,0,0,0-7" transform="translate(-243 -243)" fill="#243244"/>
</svg>
