<?xml version="1.0" encoding="UTF-8"?>
<svg xmlns="http://www.w3.org/2000/svg" xmlns:xlink="http://www.w3.org/1999/xlink" width="810pt" height="809.999993pt" viewBox="0 0 810 809.999993" version="1.2">
<defs>
<clipPath id="clip1">
  <path d="M 49.117188 49.117188 L 760.855469 49.117188 L 760.855469 760.855469 L 49.117188 760.855469 Z M 49.117188 49.117188 "/>
</clipPath>
</defs>
<g id="surface1">
<g clip-path="url(#clip1)" clip-rule="nonzero">
<path style=" stroke:none;fill-rule:nonzero;fill:rgb(0%,0%,0%);fill-opacity:1;" d="M 696.152344 49.117188 L 113.820312 49.117188 C 78.070312 49.117188 49.117188 78.070312 49.117188 113.820312 L 49.117188 696.152344 C 49.117188 731.902344 78.070312 760.855469 113.820312 760.855469 L 696.152344 760.855469 C 731.902344 760.855469 760.855469 731.902344 760.855469 696.152344 L 760.855469 113.820312 C 760.855469 78.070312 731.902344 49.117188 696.152344 49.117188 Z M 274.089844 631.449219 L 178.652344 631.449219 L 178.652344 324.367188 L 274.089844 324.367188 Z M 225.402344 280.464844 C 194.636719 280.464844 169.757812 255.519531 169.757812 224.820312 C 169.757812 194.117188 194.667969 169.207031 225.402344 169.207031 C 256.070312 169.207031 281.015625 194.148438 281.015625 224.820312 C 281.015625 255.519531 256.070312 280.464844 225.402344 280.464844 Z M 631.578125 631.449219 L 536.203125 631.449219 L 536.203125 482.113281 C 536.203125 446.492188 535.558594 400.683594 486.609375 400.683594 C 436.949219 400.683594 429.316406 439.472656 429.316406 479.523438 L 429.316406 631.449219 L 333.941406 631.449219 L 333.941406 324.367188 L 425.496094 324.367188 L 425.496094 366.324219 L 426.792969 366.324219 C 439.539062 342.191406 470.660156 316.730469 517.085938 316.730469 C 613.71875 316.730469 631.578125 380.335938 631.578125 463.027344 Z M 631.578125 631.449219 "/>
</g>
</g>
</svg>
