<?xml version="1.0" encoding="UTF-8"?>
<svg xmlns="http://www.w3.org/2000/svg" xmlns:xlink="http://www.w3.org/1999/xlink" width="810pt" height="809.999993pt" viewBox="0 0 810 809.999993" version="1.2">
<defs>
<clipPath id="clip1">
  <path d="M 23.480469 23.480469 L 785.949219 23.480469 L 785.949219 785.949219 L 23.480469 785.949219 Z M 23.480469 23.480469 "/>
</clipPath>
</defs>
<g id="surface1">
<path style=" stroke:none;fill-rule:nonzero;fill:rgb(0%,0%,0%);fill-opacity:1;" d="M 529.320312 586.136719 C 494.929688 579.03125 458.058594 574.914062 419.949219 574.03125 L 419.949219 722.542969 C 463.976562 712.84375 504.050781 661.789062 529.320312 586.136719 Z M 529.320312 586.136719 "/>
<path style=" stroke:none;fill-rule:nonzero;fill:rgb(0%,0%,0%);fill-opacity:1;" d="M 250.332031 215.867188 C 266.769531 165.773438 289.429688 125.132812 316.179688 97.121094 C 260.183594 113.070312 210.195312 143.816406 171.066406 185.84375 C 194.425781 197.980469 221.160156 208.015625 250.332031 215.867188 Z M 250.332031 215.867188 "/>
<path style=" stroke:none;fill-rule:nonzero;fill:rgb(0%,0%,0%);fill-opacity:1;" d="M 559.039062 215.835938 C 588.210938 207.984375 614.914062 197.933594 638.273438 185.8125 C 599.144531 143.785156 549.15625 113.058594 493.164062 97.121094 C 519.941406 125.121094 542.601562 165.757812 559.039062 215.835938 Z M 559.039062 215.835938 "/>
<path style=" stroke:none;fill-rule:nonzero;fill:rgb(0%,0%,0%);fill-opacity:1;" d="M 419.949219 86.476562 L 419.949219 234.992188 C 458.058594 234.105469 494.929688 229.972656 529.320312 222.882812 C 504.050781 147.230469 463.976562 96.191406 419.949219 86.476562 Z M 419.949219 86.476562 "/>
<path style=" stroke:none;fill-rule:nonzero;fill:rgb(0%,0%,0%);fill-opacity:1;" d="M 280.066406 222.898438 C 314.410156 229.988281 351.28125 234.105469 389.453125 234.992188 L 389.453125 86.476562 C 345.410156 96.191406 305.335938 147.230469 280.066406 222.898438 Z M 280.066406 222.898438 "/>
<path style=" stroke:none;fill-rule:nonzero;fill:rgb(0%,0%,0%);fill-opacity:1;" d="M 559.039062 593.183594 C 542.601562 643.261719 519.941406 683.902344 493.191406 711.898438 C 549.171875 695.964844 599.160156 665.222656 638.289062 623.210938 C 614.929688 611.085938 588.210938 601.035156 559.039062 593.183594 Z M 559.039062 593.183594 "/>
<path style=" stroke:none;fill-rule:nonzero;fill:rgb(0%,0%,0%);fill-opacity:1;" d="M 250.332031 593.167969 C 221.160156 601.007812 194.410156 611.039062 171.066406 623.179688 C 210.195312 665.222656 260.183594 695.949219 316.191406 711.898438 C 289.429688 683.917969 266.769531 643.261719 250.332031 593.167969 Z M 250.332031 593.167969 "/>
<g clip-path="url(#clip1)" clip-rule="nonzero">
<path style=" stroke:none;fill-rule:nonzero;fill:rgb(0%,0%,0%);fill-opacity:1;" d="M 404.714844 23.480469 C 194.167969 23.480469 23.480469 194.167969 23.480469 404.714844 C 23.480469 615.265625 194.167969 785.949219 404.714844 785.949219 C 615.265625 785.949219 785.949219 615.265625 785.949219 404.714844 C 785.949219 194.167969 615.265625 23.480469 404.714844 23.480469 Z M 69.871094 302.027344 C 115.023438 153.742188 249.582031 54.101562 404.699219 54.101562 C 559.800781 54.101562 694.363281 153.742188 739.53125 302.027344 C 741.972656 310.078125 737.425781 318.601562 729.375 321.058594 C 721.292969 323.558594 712.800781 318.96875 710.34375 310.917969 C 698.90625 273.359375 680.988281 239.367188 658.328125 209.644531 C 631.855469 224.058594 601.25 235.953125 567.671875 245.023438 C 572.566406 263.75 576.742188 283.4375 579.902344 304.175781 C 581.179688 312.503906 575.449219 320.28125 567.121094 321.5625 C 558.78125 322.8125 551.019531 317.109375 549.753906 308.78125 C 546.734375 288.914062 542.691406 270.0625 537.996094 252.175781 C 500.832031 260.03125 461.015625 264.574219 419.964844 265.488281 L 419.964844 306.480469 L 389.464844 306.480469 L 389.464844 265.488281 C 348.339844 264.574219 308.539062 260.03125 271.421875 252.175781 C 266.707031 270.066406 262.699219 288.898438 259.664062 308.765625 C 258.503906 316.316406 252.007812 321.730469 244.613281 321.730469 C 243.851562 321.730469 243.074219 321.683594 242.292969 321.5625 C 233.96875 320.296875 228.25 312.519531 229.515625 304.191406 C 232.671875 283.453125 236.820312 263.765625 241.730469 245.054688 C 208.167969 235.96875 177.578125 224.085938 151.089844 209.632812 C 128.414062 239.367188 110.507812 273.359375 99.058594 310.933594 C 97.058594 317.503906 91.003906 321.730469 84.480469 321.746094 C 83 321.746094 81.503906 321.53125 80.027344 321.074219 C 71.960938 318.617188 67.414062 310.078125 69.871094 302.027344 Z M 740.203125 348.707031 L 699.195312 467.925781 L 672.707031 467.925781 L 642.894531 376.75 L 642.484375 376.75 L 612.09375 467.925781 L 585.222656 467.925781 L 546 348.707031 L 572.457031 348.707031 L 599.34375 439.898438 L 599.738281 439.898438 L 629.78125 348.707031 L 656.453125 348.707031 L 685.609375 439.898438 L 686.050781 439.898438 L 713.714844 348.707031 Z M 501.855469 348.707031 L 460.773438 467.925781 L 434.34375 467.925781 L 404.53125 376.75 L 404.105469 376.75 L 373.667969 467.925781 L 346.785156 467.925781 L 307.609375 348.707031 L 334.109375 348.707031 L 360.980469 439.898438 L 361.378906 439.898438 L 391.402344 348.707031 L 418.058594 348.707031 L 447.230469 439.898438 L 447.628906 439.898438 L 475.335938 348.707031 Z M 95.703125 348.707031 L 122.585938 439.898438 L 123.015625 439.898438 L 153.007812 348.707031 L 179.695312 348.707031 L 208.882812 439.898438 L 209.296875 439.898438 L 236.972656 348.707031 L 263.429688 348.707031 L 222.394531 467.925781 L 195.9375 467.925781 L 166.140625 376.75 L 165.726562 376.75 L 135.289062 467.925781 L 108.40625 467.925781 L 69.230469 348.707031 Z M 739.53125 506.992188 C 694.363281 655.292969 559.800781 754.933594 404.699219 754.933594 C 249.582031 754.933594 115.023438 655.292969 69.871094 506.992188 C 67.414062 498.941406 71.960938 490.417969 80.011719 487.960938 C 88.0625 485.539062 96.585938 490.050781 99.042969 498.117188 C 110.480469 535.695312 128.398438 569.667969 151.074219 599.40625 C 177.5625 584.980469 208.136719 573.070312 241.714844 563.996094 C 236.820312 545.269531 232.65625 525.597656 229.5 504.859375 C 228.234375 496.53125 233.953125 488.757812 242.28125 487.488281 C 250.5 486.253906 258.382812 491.929688 259.648438 500.269531 C 262.667969 520.140625 266.695312 538.972656 271.40625 556.859375 C 308.539062 549.007812 348.339844 544.460938 389.453125 543.5625 L 389.453125 502.570312 L 419.949219 502.570312 L 419.949219 543.5625 C 461 544.492188 500.832031 549.019531 537.996094 556.875 C 542.707031 538.988281 546.71875 520.15625 549.753906 500.285156 C 551.019531 491.957031 558.78125 486.164062 567.121094 487.503906 C 575.449219 488.769531 581.179688 496.546875 579.902344 504.875 C 576.742188 525.613281 572.582031 545.300781 567.671875 564.027344 C 601.25 573.117188 631.871094 584.996094 658.328125 599.40625 C 680.988281 569.683594 698.90625 535.695312 710.34375 498.132812 C 712.800781 490.097656 721.292969 485.570312 729.375 487.976562 C 737.425781 490.417969 741.972656 498.941406 739.53125 506.992188 Z M 739.53125 506.992188 "/>
</g>
<path style=" stroke:none;fill-rule:nonzero;fill:rgb(0%,0%,0%);fill-opacity:1;" d="M 389.453125 722.558594 L 389.453125 574.046875 C 351.28125 574.929688 314.425781 579.046875 280.066406 586.136719 C 305.335938 661.789062 345.410156 712.84375 389.453125 722.558594 Z M 389.453125 722.558594 "/>
</g>
</svg>
