<?xml version="1.0" encoding="UTF-8"?>
<svg xmlns="http://www.w3.org/2000/svg" xmlns:xlink="http://www.w3.org/1999/xlink" width="810pt" height="809.999993pt" viewBox="0 0 810 809.999993" version="1.2">
<defs>
<clipPath id="clip1">
  <path d="M 52.941406 52.941406 L 757.191406 52.941406 L 757.191406 757.191406 L 52.941406 757.191406 Z M 52.941406 52.941406 "/>
</clipPath>
</defs>
<g id="surface1">
<g clip-path="url(#clip1)" clip-rule="nonzero">
<path style=" stroke:none;fill-rule:nonzero;fill:rgb(0%,0%,0%);fill-opacity:1;" d="M 693.296875 52.941406 L 116.976562 52.941406 C 81.597656 52.941406 52.941406 81.597656 52.941406 116.976562 L 52.941406 693.296875 C 52.941406 728.675781 81.597656 757.332031 116.976562 757.332031 L 437.152344 757.332031 L 437.152344 469.171875 L 341.101562 469.171875 L 341.101562 373.117188 L 437.152344 373.117188 L 437.152344 321.539062 C 437.152344 223.882812 484.730469 181.011719 565.898438 181.011719 C 604.765625 181.011719 625.320312 183.894531 635.054688 185.207031 L 635.054688 277.066406 L 579.695312 277.066406 C 545.246094 277.066406 533.207031 295.25 533.207031 332.070312 L 533.207031 373.117188 L 634.191406 373.117188 L 620.488281 469.171875 L 533.207031 469.171875 L 533.207031 757.332031 L 693.296875 757.332031 C 728.675781 757.332031 757.332031 728.675781 757.332031 693.296875 L 757.332031 116.976562 C 757.332031 81.597656 728.644531 52.941406 693.296875 52.941406 Z M 693.296875 52.941406 "/>
</g>
</g>
</svg>
