<?xml version="1.0" encoding="UTF-8"?>
<svg xmlns="http://www.w3.org/2000/svg" xmlns:xlink="http://www.w3.org/1999/xlink" width="810pt" height="809.999993pt" viewBox="0 0 810 809.999993" version="1.2">
<defs>
<clipPath id="clip1">
  <path d="M 45.886719 51 L 764.386719 51 L 764.386719 760 L 45.886719 760 Z M 45.886719 51 "/>
</clipPath>
</defs>
<g id="surface1">
<g clip-path="url(#clip1)" clip-rule="nonzero">
<path style=" stroke:none;fill-rule:nonzero;fill:rgb(0%,0%,0%);fill-opacity:1;" d="M 405.277344 51.875 C 206.804688 51.875 45.886719 212.792969 45.886719 411.265625 C 45.886719 579.671875 161.847656 720.582031 318.183594 759.574219 C 316.507812 754.722656 315.429688 749.09375 315.429688 742.113281 L 315.429688 680.6875 C 300.84375 680.6875 276.40625 680.6875 270.265625 680.6875 C 245.675781 680.6875 223.8125 670.117188 213.210938 650.46875 C 201.441406 628.636719 199.40625 595.242188 170.234375 574.820312 C 161.578125 568.019531 168.167969 560.261719 178.140625 561.3125 C 196.558594 566.523438 211.835938 579.160156 226.210938 597.910156 C 240.527344 616.6875 247.265625 620.941406 274.007812 620.941406 C 286.976562 620.941406 306.382812 620.191406 324.652344 617.316406 C 334.476562 592.367188 351.457031 569.398438 372.210938 558.554688 C 252.535156 546.246094 195.421875 486.707031 195.421875 405.875 C 195.421875 371.074219 210.246094 337.410156 235.433594 309.050781 C 227.167969 280.898438 216.777344 223.484375 238.609375 201.621094 C 292.457031 201.621094 325.011719 236.542969 332.828125 245.976562 C 359.664062 236.78125 389.132812 231.570312 420.101562 231.570312 C 451.128906 231.570312 480.71875 236.78125 507.613281 246.035156 C 515.339844 236.660156 547.925781 201.621094 601.894531 201.621094 C 623.816406 223.515625 613.304688 281.167969 604.949219 309.257812 C 629.984375 337.5625 644.71875 371.132812 644.71875 405.875 C 644.71875 486.648438 587.695312 546.15625 468.199219 558.527344 C 501.082031 575.6875 525.074219 623.90625 525.074219 660.234375 L 525.074219 742.113281 C 525.074219 745.230469 524.382812 747.476562 524.023438 750.140625 C 664.066406 701.054688 764.667969 568.082031 764.667969 411.265625 C 764.667969 212.792969 603.75 51.875 405.277344 51.875 Z M 405.277344 51.875 "/>
</g>
</g>
</svg>
