<?xml version="1.0" encoding="UTF-8"?>
<svg xmlns="http://www.w3.org/2000/svg" xmlns:xlink="http://www.w3.org/1999/xlink" width="810pt" height="809.999993pt" viewBox="0 0 810 809.999993" version="1.2">
<defs>
<clipPath id="clip1">
  <path d="M 31.074219 31.074219 L 778.824219 31.074219 L 778.824219 778.824219 L 31.074219 778.824219 Z M 31.074219 31.074219 "/>
</clipPath>
</defs>
<g id="surface1">
<g clip-path="url(#clip1)" clip-rule="nonzero">
<path style=" stroke:none;fill-rule:nonzero;fill:rgb(100%,100%,100%);fill-opacity:1;" d="M 249.109375 31.074219 C 128.875 31.074219 31.074219 128.964844 31.074219 249.230469 L 31.074219 560.792969 C 31.074219 681.023438 128.964844 778.824219 249.230469 778.824219 L 560.792969 778.824219 C 681.023438 778.824219 778.824219 680.933594 778.824219 560.671875 L 778.824219 249.109375 C 778.824219 128.875 680.933594 31.074219 560.671875 31.074219 Z M 623.042969 155.699219 C 640.242188 155.699219 654.199219 169.65625 654.199219 186.855469 C 654.199219 204.054688 640.242188 218.011719 623.042969 218.011719 C 605.84375 218.011719 591.886719 204.054688 591.886719 186.855469 C 591.886719 169.65625 605.84375 155.699219 623.042969 155.699219 Z M 404.949219 218.011719 C 508.046875 218.011719 591.886719 301.855469 591.886719 404.949219 C 591.886719 508.046875 508.046875 591.886719 404.949219 591.886719 C 301.855469 591.886719 218.011719 508.046875 218.011719 404.949219 C 218.011719 301.855469 301.855469 218.011719 404.949219 218.011719 Z M 404.949219 280.324219 C 402.910156 280.324219 400.871094 280.375 398.835938 280.476562 C 396.796875 280.574219 394.765625 280.726562 392.734375 280.925781 C 390.703125 281.125 388.679688 281.375 386.664062 281.675781 C 384.644531 281.972656 382.636719 282.320312 380.636719 282.71875 C 378.636719 283.117188 376.648438 283.5625 374.667969 284.058594 C 372.691406 284.554688 370.726562 285.097656 368.773438 285.691406 C 366.820312 286.285156 364.886719 286.921875 362.964844 287.609375 C 361.042969 288.296875 359.140625 289.03125 357.257812 289.8125 C 355.375 290.59375 353.511719 291.417969 351.667969 292.289062 C 349.824219 293.164062 348 294.078125 346.203125 295.039062 C 344.402344 296.003906 342.628906 297.007812 340.878906 298.054688 C 339.128906 299.105469 337.40625 300.195312 335.710938 301.328125 C 334.015625 302.460938 332.347656 303.636719 330.710938 304.851562 C 329.074219 306.066406 327.464844 307.320312 325.890625 308.613281 C 324.3125 309.90625 322.769531 311.238281 321.257812 312.609375 C 319.746094 313.980469 318.269531 315.386719 316.828125 316.828125 C 315.382812 318.269531 313.980469 319.746094 312.609375 321.257812 C 311.238281 322.769531 309.90625 324.3125 308.613281 325.890625 C 307.320312 327.464844 306.066406 329.074219 304.851562 330.710938 C 303.636719 332.347656 302.460938 334.015625 301.328125 335.710938 C 300.195312 337.40625 299.105469 339.128906 298.054688 340.878906 C 297.007812 342.628906 296.003906 344.402344 295.039062 346.203125 C 294.078125 348 293.164062 349.824219 292.289062 351.667969 C 291.417969 353.511719 290.59375 355.375 289.8125 357.257812 C 289.03125 359.140625 288.296875 361.042969 287.609375 362.964844 C 286.921875 364.886719 286.285156 366.820312 285.691406 368.773438 C 285.097656 370.726562 284.554688 372.691406 284.058594 374.667969 C 283.5625 376.648438 283.117188 378.636719 282.71875 380.636719 C 282.320312 382.636719 281.972656 384.644531 281.675781 386.664062 C 281.375 388.679688 281.125 390.703125 280.925781 392.734375 C 280.726562 394.765625 280.574219 396.796875 280.476562 398.835938 C 280.375 400.871094 280.324219 402.910156 280.324219 404.949219 C 280.324219 406.988281 280.375 409.027344 280.476562 411.066406 C 280.574219 413.101562 280.726562 415.136719 280.925781 417.164062 C 281.125 419.195312 281.375 421.21875 281.675781 423.238281 C 281.972656 425.253906 282.320312 427.261719 282.71875 429.261719 C 283.117188 431.261719 283.5625 433.253906 284.058594 435.230469 C 284.554688 437.210938 285.097656 439.175781 285.691406 441.125 C 286.285156 443.078125 286.921875 445.015625 287.609375 446.933594 C 288.296875 448.855469 289.03125 450.757812 289.8125 452.640625 C 290.59375 454.527344 291.417969 456.390625 292.289062 458.234375 C 293.164062 460.078125 294.078125 461.898438 295.039062 463.699219 C 296.003906 465.496094 297.007812 467.269531 298.054688 469.019531 C 299.105469 470.769531 300.195312 472.492188 301.328125 474.1875 C 302.460938 475.882812 303.636719 477.550781 304.851562 479.1875 C 306.066406 480.828125 307.320312 482.433594 308.613281 484.011719 C 309.90625 485.589844 311.238281 487.132812 312.609375 488.644531 C 313.980469 490.15625 315.382812 491.632812 316.828125 493.074219 C 318.269531 494.515625 319.746094 495.921875 321.257812 497.292969 C 322.769531 498.660156 324.3125 499.992188 325.890625 501.285156 C 327.464844 502.582031 329.074219 503.835938 330.710938 505.050781 C 332.347656 506.265625 334.015625 507.4375 335.710938 508.570312 C 337.40625 509.707031 339.128906 510.796875 340.878906 511.84375 C 342.628906 512.894531 344.402344 513.898438 346.203125 514.859375 C 348 515.820312 349.824219 516.738281 351.667969 517.609375 C 353.511719 518.480469 355.375 519.308594 357.257812 520.089844 C 359.140625 520.867188 361.042969 521.601562 362.964844 522.289062 C 364.886719 522.976562 366.820312 523.617188 368.773438 524.207031 C 370.726562 524.800781 372.691406 525.34375 374.667969 525.839844 C 376.648438 526.335938 378.636719 526.78125 380.636719 527.179688 C 382.636719 527.578125 384.644531 527.925781 386.664062 528.226562 C 388.679688 528.527344 390.703125 528.773438 392.734375 528.976562 C 394.765625 529.175781 396.796875 529.324219 398.835938 529.425781 C 400.871094 529.523438 402.910156 529.574219 404.949219 529.574219 C 406.988281 529.574219 409.027344 529.523438 411.066406 529.425781 C 413.101562 529.324219 415.136719 529.175781 417.164062 528.976562 C 419.195312 528.773438 421.21875 528.527344 423.238281 528.226562 C 425.253906 527.925781 427.261719 527.578125 429.261719 527.179688 C 431.261719 526.78125 433.253906 526.335938 435.230469 525.839844 C 437.210938 525.34375 439.175781 524.800781 441.125 524.207031 C 443.078125 523.617188 445.015625 522.976562 446.933594 522.289062 C 448.855469 521.601562 450.757812 520.867188 452.640625 520.089844 C 454.527344 519.308594 456.390625 518.480469 458.234375 517.609375 C 460.078125 516.738281 461.898438 515.820312 463.699219 514.859375 C 465.496094 513.898438 467.269531 512.894531 469.019531 511.84375 C 470.769531 510.796875 472.492188 509.707031 474.1875 508.570312 C 475.882812 507.4375 477.550781 506.265625 479.1875 505.050781 C 480.828125 503.835938 482.433594 502.582031 484.011719 501.285156 C 485.589844 499.992188 487.132812 498.660156 488.644531 497.292969 C 490.15625 495.921875 491.632812 494.515625 493.074219 493.074219 C 494.515625 491.632812 495.921875 490.15625 497.292969 488.644531 C 498.660156 487.132812 499.992188 485.589844 501.285156 484.011719 C 502.582031 482.433594 503.835938 480.828125 505.050781 479.1875 C 506.265625 477.550781 507.4375 475.882812 508.570312 474.1875 C 509.703125 472.492188 510.796875 470.769531 511.84375 469.019531 C 512.894531 467.269531 513.898438 465.496094 514.859375 463.699219 C 515.820312 461.898438 516.738281 460.078125 517.609375 458.234375 C 518.480469 456.390625 519.308594 454.527344 520.089844 452.640625 C 520.867188 450.757812 521.601562 448.855469 522.289062 446.933594 C 522.976562 445.015625 523.617188 443.078125 524.207031 441.125 C 524.800781 439.175781 525.34375 437.210938 525.839844 435.230469 C 526.335938 433.253906 526.78125 431.261719 527.179688 429.261719 C 527.578125 427.261719 527.925781 425.253906 528.226562 423.238281 C 528.527344 421.21875 528.773438 419.195312 528.976562 417.164062 C 529.175781 415.136719 529.324219 413.101562 529.425781 411.066406 C 529.523438 409.027344 529.574219 406.988281 529.574219 404.949219 C 529.574219 402.910156 529.523438 400.871094 529.425781 398.835938 C 529.324219 396.796875 529.175781 394.765625 528.976562 392.734375 C 528.773438 390.703125 528.527344 388.679688 528.226562 386.664062 C 527.925781 384.644531 527.578125 382.636719 527.179688 380.636719 C 526.78125 378.636719 526.335938 376.648438 525.839844 374.667969 C 525.34375 372.691406 524.800781 370.726562 524.207031 368.773438 C 523.617188 366.820312 522.976562 364.886719 522.289062 362.964844 C 521.601562 361.042969 520.867188 359.140625 520.089844 357.257812 C 519.308594 355.375 518.480469 353.511719 517.609375 351.667969 C 516.738281 349.824219 515.820312 348 514.859375 346.203125 C 513.898438 344.402344 512.894531 342.628906 511.84375 340.878906 C 510.796875 339.128906 509.703125 337.40625 508.570312 335.710938 C 507.4375 334.015625 506.265625 332.347656 505.050781 330.710938 C 503.835938 329.074219 502.582031 327.464844 501.285156 325.890625 C 499.992188 324.3125 498.660156 322.769531 497.292969 321.257812 C 495.921875 319.746094 494.515625 318.269531 493.074219 316.828125 C 491.632812 315.386719 490.15625 313.980469 488.644531 312.609375 C 487.132812 311.238281 485.589844 309.90625 484.011719 308.613281 C 482.433594 307.320312 480.828125 306.066406 479.1875 304.851562 C 477.550781 303.636719 475.882812 302.460938 474.1875 301.328125 C 472.492188 300.195312 470.769531 299.105469 469.019531 298.054688 C 467.269531 297.007812 465.496094 296.003906 463.699219 295.039062 C 461.898438 294.078125 460.078125 293.164062 458.234375 292.289062 C 456.390625 291.417969 454.527344 290.59375 452.640625 289.8125 C 450.757812 289.03125 448.855469 288.296875 446.933594 287.609375 C 445.015625 286.921875 443.078125 286.285156 441.125 285.691406 C 439.175781 285.097656 437.210938 284.554688 435.230469 284.058594 C 433.253906 283.5625 431.261719 283.117188 429.261719 282.71875 C 427.261719 282.320312 425.253906 281.972656 423.238281 281.675781 C 421.21875 281.375 419.195312 281.125 417.164062 280.925781 C 415.136719 280.726562 413.101562 280.574219 411.066406 280.476562 C 409.027344 280.375 406.988281 280.324219 404.949219 280.324219 Z M 404.949219 280.324219 "/>
</g>
</g>
</svg>
