<?xml version="1.0" encoding="UTF-8"?>
<svg xmlns="http://www.w3.org/2000/svg" xmlns:xlink="http://www.w3.org/1999/xlink" width="810pt" height="809.999993pt" viewBox="0 0 810 809.999993" version="1.2">
<defs>
<clipPath id="clip1">
  <path d="M 49.117188 49.117188 L 760.867188 49.117188 L 760.867188 760.867188 L 49.117188 760.867188 Z M 49.117188 49.117188 "/>
</clipPath>
</defs>
<g id="surface1">
<g clip-path="url(#clip1)" clip-rule="nonzero">
<path style=" stroke:none;fill-rule:nonzero;fill:rgb(100%,100%,100%);fill-opacity:1;" d="M 696.164062 49.117188 L 113.820312 49.117188 C 78.074219 49.117188 49.117188 78.074219 49.117188 113.820312 L 49.117188 696.164062 C 49.117188 731.910156 78.074219 760.867188 113.820312 760.867188 L 696.164062 760.867188 C 731.910156 760.867188 760.867188 731.910156 760.867188 696.164062 L 760.867188 113.820312 C 760.867188 78.074219 731.910156 49.117188 696.164062 49.117188 Z M 274.09375 631.457031 L 178.65625 631.457031 L 178.65625 324.371094 L 274.09375 324.371094 Z M 225.40625 280.46875 C 194.636719 280.46875 169.757812 255.523438 169.757812 224.820312 C 169.757812 194.121094 194.667969 169.207031 225.40625 169.207031 C 256.074219 169.207031 281.019531 194.152344 281.019531 224.820312 C 281.019531 255.523438 256.074219 280.46875 225.40625 280.46875 Z M 631.585938 631.457031 L 536.210938 631.457031 L 536.210938 482.121094 C 536.210938 446.5 535.566406 400.6875 486.617188 400.6875 C 436.957031 400.6875 429.320312 439.480469 429.320312 479.53125 L 429.320312 631.457031 L 333.945312 631.457031 L 333.945312 324.371094 L 425.503906 324.371094 L 425.503906 366.332031 L 426.796875 366.332031 C 439.542969 342.195312 470.667969 316.734375 517.09375 316.734375 C 613.730469 316.734375 631.585938 380.339844 631.585938 463.03125 Z M 631.585938 631.457031 "/>
</g>
</g>
</svg>
