<svg xmlns="http://www.w3.org/2000/svg" xmlns:xlink="http://www.w3.org/1999/xlink" viewBox="0 0 2862.71 2800"><defs><style>.cls-1{isolation:isolate;}.cls-2{fill:#f4f7fa;opacity:0.29;}.cls-3{fill:url(#linear-gradient);}.cls-4{fill:url(#linear-gradient-2);}.cls-5{fill:url(#linear-gradient-3);}.cls-6{fill:url(#linear-gradient-4);}.cls-7{fill:url(#linear-gradient-5);}.cls-12,.cls-23,.cls-25,.cls-28,.cls-46,.cls-50,.cls-63,.cls-69,.cls-76,.cls-8,.cls-9{opacity:0.3;}.cls-12,.cls-14,.cls-23,.cls-25,.cls-28,.cls-46,.cls-50,.cls-51,.cls-63,.cls-69,.cls-70,.cls-76,.cls-8,.cls-9{mix-blend-mode:multiply;}.cls-8{fill:url(#linear-gradient-6);}.cls-9{fill:url(#linear-gradient-7);}.cls-10{fill:url(#linear-gradient-8);}.cls-11{fill:url(#linear-gradient-9);}.cls-12{fill:url(#linear-gradient-10);}.cls-13,.cls-16,.cls-34,.cls-78,.cls-80{fill:#fff;}.cls-14,.cls-51,.cls-70{opacity:0.65;}.cls-14{fill:url(#linear-gradient-11);}.cls-15{fill:url(#linear-gradient-12);}.cls-16{opacity:0.26;}.cls-16,.cls-34{mix-blend-mode:soft-light;}.cls-17{fill:url(#linear-gradient-13);}.cls-18{fill:url(#linear-gradient-14);}.cls-19{fill:url(#linear-gradient-15);}.cls-20{fill:url(#linear-gradient-16);}.cls-21{fill:url(#linear-gradient-17);}.cls-22{fill:url(#linear-gradient-18);}.cls-23{fill:url(#linear-gradient-19);}.cls-24{fill:url(#linear-gradient-20);}.cls-25{fill:url(#linear-gradient-21);}.cls-26{fill:url(#linear-gradient-22);}.cls-27{fill:#26264f;}.cls-28{fill:url(#linear-gradient-23);}.cls-29{fill:url(#linear-gradient-24);}.cls-30{fill:#b7c0ce;}.cls-31,.cls-35{fill:#d8dee8;}.cls-32{fill:#bfc8d6;}.cls-33{fill:#eff2f6;}.cls-34{opacity:0.48;}.cls-35{opacity:0.47;}.cls-36{fill:url(#linear-gradient-25);}.cls-37{fill:url(#linear-gradient-26);}.cls-38{fill:url(#linear-gradient-27);}.cls-39{fill:url(#linear-gradient-28);}.cls-40{fill:url(#linear-gradient-29);}.cls-41{fill:url(#linear-gradient-30);}.cls-42{fill:url(#linear-gradient-31);}.cls-43{fill:url(#linear-gradient-32);}.cls-44{fill:url(#linear-gradient-33);}.cls-45{fill:url(#linear-gradient-34);}.cls-46{fill:url(#linear-gradient-35);}.cls-47{fill:url(#linear-gradient-36);}.cls-48{fill:url(#linear-gradient-37);}.cls-49{fill:url(#linear-gradient-38);}.cls-50{fill:url(#linear-gradient-39);}.cls-51{fill:url(#linear-gradient-40);}.cls-52{fill:url(#linear-gradient-41);}.cls-53{fill:url(#linear-gradient-42);}.cls-54{fill:url(#linear-gradient-43);}.cls-55{fill:url(#linear-gradient-44);}.cls-56{fill:url(#linear-gradient-45);}.cls-57{fill:url(#linear-gradient-46);}.cls-58{fill:url(#linear-gradient-47);}.cls-59{fill:url(#linear-gradient-48);}.cls-60{fill:url(#linear-gradient-49);}.cls-61{fill:url(#linear-gradient-50);}.cls-62{fill:url(#linear-gradient-51);}.cls-63{fill:url(#linear-gradient-52);}.cls-64{fill:url(#linear-gradient-53);}.cls-65{fill:url(#linear-gradient-54);}.cls-66{fill:url(#linear-gradient-55);}.cls-67{fill:url(#linear-gradient-56);}.cls-68{fill:url(#linear-gradient-57);}.cls-69{fill:url(#linear-gradient-58);}.cls-70{fill:url(#linear-gradient-59);}.cls-71{fill:url(#linear-gradient-60);}.cls-72{fill:#444b8c;}.cls-73{fill:url(#linear-gradient-61);}.cls-74{fill:#1f1f44;}.cls-75{fill:url(#linear-gradient-62);}.cls-77{fill:url(#linear-gradient-63);}.cls-78{opacity:0.8;}.cls-79{fill:url(#linear-gradient-64);}.cls-80{opacity:0.5;}.cls-81{fill:url(#linear-gradient-65);}</style><linearGradient id="linear-gradient" x1="1866.19" y1="1324.86" x2="2083.04" y2="6890.67" gradientUnits="userSpaceOnUse"><stop offset="0" stop-color="#444b8c"/><stop offset="1" stop-color="#26264f"/></linearGradient><linearGradient id="linear-gradient-2" x1="1899.91" y1="107.93" x2="1920.92" y2="3248.81" gradientUnits="userSpaceOnUse"><stop offset="0" stop-color="#aa80f9"/><stop offset="1" stop-color="#6165d7"/></linearGradient><linearGradient id="linear-gradient-3" x1="1011.24" y1="1301.06" x2="1140.31" y2="4613.68" gradientUnits="userSpaceOnUse"><stop offset="0" stop-color="#e38ddd"/><stop offset="1" stop-color="#9571f6"/></linearGradient><linearGradient id="linear-gradient-4" x1="2884.21" y1="1369.84" x2="2996.43" y2="4250.08" xlink:href="#linear-gradient-3"/><linearGradient id="linear-gradient-5" x1="1577.45" y1="814.11" x2="1697.33" y2="3891.08" xlink:href="#linear-gradient-3"/><linearGradient id="linear-gradient-6" x1="1931.18" y1="1069.26" x2="1991.52" y2="2617.96" xlink:href="#linear-gradient-2"/><linearGradient id="linear-gradient-7" x1="2132.36" y1="1440.91" x2="2199.9" y2="3174.43" xlink:href="#linear-gradient-2"/><linearGradient id="linear-gradient-8" x1="854.95" y1="1795.03" x2="942.07" y2="2217.84" xlink:href="#linear-gradient-2"/><linearGradient id="linear-gradient-9" x1="1178.63" y1="2691.7" x2="1628.13" y2="2691.7" xlink:href="#linear-gradient-2"/><linearGradient id="linear-gradient-10" x1="-1044.75" y1="2669.65" x2="-667.05" y2="2669.65" gradientTransform="matrix(-1, 0, 0, 1, 511.58, 0)" xlink:href="#linear-gradient-2"/><linearGradient id="linear-gradient-11" x1="-916.79" y1="2495.09" x2="-866.82" y2="2495.09" gradientTransform="matrix(-1, 0, 0, 1, 511.58, 0)" xlink:href="#linear-gradient-2"/><linearGradient id="linear-gradient-12" x1="-643.71" y1="2441.95" x2="-735.34" y2="2322.55" gradientTransform="matrix(-1, 0, 0, 1, 511.58, 0)" gradientUnits="userSpaceOnUse"><stop offset="0" stop-color="#311944"/><stop offset="1" stop-color="#893976"/></linearGradient><linearGradient id="linear-gradient-13" x1="1896.72" y1="1385.07" x2="1962.92" y2="2333.91" gradientUnits="userSpaceOnUse"><stop offset="0" stop-color="#ffc444"/><stop offset="1" stop-color="#f36f56"/></linearGradient><linearGradient id="linear-gradient-14" x1="1022.71" y1="2869.38" x2="1096.08" y2="2869.38" gradientTransform="matrix(-1, 0.09, 0.09, 1, 2456.55, -160.45)" xlink:href="#linear-gradient"/><linearGradient id="linear-gradient-15" x1="584.27" y1="2819.05" x2="616.46" y2="2752.43" gradientTransform="matrix(-1, 0.07, 0.07, 1, 2040.62, -60.67)" xlink:href="#linear-gradient-13"/><linearGradient id="linear-gradient-16" x1="656.57" y1="2914.3" x2="734.51" y2="2914.3" gradientTransform="matrix(-0.98, 0.21, 0.21, 0.98, 1968.05, -210.66)" xlink:href="#linear-gradient"/><linearGradient id="linear-gradient-17" x1="496.24" y1="2873.2" x2="529.11" y2="2805.16" gradientTransform="matrix(-0.99, 0.15, 0.15, 0.99, 1974.58, -128.67)" xlink:href="#linear-gradient-13"/><linearGradient id="linear-gradient-18" x1="2306.06" y1="2548.55" x2="2098.16" y2="2079.9" gradientTransform="translate(-237.58 -19.3) rotate(3.06)" xlink:href="#linear-gradient-12"/><linearGradient id="linear-gradient-19" x1="2273.82" y1="2562.86" x2="2065.92" y2="2094.2" gradientTransform="translate(-237.58 -19.3) rotate(3.06)" xlink:href="#linear-gradient-12"/><linearGradient id="linear-gradient-20" x1="1789.34" y1="2712.27" x2="1581.44" y2="2243.6" gradientTransform="translate(-160.89 92.99) rotate(-3.98)" xlink:href="#linear-gradient-12"/><linearGradient id="linear-gradient-21" x1="1653.05" y1="2343.43" x2="2020.04" y2="1495.47" xlink:href="#linear-gradient-13"/><linearGradient id="linear-gradient-22" x1="1629.77" y1="1403.69" x2="1695.96" y2="2352.53" xlink:href="#linear-gradient-13"/><linearGradient id="linear-gradient-23" x1="1591.45" y1="2159.64" x2="1909.34" y2="1425.14" xlink:href="#linear-gradient-13"/><linearGradient id="linear-gradient-24" x1="1337.42" y1="1424.09" x2="1403.62" y2="2372.93" xlink:href="#linear-gradient-13"/><linearGradient id="linear-gradient-25" x1="3097.1" y1="2807.41" x2="3113.31" y2="3013.8" gradientTransform="translate(-626.26)" gradientUnits="userSpaceOnUse"><stop offset="0" stop-color="#26264f"/><stop offset="1" stop-color="#444b8c"/></linearGradient><linearGradient id="linear-gradient-26" x1="2169.07" y1="2625.31" x2="2165.67" y2="2378.44" gradientTransform="translate(820.66 -36.2) rotate(9.85)" xlink:href="#linear-gradient-13"/><linearGradient id="linear-gradient-27" x1="2894.26" y1="2793.6" x2="2910.48" y2="3000" xlink:href="#linear-gradient-25"/><linearGradient id="linear-gradient-28" x1="1966.87" y1="2646.39" x2="1963.47" y2="2399.53" gradientTransform="translate(820.66 -36.2) rotate(9.85)" xlink:href="#linear-gradient-13"/><linearGradient id="linear-gradient-29" x1="2874.45" y1="2369.13" x2="2781.85" y2="2506.91" gradientUnits="userSpaceOnUse"><stop offset="0" stop-color="#893976"/><stop offset="1" stop-color="#311944"/></linearGradient><linearGradient id="linear-gradient-30" x1="2287.03" y1="2672.5" x2="2951.62" y2="2672.5" xlink:href="#linear-gradient-29"/><linearGradient id="linear-gradient-31" x1="2642.41" y1="2173.75" x2="2938.22" y2="2456.22" gradientUnits="userSpaceOnUse"><stop offset="0" stop-color="#ff9085"/><stop offset="1" stop-color="#fb6fbb"/></linearGradient><linearGradient id="linear-gradient-32" x1="2288.68" y1="2262.55" x2="2281.93" y2="2293.34" xlink:href="#linear-gradient-13"/><linearGradient id="linear-gradient-33" x1="5955.46" y1="1280.13" x2="6139.95" y2="1512.24" gradientTransform="translate(-2744.34 -923.84) rotate(14.93)" xlink:href="#linear-gradient-13"/><linearGradient id="linear-gradient-34" x1="5964.29" y1="1268.45" x2="6170.27" y2="1527.6" gradientTransform="translate(-2744.34 -923.84) rotate(14.93)" xlink:href="#linear-gradient-13"/><linearGradient id="linear-gradient-35" x1="2561.46" y1="2258.47" x2="2857.21" y2="2540.88" xlink:href="#linear-gradient-31"/><linearGradient id="linear-gradient-36" x1="2574.76" y1="2225.35" x2="2910.25" y2="2545.71" xlink:href="#linear-gradient-31"/><linearGradient id="linear-gradient-37" x1="2134" y1="1531.47" x2="2221.12" y2="1954.28" xlink:href="#linear-gradient-2"/><linearGradient id="linear-gradient-38" x1="2579.98" y1="3021.68" x2="3029.49" y2="3021.68" xlink:href="#linear-gradient-2"/><linearGradient id="linear-gradient-39" x1="2726.12" y1="2999.63" x2="3103.81" y2="2999.63" gradientTransform="translate(-74.33)" xlink:href="#linear-gradient-2"/><linearGradient id="linear-gradient-40" x1="2854.08" y1="2825.07" x2="2904.05" y2="2825.07" gradientTransform="translate(-74.33)" xlink:href="#linear-gradient-2"/><linearGradient id="linear-gradient-41" x1="3127.16" y1="2771.93" x2="3035.53" y2="2652.53" gradientTransform="translate(-74.33)" xlink:href="#linear-gradient-12"/><linearGradient id="linear-gradient-42" x1="1987.98" y1="3087.22" x2="2028.14" y2="3122.94" gradientTransform="matrix(-0.99, -0.14, -0.14, 0.99, 3687.33, 206.94)" xlink:href="#linear-gradient"/><linearGradient id="linear-gradient-43" x1="1740.97" y1="3461.45" x2="1740.97" y2="3391.49" gradientTransform="matrix(-1, 0.05, 0.05, 1, 2810.88, -528.79)" xlink:href="#linear-gradient-13"/><linearGradient id="linear-gradient-44" x1="1992.02" y1="3082.68" x2="2032.18" y2="3118.4" gradientTransform="matrix(-0.99, -0.14, -0.14, 0.99, 3687.33, 206.94)" xlink:href="#linear-gradient"/><linearGradient id="linear-gradient-45" x1="2172.1" y1="3009.83" x2="2212.26" y2="3045.55" gradientTransform="matrix(-1, 0, 0, 1, 3584.48, 0)" xlink:href="#linear-gradient"/><linearGradient id="linear-gradient-46" x1="1986.7" y1="3309.05" x2="1986.7" y2="3239.09" gradientTransform="matrix(-0.98, 0.19, 0.19, 0.98, 2684.26, -582.01)" xlink:href="#linear-gradient-13"/><linearGradient id="linear-gradient-47" x1="2176.13" y1="3005.29" x2="2216.3" y2="3041.01" gradientTransform="matrix(-1, 0, 0, 1, 3584.48, 0)" xlink:href="#linear-gradient"/><linearGradient id="linear-gradient-48" x1="-343.69" y1="2258.88" x2="-368.24" y2="2370.95" gradientTransform="matrix(-1, 0, 0, 1, 975.4, 0)" xlink:href="#linear-gradient-13"/><linearGradient id="linear-gradient-49" x1="-121.87" y1="2249.24" x2="162.05" y2="2520.35" gradientTransform="matrix(-1, 0, 0, 1, 975.4, 0)" xlink:href="#linear-gradient-3"/><linearGradient id="linear-gradient-50" x1="3343.25" y1="2087.72" x2="3520.36" y2="2310.54" gradientTransform="matrix(-0.97, 0.26, 0.26, 0.97, 3719.74, -923.84)" xlink:href="#linear-gradient-13"/><linearGradient id="linear-gradient-51" x1="3351.73" y1="2076.5" x2="3549.47" y2="2325.29" gradientTransform="matrix(-0.97, 0.26, 0.26, 0.97, 3719.74, -923.84)" xlink:href="#linear-gradient-13"/><linearGradient id="linear-gradient-52" x1="-226.68" y1="2359" x2="57.24" y2="2630.11" gradientTransform="matrix(-1, 0, 0, 1, 975.4, 0)" xlink:href="#linear-gradient-3"/><linearGradient id="linear-gradient-53" x1="-184.24" y1="2314.56" x2="99.68" y2="2585.67" gradientTransform="matrix(-1, 0, 0, 1, 975.4, 0)" xlink:href="#linear-gradient-3"/><linearGradient id="linear-gradient-54" x1="73.48" y1="2569.14" x2="-159.26" y2="2735.37" gradientTransform="matrix(-1, 0, 0, 1, 975.4, 0)" xlink:href="#linear-gradient"/><linearGradient id="linear-gradient-55" x1="-428.47" y1="2772.7" x2="147.88" y2="2772.7" gradientTransform="matrix(-1, 0, 0, 1, 975.4, 0)" xlink:href="#linear-gradient"/><linearGradient id="linear-gradient-56" x1="323.22" y1="1904.6" x2="410.35" y2="2327.41" xlink:href="#linear-gradient-2"/><linearGradient id="linear-gradient-57" x1="721.9" y1="3122.78" x2="1153.42" y2="3122.78" xlink:href="#linear-gradient-2"/><linearGradient id="linear-gradient-58" x1="-572.91" y1="3101.61" x2="-210.32" y2="3101.61" gradientTransform="matrix(-1, 0, 0, 1, 511.58, 0)" xlink:href="#linear-gradient-2"/><linearGradient id="linear-gradient-59" x1="-450.07" y1="2934.03" x2="-402.09" y2="2934.03" gradientTransform="matrix(-1, 0, 0, 1, 511.58, 0)" xlink:href="#linear-gradient-2"/><linearGradient id="linear-gradient-60" x1="-187.91" y1="2883.02" x2="-275.87" y2="2768.4" xlink:href="#linear-gradient-12"/><linearGradient id="linear-gradient-61" x1="1585.8" y1="2208.36" x2="1903.21" y2="2208.36" gradientTransform="translate(-36.43 49.91) rotate(-3.5)" gradientUnits="userSpaceOnUse"><stop offset="0" stop-color="#40447e"/><stop offset="1" stop-color="#3c3b6b"/></linearGradient><linearGradient id="linear-gradient-62" x1="1612.7" y1="1272.36" x2="2126.84" y2="1272.36" gradientTransform="translate(-479.96)" xlink:href="#linear-gradient-31"/><linearGradient id="linear-gradient-63" x1="1680.57" y1="1137.11" x2="2126.73" y2="1724.7" gradientTransform="translate(-479.96)" xlink:href="#linear-gradient-31"/><linearGradient id="linear-gradient-64" x1="2239.64" y1="2472.29" x2="1990.76" y2="2947.2" xlink:href="#linear-gradient-3"/><linearGradient id="linear-gradient-65" x1="2065.71" y1="2829.61" x2="1780.04" y2="3172.07" xlink:href="#linear-gradient-31"/></defs><g class="cls-1"><g id="Illustration"><path class="cls-2" d="M3271.75,1624.19c-56.44-369.38-101.74-624.66-305.52-764.54C2622.49,623.7,2238.61,1006.73,1751.7,749.71,1512,623.16,1503,476.44,1299.94,457,940.72,422.51,646.54,851.2,621.05,888c-154.9,223.37-206.65,495.74-143.85,755.42C518,1812.05,545.55,1986.6,538,2159.91c-13.16,301.63-5.59,583.18,287.13,763.06,261.37,160.62,590.31,302.27,904.12,327.08,213.26,16.87,452.42-10.42,658-65.94C3434.69,2901.14,3349.34,2132.07,3271.75,1624.19Z" transform="translate(-451.14 -455)"/><path class="cls-3" d="M3052.06,1291.07l-.06-2.18a674.6,674.6,0,0,0-13.95-132.34c-22.66-114.32-72.13-204.42-145.33-272.47a445.26,445.26,0,0,0-121.15-82.94l-.85-.44v0c-52.6-24.29-111.52-39.16-175.78-42.63-267.85-14.48-436.78,166.06-610.74,337.73-172.08-177.51-375-390.77-653.82-405.84-91.91-5-177.7,2.5-255.06,34.1h0C833,804.87,677.45,1026.57,677.45,1280.05c0,81.28,13.48,157.67,38.7,226.9,39.17,107.56,106.4,198.52,194.93,263.16,38.73,28.3,81.48,49.66,127.65,70.73h.08a689.43,689.43,0,0,0,261.34,39.89c228.77-9.37,381.45-118,525.43-245.73h0v-.06c52.67-49.8,104.52-102.69,155.85-154,167.32,167.11,352.54,356.31,588.87,346.62,83-3.4,157.39-25.4,221.49-61.19l98.19-63.89c62.71-58.3,109.25-135.22,136-224.9C3043,1420.34,3053.5,1357.67,3052.06,1291.07Zm-1868,268.48c-99.76-47.77-165.83-149.83-165.83-277.54,0-133.92,87.73-248.73,211.63-288.12l.25-.08a310.86,310.86,0,0,1,104-14.31c195.75,6,338.93,187.15,461,308.6L1655.62,1427l2.08.41c-97.09,86.62-206.72,159.1-335.06,161.38C1272.35,1589.72,1225.39,1579.34,1184.1,1559.55Zm1382.73,7.11c-163.68,2.92-290-162.18-405.58-274.2l153.58-156-.39-2.6c79.74-68.3,166.46-118.89,261.77-115.94A229.93,229.93,0,0,1,2672.7,1042c68.6,37.79,118.36,108.75,133.9,191.53a326.93,326.93,0,0,1-.87,120.36C2781.51,1472.11,2686.51,1564.53,2566.83,1566.66Z" transform="translate(-451.14 -455)"/><path class="cls-4" d="M3086.3,1233.16A672.44,672.44,0,0,0,3072,1097.89c-22.76-107.34-72-199.84-142.24-268.53A445.42,445.42,0,0,0,2806.86,744l-.06,0c-52.24-24.46-110.8-39.56-174.63-43.35-194.19-11.52-336.51,81.16-466.51,198.42-47.71,43-93.73,89.35-140.08,135C1854.71,856.33,1653.24,645.41,1376.44,629c-91.23-5.41-176.38,7.29-253.16,35.38h0c-240.45,73.75-394.8,296.65-394.8,549.15,0,81,13.37,155.77,38.4,224.86,3.66,10.11,7.57,19.39,11.7,29.18,39.91,94.27,102.18,173.87,181.74,232.6,38.43,28.41,80.86,49.34,126.68,70.41h.08c77.64,28.1,164.81,44.91,258.69,41.56,227.1-8.12,383.42-114.87,520.92-241.4a2,2,0,0,0,.27-.38c53.54-49.27,104.32-101.7,155.22-152.47,166.17,167.42,350.46,356.94,585.21,348.57,82.51-3,156.53-24.47,220.22-59.8,161.54-89.59,258.76-269.91,258.76-468.17C3086.34,1236.73,3086.34,1234.94,3086.3,1233.16ZM1368.77,1521.84c-49.92.63-96.53-10-137.52-29.9-99-48.12-164.58-150.15-164.58-277.38,0-133.41,87.06-247.34,210-285.94l.25-.07a306.87,306.87,0,0,1,103.29-13.73c194.32,7,336.45,188.25,457.68,309.87l2.6,2.63c-43.71,44-89.84,91.62-139.15,135.5C1605,1448.63,1496.17,1520.25,1368.77,1521.84Zm1473.59-230.33c-22.71,119.69-117.87,213.37-238.1,214.88-162.58,2-288-163.2-402.84-275.43l-3.08-3c48.7-51.92,100.24-107.35,155.22-154.3,79.2-67.65,165.33-117.62,260-114.19a228.09,228.09,0,0,1,96.76,25c67.29,34.54,115.75,102.48,131.62,188.3,0,.16.07.3.09.44a341.75,341.75,0,0,1,5.54,60.19c0,.75,0,1.52,0,2.26A297.62,297.62,0,0,1,2842.36,1291.51Z" transform="translate(-451.14 -455)"/><path class="cls-5" d="M1277,1672.92l-189.91,96.14-.08,0-126.68-70.07c-87.85-64.87-154.58-154.54-193.44-261.81-25-69.1-38.4-142.62-38.4-223.58,0-252.5,154.35-475.4,394.8-549.15h0l-26.17,181.87,179.6,83.61c-123,38.61-210,151.9-210,285.32,0,127.23,65.57,228.94,164.58,277Z" transform="translate(-451.14 -455)"/><path class="cls-6" d="M3086.34,1238.5c0,198.26-97.22,378.57-258.76,468.17L2687,1633.73l35.78-161.43c61.36-35.1,105.15-99.62,119.63-180.79a340.88,340.88,0,0,0,5.23-58.12c0-.79,0-1.61,0-2.4a301.74,301.74,0,0,0-5.57-57.79c0-.14-.07-.28-.09-.44-16-81-64.69-150.61-131.62-188.3A232.4,232.4,0,0,0,2687.15,973L2825,909.85,2805.34,748.1l1.46-4.09.06,0q69.73,35.19,122.87,85.32c71.33,67.56,119.74,156.39,142.24,268.53q12.6,62.58,14.33,135.27C3086.34,1234.94,3086.34,1236.72,3086.34,1238.5Z" transform="translate(-451.14 -455)"/><polygon class="cls-7" points="1248.2 907.4 1415.95 941.81 1415.51 1115.54 1902.81 621.25 1879.84 468.03 1714.53 444.08 1248.2 907.4"/><path class="cls-8" d="M1841.36,1221.3s-5.08-89.32,17.42-135.5c22.41-46,54-149.43,21.67-198.13,92,86.63,145.13,146.43,145.13,146.43Z" transform="translate(-451.14 -455)"/><path class="cls-9" d="M2203.17,1232.68s61.81,78.36,22.08,141c-40,63.09-31,89-4.33,123.28,26.56,34.14-2.54,106.84-2.54,106.84l-197.61-184.59Z" transform="translate(-451.14 -455)"/><ellipse class="cls-10" cx="952.24" cy="2267.19" rx="224.75" ry="91.73"/><path class="cls-11" d="M1178.63,2711.44c0,47.82,100.63,86.58,224.75,86.58s224.75-38.76,224.75-86.58-100.62-126.07-224.75-126.07S1178.63,2663.62,1178.63,2711.44Z" transform="translate(-451.14 -455)"/><path class="cls-12" d="M1178.63,2711.44c0-47.82,100.63-126.07,224.75-126.07a305,305,0,0,1,149.29,39.36c2.78,5.83,4.07,11.61,3.54,17.11-2.57,26.91-46.45,43.45-71.64,48.9-63.43,13.74-94.41-24.19-146.71-22.74-32.33.89-77.14,17.13-130.29,85.93C1189.18,2741.37,1178.63,2726.88,1178.63,2711.44Z" transform="translate(-451.14 -455)"/><path class="cls-13" d="M1391.07,2628.81a51,51,0,0,0,25.24.14,16.25,16.25,0,0,0,12.06-15.81V2359.71h-50v253.13A16.55,16.55,0,0,0,1391.07,2628.81Z" transform="translate(-451.14 -455)"/><path class="cls-14" d="M1391.07,2628.81a51,51,0,0,0,25.24.14,16.25,16.25,0,0,0,12.06-15.81V2359.71h-50v253.13A16.55,16.55,0,0,0,1391.07,2628.81Z" transform="translate(-451.14 -455)"/><path class="cls-15" d="M1667.45,2253.06l-76.35-48.27c-3.17-18-39.16-206.63-185.26-265.86-59.42-24.09-123.36-21.23-158.45-19.66-70.05,3.13-120,5.36-144,38.77-30.86,42.91,20.89,81.82,10.18,204.54-4.37,50.05-15.49,72.28-1.64,105.44,16.58,39.71,55,61.73,84.93,74.12,35.75,20.76,98,50.33,180.17,57.54,138.46,12.13,241.82-47.26,277.37-70a45.74,45.74,0,0,0,31-34.35A40.34,40.34,0,0,0,1667.45,2253.06Z" transform="translate(-451.14 -455)"/><path class="cls-16" d="M1632.35,2287.43c-2.83-17-50.13-2.91-94.87-36.14-66.88-49.68-32.17-133.84-90.34-214.58-53.4-74.09-160.88-111.8-194.25-83.57-44.42,37.58,64.29,178.11,0,268.78-31.23,44-78.81,41.93-79.05,67.76-.39,40.83,118,87.89,230.38,85.83C1525,2373.3,1636.82,2314.36,1632.35,2287.43Z" transform="translate(-451.14 -455)"/><path class="cls-13" d="M1992,1342.76l-10.42-19.6s-9.58-2-13.93-8.82l-4.34-6.85s-2.18-7.2,5.71-15a7.88,7.88,0,0,0,2.35-6.71c-1.09-7.45-3.28-22.7-3.72-26.6-.29-2.58.77-5.66,1.91-8.11a2,2,0,0,1,3.67.28l8.35,30.73s6.69-1.69,9,3.94c0,0,5.79,3.45,6.65,9.47s0,20.55,0,20.55l9.17,20.68Z" transform="translate(-451.14 -455)"/><path class="cls-17" d="M1978.3,1339.51c5.72,13.26,37.59,90.48.81,162.16-41,79.93-151.37,121.75-261.78,85.69-.87,14.28-9.95,195.05,78.83,238.2,95.32,46.34,274.77-79.8,304.07-238.2,25.07-135.54-71.61-245.27-87.27-262.51Z" transform="translate(-451.14 -455)"/><path class="cls-18" d="M1626.71,2778.33c-3.81,3.5-4,11.67-4.2,17-.08,2.38-.11,3.58.21,4.4,2.3,6,14.2,5.92,32.92,6.68,29.57,1.21,38.46,3,40.49-1.52,1.91-4.23-3.72-10.62-4.35-11.33-3.4-3.78-7.37-5-15-7-14.14-3.72-23.67-5.65-26.55-6.23C1632.22,2776.7,1629.21,2776,1626.71,2778.33Z" transform="translate(-451.14 -455)"/><path class="cls-19" d="M1647.45,2748.84l1.15,33.66c-.92,1.58-11.14,5.9-18.82,1.31l-5.81-33.34Z" transform="translate(-451.14 -455)"/><path class="cls-20" d="M1875.83,2773.68c-5.09,5-6.7,14.75-2.78,19.78s10.21,1.73,27.69,3.19c18.71,1.56,23.37,6.25,36.3,3.42,5.22-1.15,14.5-4.12,14.52-7.8,0-2.59-4.54-4.18-19.72-10.18-21.55-8.52-21.43-8.92-26-9.94C1894.19,2769.59,1882.55,2767,1875.83,2773.68Z" transform="translate(-451.14 -455)"/><path class="cls-21" d="M1889.47,2743.74l7.74,31.78c-.8,1.64-10.66,6.73-18.68,2.74l-12.34-31.1Z" transform="translate(-451.14 -455)"/><path class="cls-22" d="M1842.51,2054.19A2934.7,2934.7,0,0,0,1898,2753.33l-36.51,7.76c-28.93-30-64.94-76.74-80.1-140.87-9.4-39.8-4.49-59.73-9.22-108.32-7.51-77.37-28.89-118.83-49.9-182-18.88-56.78-40.35-139.77-48.37-249.6Z" transform="translate(-451.14 -455)"/><path class="cls-23" d="M1825.7,2545.83c-13.4-53.08-39.22-67.11-40.14-117.2-.65-35.44,12.08-38.33,11.24-72.25-1.28-51.45-31.42-78.42-46.56-110.78-16-34.17-22.12-89.07,21-180.38l-97.29,15.06c8,109.83,29.49,192.83,48.37,249.6,21,63.19,42.39,104.65,49.9,182,4.73,48.59-.18,68.52,9.22,108.32,15.16,64.13,51.17,110.86,80.1,140.87l9.28-2c-31.26-37.32-42.3-70.65-45.1-97.69C1821.13,2617.42,1839.21,2599.33,1825.7,2545.83Z" transform="translate(-451.14 -455)"/><path class="cls-24" d="M1720.86,2047.61q-21.72,200-39.77,407.54-13.48,155.73-24.08,307.63l-37,2.57a428.18,428.18,0,0,1-33.06-101c-10.29-53.17-5.59-84.17-8.43-138.86-3.18-61.34-11.82-75.13-24.28-153-25.29-158-37.94-236.93,2.17-283.5C1569.42,2073.9,1609.7,2036.39,1720.86,2047.61Z" transform="translate(-451.14 -455)"/><path class="cls-25" d="M2084.53,1440.56a119.52,119.52,0,0,1-8.38,40.83c-16.13,40-54.53,69.17-46.56,114,4,22.4,16.27,30.26,11.24,46.56-7.12,23.11-36.33,22-67.43,48.17-27.59,23.19-29.14,44.67-43.35,64.22-19.24,26.47-62.68,50.68-168,43,9.35,11.88,20.57,21.67,34.08,28.24,95.33,46.34,274.78-79.8,304.08-238.2C2110.33,1532.78,2100.67,1482.41,2084.53,1440.56Z" transform="translate(-451.14 -455)"/><path class="cls-26" d="M1401.37,1633.07c66.64-22.59,168.32-47.63,292.68-42.5a801,801,0,0,1,183,29.07q10,55.66,19.91,111.33a1327.88,1327.88,0,0,1-2.17,147.15c-4.18,59.55-8.27,60.44-17.85,144.5-15.61,137-9.08,172.84-36.62,189.31-17.91,10.7-24.39-2.22-115.81-11.28-61.3-6.08-92.58-8.9-123.62,1.6-42.27,14.31-56.41,38.32-73.85,30.51-16.72-7.5-18.85-36.37-20.87-86.7-3.12-77.64-2.93-130.42-3.21-149.31-1.32-86.67-23.27-152.85-51.38-237.61A1147.1,1147.1,0,0,0,1401.37,1633.07Z" transform="translate(-451.14 -455)"/><path class="cls-13" d="M1717.56,1578.59c-5.47-11.44,2.17-26.85,10.9-39.49-7-15-35.64-19.4-42.65-34.4a255.1,255.1,0,0,1-7.26,50.65c-3.36,13.41-5.44,16.81-8,19.52-3.87,4.09-9.59,7.38-41.21,13.45-17.21,3.31-19.39,3.08-19.86,4.74-2.27,8.13,42.56,38.63,90.77,34.43,29.5-2.57,57-17.86,55.87-26.72S1725.42,1595,1717.56,1578.59Z" transform="translate(-451.14 -455)"/><path class="cls-27" d="M1739.71,1516.22c7.4-8.81,8.68-24.82,1.26-35.38-6.39-9.08-17.11-10.9-23.52-12-18.6-3.16-42.62,3.39-51.75,20.17-5.41,9.94,4,31.71,5.43,35.61,1.63,4.41,4.94,6.07,7.89,9.5,4.1,4.75,10.51,12.3,21,24.91a77.65,77.65,0,0,1,4.93-12.47,68.54,68.54,0,0,1,9.68-14.45C1725,1520.75,1732.69,1524.57,1739.71,1516.22Z" transform="translate(-451.14 -455)"/><path class="cls-13" d="M1684.7,1548.08s11.22,20.84,35.79,20.55c22-.25,27.84-49.25,14.4-60.43-4.49-3.73-13.77-5.68-21.49-4-4.56,1-6.19,2.8-13.67,4.32-6.91,1.41-8.79.55-10.94,2.17-2.68,2-4.85,7.23-1.32,21.83-4-4.45-8.89-6.35-12.54-4.86a7.5,7.5,0,0,0-3.07,2.69C1668.49,1535.85,1673.24,1543.3,1684.7,1548.08Z" transform="translate(-451.14 -455)"/><path class="cls-27" d="M1688,1507.75c1,.84-2.43,4.61-3,10.18-1,10.82,9.23,24.41,20.36,26.11,6.59,1,8.62-2.88,19.62-3.45a50.06,50.06,0,0,1,15.9,1.77c2.81,12.07-1.06,23.75-9.3,28.82-8.87,5.47-19.61,1.29-24.09-.46-3-1.16-12.63-4.88-17.27-14.14-4.83-9.64.7-15-5.08-21.66-2.91-3.36-6.89-5-10.51-11.35a31.21,31.21,0,0,1-2-4.28C1678.6,1513.6,1686.49,1506.52,1688,1507.75Z" transform="translate(-451.14 -455)"/><path class="cls-13" d="M1732.68,1546.34s-4.87,2.22-13,1.32c-.39,0-.84,0-.9.26-.23.76,4.83,4.52,9.74,3.42,3.49-.78,6.33-3.89,5.92-4.74C1734.23,1546.24,1733.45,1546.24,1732.68,1546.34Z" transform="translate(-451.14 -455)"/><path class="cls-28" d="M1804.83,2166.93c-45-19.18-44.71-58.88-86.7-75.45-59.92-23.65-126.13,31.28-136.47,16.05-10.75-15.85,68.32-64.45,57.8-112.38-8.36-38.1-63.55-31.34-93.12-83.49-28-49.46-.85-95.19-25.68-112.38-8.91-6.17-24.62-8.6-54.4,4.51,20.77,64.86,35.66,122.06,36.74,193,.28,18.89.09,71.67,3.21,149.31,2,50.33,4.15,79.2,20.87,86.7,17.44,7.81,31.58-16.2,73.85-30.51,31-10.5,62.32-7.68,123.62-1.6,91.42,9.06,97.9,22,115.81,11.28,11.67-7,17.21-17.46,20.92-37.6C1843,2176.31,1823.52,2174.91,1804.83,2166.93Z" transform="translate(-451.14 -455)"/><path class="cls-13" d="M1462.86,1996.82l22.06-1.23s24.17-20.23,35.17-19,27.46,8.89,29.46,10.49-6,10.57-14,9.7-25.94,3.46-29.15,10.53-17.1,11.35-19.47,7.2l-29.65,5.88Z" transform="translate(-451.14 -455)"/><path class="cls-29" d="M1469.53,1989.1c1.55,18.1-2.39,30.39-9,38.82-29.16,37.36-128.25,22.09-187.15-28-43.59-37-66.67-94.56-65.82-146.09,1.66-100.57,94.86-199.11,233.49-233.15,20.53,61.34,62.46,117.51,83,178.86-85.47,1.3-158.81,70.9-151.11,116.9C1378.69,1950.74,1418.65,1981.57,1469.53,1989.1Z" transform="translate(-451.14 -455)"/><path class="cls-30" d="M2165.07,2910.73a3.6,3.6,0,0,1-3.59-3.28L2096,2200.08a3.61,3.61,0,1,1,7.19-.66l58.25,629.48V2184.09a3.61,3.61,0,1,1,7.22,0v723a3.61,3.61,0,0,1-3.44,3.61Z" transform="translate(-451.14 -455)"/><polygon class="cls-31" points="2443.81 1806.47 1725.74 1727.8 346.21 1790.5 1068.72 1877.02 2443.81 1806.47"/><polygon class="cls-30" points="1068.72 1877.02 2443.81 1806.47 2443.81 1840.54 1068.72 1911.09 346.21 1824.58 346.21 1790.5 1068.72 1877.02"/><path class="cls-30" d="M1524.74,3157.44h-.15a3.62,3.62,0,0,1-3.47-3.61v-796a3.62,3.62,0,0,1,7.23,0v703.53l55-703.81a3.61,3.61,0,1,1,7.2.57l-62.24,796A3.62,3.62,0,0,1,1524.74,3157.44Z" transform="translate(-451.14 -455)"/><path class="cls-30" d="M805.24,3016h-.15a3.62,3.62,0,0,1-3.47-3.61V2277.69a3.62,3.62,0,0,1,7.23,0V2920.3l50.47-642.89a3.61,3.61,0,0,1,7.2.57L808.84,3012.7A3.62,3.62,0,0,1,805.24,3016Z" transform="translate(-451.14 -455)"/><path class="cls-30" d="M2888.14,3016a3.6,3.6,0,0,1-3.59-3.31L2823.29,2278a3.61,3.61,0,0,1,7.2-.59l54,648.24v-630.1a3.61,3.61,0,0,1,7.22,0v716.88a3.61,3.61,0,0,1-3.46,3.61Z" transform="translate(-451.14 -455)"/><path class="cls-32" d="M2604.08,2275.09l-493.38-3.68v10.87a6,6,0,0,0,5.07,5.9l139.51,21.39a22.71,22.71,0,0,0,5,.2l338.43-24.39a5.78,5.78,0,0,0,5.36-5.76Z" transform="translate(-451.14 -455)"/><path class="cls-32" d="M2425,2257.13,2115.8,2277c-5.53.36-10-3.42-10-8.44v-201c0-5,4.5-9.08,10-9.08H2425a8.22,8.22,0,0,1,8.24,8.21v181.73A8.89,8.89,0,0,1,2425,2257.13Z" transform="translate(-451.14 -455)"/><path class="cls-31" d="M2430,2257.13,2120.74,2277c-5.54.36-10-3.42-10-8.44v-201c0-5,4.5-9.08,10-9.08H2430a8.22,8.22,0,0,1,8.24,8.21v181.73A8.89,8.89,0,0,1,2430,2257.13Z" transform="translate(-451.14 -455)"/><path class="cls-33" d="M2420.34,2244.32l-288,17.26c-4.51.27-8.17-2.83-8.17-6.93v-176c0-4.1,3.66-7.43,8.17-7.45l288-1.08a6.74,6.74,0,0,1,6.8,6.73v160.3A7.29,7.29,0,0,1,2420.34,2244.32Z" transform="translate(-451.14 -455)"/><path class="cls-13" d="M2286.27,2064a3.56,3.56,0,1,1-3.55-3.38A3.49,3.49,0,0,1,2286.27,2064Z" transform="translate(-451.14 -455)"/><path class="cls-34" d="M2356.72,2202.09c-24-11.67-42.8,3.12-61-11.47-11-8.85-5.61-15.45-19.17-28.67-15-14.64-24.81-9.72-39.9-22.9-19.1-16.66-9.55-29.62-26-41.59-20-14.51-41.46-1.08-60.46-15-8.19-6-12.68-14.73-15-24H2116.6a5.64,5.64,0,0,0-5.9,5.33v208.53c0,3,2.65,5.17,5.9,5l316.78-20.36a5.19,5.19,0,0,0,3.81-2.11c-23.19-.77-37.43-7.81-46.54-15.08C2372.84,2225.49,2375.93,2211.45,2356.72,2202.09Z" transform="translate(-451.14 -455)"/><path class="cls-13" d="M2442.29,2256.58l-331.59,20.91,144.58,22.17a22.71,22.71,0,0,0,5,.2l343.79-24.77-156.51-18.37A28.23,28.23,0,0,0,2442.29,2256.58Z" transform="translate(-451.14 -455)"/><polygon class="cls-35" points="1707.95 1822.67 1984.01 1805 2069.45 1814.94 1795.76 1833.84 1707.95 1822.67"/><path class="cls-36" d="M2505.1,2910.13s-72.53,5-73.59,9.78,49.22,23,66.8,23.72,32-4.51,30.44-12-7.75-26.17-7.75-26.17Z" transform="translate(-451.14 -455)"/><path class="cls-37" d="M2501.67,2877.91l-1.28,34.23s11,6.22,19.79,2.65l9.74-36.1Z" transform="translate(-451.14 -455)"/><path class="cls-38" d="M2302.26,2896.33s-72.52,5-73.59,9.78,49.23,23,66.8,23.72,32-4.51,30.44-11.95-7.74-26.17-7.74-26.17Z" transform="translate(-451.14 -455)"/><path class="cls-39" d="M2298.84,2864.11l-1.29,34.22s11,6.23,19.79,2.65l9.74-36.09Z" transform="translate(-451.14 -455)"/><path class="cls-40" d="M2494,2882.75l40.65,4.51c18.31-20.29,45.63-55.66,60.23-105.4,28.16-95.9-12.62-165,13.56-182.2,37-24.34,117.33,115.8,246.2,112.2,52.87-1.47,121.89-27.37,148.41-83.77,4-8.51,23.68-53.08,4.52-94.86-19.78-43.14-117.89-61.91-313.3-97.7-83.89-15.36-126.24-23-143.26-14.9C2430.37,2478.21,2480.66,2803.78,2494,2882.75Z" transform="translate(-451.14 -455)"/><path class="cls-41" d="M2287.05,2883.32l42,7.32c17-25.08,42.8-64.37,71.61-114.23,60.07-103.93,59-125,86.73-138.42,58.76-28.31,103.15,48.18,248.46,69.27,47.53,6.9,153,22.22,195.75-34.64,17.31-23,27.25-61.89,13.55-94.86-24.56-59.1-105.45-52-371.93-103.9C2469.35,2453.62,2455.19,2450,2430,2459,2289.43,2509,2286.69,2815.05,2287.05,2883.32Z" transform="translate(-451.14 -455)"/><path class="cls-42" d="M2578.17,2069.43c13.84-33.83,43.53-53.28,58.93-63.37a128.65,128.65,0,0,1,22.05-11.79c55.77-22.77,111.44-21.2,121.37-20.46,24.09,1.81,83.57,6.26,127.64,44.44,21.33,18.49,38.38,44.29,63.24,189.73,34.67,202.84,6.53,182.05,33.88,264.27,14.47,43.5,37,93.42,13.17,125.29-7.7,10.3-18.7,13.26-41.13,23.35-83.8,37.71-158.93,31.21-204.58,26.69-50.23-5-75.62-7.83-88.94-25.58-21.28-28.35.62-64.38,4.44-126.74,2.75-44.78-7.43-80.26-27.79-151.21C2613.12,2179.09,2551.67,2134.24,2578.17,2069.43Z" transform="translate(-451.14 -455)"/><path class="cls-43" d="M2342.07,2271.41l-53.54-10.29a32.64,32.64,0,0,0-11.66-.12l-46.31,8s30.11,12.11,55.71,8.31,53.57,10.61,53.57,10.61Z" transform="translate(-451.14 -455)"/><path class="cls-44" d="M2696.61,1936.32c-9-13.61,4.48-39.78,9.81-50.14.18-.35.42-.82.92-1.75,8.19-15.11,10.29-17.17,14.2-19.79l5.43-3.35.64-.24c3.49-1.24,15.37-1.6,17.78-1.09,7.68,1.64,15.87,33,13.53,77.25q.48,2.54.93,5.1,1.82,10.5,2.91,20.55c.72,6.41,9.81,6.27,16.24,5.86,26.13-1.67,38.92.55,40,4.44,2.08,7.3-28.91,31.14-67.18,36.5-51.35.38-93.13-5.09-88.64-13.18,2-3.59,41.79-14,53-24.29,10.24-9.44,9.41-19.18,10.25-26.15C2721.14,1946.32,2703.48,1946.69,2696.61,1936.32Z" transform="translate(-451.14 -455)"/><path class="cls-27" d="M2711,1848.71c-4.22,9.32,6,28,9.8,30.73a22.56,22.56,0,0,1,5,5.42,6.88,6.88,0,0,1,.79,1.63c3,8.64-10.75,18.82-8.09,22.69,1.92,2.81,11.26-1,12.38,1.47s-6.72,7-5.53,9.74c.89,2.07,5.67.18,8.69,3.34,2.33,2.45,2.6,5.91,2.65,7.64.37,12.29-27.5,56.68-33.31,76.71-6.15,21.24,4.86,41.46,44.87,97.32,56.92,79.47,85.38,119.2,101.2,130.56,77.33,55.51,168.25,48.71,205.54,42.92,44.79-7,137.34-21.34,167.14-92.61,34.26-81.92-33.19-194-102.39-213.07-31.65-8.7-48.5,4.52-89.6-9.78-45.39-15.8-39.89-43.73-81.91-60.22-56.05-22-92.22,17.33-130.4-11.31-20.78-15.58-17.35-32.69-42.92-45.17C2749.7,1834.41,2716.57,1836.51,2711,1848.71Z" transform="translate(-451.14 -455)"/><path class="cls-45" d="M2723.43,1906c3.36-4.62,9.27-.28,9.31,5.7s-5.76,12.19-11.38,11S2718.9,1912.17,2723.43,1906Z" transform="translate(-451.14 -455)"/><path class="cls-46" d="M2816.1,2588.65c-14.78-29.43,21.44-68.55-2.22-113.41-20.1-38.1-56.6-29.56-73.38-64.48-20.27-42.18,23.81-73.7,22.23-137.87-1.88-76.7-67.89-153.49-106.73-146.76-25.13,4.36-28.36,41.85-46,82.9,15.64,34.31,33.93,77.29,50.49,135,20.36,70.95,30.54,106.43,27.79,151.21-3.82,62.36-25.72,98.39-4.44,126.74,13.32,17.75,38.71,20.6,88.94,25.57,45.65,4.52,120.78,11,204.58-26.68,10.6-4.77,18.54-8.35,25-11.87C2871.43,2628.68,2827.82,2612,2816.1,2588.65Z" transform="translate(-451.14 -455)"/><path class="cls-47" d="M2328.44,2287q2.26-10.26,4.55-20.5c102.87,18.44,147.85-2.26,169.58-26.45,19.95-22.2,11.44-33.66,43.36-118.4,30.4-80.72,64.9-101.46,82.28-109,9.7-4.19,16.4-7,24.46-5,37,9.06,49.31,105.64,38.91,177.9-5.86,40.71-17.35,120.53-82.83,158.43-1.21.7-3.11,1.8-5.63,3.14-8.24,4.42-41,20.17-105.55,8.53C2421.47,2342,2347.23,2298.38,2328.44,2287Z" transform="translate(-451.14 -455)"/><ellipse class="cls-48" cx="2353.6" cy="2597.18" rx="224.75" ry="91.73"/><path class="cls-49" d="M3029.49,3041.42c0,47.82-100.63,86.59-224.75,86.59S2580,3089.24,2580,3041.42s100.63-126.07,224.76-126.07S3029.49,2993.6,3029.49,3041.42Z" transform="translate(-451.14 -455)"/><path class="cls-50" d="M3029.49,3041.42c0-47.82-100.63-126.07-224.75-126.07a304.91,304.91,0,0,0-149.29,39.37c-2.78,5.82-4.07,11.61-3.55,17.1,2.58,26.91,46.46,43.45,71.65,48.9,63.43,13.74,94.41-24.19,146.71-22.74,32.33.89,77.14,17.14,130.28,85.93C3018.94,3071.35,3029.49,3056.87,3029.49,3041.42Z" transform="translate(-451.14 -455)"/><path class="cls-13" d="M2817,2958.79a51,51,0,0,1-25.24.14,16.23,16.23,0,0,1-12.05-15.81V2689.7h50v253.12A16.55,16.55,0,0,1,2817,2958.79Z" transform="translate(-451.14 -455)"/><path class="cls-51" d="M2817,2958.79a51,51,0,0,1-25.24.14,16.23,16.23,0,0,1-12.05-15.81V2689.7h50v253.12A16.55,16.55,0,0,1,2817,2958.79Z" transform="translate(-451.14 -455)"/><path class="cls-52" d="M2540.67,2583l76.34-48.26c3.18-18,39.17-206.64,185.27-265.87,59.42-24.09,123.36-21.23,158.45-19.66,70,3.13,120,5.36,144,38.77,30.86,42.91-20.9,81.82-10.18,204.55,4.37,50,15.48,72.27,1.64,105.43-16.58,39.72-55,61.73-84.94,74.12-35.74,20.76-98,50.33-180.17,57.54-138.45,12.13-241.81-47.26-277.36-70a45.77,45.77,0,0,1-31-34.36A40.33,40.33,0,0,1,2540.67,2583Z" transform="translate(-451.14 -455)"/><path class="cls-16" d="M2575.77,2617.41c2.82-17,50.12-2.91,94.86-36.14,66.89-49.68,32.17-133.84,90.35-214.57,53.39-74.09,160.88-111.8,194.25-83.57,44.41,37.57-64.29,178.1,0,268.78,31.22,44.05,78.8,41.92,79.05,67.76.39,40.82-118,87.89-230.38,85.83C2683.1,2703.28,2571.29,2644.34,2575.77,2617.41Z" transform="translate(-451.14 -455)"/><path class="cls-53" d="M1275.33,3003.76c-1.15-6.3-21.48-12-31.55-3.57-5,4.19-8.44,12.68-5.55,16.51,1.06,1.4-3.25,3.85.88,3.9C1252.8,3020.76,1276.46,3010,1275.33,3003.76Z" transform="translate(-451.14 -455)"/><path class="cls-54" d="M1253.09,3003.79l-21.09,1.05c7.31-13.29-1.48-49.42-1.48-49.42l22.78.67s-.56,10.49-2,26.07C1250.87,2987.5,1251.75,2995.53,1253.09,3003.79Z" transform="translate(-451.14 -455)"/><path class="cls-55" d="M1255.87,3003.47s-25.18-5.8-27.9-.81-4.84,18.37,11.14,17.94S1257.29,3007.71,1255.87,3003.47Z" transform="translate(-451.14 -455)"/><path class="cls-56" d="M1403.75,3029.4c-2-6.07-22.94-8.87-31.73.89-4.37,4.84-6.59,13.73-3.19,17.12,1.24,1.23-2.68,4.27,1.41,3.74C1383.83,3049.39,1405.75,3035.43,1403.75,3029.4Z" transform="translate(-451.14 -455)"/><path class="cls-57" d="M1379,3035.25l-20.73,4.07c5.33-14.2-8.55-48.7-8.55-48.7l22.64-2.61s.95,10.47,1.81,26.09C1374.48,3019.44,1376.5,3027.27,1379,3035.25Z" transform="translate(-451.14 -455)"/><path class="cls-58" d="M1384.44,3031.84s-25.74-2.22-27.73,3.11-2.22,18.86,13.53,16.2S1386.44,3035.84,1384.44,3031.84Z" transform="translate(-451.14 -455)"/><path class="cls-27" d="M1274.33,2401.11l88.94-208.33a18.32,18.32,0,0,0-12.52-25l-162.91-39.56a18.31,18.31,0,0,0-21.28,10.87l-81.8,200.23a18.31,18.31,0,0,0,11.59,24.44l155.78,47.66A18.31,18.31,0,0,0,1274.33,2401.11Z" transform="translate(-451.14 -455)"/><path class="cls-33" d="M1270.31,2391.09l83.07-194.59a17.1,17.1,0,0,0-11.7-23.34l-152.17-37a17.1,17.1,0,0,0-19.87,10.15l-76.41,187a17.1,17.1,0,0,0,10.83,22.82l145.51,44.52A17.11,17.11,0,0,0,1270.31,2391.09Z" transform="translate(-451.14 -455)"/><path class="cls-59" d="M1321.59,2333.89l2.67-24.55,14.15-27a25.67,25.67,0,0,0,2.93-11.9V2243.7l-17.08,39.49s-11.21-10.14-15.48-12.28-3.73,6.41-.53,9.61-1.6,29.35,1.6,32l-1.07,16Z" transform="translate(-451.14 -455)"/><path class="cls-60" d="M1186,2177.52c-13.28-32.47-41.79-51.15-56.57-60.84-35-22.91-57.37-18.73-137.69-30.95-107-16.29-119.85-31.72-155.83-19.21-47.26,16.43-71.94,59.32-83.25,79-57,99.1,9.64,149.48-7.48,346.89-7,80.62-24.91,150.69,18.15,192.12,9.07,8.73,19.21,13.29,39.49,22.42,80.44,36.19,152.57,30,196.39,25.61,48.23-4.77,72.6-7.51,85.39-24.55,20.43-27.22-.6-61.81-4.27-121.68-2.63-43,7.14-77,26.69-145.15C1152.49,2282.79,1211.48,2239.74,1186,2177.52Z" transform="translate(-451.14 -455)"/><path class="cls-61" d="M1006.87,2027.31c4.87-17.36-3.65-33.44-5.53-36.9-7.86-14.51-9.88-16.49-13.63-19l-5.21-3.22-.62-.23c-3.35-1.19-14.75-1.54-17.06-1-7.38,1.58-15.24,31.65-13,74.16-.31,1.62-.6,3.25-.89,4.9-1.16,6.72-2.08,13.3-2.8,19.73-.68,6.15-9.41,6-15.59,5.62-25.08-1.6-37.35.53-38.42,4.27-2,7,27.75,29.88,64.49,35,49.3.37,89.41-4.88,85.1-12.64-1.92-3.45-40.12-13.43-50.86-23.33-9.84-9.06-9-18.41-9.85-25.1C986,2048,1003.28,2040.1,1006.87,2027.31Z" transform="translate(-451.14 -455)"/><path class="cls-27" d="M997.8,1956.12c0,13.17-6.25,27.23-9.41,29.49a21.8,21.8,0,0,0-4.77,5.21,6.3,6.3,0,0,0-.75,1.56c-2.89,8.3,10.31,18.07,7.76,21.78-1.85,2.7-10.82-.91-11.88,1.42s6.45,6.73,5.3,9.35c-.86,2-5.44.17-8.34,3.21-1.44,1.51-1,2.71-2.54,7.33a42.87,42.87,0,0,1-3,7.06c-4.55,7.73-17.45,10.56-19.93,7.46-.69-.86-.09-1.59-.8-4.48a22.93,22.93,0,0,0-2.52-5.78c-2.67-4.43-9.1-7.6-15.6-12.28-12-8.66-15.3-16-16.28-18.54-.35-.89-.56-1.56-.72-2-3.13-9.71-3.14-24,1.22-32.74,7.31-14.69,23.81-7.71,37.31-22.27,15.57-16.79,6.29-39.75,14.75-42.28C976.9,1906.78,997.88,1931.76,997.8,1956.12Z" transform="translate(-451.14 -455)"/><path class="cls-62" d="M985.9,2011.07c-3.23-4.44-8.91-.27-8.94,5.47s5.53,11.7,10.92,10.57S990.24,2017,985.9,2011.07Z" transform="translate(-451.14 -455)"/><path class="cls-27" d="M983.28,2001.47l7.49,9.74s8.07,11.93,12.78,5.39c3.85-5.34,4.85-5.22,5.09-5,0,0,.05.1.06.1s-.56-2.66-1.13-5a43.94,43.94,0,0,1,6.41,13.75c1.61,6.07,3.34,12.56-.08,18.8-.2.36-4,7-11,8.61,0,0-2.77.63-14.47-1.42,0,0,12.79-9.28,13-11.49.53-6-7.78-9.23-14-21.52A49.31,49.31,0,0,1,983.28,2001.47Z" transform="translate(-451.14 -455)"/><path class="cls-63" d="M957.63,2676c14.18-28.25-20.58-65.8,2.13-108.87,19.29-36.58,54.33-28.38,70.45-61.9,19.46-40.49-22.87-70.76-21.35-132.35,1.81-73.64,65.17-147.36,102.46-140.89,24.13,4.18,27.23,40.17,44.21,79.58-15,32.94-32.57,74.2-48.47,129.62-19.55,68.11-29.32,102.17-26.69,145.15,3.67,59.87,24.7,94.46,4.27,121.68-12.79,17-37.16,19.78-85.39,24.55-43.82,4.34-116,10.58-196.39-25.61-10.18-4.59-17.8-8-24-11.4C904.51,2714.4,946.37,2698.38,957.63,2676Z" transform="translate(-451.14 -455)"/><path class="cls-64" d="M1326.4,2329.08l-23.49-10.14c-13.22,13.53-30.1,26.69-44.29,22.42-21.16-6.37-15.87-45.29-41.63-113.67-29.18-77.49-62.3-97.4-79-104.6-9.32-4-15.75-6.7-23.48-4.81-35.58,8.7-47.34,101.41-37.36,170.78,5.62,39.08,16.65,115.72,79.52,152.1,8.93,5.16,58.08,33.61,106.73,11.2C1305,2433.22,1330.66,2384.11,1326.4,2329.08Z" transform="translate(-451.14 -455)"/><path class="cls-65" d="M1266.88,2958.31l-39,4.33c-17.57-19.47-43.81-53.43-57.82-101.18-26.86-91.47,15.19-151.51-13-174.92-32.52-27-96.74,45.92-238.52,66.5-45.63,6.62-146.93,21.33-187.92-33.25-16.62-22.13-26.16-59.42-13-91.07,23.57-56.73,101.23-49.92,357-99.74,98.55-19.19,114.12-25.48,137.53-14.3C1327.93,2570,1279.65,2882.5,1266.88,2958.31Z" transform="translate(-451.14 -455)"/><path class="cls-66" d="M1383,2995.1l-39,4.34c-17.57-19.48-43.8-53.44-57.82-101.19-26.86-91.47,15.19-151.51-13-174.91-32.51-27-96.74,45.92-238.52,66.5-45.63,6.62-146.93,21.33-187.92-33.25-16.61-22.13-26.16-59.42-13-91.07,23.58-56.74,101.23-49.92,357-99.74,98.55-19.2,114.12-25.48,137.53-14.31C1444.06,2606.75,1395.78,2919.3,1383,2995.1Z" transform="translate(-451.14 -455)"/><ellipse class="cls-67" cx="486.52" cy="2697.05" rx="215.76" ry="88.06"/><path class="cls-68" d="M721.9,3141.73c0,45.91,96.59,83.12,215.76,83.12s215.76-37.21,215.76-83.12-96.6-121-215.76-121S721.9,3095.82,721.9,3141.73Z" transform="translate(-451.14 -455)"/><path class="cls-69" d="M721.9,3141.73c0-45.91,96.59-121,215.76-121A292.72,292.72,0,0,1,1081,3058.49c2.67,5.59,3.91,11.15,3.41,16.42-2.48,25.83-44.6,41.71-68.79,47C954.7,3135.05,925,3098.64,874.76,3100c-31,.86-74.06,16.46-125.08,82.5C732,3170.47,721.9,3156.56,721.9,3141.73Z" transform="translate(-451.14 -455)"/><path class="cls-13" d="M925.84,3062.4a48.87,48.87,0,0,0,24.23.14,15.6,15.6,0,0,0,11.58-15.18V2804.07h-48v243A15.87,15.87,0,0,0,925.84,3062.4Z" transform="translate(-451.14 -455)"/><path class="cls-70" d="M925.84,3062.4a48.87,48.87,0,0,0,24.23.14,15.6,15.6,0,0,0,11.58-15.18V2804.07h-48v243A15.87,15.87,0,0,0,925.84,3062.4Z" transform="translate(-451.14 -455)"/><path class="cls-71" d="M1191.16,2701.68l-73.29-46.33c-3-17.31-37.6-198.38-177.86-255.23-57-23.13-118.42-20.38-152.11-18.88-67.24,3-115.21,5.15-138.28,37.23-29.62,41.19,20.06,78.54,9.77,196.36-4.19,48-14.86,69.38-1.57,101.21,15.92,38.13,52.84,59.26,81.54,71.16,34.31,19.93,94.06,48.32,173,55.24,132.91,11.64,232.14-45.37,266.26-67.19a43.89,43.89,0,0,0,29.8-33A38.72,38.72,0,0,0,1191.16,2701.68Z" transform="translate(-451.14 -455)"/><path class="cls-16" d="M1157.46,2734.67c-2.71-16.29-48.11-2.78-91.07-34.69-64.2-47.69-30.88-128.48-86.73-206-51.26-71.13-154.44-107.33-186.48-80.23-42.64,36.08,61.72,171,0,258-30,42.29-75.65,40.25-75.89,65.05-.37,39.19,113.31,84.38,221.17,82.4C1054.42,2817.11,1161.76,2760.53,1157.46,2734.67Z" transform="translate(-451.14 -455)"/><path class="cls-27" d="M1566.22,2211.57a2.42,2.42,0,0,0-2.55,1.71c0,.15,1.33,5.73,1.33,5.89a3.9,3.9,0,0,0,2.7,3.11l126.61,46.32L1919.63,2218l-110.84-4.76Z" transform="translate(-451.14 -455)"/><path class="cls-72" d="M1566.05,2210.81a2.18,2.18,0,0,0-2.42,2.21,3.88,3.88,0,0,0,2.7,3.12l126.86,46.46,225.72-50.83-111-4.75Z" transform="translate(-451.14 -455)"/><path class="cls-73" d="M1687.62,2260.54l-5-208.64c-.09-3.57,2.66-6.2,6.64-6.33l292.59-10.18a10.86,10.86,0,0,1,7.45,2.71,8.57,8.57,0,0,1,3.1,6.59l-6.75,199.58c-.11,3.24-2.91,5.65-6.75,5.83l-284,13.15Z" transform="translate(-451.14 -455)"/><path class="cls-27" d="M1694.31,2268.6l-4.51-212.47c-.08-3.56,2.68-6.18,6.65-6.31l292.45-10.1a10.85,10.85,0,0,1,7.43,2.7,8.56,8.56,0,0,1,3.09,6.58l-7.17,199.18c-.11,3.22-2.89,5.62-6.71,5.81Z" transform="translate(-451.14 -455)"/><path class="cls-74" d="M1694.31,2268.6,1985.54,2254c3.82-.19,6.6-2.59,6.71-5.81l2.07-57.54c-88.45,33.3-199.51,26.76-301,32.59Z" transform="translate(-451.14 -455)"/><path class="cls-75" d="M1609.64,1373.88c23.63-29.6,37.25-64.35,37.25-101.52,0-108.1-115.1-195.73-257.07-195.73s-257.07,87.63-257.07,195.73,115.09,195.72,257.07,195.72c53.21,0,102.64-12.31,143.66-33.39,27.11,4.62,69.19,12.39,91.39,16.53a8.55,8.55,0,0,0,9.56-11.41Z" transform="translate(-451.14 -455)"/><g class="cls-76"><path class="cls-77" d="M1530.49,1313.78c-57.64-24.23-121,26.91-160.66-8.77-39.95-36,3.21-107.07-35-157.74-18.24-24.16-48.89-35.59-84-39.58-71,34.82-118.07,95.56-118.07,164.67,0,108.09,115.09,195.72,257.07,195.72,53.21,0,102.64-12.31,143.66-33.39,21.39,3.65,52.09,9.25,75,13.49C1591.58,1360.54,1560.49,1326.38,1530.49,1313.78Z" transform="translate(-451.14 -455)"/></g><path class="cls-78" d="M1295,1141a92.93,92.93,0,0,0-12.25,6c-.24-.34-.49-.68-.77-1-5.41-6.35-15.31-6.8-22.12-1s-7.94,15.63-2.54,22c.29.33.59.64.89.94a93.82,93.82,0,0,0-7.94,11.1,12.93,12.93,0,0,0-1.23-.46c-8.08-2.61-17.23,1.92-20.42,10.11s.77,16.94,8.86,19.55c.41.13.83.23,1.25.33a85.24,85.24,0,0,0-1.51,13.18c-.44.06-.88.12-1.33.22-8.6,1.84-14.53,10.13-13.26,18.53s9.29,13.71,17.89,11.87c.44-.1.88-.22,1.31-.35a77.21,77.21,0,0,0,5.3,11.73c-.37.26-.73.53-1.08.83-6.81,5.79-7.94,15.63-2.54,22s15.31,6.81,22.12,1c.36-.31.69-.63,1-1a78.74,78.74,0,0,0,10.72,7.11c-.2.41-.39.82-.56,1.25-3.19,8.19.78,16.94,8.86,19.55s17.23-1.93,20.43-10.12c.16-.42.29-.84.42-1.26a85.61,85.61,0,0,0,13.26.6c0,.43.06.86.13,1.3,1.28,8.39,9.29,13.71,17.89,11.87s14.53-10.14,13.25-18.53c-.06-.44-.16-.86-.26-1.28a91.7,91.7,0,0,0,12.25-6.05c.25.35.49.69.77,1,5.41,6.35,15.31,6.81,22.12,1s8-15.64,2.54-22c-.28-.33-.59-.64-.89-.94a92.69,92.69,0,0,0,7.94-11.1c.4.17.81.33,1.23.47,8.09,2.6,17.23-1.93,20.42-10.12s-.77-16.94-8.86-19.54a11,11,0,0,0-1.25-.33,84.16,84.16,0,0,0,1.51-13.19c.44-.05.88-.12,1.33-.21,8.6-1.84,14.54-10.14,13.26-18.53s-9.29-13.71-17.89-11.88c-.44.1-.88.22-1.31.35a76.66,76.66,0,0,0-5.3-11.72c.37-.27.73-.54,1.08-.83,6.81-5.79,8-15.64,2.54-22s-15.31-6.8-22.12-1c-.36.3-.69.62-1,.94a78.74,78.74,0,0,0-10.72-7.11c.2-.41.39-.82.56-1.25,3.19-8.19-.77-16.94-8.86-19.54s-17.23,1.92-20.42,10.11c-.17.42-.3.84-.43,1.26a84.39,84.39,0,0,0-13.26-.59c0-.44-.06-.87-.13-1.3-1.28-8.4-9.28-13.71-17.88-11.88s-14.54,10.14-13.26,18.54C1294.83,1140.2,1294.93,1140.62,1295,1141Zm19.49,22.87c31.23-6.67,60.3,12.62,64.94,43.11s-16.91,60.6-48.14,67.28-60.3-12.62-64.94-43.1S1283.3,1170.59,1314.52,1163.91Z" transform="translate(-451.14 -455)"/><path class="cls-78" d="M1445.31,1271.5a67,67,0,0,0-9,4.44c-.18-.25-.36-.5-.56-.74-4-4.66-11.24-5-16.24-.75s-5.83,11.48-1.86,16.14c.21.24.43.47.65.69a68.65,68.65,0,0,0-5.83,8.15,8.83,8.83,0,0,0-.9-.35,12.35,12.35,0,0,0-15,7.43,10.69,10.69,0,0,0,6.5,14.34c.31.1.61.18.92.25a62.38,62.38,0,0,0-1.11,9.67c-.32,0-.64.09-1,.16a12.35,12.35,0,0,0-9.73,13.6,10.69,10.69,0,0,0,13.12,8.72c.33-.07.65-.16,1-.26a56.29,56.29,0,0,0,3.89,8.61,9.24,9.24,0,0,0-.79.61c-5,4.25-5.84,11.47-1.87,16.13s11.24,5,16.24.75c.26-.23.5-.46.74-.7a56.81,56.81,0,0,0,7.87,5.22c-.15.3-.29.61-.41.92a10.68,10.68,0,0,0,6.5,14.35,12.36,12.36,0,0,0,15-7.43c.12-.3.22-.61.31-.92a62.73,62.73,0,0,0,9.73.43c0,.32,0,.64.1,1a10.69,10.69,0,0,0,13.13,8.71,12.35,12.35,0,0,0,9.73-13.6c0-.32-.12-.63-.19-.94a67,67,0,0,0,9-4.44c.18.26.36.5.56.74,4,4.66,11.24,5,16.24.75s5.83-11.48,1.86-16.14c-.21-.24-.43-.47-.65-.69a68.65,68.65,0,0,0,5.83-8.15,8.83,8.83,0,0,0,.9.35,12.36,12.36,0,0,0,15-7.43,10.69,10.69,0,0,0-6.5-14.34c-.31-.1-.62-.18-.92-.25a61.18,61.18,0,0,0,1.1-9.67c.33,0,.65-.09,1-.16a12.35,12.35,0,0,0,9.73-13.6,10.71,10.71,0,0,0-13.13-8.72c-.32.07-.64.17-1,.26a56.29,56.29,0,0,0-3.89-8.61,9.24,9.24,0,0,0,.79-.61c5-4.25,5.83-11.47,1.87-16.13s-11.24-5-16.24-.75c-.26.23-.5.46-.74.7a56.81,56.81,0,0,0-7.87-5.22,9.52,9.52,0,0,0,.41-.92,10.69,10.69,0,0,0-6.5-14.35,12.36,12.36,0,0,0-15,7.43c-.12.31-.22.61-.31.92a62.8,62.8,0,0,0-9.74-.43c0-.32,0-.64-.09-1a10.7,10.7,0,0,0-13.13-8.71,12.35,12.35,0,0,0-9.73,13.6C1445.17,1270.88,1445.24,1271.19,1445.31,1271.5Zm14.31,16.79c22.92-4.91,44.26,9.26,47.66,31.63s-12.41,44.48-35.33,49.38-44.26-9.26-47.66-31.63S1436.7,1293.19,1459.62,1288.29Z" transform="translate(-451.14 -455)"/><path class="cls-79" d="M1964.08,3085.77c-29-2.3-66.15-10.37-101.79-33.67-38.56-25.2-88.78-77-75.67-109.66,4.89-12.18,19-22.62,31.37-21.63,18.3,1.47,20.43,26.89,52.2,54.54,5.88,5.11,36.24,31.52,51.33,22.62,7.5-4.42,9.72-16.69,8.5-26-3.58-27.26-36.86-31.44-68.86-60.95-32.44-29.92-59.48-82.11-44-117.4,8.88-20.27,32.38-36.29,47.82-31.79,6.6,1.93,10.79,7.32,30.83,50.62,16.45,35.53,20.1,45.89,30.71,49.26,10.91,3.46,27.88-.89,34.33-11.64,16.8-28-55.8-69.36-62.39-147.74-3-35.12,6.54-87.18,38.35-98.34,21.5-7.55,52.14,4,63.21,23.7,10,17.79-2.14,31.17,5.47,71.12,2.32,12.12,7.07,37.07,17.11,38.37,11.78,1.54,25-30.27,28-38,22.94-58.33-3.36-88.32,18.27-116.63,16.87-22.08,53.57-30.94,82.64-19.79,25.44,9.76,45.79,35.13,47.15,61.43,1.39,26.75-21.12,53.39-66.12,106.66-21.35,25.26-38.33,42.33-37.36,67.44.47,12.24,5.32,29.46,14.09,31,19.35,3.47,28.87-74.45,74.73-86.48,23.48-6.16,52.65,5.94,65.46,27.1,15.71,25.93,5.19,62.67-14.54,82-25.74,25.21-52.14,6.06-100.58,33.13-21.49,12-55.26,37.57-50.31,58.7,2.15,9.2,11.79,18.21,22.38,19.41,23.72,2.7,31.55-36.18,69.69-53.27,27.48-12.32,65.48-11,74.5,4.51,12.74,21.88-32.51,71.55-56.57,93.49C2164.93,3034.42,2096.34,3084.73,1964.08,3085.77Z" transform="translate(-451.14 -455)"/><path class="cls-80" d="M1977.12,3073.31c-3.84-65,39.23-197.48,70.57-260.09,30.66-61.27,60-158.2,60.29-159.17l1.91.57c-.3,1-29.68,98.07-60.42,159.49-31.24,62.42-74.18,194.38-70.36,259.08Z" transform="translate(-451.14 -455)"/><path class="cls-81" d="M1895.68,3094.25c-21.86-30.34-53.92-85.09-59.66-158.33-2.37-30.18-7-89.13,29.06-140,18-25.35,56.09-62.83,81.84-52,16.57,6.95,26.86,33.41,22.18,53.54-4.71,20.29-21.86,22.17-40.53,56.6-6.91,12.74-14.81,27.7-8.74,36.14,5.06,7.06,19,8.34,29.41,4.11,21.55-8.74,14.82-35.57,38.12-54.82,16.56-13.68,44.18-20.11,56.1-8.9,10.35,9.73,8.54,32.46-.6,47.62-14.64,24.27-40.9,17.15-58,43.68-7.6,11.77-13,29.55-6.35,36.58,7.57,8,29.86,1.08,44.14-7.77,18.86-11.69,19.56-24.13,32-25.69,13.85-1.74,31.17,11.45,33.88,26,3.79,20.44-21.29,42.48-41.15,52.06-25.42,12.26-44.31,5.07-56.73,21.82-4.56,6.15-8.73,16.18-5,22.27,5.33,8.69,24.6,5.82,37.39,3.92,31.14-4.64,39.71-15.93,50.87-10.44s17.13,24.32,12.24,37.48c-2.71,7.31-10.87,18.64-51.29,25.74C2006.55,3108.89,1959,3112.39,1895.68,3094.25Z" transform="translate(-451.14 -455)"/></g></g></svg>