<svg xmlns="http://www.w3.org/2000/svg" xmlns:xlink="http://www.w3.org/1999/xlink" width="33" height="33" viewBox="0 0 33 33">
  <defs>
    <clipPath id="clip-path">
      <path id="Path_11" data-name="Path 11" d="M243,243h33v33H243Zm0,0" transform="translate(-243 -243)" fill="#243244"/>
    </clipPath>
  </defs>
  <g id="surface1" transform="translate(-243 -243)">
    <g id="Group_4" data-name="Group 4" transform="translate(243 243)" clip-path="url(#clip-path)">
      <path id="Path_10" data-name="Path 10" d="M259.468,244.143a15.325,15.325,0,1,0,15.325,15.325A15.342,15.342,0,0,0,259.468,244.143Zm0,31.824a16.5,16.5,0,1,1,16.5-16.5,16.518,16.518,0,0,1-16.5,16.5" transform="translate(-242.972 -242.972)" fill="#243244"/>
    </g>
    <path id="Path_12" data-name="Path 12" d="M341.965,321.316l.005.018c.154.609,2.705,4.948,5.2,9.019,2.459-4.045,4.976-8.336,5.137-8.906l.012-.04a4.749,4.749,0,0,0,.185-1.383,5.352,5.352,0,1,0-10.544,1.281Zm5.21,10.791a.6.6,0,0,1-.512-.285c-.919-1.489-5.477-8.908-5.848-10.155a.656.656,0,0,1-.021-.075,6.553,6.553,0,1,1,12.916-1.567,5.935,5.935,0,0,1-.247,1.763c-.338,1.106-4.866,8.542-5.775,10.031a.6.6,0,0,1-.512.288h0" transform="translate(-87.657 -63.292)" fill="#243244"/>
    <path id="Path_13" data-name="Path 13" d="M371.091,337.825a3.039,3.039,0,1,0,3.039,3.039A3.042,3.042,0,0,0,371.091,337.825Zm0,6.881a3.841,3.841,0,1,1,3.841-3.841,3.846,3.846,0,0,1-3.841,3.841" transform="translate(-111.595 -84.447)" fill="#243244"/>
  </g>
</svg>
