<svg id="surface1" xmlns="http://www.w3.org/2000/svg" width="32.008" height="32.052" viewBox="0 0 32.008 32.052">
  <path id="Path_6" data-name="Path 6" d="M270.87,250.112a16.026,16.026,0,1,0,15.923,13.46A16.115,16.115,0,0,0,270.87,250.112Zm.013,1.392a14.639,14.639,0,1,1-2.224.192A14.61,14.61,0,0,1,270.883,251.5Zm-8.93,7.667V273.1h18.089V259.17Zm1.392,1.393h15.306v.713l-6.723,5.866a1.312,1.312,0,0,1-1.863,0l-6.721-5.866Zm0,2.562,3.672,3.2-3.672,2.908Zm15.306,0v6.112l-3.673-2.908Zm-10.568,4.135,1.069.933a2.7,2.7,0,0,0,3.691,0v0l1.068-.932,4.74,3.753v.7H263.345v-.7Zm0,0" transform="translate(-254.994 -250.111)" fill="#243244"/>
</svg>
