<svg xmlns="http://www.w3.org/2000/svg" xmlns:xlink="http://www.w3.org/1999/xlink" width="33" height="33" viewBox="0 0 33 33">
  <defs>
    <clipPath id="clip-path">
      <path id="Path_9" data-name="Path 9" d="M321,322.316h15.976v15.845H321Zm0,0" transform="translate(-321 -322.316)" fill="#243244"/>
    </clipPath>
  </defs>
  <g id="Group_3" data-name="Group 3" transform="translate(0 0.391)">
    <g id="surface1" transform="translate(8.156 8.822)">
      <g id="Group_2" data-name="Group 2" transform="translate(0 0)" clip-path="url(#clip-path)">
        <path id="Path_8" data-name="Path 8" d="M337.514,334.438c-.393-.45-2.25-2.3-2.421-2.473a1.5,1.5,0,0,0-1.047-.514,1.178,1.178,0,0,0-.712.248c-.41.305-1.058.889-1.422,1.223a15.939,15.939,0,0,1-2.061-1.335,11.682,11.682,0,0,1-2.526-3.009l-.214-.4c.4-.43.964-1.057,1.261-1.454a1.271,1.271,0,0,0-.268-1.755c-.177-.177-2.03-2.021-2.48-2.412a1.329,1.329,0,0,0-.883-.331,1.364,1.364,0,0,0-.5.091l-.166.1c-.949.608-2.026,1.3-2.088,4,0,2.729,2.155,5.394,3.95,7.134,1.882,2.058,4.745,4.51,7.7,4.51h.013c2.708-.062,3.4-1.135,4.008-2.081l.07-.108.031-.058A1.347,1.347,0,0,0,337.514,334.438Zm-.446,1.062-.047.073c-.582.9-1.084,1.684-3.383,1.736l0,.375v-.375c-2.816,0-5.681-2.673-7.154-4.282-1.706-1.654-3.74-4.144-3.738-6.6.053-2.3.835-2.8,1.742-3.38l.071-.046a.683.683,0,0,1,.186-.026.571.571,0,0,1,.388.146c.444.385,2.433,2.368,2.453,2.388l.025.023c.045.037.434.378.161.741-.235.315-.739.889-1.391,1.588l-.183.2.476.894a12.413,12.413,0,0,0,2.7,3.218,17.915,17.915,0,0,0,2.418,1.546l.238.126.2-.183c.175-.163,1.073-.994,1.559-1.356a.434.434,0,0,1,.262-.1.757.757,0,0,1,.481.259l.023.025c.02.02,2.009,2,2.4,2.446A.6.6,0,0,1,337.068,335.5Zm0,0" transform="translate(-321.893 -322.232)" fill="#243244"/>
      </g>
    </g>
    <g id="Ellipse_1" data-name="Ellipse 1" transform="translate(0 -0.391)" fill="none" stroke="#4e586b" stroke-width="1.3">
      <circle cx="16.5" cy="16.5" r="16.5" stroke="none"/>
      <circle cx="16.5" cy="16.5" r="15.85" fill="none"/>
    </g>
  </g>
</svg>
