<svg id="surface1" xmlns="http://www.w3.org/2000/svg" width="32.796" height="32.796" viewBox="0 0 32.796 32.796">
  <path id="Path_5" data-name="Path 5" d="M259.4,243a16.4,16.4,0,1,0,16.4,16.4A16.409,16.409,0,0,0,259.4,243Zm0,1.426A14.972,14.972,0,1,1,244.426,259.4,14.962,14.962,0,0,1,259.4,244.426Zm1.127,4.278a5.171,5.171,0,0,0-4.208,1.711,6.471,6.471,0,0,0-1.2,4.154v1.264h-1.426a.713.713,0,0,0-.139.014.691.691,0,0,0-.134.041.744.744,0,0,0-.123.066.727.727,0,0,0-.108.089.661.661,0,0,0-.089.108.678.678,0,0,0-.066.123.747.747,0,0,0-.041.134.709.709,0,0,0-.013.139v3.565a.681.681,0,0,0,.014.139.712.712,0,0,0,.04.134.692.692,0,0,0,.066.123.724.724,0,0,0,.089.108.688.688,0,0,0,.108.089.707.707,0,0,0,.4.12h1.426v8.556a.717.717,0,0,0,.014.139.691.691,0,0,0,.041.134.714.714,0,0,0,.066.123.744.744,0,0,0,.089.108.7.7,0,0,0,.108.089.715.715,0,0,0,.123.066.727.727,0,0,0,.134.04.719.719,0,0,0,.139.014h4.278a.711.711,0,0,0,.4-.12.749.749,0,0,0,.108-.089.678.678,0,0,0,.089-.108.7.7,0,0,0,.066-.123.7.7,0,0,0,.054-.273v-8.556h2.852a.711.711,0,0,0,.24-.042.718.718,0,0,0,.212-.12.713.713,0,0,0,.247-.412l.713-3.565a.718.718,0,0,0,.013-.157.71.71,0,0,0-.021-.156.73.73,0,0,0-.055-.148.722.722,0,0,0-.2-.242.717.717,0,0,0-.134-.082.732.732,0,0,0-.149-.051.717.717,0,0,0-.156-.017h-3.565v-1.564c0-.346.023-.343.123-.408a2.517,2.517,0,0,1,1.1-.167h2.345a.722.722,0,0,0,.139-.014.712.712,0,0,0,.134-.04.734.734,0,0,0,.123-.066.754.754,0,0,0,.108-.089.714.714,0,0,0,.089-.108.7.7,0,0,0,.106-.257.719.719,0,0,0,.014-.139v-2.852a.714.714,0,0,0-.282-.567.709.709,0,0,0-.191-.1A13.681,13.681,0,0,0,260.525,248.7Zm0,1.426a10.931,10.931,0,0,1,3.151.536v1.6h-1.632a3.294,3.294,0,0,0-1.873.4,1.9,1.9,0,0,0-.773,1.6v2.277a.713.713,0,0,0,.014.139.719.719,0,0,0,.195.365.749.749,0,0,0,.108.089.717.717,0,0,0,.123.066.686.686,0,0,0,.134.041.714.714,0,0,0,.139.014h3.408l-.427,2.139h-2.98a.724.724,0,0,0-.273.054.717.717,0,0,0-.231.155.709.709,0,0,0-.089.108.737.737,0,0,0-.066.123.722.722,0,0,0-.054.273v8.556h-2.852v-8.556a.716.716,0,0,0-.013-.139.716.716,0,0,0-.107-.257.711.711,0,0,0-.2-.2.717.717,0,0,0-.4-.12h-1.426v-2.139h1.426a.711.711,0,0,0,.139-.014.681.681,0,0,0,.134-.041.708.708,0,0,0,.123-.066.729.729,0,0,0,.2-.2.71.71,0,0,0,.066-.123.68.68,0,0,0,.041-.134.713.713,0,0,0,.013-.139v-1.977a5.158,5.158,0,0,1,.879-3.257A3.643,3.643,0,0,1,260.525,250.129Zm0,0" transform="translate(-243 -243)" fill="#243244"/>
</svg>
