<svg id="surface1" xmlns="http://www.w3.org/2000/svg" width="32.796" height="32.796" viewBox="0 0 32.796 32.796">
  <path id="Path_7" data-name="Path 7" d="M259.4,243a16.4,16.4,0,1,0,16.4,16.4A16.409,16.409,0,0,0,259.4,243Zm0,1.426A14.972,14.972,0,1,1,244.426,259.4,14.962,14.962,0,0,1,259.4,244.426Zm-6.417,5.7a2.139,2.139,0,1,0,2.139,2.139A2.15,2.15,0,0,0,252.981,250.13Zm0,1.426a.713.713,0,1,1-.713.713A.7.7,0,0,1,252.981,251.556Zm-1.426,3.565a.71.71,0,0,0-.139.014.69.69,0,0,0-.134.041.683.683,0,0,0-.123.066.711.711,0,0,0-.262.32.7.7,0,0,0-.041.134.713.713,0,0,0-.014.139v10.694a.716.716,0,0,0,.014.139.687.687,0,0,0,.041.134.7.7,0,0,0,.066.123.731.731,0,0,0,.2.2.7.7,0,0,0,.123.066.7.7,0,0,0,.273.054h2.852a.7.7,0,0,0,.273-.054.691.691,0,0,0,.123-.066.71.71,0,0,0,.2-.2.684.684,0,0,0,.066-.123.735.735,0,0,0,.041-.134.715.715,0,0,0,.013-.139V255.833a.711.711,0,0,0-.013-.139.741.741,0,0,0-.041-.134.694.694,0,0,0-.066-.123.706.706,0,0,0-.089-.108.719.719,0,0,0-.231-.155.722.722,0,0,0-.134-.04.711.711,0,0,0-.139-.014Zm5.7,0a.708.708,0,0,0-.139.014.69.69,0,0,0-.134.041.682.682,0,0,0-.123.066.717.717,0,0,0-.2.2.722.722,0,0,0-.066.123.72.72,0,0,0-.055.273v10.694a.71.71,0,0,0,.014.139.721.721,0,0,0,.041.134.711.711,0,0,0,.066.123.694.694,0,0,0,.089.108.7.7,0,0,0,.231.155.7.7,0,0,0,.273.054h2.852a.7.7,0,0,0,.273-.054.713.713,0,0,0,.32-.262.681.681,0,0,0,.066-.123.7.7,0,0,0,.054-.273V261.18a1.782,1.782,0,0,1,3.565,0v5.347a.69.69,0,0,0,.014.139.708.708,0,0,0,.106.257.69.69,0,0,0,.089.108.726.726,0,0,0,.108.089.734.734,0,0,0,.123.066.7.7,0,0,0,.273.054h2.852a.714.714,0,0,0,.139-.013.731.731,0,0,0,.134-.041.727.727,0,0,0,.231-.155.754.754,0,0,0,.089-.108.679.679,0,0,0,.066-.123.686.686,0,0,0,.041-.134.715.715,0,0,0,.014-.139v-6.06a5.358,5.358,0,0,0-5.347-5.347,5.2,5.2,0,0,0-2.5.706.707.707,0,0,0-.015-.138.7.7,0,0,0-.042-.133.725.725,0,0,0-.066-.122.741.741,0,0,0-.089-.107.722.722,0,0,0-.108-.088.726.726,0,0,0-.255-.105.737.737,0,0,0-.138-.013Zm-4.991,1.426h1.426v9.269h-1.426Zm5.7,0H259.4v.582a.713.713,0,0,0,.257.548.71.71,0,0,0,.378.161.713.713,0,0,0,.207-.008.711.711,0,0,0,.365-.187,3.917,3.917,0,0,1,6.635,2.826v5.347h-1.426V261.18a3.208,3.208,0,0,0-6.417,0v4.634h-1.426Zm0,0" transform="translate(-243 -243)" fill="#FFFFFF"/>
</svg>
