<svg id="Mental_health-rafiki_2_" data-name="Mental health-rafiki (2)" xmlns="http://www.w3.org/2000/svg" width="559.767" height="445.119" viewBox="0 0 559.767 445.119">
  <g id="freepik--background-complete--inject-2">
    <rect id="Rectangle_26" data-name="Rectangle 26" width="559.767" height="0.28" transform="translate(0 399.89)" fill="#ebebeb"/>
    <rect id="Rectangle_27" data-name="Rectangle 27" width="37.079" height="0.28" transform="translate(434.76 409.283)" fill="#ebebeb"/>
    <rect id="Rectangle_28" data-name="Rectangle 28" width="33.776" height="0.28" transform="translate(376.723 417.354)" fill="#ebebeb"/>
    <rect id="Rectangle_29" data-name="Rectangle 29" width="42.822" height="0.28" transform="translate(453.299 419.672)" fill="#ebebeb"/>
    <rect id="Rectangle_30" data-name="Rectangle 30" width="17.801" height="0.28" transform="translate(56.089 419.067)" fill="#ebebeb"/>
    <rect id="Rectangle_31" data-name="Rectangle 31" width="44.02" height="0.28" transform="translate(77.483 419.067)" fill="#ebebeb"/>
    <rect id="Rectangle_32" data-name="Rectangle 32" width="33.955" height="0.28" transform="translate(245.928 409.137)" fill="#ebebeb"/>
    <rect id="Rectangle_33" data-name="Rectangle 33" width="80.718" height="0.28" transform="translate(160.351 409.137)" fill="#ebebeb"/>
    <path id="Path_372" data-name="Path 372" d="M260.87,371.6H477.052a6.4,6.4,0,0,0,6.393-6.393V61.337A6.4,6.4,0,0,0,477.052,55H260.87a6.393,6.393,0,0,0-6.37,6.337V365.212A6.393,6.393,0,0,0,260.87,371.6ZM477.052,55.224a6.124,6.124,0,0,1,6.113,6.113V365.212a6.124,6.124,0,0,1-6.113,6.113H260.87a6.124,6.124,0,0,1-6.113-6.113V61.337a6.124,6.124,0,0,1,6.113-6.113Z" transform="translate(-208.599 -21.646)" fill="#ebebeb"/>
    <path id="Path_373" data-name="Path 373" d="M336.832,424h4.478a101.129,101.129,0,0,0-1.69-14.487c-3.56-22.29-8.956-55.977,18.9-94.365,16.48-22.715,33.519-56.257,21.07-87-11.442-28.257-45.531-47.535-101.34-57.342-79.89-14.028-127.627-37.762-137.971-68.56-6.4-19.032,1.646-40.885,23.924-64.855l-3.28-3.045c-23.51,25.257-31.851,48.588-24.887,69.322,10.915,32.466,59.828,57.264,141.453,71.65,54.174,9.516,87.133,27.888,97.948,54.611,11.677,28.839-4.724,60.891-20.543,82.7-28.94,39.9-23.152,76.072-19.693,97.691A97.687,97.687,0,0,1,336.832,424Z" transform="translate(26.267 -24.114)" fill="#f5f5f5"/>
    <path id="Path_374" data-name="Path 374" d="M143.486,205.207c-12.751-19.7-12.628-43.348-1.12-60.847C170.982,169.919,143.486,205.207,143.486,205.207Z" transform="translate(254.564 -10.964)" fill="#f5f5f5"/>
    <path id="Path_375" data-name="Path 375" d="M302.546,159.2c-27.5-11.039-56.76-5.172-75.636,13.434C265.5,201.791,302.546,159.2,302.546,159.2Z" transform="translate(3.188 -9.854)" fill="#f5f5f5"/>
    <path id="Path_376" data-name="Path 376" d="M352.44,66.778c9.874,21.17,29.88,33.586,50.748,33.06C396.729,62.244,352.44,66.778,352.44,66.778Z" transform="translate(-237.99 -20.258)" fill="#f5f5f5"/>
    <path id="Path_377" data-name="Path 377" d="M164.95,302.539c10.725-13.781,12.147-31.347,4.7-45.039C146.836,274.607,164.95,302.539,164.95,302.539Z" transform="translate(208.425 2.56)" fill="#f5f5f5"/>
    <path id="Path_378" data-name="Path 378" d="M306.76,49.874c17.465.246,32.332-9.18,38.792-23.387C318.146,18.583,306.76,49.874,306.76,49.874Z" transform="translate(-129.213 -25.207)" fill="#f5f5f5"/>
    <path id="Path_379" data-name="Path 379" d="M373.665,414.449h3c0-10.781,9.124-17.107,18.786-23.8,12.8-8.889,27.35-18.976,16.524-41.21-5.239-10.736-13.837-19.032-22.156-27.059-20.734-20.017-38.646-37.3-.224-85.331,34.762-43.46,48.42-77.651,39.5-98.877-5.7-13.546-20.275-21.585-43.326-23.891l-.291,3c21.865,2.239,35.6,9.606,40.841,22.055,8.475,20.152-5.038,53.29-39.072,95.832-40.135,50.178-20.4,69.221.493,89.384,8.128,7.837,16.535,15.953,21.529,26.208,9.706,19.917-2.553,28.414-15.528,37.415C383.864,394.969,373.665,402.1,373.665,414.449Z" transform="translate(-279.501 -14.56)" fill="#f5f5f5"/>
    <path id="Path_380" data-name="Path 380" d="M445.7,285.9c-2.329-15.6-12.886-27.451-26.477-31.134C416.175,280.329,445.7,285.9,445.7,285.9Z" transform="translate(-355.015 2.234)" fill="#f5f5f5"/>
    <path id="Path_381" data-name="Path 381" d="M363.9,226.805c8.956-17.767,26.309-27.8,44.054-26.869C401.494,231.809,363.9,226.805,363.9,226.805Z" transform="translate(-255.585 -4.328)" fill="#f5f5f5"/>
    <path id="Path_382" data-name="Path 382" d="M371.373,101.79c4.422,15.058-.157,30.227-10.893,39.184C347.046,119.176,371.373,101.79,371.373,101.79Z" transform="translate(-212.321 -16.053)" fill="#f5f5f5"/>
    <path id="Path_383" data-name="Path 383" d="M381.062,330.758c-6.281-9.908-6.113-21.719-.258-30.418C394.955,313.248,381.062,330.758,381.062,330.758Z" transform="translate(-248.766 7.681)" fill="#f5f5f5"/>
    <path id="Path_384" data-name="Path 384" d="M424.925,117.373c-8.688,7.837-20.364,9.729-29.925,5.43C405.3,106.637,424.925,117.373,424.925,117.373Z" transform="translate(-307.374 -14.608)" fill="#f5f5f5"/>
    <path id="Path_385" data-name="Path 385" d="M194.949,416.924h3.235c0-11.61,9.83-18.428,20.241-25.649,13.815-9.572,29.466-20.431,17.789-44.389-5.6-11.554-14.89-20.5-23.846-29.108-22.391-21.562-41.647-40.191-.257-91.925,37.46-46.819,52.17-83.652,42.542-106.524-6.135-14.554-21.842-23.242-46.673-25.749l-.313,3.224c23.51,2.351,38.355,10.356,44,23.757,9.124,21.708-5.43,57.41-42.094,103.243-43.236,54.051-21.976,74.561.537,96.28,8.755,8.452,17.8,17.185,23.186,28.235,10.456,21.461-2.743,30.619-16.726,40.3C205.943,395.988,194.949,403.612,194.949,416.924Z" transform="translate(95.648 -17.034)" fill="#f5f5f5"/>
    <path id="Path_386" data-name="Path 386" d="M272.532,278.456c-2.5-16.793-13.871-29.567-28.514-33.586C240.737,272.444,272.532,278.456,272.532,278.456Z" transform="translate(14.315 1.05)" fill="#f5f5f5"/>
    <path id="Path_387" data-name="Path 387" d="M184.41,214.784c9.65-19.144,28.347-29.948,47.468-28.906C224.9,220.169,184.41,214.784,184.41,214.784Z" transform="translate(121.435 -6.01)" fill="#f5f5f5"/>
    <path id="Path_388" data-name="Path 388" d="M192.485,80.11c4.758,16.222-.168,32.466-11.744,42.229C166.288,98.84,192.485,80.11,192.485,80.11Z" transform="translate(168.005 -18.644)" fill="#f5f5f5"/>
    <path id="Path_389" data-name="Path 389" d="M202.881,326.769c-6.717-10.669-6.572-23.4-.269-32.769C217.86,307.9,202.881,326.769,202.881,326.769Z" transform="translate(128.792 6.923)" fill="#f5f5f5"/>
    <path id="Path_390" data-name="Path 390" d="M250.151,96.871c-9.359,8.486-21.932,10.479-32.231,5.855C229.015,85.328,250.151,96.871,250.151,96.871Z" transform="translate(65.647 -17.089)" fill="#f5f5f5"/>
    <path id="Path_391" data-name="Path 391" d="M81.752,117.349,61.287,137.815s4.321,28.738,13.244,20.152,7.019-13.781,7.019-13.781,17.386,9.74,22.928-10.121S81.752,117.349,81.752,117.349Z" transform="translate(385.956 -14.215)" fill="#ebebeb"/>
    <path id="Path_392" data-name="Path 392" d="M124.294,119.838,103.829,140.3s-28.75-4.321-20.152-13.244,13.77-7.019,13.77-7.019-9.684-17.364,10.132-22.962S124.294,119.838,124.294,119.838Z" transform="translate(343.413 -16.703)" fill="#fafafa"/>
    <circle id="Ellipse_8" data-name="Ellipse 8" cx="3.224" cy="3.224" r="3.224" transform="translate(465.815 98.578)" fill="#e0e0e0"/>
    <path id="Path_393" data-name="Path 393" d="M81.27,139.376h0a2.239,2.239,0,0,0,3.179,0l20.476-21.786-1.87-1.87-21.73,20.465a2.239,2.239,0,0,0-.056,3.191Z" transform="translate(364.573 -14.388)" fill="#e0e0e0"/>
    <path id="Path_394" data-name="Path 394" d="M403.017,166.251l10.076,19.166s21.506,3.258,17.364-5.016-8.307-8.061-8.307-8.061,10.747-10.311-2.239-18.651S403.017,166.251,403.017,166.251Z" transform="translate(-322.41 -10.084)" fill="#fafafa"/>
    <path id="Path_395" data-name="Path 395" d="M439,164.945l10.076,19.166S439.63,203.7,435.14,195.62s-1.97-11.4-1.97-11.4-14.554,3.056-14.162-12.315S439,164.945,439,164.945Z" transform="translate(-358.396 -8.778)" fill="#f0f0f0"/>
    <path id="Path_396" data-name="Path 396" d="M426.725,164.979a2.407,2.407,0,1,0-.178-1.845,2.418,2.418,0,0,0,.178,1.845Z" transform="translate(-348.929 -8.924)" fill="#e0e0e0"/>
    <path id="Path_397" data-name="Path 397" d="M429.7,185.315h0a1.657,1.657,0,0,0,.672-2.239L419.341,163.63l-1.747.929,9.841,20.062a1.657,1.657,0,0,0,2.261.694Z" transform="translate(-338.309 -8.661)" fill="#e0e0e0"/>
    <path id="Path_398" data-name="Path 398" d="M150.369,48.757l7.075,13.434s15.047,2.239,12.147-3.5-5.81-5.6-5.81-5.6,7.523-7.21-1.534-13.043S150.369,48.757,150.369,48.757Z" transform="translate(221.462 -23.598)" fill="#fafafa"/>
    <path id="Path_399" data-name="Path 399" d="M175.517,47.852l7.075,13.434S175.987,75,172.841,69.347s-1.377-7.982-1.377-7.982-10.2,2.138-9.908-8.632S175.517,47.852,175.517,47.852Z" transform="translate(196.314 -22.692)" fill="#f0f0f0"/>
    <path id="Path_400" data-name="Path 400" d="M166.936,47.861a1.69,1.69,0,1,0,.705-2.239A1.691,1.691,0,0,0,166.936,47.861Z" transform="translate(202.935 -22.791)" fill="#e0e0e0"/>
    <path id="Path_401" data-name="Path 401" d="M169,62.087h0a1.12,1.12,0,0,0,.47-1.635l-7.714-13.6-1.22.638,6.874,14.084a1.12,1.12,0,0,0,1.59.515Z" transform="translate(210.389 -22.62)" fill="#e0e0e0"/>
  </g>
  <g id="freepik--Head--inject-2" transform="translate(125.32 47.203)">
    <path id="Path_402" data-name="Path 402" d="M162.793,198.311C132.509,119.484,204.82,46.614,298.021,72.8c41.333,11.61,57.287,51.5,67.1,94.959,5.889,11.128,18.036,31.089,35.019,43.74a9.874,9.874,0,0,1,.481,15.472c-7.4,6.225-16.625,8.609-22.144,9.5,1.511,7,3.146,13.7,5.016,19.984,12.125,40.863-22.827,61.888-62.246,65.862a147.778,147.778,0,0,0-2.172,39.6c1.355,17.442-14.554,31.246-31.716,27.787l-77.248-15.6a26.511,26.511,0,0,1-21.193-28.257,632.052,632.052,0,0,0,.179-100.612C180.157,234.673,171.447,220.8,162.793,198.311Z" transform="translate(-144.107 -67.37)" fill="#243244"/>
    <path id="Path_403" data-name="Path 403" d="M162.793,198.311C132.509,119.484,204.82,46.614,298.021,72.8c41.333,11.61,57.287,51.5,67.1,94.959,5.889,11.128,18.036,31.089,35.019,43.74a9.874,9.874,0,0,1,.481,15.472c-7.4,6.225-16.625,8.609-22.144,9.5,1.511,7,3.146,13.7,5.016,19.984,12.125,40.863-22.827,61.888-62.246,65.862a147.778,147.778,0,0,0-2.172,39.6c1.355,17.442-14.554,31.246-31.716,27.787l-77.248-15.6a26.511,26.511,0,0,1-21.193-28.257,632.052,632.052,0,0,0,.179-100.612C180.157,234.673,171.447,220.8,162.793,198.311Z" transform="translate(-144.107 -67.37)" fill="#fff" opacity="0.6"/>
    <path id="Path_404" data-name="Path 404" d="M208.891,430.288H399.682a11.128,11.128,0,0,0,10.647-14.375l-21.9-71.65a11.2,11.2,0,0,0-6.963-7.255L240.809,287.749a11.117,11.117,0,0,0-14.554,7.971l-28.246,120.91a11.128,11.128,0,0,0,10.882,13.658Z" transform="translate(-197.717 -41.104)" fill="#243244"/>
    <path id="Path_405" data-name="Path 405" d="M247.653,92.6a16.793,16.793,0,0,1,27.8,9.841,13.748,13.748,0,0,1,17.375,6.717l-14.991,6.37a9.348,9.348,0,1,1-15.047,6.381l-16.468,7-7-16.468a9.337,9.337,0,0,0,9.247-4.982,9.016,9.016,0,0,0,.47-1.12c.123-.336.224-.672.313-1.019a9.283,9.283,0,0,0,.269-2.161v-.078a9.493,9.493,0,0,0-.75-3.638,9.337,9.337,0,0,0-15.953-2.1l-4.59-10.8a17.991,17.991,0,0,1,19.312,5.978Z" transform="translate(-114.003 -65.173)" fill="#faf6f3"/>
    <path id="Path_406" data-name="Path 406" d="M232.159,160.779a9.323,9.323,0,1,1-3.56-17.913,7.6,7.6,0,0,1,.873,0h0L222.486,126.4l16.468-7A9.348,9.348,0,1,0,254,113.02l14.991-6.37a13.737,13.737,0,0,1-2.429,15.673,16.793,16.793,0,0,1,9.706,25.749h0l-.246.325a16.938,16.938,0,0,1-6.057,5.15c-7.019,4.265-18.215,7.837-31.347,10.725l-2.732-6.415a9.237,9.237,0,0,1-3.728,2.922Z" transform="translate(-90.168 -62.675)" opacity="0.1"/>
    <path id="Path_407" data-name="Path 407" d="M342.206,115.967a9.348,9.348,0,0,0-5.6,7.21,10.363,10.363,0,0,0-.112,1.321v.09a9.348,9.348,0,0,0,16.7,5.743l6.986,16.457h0l-16.468,6.986a9.348,9.348,0,1,1-15.047,6.393l-15.1,6.415a13.793,13.793,0,0,1,7.994-17.5,16.793,16.793,0,0,1,13.815-26.052,17.98,17.98,0,0,1,5.788-14.487,18.172,18.172,0,0,1,2.094-1.635l3.549,8.363A9.258,9.258,0,0,0,342.206,115.967Z" transform="translate(-275.884 -62.644)" fill="#faf6f3"/>
    <path id="Path_408" data-name="Path 408" d="M328.91,94.482a9.348,9.348,0,0,1,12.248,4.948,9.494,9.494,0,0,1,.75,3.638v.078a9.281,9.281,0,0,1-.269,2.161c-.09.347-.19.683-.314,1.019a9.019,9.019,0,0,1-.47,1.12,9.337,9.337,0,0,1-9.247,4.982h0l7,16.468h0l-16.457,7a9.993,9.993,0,0,0,0-2.239.19.19,0,0,0,0-.078s0-.1,0-.146a9.314,9.314,0,0,0-10.781-7.7,8.821,8.821,0,0,0-2.082.6h0a9.348,9.348,0,0,0-5.06,12.214,9.237,9.237,0,0,0,1.993,2.944,10.881,10.881,0,0,0,.851.761L290.6,149.238l-6.986-16.457a9.348,9.348,0,0,1-16.7-5.743v-.09a10.351,10.351,0,0,1,.112-1.321,9.3,9.3,0,0,1,10.2-7.837h0l-3.549-8.363a17.912,17.912,0,0,1,8.732-3.045A19.916,19.916,0,0,1,311.12,93.508a18.047,18.047,0,0,1,9.494-6.908l4.59,10.8A9.337,9.337,0,0,1,328.91,94.482Z" transform="translate(-206.276 -65.071)" opacity="0.1"/>
    <path id="Path_409" data-name="Path 409" d="M307.369,160.542a9.348,9.348,0,1,0,14.352-11.016l16.468-6.986,7,16.468c.179-.235.392-.448.593-.672a9.113,9.113,0,0,1,3.112-2.172,9.348,9.348,0,0,1,8.161,16.793c-.269.146-.56.291-.851.414a9.393,9.393,0,0,1-4.624.694h0l2.586,6.079a15.248,15.248,0,0,1-11.352-1.926,15.494,15.494,0,0,1-2-1.489,19.727,19.727,0,0,1-2.6,6.65,20.073,20.073,0,0,1-37.068-12.315,13.781,13.781,0,0,1-9.572-8.732l15.1-6.415A9.394,9.394,0,0,0,307.369,160.542Z" transform="translate(-253.866 -58.385)" opacity="0.1"/>
    <g id="Group_20" data-name="Group 20" transform="translate(20.387 300.662)" opacity="0.2">
      <path id="Path_410" data-name="Path 410" d="M374.941,363.52l-.75,28.313H327.26l.75-28.313Z" transform="translate(-327.26 -332.632)" fill="none"/>
      <path id="Path_411" data-name="Path 411" d="M327.281,335.93h46.931l-.75,28.313H326.52Z" transform="translate(-325.703 -335.93)" fill="none"/>
    </g>
  </g>
  <g id="freepik--character-1--inject-2" transform="translate(373.299 210.106)">
    <path id="Path_412" data-name="Path 412" d="M79.1,308.924l-.19-2.776a2.855,2.855,0,0,1,1.052-2.53l3.359-2.5a4.758,4.758,0,0,1,4.9-.313l1.12.493c.6,4.646-1.8,9.606-1.8,9.606L87,312.428a2.06,2.06,0,0,1-3.1,1.12l-2.956-1.635A3.829,3.829,0,0,1,79.1,308.924Z" transform="translate(8.704 -202.434)" fill="#b55b52"/>
    <path id="Path_413" data-name="Path 413" d="M77.254,299l-1.724,1.4a99.379,99.379,0,0,0,8.744,6.807,19.862,19.862,0,0,1,2.138-1.814Z" transform="translate(15.497 -202.586)" fill="#263238"/>
    <path id="Path_414" data-name="Path 414" d="M61.24,259.651c.638.817,1.433,1.914,2.127,2.911s1.433,2.049,2.127,3.079c1.377,2.082,2.709,4.187,3.93,6.292a70.368,70.368,0,0,1,3.269,6.325,30.228,30.228,0,0,1,2.015,5.6l-.1-1.926a6.627,6.627,0,0,1-.213,1.8,25.465,25.465,0,0,1-.772,2.7,63.3,63.3,0,0,1-2.441,6.045c-.94,2.06-1.993,4.131-3.09,6.191s-2.239,4.165-3.359,6.034l13.658,9.012c1.579-2.239,2.944-4.377,4.333-6.628s2.7-4.478,3.974-6.852a82.125,82.125,0,0,0,3.594-7.512,37.637,37.637,0,0,0,1.545-4.333,27.2,27.2,0,0,0,1.064-5.5l.067-.784-.168-1.12a47.267,47.267,0,0,0-2.608-9.774,89.962,89.962,0,0,0-3.672-8.352c-1.287-2.631-2.653-5.172-4.075-7.658-.705-1.243-1.433-2.485-2.239-3.706s-1.467-2.385-2.373-3.75Z" transform="translate(24.94 -208.712)" fill="#243244"/>
    <path id="Path_415" data-name="Path 415" d="M61.24,259.651c.638.817,1.433,1.914,2.127,2.911s1.433,2.049,2.127,3.079c1.377,2.082,2.709,4.187,3.93,6.292a70.368,70.368,0,0,1,3.269,6.325,30.228,30.228,0,0,1,2.015,5.6l-.1-1.926a6.627,6.627,0,0,1-.213,1.8,25.465,25.465,0,0,1-.772,2.7,63.3,63.3,0,0,1-2.441,6.045c-.94,2.06-1.993,4.131-3.09,6.191s-2.239,4.165-3.359,6.034l13.658,9.012c1.579-2.239,2.944-4.377,4.333-6.628s2.7-4.478,3.974-6.852a82.125,82.125,0,0,0,3.594-7.512,37.637,37.637,0,0,0,1.545-4.333,27.2,27.2,0,0,0,1.064-5.5l.067-.784-.168-1.12a47.267,47.267,0,0,0-2.608-9.774,89.962,89.962,0,0,0-3.672-8.352c-1.287-2.631-2.653-5.172-4.075-7.658-.705-1.243-1.433-2.485-2.239-3.706s-1.467-2.385-2.373-3.75Z" transform="translate(24.94 -208.712)" fill="#fff" opacity="0.7"/>
    <path id="Path_416" data-name="Path 416" d="M131.813,397.53l11.9,2.452-6,13.468-9.953-2.038Z" transform="translate(-100.277 -190.808)" fill="#b55b52"/>
    <path id="Path_417" data-name="Path 417" d="M130.023,397.53l11.912,2.463-3.37,7.534-10.815-2.217Z" transform="translate(-98.487 -190.808)" opacity="0.2"/>
    <path id="Path_418" data-name="Path 418" d="M126.886,365.629c5.934-18.439,20.152-36.945,19.032-55.148l-39.643-.1s-2.586,36.721-3.93,53.738c-1.4,17.644-5.822,48.588-5.822,48.588l13.434,3.6S127.916,385.378,126.886,365.629Z" transform="translate(-67.575 -201.225)" fill="#263238"/>
    <path id="Path_419" data-name="Path 419" d="M153.132,416.963l-3.1-.817-.269-1.187-1.78.649a33.419,33.419,0,0,1-15.853-5.363,8.117,8.117,0,0,1,2.474-2.956s4.612,1.12,7.68.269a2.037,2.037,0,0,1,1.5.1c1.914.94,7.053,3.258,10.6,2.944a.448.448,0,0,1,.459.616A37.64,37.64,0,0,0,153.132,416.963Z" transform="translate(-116.335 -189.641)" fill="#263238"/>
    <path id="Path_420" data-name="Path 420" d="M85.54,399.02l12.181.123-.582,14.364-10.177-.078Z" transform="translate(-7.018 -190.63)" fill="#b55b52"/>
    <path id="Path_421" data-name="Path 421" d="M85.54,399.03l12.181.112-.325,8.049-11.061-.1Z" transform="translate(-7.018 -190.629)" opacity="0.2"/>
    <path id="Path_422" data-name="Path 422" d="M109.356,361.005c.985-18.45,11.285-37.941,6.325-49.774L77.74,310.38s.358,35.635,4.3,52.618c4.1,17.722,13.725,52.193,13.725,52.193h13.166S114.3,382.041,109.356,361.005Z" transform="translate(-17.59 -201.225)" fill="#263238"/>
    <path id="Path_423" data-name="Path 423" d="M110,227.958c-1.332,1.287-2.239.515-2.161-1.254a3.5,3.5,0,0,0,.56,6.012c2.485,1.411,5.284.616,6.258-.907l.381-5.206C113.15,225.641,112.008,226.044,110,227.958Z" transform="translate(-47.681 -211.3)" fill="#e0e0e0"/>
    <path id="Path_424" data-name="Path 424" d="M110.834,222.72l-1.982,5.094a4.646,4.646,0,0,1-2.922-1.635,11.419,11.419,0,0,1,4.9-3.459Z" transform="translate(-42.958 -211.704)" fill="#a02724"/>
    <path id="Path_425" data-name="Path 425" d="M107.643,221.982c-.235.6-.75.963-1.12.795a1.064,1.064,0,0,1-.28-1.377c.246-.6.75-.963,1.12-.806A1.051,1.051,0,0,1,107.643,221.982Z" transform="translate(-40.115 -211.962)" fill="#263238"/>
    <path id="Path_426" data-name="Path 426" d="M106.219,226.862a3.09,3.09,0,0,0,1.22-.269,6.2,6.2,0,0,0,3.056-3.471c1.12-2.7.47-5.486-1.332-6.225a2.777,2.777,0,0,0-2.228.134,6.2,6.2,0,0,0-3.056,3.471c-1.12,2.7-.47,5.486,1.332,6.225A2.486,2.486,0,0,0,106.219,226.862Zm1.993-9.594a2.071,2.071,0,0,1,.739.146c1.523.627,1.982,3.09,1.019,5.5h0a5.6,5.6,0,0,1-2.754,3.168,2.239,2.239,0,0,1-1.735.078c-1.523-.627-1.982-3.09-1.019-5.5a5.6,5.6,0,0,1,2.754-3.168A2.6,2.6,0,0,1,108.212,217.268Z" transform="translate(-40.258 -212.42)" fill="#263238"/>
    <path id="Path_427" data-name="Path 427" d="M103.358,219.567a.358.358,0,0,0,.347,0,3.012,3.012,0,0,1,2.709-.481.381.381,0,0,0,.493-.213.392.392,0,0,0-.213-.5,3.784,3.784,0,0,0-3.426.582.369.369,0,0,0-.09.526A.314.314,0,0,0,103.358,219.567Z" transform="translate(-35.897 -212.245)" fill="#263238"/>
    <path id="Path_428" data-name="Path 428" d="M111.072,228.688c-3.359,7.243-5.878,12.08-11.419,13.5-11.027,2.821-14.554-3.269-13.434-11.4,1.12-7.311,6.46-17.913,14.879-17.913a11.016,11.016,0,0,1,9.975,15.808Z" transform="translate(-22.003 -212.88)" fill="#b55b52"/>
    <path id="Path_429" data-name="Path 429" d="M91.561,244.942a7.143,7.143,0,0,1,3.415-3.235,6.605,6.605,0,0,0,.112-4.478L111.769,232c-1.343,5.508-2.4,9.874-.347,12.55-3.28,1.993-9.292,5.6-15.841,5.407S90.5,247.248,91.561,244.942Z" transform="translate(-26.765 -210.594)" fill="#b55b52"/>
    <path id="Path_430" data-name="Path 430" d="M113.926,243.182c1-3.179-.515-3.6-.515-3.6s-10.311-2.474-19.872,0-3.806,5.934-3.806,5.934Z" transform="translate(-26.336 -209.82)" fill="#263238"/>
    <path id="Path_431" data-name="Path 431" d="M84.736,227.279c-1.052-2.452-1.12-7.389.94-9.852a2.06,2.06,0,0,0,.806,1.679c.526-.784,3.8-2.967,8.4-2.866a2.81,2.81,0,0,0-.929,1.12s7.21-1.2,11.106,1.746c0,0-.828,1.12-.224,1.858,1.422.806,2,1.8,1.433,5.083s-4.478,9.023-8.273,12.606c-7.1.4-10.893-2.5-10.893-2.5S82.99,231.869,84.736,227.279Z" transform="translate(-14.073 -212.479)" fill="#e0e0e0"/>
    <path id="Path_432" data-name="Path 432" d="M110.274,225.957h.067a.269.269,0,0,0,.2-.336c-.448-1.747-2.776-3.415-4.288-4.03-2.239-.952-5.743-2.239-5.777-2.239a.28.28,0,0,0-.19.526s3.482,1.276,5.754,2.239c1.366.56,3.56,2.1,3.963,3.65A.291.291,0,0,0,110.274,225.957Z" transform="translate(-36.163 -212.108)" fill="#263238"/>
    <path id="Path_433" data-name="Path 433" d="M105.327,226.808a7.568,7.568,0,0,1-3.359,4.142c-1.993,1.041-3.1-1.12-2.653-3.538.4-2.239,1.914-5.463,3.963-5.452S106.155,224.513,105.327,226.808Z" transform="translate(-30.253 -211.795)" fill="#b55b52"/>
    <path id="Path_434" data-name="Path 434" d="M97.678,243.183a153.9,153.9,0,0,1,33.855.537,11.419,11.419,0,0,1,9.5,13.6c-5.262,26.511-2.664,58.451-3.213,63.69,0,0-33.093,8.15-62.694-.728-3.459-32.466,8.184-59.425,13.5-70.643a11.374,11.374,0,0,1,9.046-6.46Z" transform="translate(-38.21 -209.339)" fill="#263238"/>
    <path id="Path_435" data-name="Path 435" d="M106.5,416.648h-2.642l-.672-1.12-1.433,1.12H84.724a7.322,7.322,0,0,1,.84-3.661s5.833-.437,7.77-2.81a.616.616,0,0,1,.6-.246c1.567.336,7.837,1.534,11.374.28a.549.549,0,0,1,.761.526A38.745,38.745,0,0,0,106.5,416.648Z" transform="translate(-14.878 -189.327)" fill="#263238"/>
    <path id="Path_436" data-name="Path 436" d="M99.739,244.623c13.737-7.232,40.807-4.176,46.785.19,11.408,8.341,1.008,35.377.918,61.183s1.22,54.936,1.22,87c-27.843,21.271-75.882-1.511-75.882-1.511S72.131,259.177,99.739,244.623Z" transform="translate(-46.876 -209.604)" fill="#243244"/>
    <path id="Path_437" data-name="Path 437" d="M99.739,244.623c13.737-7.232,40.807-4.176,46.785.19,11.408,8.341,1.008,35.377.918,61.183s1.22,54.936,1.22,87c-27.843,21.271-75.882-1.511-75.882-1.511S72.131,259.177,99.739,244.623Z" transform="translate(-46.876 -209.604)" fill="#fff" opacity="0.8"/>
    <path id="Path_438" data-name="Path 438" d="M122.193,256.77l10.692,1.914A51.792,51.792,0,0,1,119.17,265.2,89.229,89.229,0,0,1,122.193,256.77Z" transform="translate(-79.831 -207.634)" fill="#243244" opacity="0.2"/>
    <path id="Path_439" data-name="Path 439" d="M161.736,225.535l2.7.705a2.832,2.832,0,0,1,2.049,1.8l1.276,4.03a4.769,4.769,0,0,1-1.276,4.747l-.806.851c-4.59-.929-8.52-4.8-8.52-4.8l-1.276-.985a2.071,2.071,0,0,1-.09-3.359l2.485-2.239A3.818,3.818,0,0,1,161.736,225.535Z" transform="translate(-154.975 -211.384)" fill="#b55b52"/>
    <path id="Path_440" data-name="Path 440" d="M164.3,232.4l-2.015-2.172A111.806,111.806,0,0,0,152,237.485a21.341,21.341,0,0,1,1.366,2.922Z" transform="translate(-148.005 -210.806)" fill="#263238"/>
    <path id="Path_441" data-name="Path 441" d="M167.49,243.558c-2.239.425-4.691.84-7.042,1.22s-4.736.761-7.087,1.12c-4.713.694-9.438,1.31-13.927,1.668l1.937.134c.358.123,0,.1-.6-.2a12.747,12.747,0,0,1-2.049-1.355,41.117,41.117,0,0,1-4.736-4.4c-1.59-1.668-3.146-3.493-4.657-5.374-.75-.94-1.5-1.9-2.239-2.866s-1.467-2-2.071-2.855L111.2,239.427c.817,1.332,1.511,2.418,2.3,3.6s1.545,2.306,2.351,3.437c1.6,2.239,3.291,4.478,5.15,6.717a59.338,59.338,0,0,0,6.314,6.572,31.677,31.677,0,0,0,4.254,3.2,19.749,19.749,0,0,0,6.594,2.709l.683.146h1.243c5.3,0,10.322-.314,15.338-.661q3.762-.269,7.49-.593c2.508-.224,4.948-.459,7.512-.728Z" transform="translate(-108.448 -210.756)" fill="#243244"/>
    <path id="Path_442" data-name="Path 442" d="M167.49,243.558c-2.239.425-4.691.84-7.042,1.22s-4.736.761-7.087,1.12c-4.713.694-9.438,1.31-13.927,1.668l1.937.134c.358.123,0,.1-.6-.2a12.747,12.747,0,0,1-2.049-1.355,41.117,41.117,0,0,1-4.736-4.4c-1.59-1.668-3.146-3.493-4.657-5.374-.75-.94-1.5-1.9-2.239-2.866s-1.467-2-2.071-2.855L111.2,239.427c.817,1.332,1.511,2.418,2.3,3.6s1.545,2.306,2.351,3.437c1.6,2.239,3.291,4.478,5.15,6.717a59.338,59.338,0,0,0,6.314,6.572,31.677,31.677,0,0,0,4.254,3.2,19.749,19.749,0,0,0,6.594,2.709l.683.146h1.243c5.3,0,10.322-.314,15.338-.661q3.762-.269,7.49-.593c2.508-.224,4.948-.459,7.512-.728Z" transform="translate(-108.448 -210.756)" fill="#fff" opacity="0.8"/>
  </g>
  <g id="freepik--character-2--inject-2" transform="translate(105.018 113.343)">
    <path id="Path_443" data-name="Path 443" d="M327.667,325.582l-.47,17.465h46.976l.761-28.313H330.242l.6-2.564H375l.75-28.313H351.972v-2.575h23.835l.717-26.712h3.818l-4.769,179.607h-3.829l.705-26.746H325.518l-.716,26.7H320.95l2.4-90.044Zm46.393,20.04H327.13l-.75,28.313h46.976Zm-1.579,59.2.75-28.313H326.3l-.75,28.313Z" transform="translate(-284.906 -111.133)" opacity="0.2"/>
    <path id="Path_444" data-name="Path 444" d="M325.5,442.906H321.67L354.383,254.6h3.829l-4.859,27.988h46.92l4.859-27.988h3.829L376.247,442.906H372.43l4.859-27.988H330.358Zm16.11-92.8-5.15,29.69H383.39l5.15-29.69Zm47.4-2.709,5.161-29.656H347.24l-5.161,29.69Zm-36.139-62.123-5.161,29.7h46.931l5.161-29.7ZM377.759,412.2l5.161-29.7H335.989l-5.161,29.7Z" transform="translate(-314.331 -111.129)" fill="#263238"/>
    <path id="Path_445" data-name="Path 445" d="M384.726,225.346l.705-2.362a2.866,2.866,0,0,0-.47-2.586l-2.642-3.426a5.34,5.34,0,0,0-4.478-2.071h-1.12c-1.455,3.829-.2,9.046-.2,9.046l.19,1.523a2.385,2.385,0,0,0,2.631,2.138l3.034-.336a2.765,2.765,0,0,0,2.351-1.926Z" transform="translate(-351.773 -115.875)" fill="#7f3e3b"/>
    <path id="Path_446" data-name="Path 446" d="M389.893,214.82l1.254,1.87a99.921,99.921,0,0,1-10.535,4.288,20.011,20.011,0,0,0-1.612-2.4Z" transform="translate(-360.701 -115.884)" fill="#fff"/>
    <path id="Path_447" data-name="Path 447" d="M388.954,164.53c-2.06,1.791-3.986,3.527-5.934,5.329s-3.874,3.6-5.777,5.463a154.5,154.5,0,0,0-11.2,11.889l-.593.716-.28.549a18.192,18.192,0,0,0-1.858,6.5,31.96,31.96,0,0,0-.09,5.239,61.073,61.073,0,0,0,1.332,9.113c.616,2.888,1.366,5.676,2.239,8.419s1.7,5.385,2.754,8.217l12.315-4.422c-.739-2.306-1.478-4.9-2.094-7.367s-1.12-5-1.579-7.456a47.811,47.811,0,0,1-.716-7.064,17.323,17.323,0,0,1,.179-2.911,2.977,2.977,0,0,1,.392-1.287l-.884,1.265a141.052,141.052,0,0,1,10.624-10.076c1.892-1.646,3.818-3.258,5.766-4.859s3.941-3.2,5.855-4.691Z" transform="translate(-351.231 -121.896)" fill="#243244"/>
    <path id="Path_448" data-name="Path 448" d="M388.954,164.53c-2.06,1.791-3.986,3.527-5.934,5.329s-3.874,3.6-5.777,5.463a154.5,154.5,0,0,0-11.2,11.889l-.593.716-.28.549a18.192,18.192,0,0,0-1.858,6.5,31.96,31.96,0,0,0-.09,5.239,61.073,61.073,0,0,0,1.332,9.113c.616,2.888,1.366,5.676,2.239,8.419s1.7,5.385,2.754,8.217l12.315-4.422c-.739-2.306-1.478-4.9-2.094-7.367s-1.12-5-1.579-7.456a47.811,47.811,0,0,1-.716-7.064,17.323,17.323,0,0,1,.179-2.911,2.977,2.977,0,0,1,.392-1.287l-.884,1.265a141.052,141.052,0,0,1,10.624-10.076c1.892-1.646,3.818-3.258,5.766-4.859s3.941-3.2,5.855-4.691Z" transform="translate(-351.231 -121.896)" fill="#fff" opacity="0.7"/>
    <path id="Path_449" data-name="Path 449" d="M350.81,149.87c.952,4.366,1.982,12.382-1.008,15.293,0,0,4.176-.627,12.673,4.814,2.743-3.65.907-4.814.907-4.814-4.892-1.12-4.848-4.78-4.075-8.173Z" transform="translate(-300.851 -123.648)" fill="#7f3e3b"/>
    <path id="Path_450" data-name="Path 450" d="M346,143.466c.112.582.5,1.008.884.952s.6-.593.493-1.187-.5-1.008-.884-.94S345.891,142.884,346,143.466Z" transform="translate(-279.989 -124.555)" fill="#263238"/>
    <path id="Path_451" data-name="Path 451" d="M349.9,140.066a.4.4,0,0,0,.235-.123.347.347,0,0,0-.078-.481,3.6,3.6,0,0,0-3.168-.638.325.325,0,0,0-.213.437.358.358,0,0,0,.448.213,2.9,2.9,0,0,1,2.508.526.313.313,0,0,0,.269.067Z" transform="translate(-283.541 -124.984)" fill="#263238"/>
    <path id="Path_452" data-name="Path 452" d="M344.35,144.31a16.433,16.433,0,0,0,2.776,3.359,2.5,2.5,0,0,1-2,.739Z" transform="translate(-277.889 -124.313)" fill="#630f0f"/>
    <path id="Path_453" data-name="Path 453" d="M345.75,142.408l1.332-.638S346.567,142.99,345.75,142.408Z" transform="translate(-279.412 -124.616)" fill="#263238"/>
    <path id="Path_454" data-name="Path 454" d="M346.019,145.565c1.612,6.908,2.138,9.863,6.3,12.863,6.269,4.478,14.487,1.052,14.991-6.18.459-6.516-2.239-16.7-9.628-18.36a9.7,9.7,0,0,0-11.666,11.677Z" transform="translate(-299.698 -125.59)" fill="#7f3e3b"/>
    <path id="Path_455" data-name="Path 455" d="M368.224,147.042c1.881-.448.772-5.978,0-7.12,3.773-1.064,6.661-4.12,2.351-7.053s-8.072-4.03-10.02-2.732c-1.176-3.359-8.811-1.847-12.55,4.131-3.549,5.654-.784,10.177,1.758,10.367-4.03,3.359,1.232,9.818,5.788,11.117.257,4.478,7.993,4.68,11.5,1.3S368.224,147.042,368.224,147.042Z" transform="translate(-305.692 -126.216)" fill="#263238"/>
    <path id="Path_456" data-name="Path 456" d="M348.867,146.518a4.624,4.624,0,0,0,2.553,2.933c1.556.6,2.564-1.187,2.317-3.112-.224-1.735-1.287-4.142-2.944-3.907S348.318,144.783,348.867,146.518Z" transform="translate(-289.402 -124.539)" fill="#7f3e3b"/>
    <path id="Path_457" data-name="Path 457" d="M404.211,332.162c-4.568-2.888-3.84-4.064-6.348-5.777-2.149-1.467-2.866-1.523-4.612-2.676-1.455-.963-.425-2.4,1.12-3.784.795-.705,1.836-1.511,3.056-2.676l6.941,4.389c-.291,2.463.313,6.348,2.653,8.329S406.036,333.315,404.211,332.162Z" transform="translate(-392.551 -103.641)" fill="#263238"/>
    <path id="Path_458" data-name="Path 458" d="M359.5,338.293c-7.77,0-7.266-.235-10.322-.291-2.239,0-1.623.291-5.788.291-1.758,0-1.914-1.982-1.265-3.471a25.93,25.93,0,0,0,1.735-4.053h7.512c1.332,2.385,5.016,4.142,9.147,4.478C363.468,335.427,361.688,338.293,359.5,338.293Z" transform="translate(-289.953 -102.024)" fill="#263238"/>
    <path id="Path_459" data-name="Path 459" d="M371.034,204.91s.873,39.184-1.59,64.06c0,23.353-8.744,76.845-8.744,76.845-.179,1.2-6.449.716-7.5,0,0,0-4.792-39.184.627-77.058-12.83-39.52-11.833-63.813-11.833-63.813Z" transform="translate(-299.289 -117.069)" fill="#263238"/>
    <path id="Path_460" data-name="Path 460" d="M408.123,204.91s-15.047,44.222-21.35,65.941c-6.605,22.8-22.894,50.838-30.742,64.216-1.489,0-5.284-2.373-6.941-4.389,8.52-15.125,8.755-36.318,21.73-58.82-.123-54.017,8.7-66.948,8.7-66.948Z" transform="translate(-344.192 -117.069)" fill="#263238"/>
    <path id="Path_461" data-name="Path 461" d="M403.156,319.684a23.354,23.354,0,0,0-1.523,2.8.672.672,0,0,1-.884.369,29.421,29.421,0,0,1-7.12-5.072.627.627,0,0,1-.123-.728l1.31-2.732a.672.672,0,0,1,.963-.291l7.255,4.792A.616.616,0,0,1,403.156,319.684Z" transform="translate(-388.999 -104.037)" fill="#243244"/>
    <path id="Path_462" data-name="Path 462" d="M403.156,319.684a23.354,23.354,0,0,0-1.523,2.8.672.672,0,0,1-.884.369,29.421,29.421,0,0,1-7.12-5.072.627.627,0,0,1-.123-.728l1.31-2.732a.672.672,0,0,1,.963-.291l7.255,4.792A.616.616,0,0,1,403.156,319.684Z" transform="translate(-388.999 -104.037)" fill="#fff" opacity="0.3"/>
    <path id="Path_463" data-name="Path 463" d="M360.063,328.352c0,.817-.056,2.239,0,3.359a.672.672,0,0,1-.627.683,45.189,45.189,0,0,1-8.273-.493.616.616,0,0,1-.515-.526l-.4-2.933a.683.683,0,0,1,.683-.761l8.564.078A.627.627,0,0,1,360.063,328.352Z" transform="translate(-297.419 -102.394)" fill="#243244"/>
    <path id="Path_464" data-name="Path 464" d="M360.063,328.352c0,.817-.056,2.239,0,3.359a.672.672,0,0,1-.627.683,45.189,45.189,0,0,1-8.273-.493.616.616,0,0,1-.515-.526l-.4-2.933a.683.683,0,0,1,.683-.761l8.564.078A.627.627,0,0,1,360.063,328.352Z" transform="translate(-297.419 -102.394)" fill="#fff" opacity="0.3"/>
    <path id="Path_465" data-name="Path 465" d="M378.956,174.669c-.067,2.944-.146,6.661-.918,13.681-.537,5.945-1.254,11.789-2.62,21.529H339c1.041-8.419,5.777-18.025,1.4-36.945a7.367,7.367,0,0,1,6.437-9.068c1.187-.112,2.452-.213,3.739-.28a113.668,113.668,0,0,1,14.879,0c1.478.134,2.989.325,4.478.526A10.546,10.546,0,0,1,378.956,174.669Z" transform="translate(-303.728 -122.038)" fill="#243244"/>
    <path id="Path_466" data-name="Path 466" d="M265.01,200.112a15.014,15.014,0,0,1-3.706,3.068A15.192,15.192,0,0,1,249.46,204.7l.537-6.583a9.338,9.338,0,0,0,4.411,1.534,9.072,9.072,0,0,0,.952,0,9.337,9.337,0,1,0-3.191-18.17l-.828.313,1.478-17.812,17.913,1.422h0a11.018,11.018,0,0,1-.414-1.064,9.515,9.515,0,0,1-.381-3.538,9.348,9.348,0,0,1,10.076-8.542,10.075,10.075,0,0,1,2.127.437,9.292,9.292,0,0,1,5.956,11.833.727.727,0,0,1,0,.146.157.157,0,0,1,0,.067,9.091,9.091,0,0,1-1.008,2l17.834,1.467-1.467,17.834c-.246-.168-.5-.3-.761-.448a9.337,9.337,0,1,0-.582,16.737l-.571,6.941c-6.46-1.758-13.267-3.862-20.23-6.213a15.27,15.27,0,0,1-16.3-2.956Z" transform="translate(-129.451 -123.366)" fill="#faf6f3"/>
    <path id="Path_467" data-name="Path 467" d="M298.806,173.242l-2.429-.437a2.844,2.844,0,0,0-2.508.761l-3.1,3.023a5.374,5.374,0,0,0-1.556,4.657l.168,1.064c3.974,1,8.956-.851,8.956-.851l1.5-.369a2.4,2.4,0,0,0,1.825-2.855l-.694-2.967A2.732,2.732,0,0,0,298.806,173.242Z" transform="translate(-170.681 -120.912)" fill="#7f3e3b"/>
    <path id="Path_468" data-name="Path 468" d="M294.29,177.771,296,176.26a102.8,102.8,0,0,1,5.475,9.975,21.369,21.369,0,0,0-2.239,1.87Z" transform="translate(-176.196 -120.494)" fill="#fff"/>
    <path id="Path_469" data-name="Path 469" d="M393.26,162.287c7.837,1.12,12.953,6.493,13.692,24.059a369.036,369.036,0,0,1-1.332,39.452c1.12,31.728,2.978,76.33-2.53,91.208-19.984,7.411-52.473-3-67.653-10.669,4.915-11.2,15.035-49.842,19.715-80.237,2.452-15.976,5.474-40.673,6.191-50.872s6.023-12.248,11.083-13.266S384.852,161.1,393.26,162.287Z" transform="translate(-327.806 -122.283)" fill="#243244"/>
    <path id="Path_470" data-name="Path 470" d="M393.26,162.287c7.837,1.12,12.953,6.493,13.692,24.059a369.036,369.036,0,0,1-1.332,39.452c1.12,31.728,2.978,76.33-2.53,91.208-19.984,7.411-52.473-3-67.653-10.669,4.915-11.2,15.035-49.842,19.715-80.237,2.452-15.976,5.474-40.673,6.191-50.872s6.023-12.248,11.083-13.266S384.852,161.1,393.26,162.287Z" transform="translate(-327.806 -122.283)" fill="#fff" opacity="0.8"/>
    <path id="Path_471" data-name="Path 471" d="M344.381,184.085h0c.1,2.373.134,5.766.09,9.762-6.225-5.15-9.068-13.837-9.068-13.837Z" transform="translate(-265.236 -120.045)" fill="#243244" opacity="0.2"/>
    <path id="Path_472" data-name="Path 472" d="M294.93,177.376c1.948,1.836,3.806,3.515,5.732,5.228s3.874,3.359,5.855,5.027a137.266,137.266,0,0,0,12.707,9.55l.795.5.571.213a18.237,18.237,0,0,0,6.717,1.12,30.8,30.8,0,0,0,5.217-.526,61.049,61.049,0,0,0,8.956-2.362c2.8-.952,5.475-2.015,8.117-3.157s5.15-2.306,7.837-3.683l-5.81-11.677c-2.239,1-4.7,2.038-7.075,2.933s-4.836,1.735-7.232,2.429a47.175,47.175,0,0,1-6.93,1.534,17.171,17.171,0,0,1-2.911.157,3.358,3.358,0,0,1-1.332-.235l1.366.728a122.106,122.106,0,0,1-10.669-9.091c-1.758-1.635-3.493-3.359-5.206-5.027s-3.437-3.471-5.016-5.15Z" transform="translate(-232.868 -121.733)" fill="#243244"/>
    <path id="Path_473" data-name="Path 473" d="M294.93,177.376c1.948,1.836,3.806,3.515,5.732,5.228s3.874,3.359,5.855,5.027a137.266,137.266,0,0,0,12.707,9.55l.795.5.571.213a18.237,18.237,0,0,0,6.717,1.12,30.8,30.8,0,0,0,5.217-.526,61.049,61.049,0,0,0,8.956-2.362c2.8-.952,5.475-2.015,8.117-3.157s5.15-2.306,7.837-3.683l-5.81-11.677c-2.239,1-4.7,2.038-7.075,2.933s-4.836,1.735-7.232,2.429a47.175,47.175,0,0,1-6.93,1.534,17.171,17.171,0,0,1-2.911.157,3.358,3.358,0,0,1-1.332-.235l1.366.728a122.106,122.106,0,0,1-10.669-9.091c-1.758-1.635-3.493-3.359-5.206-5.027s-3.437-3.471-5.016-5.15Z" transform="translate(-232.868 -121.733)" fill="#fff" opacity="0.8"/>
    <path id="Path_474" data-name="Path 474" d="M365.193,129.943c2.485-.728,5.7,1.892,4.389,5.8s-5.195,5.754-8.251,4.478S359.7,131.533,365.193,129.943Z" transform="translate(-317.886 -126.045)" fill="#243244"/>
    <path id="Path_475" data-name="Path 475" d="M373.262,136.112c1.668-6.527-6.717-15.83-10.759-3.941C360.018,139.5,371.661,142.336,373.262,136.112Z" transform="translate(-324.175 -126.448)" fill="#263238"/>
  </g>
</svg>
