<svg xmlns="http://www.w3.org/2000/svg" width="547.786" height="554.051" viewBox="0 0 547.786 554.051">
  <g id="Parents-pana" transform="translate(-15.53 -27.376)">
    <g id="freepik--background-complete--inject-23" transform="translate(15.53 27.376)">
      <path id="Path_143" data-name="Path 143" d="M313.348,376.05,284.8,500.039l12.063-.025,28.621-122.789Z" transform="translate(44.977 50.974)" fill="#e0e0e0"/>
      <path id="Path_144" data-name="Path 144" d="M350.65,376.05l28.658,123.989h11.463L363.044,376.05Z" transform="translate(59.774 50.974)" fill="#e0e0e0"/>
      <path id="Path_145" data-name="Path 145" d="M292.37,300.02l16.264,85.362h18.481L309.749,300.02Z" transform="translate(46.678 33.889)" fill="#e0e0e0"/>
      <path id="Path_146" data-name="Path 146" d="M65.412,376.05,42.13,500.039H53.985L78.308,376.05Z" transform="translate(-9.553 50.974)" fill="#e0e0e0"/>
      <path id="Path_147" data-name="Path 147" d="M101.14,376.05l26.625,123.316h11.708L113.767,376.05Z" transform="translate(3.707 50.974)" fill="#e0e0e0"/>
      <path id="Path_148" data-name="Path 148" d="M45.41,300.02l16.252,85.362H80.143L62.776,300.02Z" transform="translate(-8.816 33.889)" fill="#e0e0e0"/>
      <path id="Path_149" data-name="Path 149" d="M15.53,293.68,18.861,309.2H389.874l-4.335-15.517Z" transform="translate(-15.53 32.465)" fill="#ebebeb"/>
      <path id="Path_150" data-name="Path 150" d="M21.32,318.29l3.919,15.517h368.5l-3.356-15.517Z" transform="translate(-14.229 37.995)" fill="#ebebeb"/>
      <path id="Path_151" data-name="Path 151" d="M27.3,343.77l3.65,15.517H398.313l-3.478-15.517Z" transform="translate(-12.885 43.72)" fill="#ebebeb"/>
      <rect id="Rectangle_24" data-name="Rectangle 24" width="396.132" height="15.517" transform="translate(42.497 419.272)" fill="#ebebeb"/>
      <path id="Path_152" data-name="Path 152" d="M410.377,373.251c-25.719-6.711-48.119-23.6-60.611-45.608a87.8,87.8,0,0,1-6.356-72.454c6.626-18.371,19.375-34.659,24.849-53.41,6.209-21.3,2.511-43.881-1.323-65.657s-7.74-44.3-1.923-65.669,24.151-41.469,47.764-42.987c21.861-1.408,42.056,13.717,51.181,32.332s9.173,39.938,7.042,60.317-6.283,40.709-4.972,61.137c2.645,41.358,27.446,80.292,24.494,121.638C489,324.421,480.087,338.2,464.8,354.329c-13.166,13.962-35.039,23.135-54.426,18.861" transform="translate(57.02 -27.376)" fill="#f5f5f5"/>
      <path id="Path_153" data-name="Path 153" d="M403.566,552.211c-.233,0-.416-91.62-.416-204.612s.184-204.649.416-204.649.416,91.608.416,204.649S403.787,552.211,403.566,552.211Z" transform="translate(71.571 -1.405)" fill="#e0e0e0"/>
      <path id="Path_154" data-name="Path 154" d="M406.929,255.866a30.676,30.676,0,0,1-3.772-3.331c-2.253-2.131-5.315-5.144-8.573-8.573s-6.185-6.479-8.328-8.708a31.62,31.62,0,0,1-3.356-3.674,31.229,31.229,0,0,1,3.784,3.331c2.241,2.131,5.3,5.144,8.573,8.573s6.124,6.479,8.328,8.708a31.62,31.62,0,0,1,3.343,3.674Z" transform="translate(67.021 18.511)" fill="#e0e0e0"/>
      <rect id="Rectangle_25" data-name="Rectangle 25" width="136.849" height="16.717" transform="translate(407.864 533.818)" fill="#e0e0e0"/>
      <path id="Path_155" data-name="Path 155" d="M404.623,185.4a28.241,28.241,0,0,0,8.353-3.478,23.135,23.135,0,0,0,6.711-6.748,22.57,22.57,0,0,0,3.674-10.692v-.367l.478.4a17.991,17.991,0,0,0-10.079,5.536,38.151,38.151,0,0,0-5.609,7.532c-1.347,2.315-2.29,4.25-2.939,5.6a14.155,14.155,0,0,1-1.041,2.082,11.25,11.25,0,0,1,.747-2.192,51.562,51.562,0,0,1,2.719-5.732,36.079,36.079,0,0,1,5.56-7.765,18.554,18.554,0,0,1,10.52-5.83l.514-.074v.857a23.27,23.27,0,0,1-10.851,17.832A21.115,21.115,0,0,1,407.158,185a16.83,16.83,0,0,1-1.825.343A2.449,2.449,0,0,1,404.623,185.4Z" transform="translate(71.8 3.251)" fill="#e0e0e0"/>
      <path id="Path_156" data-name="Path 156" d="M404.542,183.937c-.184-.135,2.388-3.331,5.732-7.128s6.124-6.773,6.368-6.638-2.388,3.319-5.732,7.128S404.713,184.071,404.542,183.937Z" transform="translate(71.882 4.71)" fill="#e0e0e0"/>
      <path id="Path_157" data-name="Path 157" d="M288.589,62.92c.723-5.242-6.675-9.553-12.247-9.994-2.658-.22-5.4.184-7.912-.686-5.438-1.9-7.618-8.928-12.921-11.157-3.968-1.678-8.573-.184-12.382,1.751s-7.556,4.433-11.916,4.642c-3.735.245-7.8-1.139-11.022.686-2.449,1.359-3.674,4.164-5.964,5.817s-5.058,1.96-7.789,2.119-5.548.171-8.034,1.31-4.531,3.76-4.017,6.442Z" transform="translate(24.642 -24.459)" fill="#fafafa"/>
      <path id="Path_158" data-name="Path 158" d="M294.848,130.394c.747-5.438-6.92-9.908-12.676-10.373-2.756-.22-5.609.2-8.206-.71-5.646-1.96-7.9-9.247-13.4-11.573-4.115-1.727-8.855-.184-12.847,1.825s-7.924,4.531-12.382,4.813c-3.882.245-8.083-1.225-11.475.71-2.535,1.408-3.858,4.323-6.124,6.038s-5.254,2.033-8.083,2.192-5.756.184-8.328,1.359-4.7,3.907-4.164,6.687Z" transform="translate(25.266 -9.486)" fill="#ebebeb"/>
      <path id="Path_159" data-name="Path 159" d="M166.8,95.727C167.7,89.065,158.308,83.578,151.23,83c-3.368-.269-6.871.245-10.055-.87-6.92-2.449-9.687-11.341-16.436-14.194-5.046-2.119-10.851-.233-15.75,2.229s-9.724,5.56-15.186,5.915c-4.752.306-9.92-1.457-14.084.857-3.1,1.739-4.715,5.3-7.581,7.348S65.7,86.738,62.23,86.983s-7.054.22-10.214,1.666-5.768,4.789-5.107,8.193Z" transform="translate(-8.502 -18.467)" fill="#f5f5f5"/>
    </g>
    <g id="freepik--Characters--inject-23" transform="translate(57.697 90.928)">
      <path id="Path_160" data-name="Path 160" d="M244.084,296.616a5.23,5.23,0,0,1-5.413,2.364,14.379,14.379,0,0,1-5.695-2.584c-1.739-1.139-3.674-2.609-3.674-4.678a10.361,10.361,0,0,1,.808-3.331c1-3.368.135-6.969-.49-10.422a47.47,47.47,0,0,1-.147-18.493,27.789,27.789,0,0,1,9.185-15.786,29.062,29.062,0,0,1,11.733-5.511c7.1-1.666,14.868-1.225,21.322,2.131s11.365,10.055,11.684,17.342c.233,5.229-1.506,11.39,2.192,15.1,1.127,1.114,2.621,1.813,3.674,2.952,2.449,2.56,2.449,6.907.453,9.9a14.623,14.623,0,0,1-8.769,5.683,24.874,24.874,0,0,1-13.227-.171" transform="translate(-9.81 -43.772)" fill="#263238"/>
      <path id="Path_161" data-name="Path 161" d="M272.991,265.579a8.389,8.389,0,0,1,2.266,5.058,20.27,20.27,0,0,0,1.225,5.5,4.691,4.691,0,0,0,4.384,2.976,17.4,17.4,0,0,1-18.738,6.944l-.7-22.106" transform="translate(-2.441 -37.768)" fill="#263238"/>
      <path id="Path_162" data-name="Path 162" d="M232.74,259.787c.367-7.446,8.279-15,15.713-14.329l24.139,4.225V253.7l-.759,49.637h0S270,319.369,256.475,318.646c-12.137-.637-11.659-13.472-11.659-13.472l.233-9.357s-9.8-.257-11.953-12.639C231.993,277.018,232.348,268.078,232.74,259.787Z" transform="translate(-8.974 -41.933)" fill="#ffbe9d"/>
      <path id="Path_163" data-name="Path 163" d="M234.435,265.375c.208.208,1.4-.71,3.111-.723s2.976.808,3.16.6-.11-.465-.661-.857a4.336,4.336,0,0,0-2.535-.735,4.176,4.176,0,0,0-2.449.833C234.508,264.91,234.337,265.3,234.435,265.375Z" transform="translate(-8.513 -37.834)" fill="#263238"/>
      <path id="Path_164" data-name="Path 164" d="M247.825,265.247c.208.2,1.4-.71,3.111-.735s2.976.821,3.16.612-.11-.465-.661-.857a4.421,4.421,0,0,0-2.535-.747,4.176,4.176,0,0,0-2.449.845C247.9,264.769,247.727,265.149,247.825,265.247Z" transform="translate(-5.504 -37.865)" fill="#263238"/>
      <path id="Path_165" data-name="Path 165" d="M244.164,274.22a12.956,12.956,0,0,0-2.792-.4c-.441,0-.857-.1-.931-.355a1.911,1.911,0,0,1,.257-1.1l1.225-2.829c1.7-4.029,2.927-7.348,2.731-7.409a45.03,45.03,0,0,0-3.38,7.2c-.416.992-.808,1.935-1.225,2.841a1.849,1.849,0,0,0-.2,1.457,1.066,1.066,0,0,0,.735.539,3.482,3.482,0,0,0,.735.086A13.082,13.082,0,0,0,244.164,274.22Z" transform="translate(-7.305 -38.179)" fill="#263238"/>
      <path id="Path_166" data-name="Path 166" d="M242.64,287.488A31.585,31.585,0,0,0,259.2,282.81s-4.127,8.732-16.558,7.752Z" transform="translate(-6.663 -33.53)" fill="#eb996e"/>
      <path id="Path_167" data-name="Path 167" d="M248.119,271.57c-.282,0-.257,1.849-1.825,3.2s-3.552,1.163-3.564,1.421.441.355,1.286.367a4.666,4.666,0,0,0,2.976-1.09,4.017,4.017,0,0,0,1.408-2.67C248.462,272.011,248.253,271.558,248.119,271.57Z" transform="translate(-6.643 -36.056)" fill="#263238"/>
      <path id="Path_168" data-name="Path 168" d="M247.644,259.381c.233.588,1.9.122,3.931.233s3.674.661,3.931.086c.1-.282-.245-.833-.967-1.359a5.585,5.585,0,0,0-3.013-1.029,5.046,5.046,0,0,0-2.976.784C247.852,258.548,247.534,259.063,247.644,259.381Z" transform="translate(-5.544 -39.262)" fill="#263238"/>
      <path id="Path_169" data-name="Path 169" d="M234.509,259.251c.355.6,1.923.1,3.772.171s3.392.588,3.784,0c.184-.282,0-.87-.686-1.445a4.972,4.972,0,0,0-6.124-.147C234.594,258.394,234.349,258.969,234.509,259.251Z" transform="translate(-8.501 -39.364)" fill="#263238"/>
      <path id="Path_170" data-name="Path 170" d="M264.611,264.068c.233-.1,9.479-2.584,8.977,6.785s-9.8,6.944-9.8,6.675S264.611,264.068,264.611,264.068Z" transform="translate(-1.911 -37.825)" fill="#ffbe9d"/>
      <path id="Path_171" data-name="Path 171" d="M265.6,273.533a2.346,2.346,0,0,0,.429.269,1.653,1.653,0,0,0,1.225.086c1-.306,1.923-1.837,2.057-3.515a5.29,5.29,0,0,0-.331-2.364,1.849,1.849,0,0,0-1.164-1.323.821.821,0,0,0-.98.392c-.147.257-.1.453-.147.465s-.2-.171-.1-.551a1,1,0,0,1,.4-.563,1.225,1.225,0,0,1,.919-.2,2.3,2.3,0,0,1,1.629,1.543,5.486,5.486,0,0,1,.416,2.645c-.159,1.886-1.225,3.6-2.6,3.919a1.752,1.752,0,0,1-1.47-.331C265.613,273.766,265.577,273.558,265.6,273.533Z" transform="translate(-1.505 -37.26)" fill="#eb996e"/>
      <path id="Path_172" data-name="Path 172" d="M240.424,245.116c.625-2.56,3.441-3.6,5.879-4.1,5.144-1.078,10.5-1.653,15.6-.38a17.942,17.942,0,0,1,12.247,9.675c2.572,5.805,1.359,12.614.086,18.9l-3.356-.061c-1.286,5.278-7.863,4.593-9.014-1.984-.416-2.364-1.372-4.96-3.27-6.307a8.254,8.254,0,0,0-3.895-1,17.66,17.66,0,0,1-13.643-10.79A6.515,6.515,0,0,1,240.424,245.116Z" transform="translate(-7.178 -43.171)" fill="#263238"/>
      <path id="Path_173" data-name="Path 173" d="M271.121,250.3c-.576-.833.367-1.862,1.225-2.376a14.561,14.561,0,0,1,7.985-2.449,7.814,7.814,0,0,1,6.822,4.323,10.214,10.214,0,0,1,.735,3.6,7.85,7.85,0,0,1-.747,4.531,6.7,6.7,0,0,1-4.825,2.817,9.6,9.6,0,0,1-4-.159c-3.931-1.078-6.319-4.9-8.34-8.463" transform="translate(-0.522 -41.921)" fill="#263238"/>
      <path id="Path_174" data-name="Path 174" d="M252.526,259.424c0,.416-1.225.833-3.417.772a8.573,8.573,0,0,1-3.87-1.114,9.59,9.59,0,0,1-1.886-1.482,12.308,12.308,0,0,1-1.617-1.96,13.594,13.594,0,0,1-1.653-4.458,18.824,18.824,0,0,1-.343-3.674c0-2.082.392-3.356.821-3.368s.87,1.225,1.408,3.062c.282.943.576,2.045.967,3.233a16.558,16.558,0,0,0,1.494,3.478,13.673,13.673,0,0,0,1.225,1.506,11.016,11.016,0,0,0,1.225,1.225,9.381,9.381,0,0,0,2.658,1.347C251.289,258.567,252.563,258.971,252.526,259.424Z" transform="translate(-7.315 -42.22)" fill="#263238"/>
      <path id="Path_175" data-name="Path 175" d="M273.677,259.019c-.086,0,.122-.686.184-1.776a20.021,20.021,0,0,0-.147-4.25A16.57,16.57,0,0,0,272.342,249c-.465-1.017-.735-1.653-.649-1.69s.478.514,1.041,1.482a12.248,12.248,0,0,1,1.617,4.1,14.869,14.869,0,0,1,0,4.409A3.16,3.16,0,0,1,273.677,259.019Z" transform="translate(-0.139 -41.508)" fill="#243244"/>
      <path id="Path_176" data-name="Path 176" d="M286.341,251.662a12.168,12.168,0,0,0-1.666-.943,10.2,10.2,0,0,0-4.556-.38,63.908,63.908,0,0,0-6.54,1.225,13.949,13.949,0,0,1,6.491-1.837,9.149,9.149,0,0,1,4.789.6C286.072,250.878,286.452,251.638,286.341,251.662Z" transform="translate(0.289 -40.985)" fill="#455a64"/>
      <path id="Path_177" data-name="Path 177" d="M280.527,256.764a1.507,1.507,0,0,1-.49.086c-.331,0-.808.086-1.433.1a10.1,10.1,0,0,1-5.132-1.065,11.475,11.475,0,0,1-2.78-2.449c-.857-.968-1.751-2.033-2.682-3.16a51.354,51.354,0,0,0-6.466-6.822,17.146,17.146,0,0,0-8.279-3.993,13.19,13.19,0,0,0-7.348,1.139,13.742,13.742,0,0,0-4.152,2.976c-.833.894-1.225,1.47-1.225,1.433a1.726,1.726,0,0,1,.233-.441,9.274,9.274,0,0,1,.845-1.151,12.872,12.872,0,0,1,4.14-3.221,13.312,13.312,0,0,1,7.593-1.274,17.612,17.612,0,0,1,8.573,4.091,48.01,48.01,0,0,1,6.515,6.944c1.874,2.217,3.392,4.433,5.229,5.536a10.471,10.471,0,0,0,4.9,1.225,18.479,18.479,0,0,1,1.96.049Z" transform="translate(-7.135 -43.417)" fill="#455a64"/>
      <path id="Path_178" data-name="Path 178" d="M234.34,377.6s4.727,32.871,5.695,48.266c1.225,19.865,8.365,51.315,8.365,51.315h18.836l.355-74.462,16.779,72.49,21.579-1.947-8-80.316L295.4,372.7Z" transform="translate(-8.528 -13.331)" fill="#263238"/>
      <path id="Path_179" data-name="Path 179" d="M271.44,479.874l-1.3-34.194-24.163.71s3.16,22.767,2.633,24.6c-2.2,7.667-13.337,8.059-13.337,8.059-6.124.061-5.144,5.438-5.144,5.438l41.64-.294Z" transform="translate(-9.487 3.068)" fill="#243244"/>
      <path id="Path_180" data-name="Path 180" d="M256.581,465.264a25.019,25.019,0,0,1-.147-4.017,23.271,23.271,0,0,1,.171-4.017,50.757,50.757,0,0,1,0,8.034Z" transform="translate(-3.569 5.663)" fill="#fafafa"/>
      <path id="Path_181" data-name="Path 181" d="M260.512,460.673a16.876,16.876,0,0,1-3.417,0,17.99,17.99,0,0,1-3.4-.282,36.633,36.633,0,0,1,6.822.245Z" transform="translate(-4.18 6.36)" fill="#fafafa"/>
      <path id="Path_182" data-name="Path 182" d="M259.66,458.81a19.3,19.3,0,0,1-2.67,2.449,21.452,21.452,0,0,1-2.89,2.168,19.9,19.9,0,0,1,2.682-2.449A20.924,20.924,0,0,1,259.66,458.81Z" transform="translate(-4.088 6.018)" fill="#fafafa"/>
      <path id="Path_183" data-name="Path 183" d="M259.4,464.191a3.907,3.907,0,0,1-.857-.833c-.49-.551-1.127-1.335-1.788-2.229s-1.225-1.751-1.6-2.376a4.126,4.126,0,0,1-.551-1.053,4.9,4.9,0,0,1,.747.931c.416.588,1,1.408,1.666,2.3s1.225,1.69,1.715,2.278a5.791,5.791,0,0,1,.674.98Z" transform="translate(-3.976 5.769)" fill="#fafafa"/>
      <path id="Path_184" data-name="Path 184" d="M250.031,457.164a25.016,25.016,0,0,1-.147-4.017,23.184,23.184,0,0,1,.172-4.017,24.9,24.9,0,0,1,.147,4.017A23.268,23.268,0,0,1,250.031,457.164Z" transform="translate(-5.041 3.843)" fill="#fafafa"/>
      <path id="Path_185" data-name="Path 185" d="M253.962,452.575a18.022,18.022,0,0,1-3.417,0,19.458,19.458,0,0,1-3.4-.282,34.034,34.034,0,0,1,6.822.245Z" transform="translate(-5.652 4.538)" fill="#fafafa"/>
      <path id="Path_186" data-name="Path 186" d="M253.11,450.71a19.306,19.306,0,0,1-2.67,2.449,18.846,18.846,0,0,1-2.89,2.156,20.824,20.824,0,0,1,2.682-2.449A19.867,19.867,0,0,1,253.11,450.71Z" transform="translate(-5.56 4.198)" fill="#fafafa"/>
      <path id="Path_187" data-name="Path 187" d="M252.881,456.111a4.327,4.327,0,0,1-.857-.833c-.478-.551-1.127-1.335-1.788-2.229s-1.225-1.751-1.6-2.376a4.124,4.124,0,0,1-.551-1.053,9.6,9.6,0,0,1,.747.919c.429.588,1,1.421,1.666,2.315s1.225,1.69,1.715,2.278a4.274,4.274,0,0,1,.674.98Z" transform="translate(-5.441 3.953)" fill="#fafafa"/>
      <path id="Path_188" data-name="Path 188" d="M250.953,476.924a25.823,25.823,0,0,1-.159-4.017,24,24,0,0,1,.184-4.017,50.752,50.752,0,0,1,0,8.034Z" transform="translate(-4.836 8.283)" fill="#fafafa"/>
      <path id="Path_189" data-name="Path 189" d="M254.882,472.33a36.628,36.628,0,0,1-6.822-.245,17.374,17.374,0,0,1,3.417,0,18.577,18.577,0,0,1,3.4.245Z" transform="translate(-5.445 8.982)" fill="#fafafa"/>
      <path id="Path_190" data-name="Path 190" d="M254.02,470.47a19.3,19.3,0,0,1-2.67,2.449,19.594,19.594,0,0,1-2.89,2.155,19.906,19.906,0,0,1,2.682-2.449,19.126,19.126,0,0,1,2.878-2.156Z" transform="translate(-5.356 8.638)" fill="#fafafa"/>
      <path id="Path_191" data-name="Path 191" d="M253.759,475.871a4.983,4.983,0,0,1-.845-.833c-.49-.551-1.127-1.335-1.788-2.229s-1.225-1.751-1.6-2.376a4.126,4.126,0,0,1-.551-1.053,4.409,4.409,0,0,1,.747.931c.416.588,1,1.408,1.666,2.3s1.225,1.69,1.715,2.278a3.945,3.945,0,0,1,.661.98Z" transform="translate(-5.241 8.393)" fill="#fafafa"/>
      <path id="Path_192" data-name="Path 192" d="M301.85,479.624l-1.3-34.194-26.233.772s5.217,22.718,4.7,24.494c-2.2,7.667-13.337,8.059-13.337,8.059-6.124.061-5.144,5.438-5.144,5.438l41.64-.294Z" transform="translate(-2.654 3.012)" fill="#243244"/>
      <path id="Path_193" data-name="Path 193" d="M278.783,457.074a25.82,25.82,0,0,1-.159-4.017,23.989,23.989,0,0,1,.184-4.017,50.746,50.746,0,0,1,0,8.034Z" transform="translate(1.418 3.823)" fill="#fafafa"/>
      <path id="Path_194" data-name="Path 194" d="M282.712,452.48a36.628,36.628,0,0,1-6.822-.245,17.379,17.379,0,0,1,3.417,0A18.57,18.57,0,0,1,282.712,452.48Z" transform="translate(0.808 4.522)" fill="#fafafa"/>
      <path id="Path_195" data-name="Path 195" d="M281.86,450.62a19.3,19.3,0,0,1-2.67,2.449,19.587,19.587,0,0,1-2.89,2.156,40.143,40.143,0,0,1,5.56-4.568Z" transform="translate(0.9 4.178)" fill="#fafafa"/>
      <path id="Path_196" data-name="Path 196" d="M281.589,456.021a4.982,4.982,0,0,1-.845-.833c-.49-.551-1.127-1.335-1.788-2.229s-1.225-1.751-1.6-2.376a4.129,4.129,0,0,1-.551-1.053,4.41,4.41,0,0,1,.747.931c.416.588,1,1.408,1.666,2.3s1.225,1.69,1.715,2.278a3.943,3.943,0,0,1,.661.98Z" transform="translate(1.013 3.933)" fill="#fafafa"/>
      <path id="Path_197" data-name="Path 197" d="M288.461,466.044a24.9,24.9,0,0,1-.147-4.017,23.268,23.268,0,0,1,.172-4.017,25.019,25.019,0,0,1,.147,4.017,23.063,23.063,0,0,1-.172,4.017Z" transform="translate(3.594 5.838)" fill="#fafafa"/>
      <path id="Path_198" data-name="Path 198" d="M292.392,461.45a34.034,34.034,0,0,1-6.822-.245,18.155,18.155,0,0,1,3.417,0,19.3,19.3,0,0,1,3.4.245Z" transform="translate(2.983 6.538)" fill="#fafafa"/>
      <path id="Path_199" data-name="Path 199" d="M291.54,459.59a19.3,19.3,0,0,1-2.67,2.449,20.6,20.6,0,0,1-2.89,2.168,20.818,20.818,0,0,1,2.682-2.449,21.819,21.819,0,0,1,2.878-2.168Z" transform="translate(3.075 6.193)" fill="#fafafa"/>
      <path id="Path_200" data-name="Path 200" d="M291.281,464.991a3.907,3.907,0,0,1-.857-.833c-.478-.551-1.127-1.323-1.788-2.229s-1.225-1.739-1.6-2.376a4.127,4.127,0,0,1-.551-1.053,4.372,4.372,0,0,1,.747.931c.429.588,1,1.408,1.666,2.3s1.225,1.7,1.715,2.278a4.994,4.994,0,0,1,.674.98Z" transform="translate(3.188 5.949)" fill="#fafafa"/>
      <path id="Path_201" data-name="Path 201" d="M281.423,477.166a25.817,25.817,0,0,1-.159-4.017,24.079,24.079,0,0,1,.184-4.029,25.118,25.118,0,0,1,.147,4.029A24.864,24.864,0,0,1,281.423,477.166Z" transform="translate(2.011 8.335)" fill="#fafafa"/>
      <path id="Path_202" data-name="Path 202" d="M285.352,472.578a18.017,18.017,0,0,1-3.417,0,17.361,17.361,0,0,1-3.4-.294,19.342,19.342,0,0,1,3.417,0,17.371,17.371,0,0,1,3.4.294Z" transform="translate(1.401 9.029)" fill="#fafafa"/>
      <path id="Path_203" data-name="Path 203" d="M284.5,470.71a20.258,20.258,0,0,1-2.67,2.449,19.6,19.6,0,0,1-2.89,2.156,19.9,19.9,0,0,1,2.682-2.449A19.124,19.124,0,0,1,284.5,470.71Z" transform="translate(1.493 8.692)" fill="#fafafa"/>
      <path id="Path_204" data-name="Path 204" d="M284.229,476.1a7.572,7.572,0,0,1-.845-.833,28,28,0,0,1-1.788-2.229c-.674-.894-1.225-1.739-1.6-2.364a4.372,4.372,0,0,1-.551-1.053,9.591,9.591,0,0,1,.747.918c.429.588,1,1.421,1.666,2.315s1.225,1.69,1.715,2.266a4.54,4.54,0,0,1,.661.98Z" transform="translate(1.606 8.447)" fill="#fafafa"/>
      <path id="Path_205" data-name="Path 205" d="M265.49,472.7a4.454,4.454,0,0,1-1.127.392,5.242,5.242,0,0,0-2.352,1.421,5.182,5.182,0,0,0-1.225,2.449,9.225,9.225,0,0,1-.233,1.163c-.073,0-.184-.453-.11-1.225a4.777,4.777,0,0,1,1.225-2.719,4.825,4.825,0,0,1,2.621-1.421C265.025,472.613,265.49,472.638,265.49,472.7Z" transform="translate(-2.668 9.128)" fill="#263238"/>
      <path id="Path_206" data-name="Path 206" d="M230.569,302.864a7.14,7.14,0,0,0-12.039,2.707,7.936,7.936,0,0,0-10.52-4.825c-2.633-3.184-6.809-4.58-10.765-5.817a10.852,10.852,0,0,0-5.438-.723c-2.547.563-4.286,2.829-5.805,4.9-2.584,3.576-5.242,7.348-5.6,11.782s2.645,9.369,7.042,9.455a7.483,7.483,0,0,0,11.537,6.344,10.165,10.165,0,0,0,13.925,3.172,7.814,7.814,0,0,0,11.255,2.829c3.772,3.576,16.583,2.829,19.706-1.323l7.348-33.533C246.625,295.552,232.737,298.185,230.569,302.864Z" transform="translate(-20.654 -30.988)" fill="#455a64"/>
      <path id="Path_207" data-name="Path 207" d="M218.118,328.044a4.25,4.25,0,0,1-.245-1.078c-.122-.7-.233-1.715-.318-2.988a44.261,44.261,0,0,1,3.245-19.436c.49-1.163.931-2.094,1.225-2.719a4.482,4.482,0,0,1,.576-.943c.1,0-.563,1.47-1.433,3.833a52.21,52.21,0,0,0-3.209,19.252C218,326.476,218.118,328.032,218.118,328.044Z" transform="translate(-12.318 -29.47)" fill="#263238"/>
      <path id="Path_208" data-name="Path 208" d="M208.381,321.751a8.573,8.573,0,0,1,0-2.817,48.166,48.166,0,0,1,1.066-6.687,54.434,54.434,0,0,1,1.837-6.528,9.245,9.245,0,0,1,1.225-2.56,19.213,19.213,0,0,1-.735,2.707c-.478,1.653-1.065,3.956-1.641,6.515s-1,4.9-1.225,6.6a23.343,23.343,0,0,1-.527,2.768Z" transform="translate(-14.388 -28.958)" fill="#263238"/>
      <path id="Path_209" data-name="Path 209" d="M196.14,319.51a11.366,11.366,0,0,1,.453-3.172,58.609,58.609,0,0,1,2.253-7.348,37.673,37.673,0,0,1,3.368-6.981,7.569,7.569,0,0,1,2.094-2.449c.073.073-.759.968-1.715,2.67a51.439,51.439,0,0,0-3.148,6.969c-1.053,2.8-1.874,5.389-2.449,7.348a24.661,24.661,0,0,1-.857,2.964Z" transform="translate(-17.112 -29.766)" fill="#263238"/>
      <path id="Path_210" data-name="Path 210" d="M281.249,290.1s-.073-6.675-3.454-7.593-8.965.625-12.247,1.862c-5.707,2.143-15.26,3.576-20.979,5.719-2.449.931-3.392,1.519-4.4,3.674-.7,1.47.747,5.952.747,5.952-2.351-.563-7.263,3.245-9.406,6.381-2.278,3.331-3.233,7.348-.135,9.969-4.2,4.25-4.9,12.247-2.817,17.844.71,1.862,1.629,1.653,1.776,3.674.184,2.449-1.3,4.225-1.764,6.626-.7,3.674.906,10.092,3.527,12.7a15.982,15.982,0,0,0-1.163,21.2c-1.947,3.478-3.944,7.054-4.495,11.022s.637,8.4,3.931,10.63c2.743,1.862,6.295,1.849,9.614,1.776l51.817-1.225c2.241,0,4.642-.147,6.491-1.421,2.731-1.886,3.331-5.609,3.674-8.9.576-5.229.723-11.488-3.5-14.6a17.7,17.7,0,0,0-1.139-20.036c2.768-2.131,3.086-6.185,2.547-9.638s-1.69-6.944-.98-10.361c.465-2.217,1.678-4.213,2.057-6.442.514-2.927-.465-5.9-.723-8.867-.355-4.054.625-8.144.245-12.247s-4.691-13.178-8.732-13.741C291.757,294,285.524,287.728,281.249,290.1Z" transform="translate(-10.332 -33.66)" fill="#455a64"/>
      <path id="Path_211" data-name="Path 211" d="M297.953,358.69a9.8,9.8,0,0,1-2.07,1.727,14.819,14.819,0,0,1-2.841,1.457,23.065,23.065,0,0,1-4.066,1.1,62.887,62.887,0,0,1-10.912.6H264.7c-9.491-.11-18.077-.5-24.274-1.053-3.1-.269-5.6-.551-7.348-.772l-1.972-.282a4.283,4.283,0,0,1-.7-.122,4.894,4.894,0,0,1,.7,0l2,.2c1.727.159,4.237.392,7.348.612,6.2.478,14.77.821,24.249.919l13.362.086a65.509,65.509,0,0,0,10.863-.5,22.4,22.4,0,0,0,4.029-1.029,15.309,15.309,0,0,0,2.829-1.359A26.451,26.451,0,0,0,297.953,358.69Z" transform="translate(-9.412 -16.48)" fill="#263238"/>
      <path id="Path_212" data-name="Path 212" d="M296.181,342a3.451,3.451,0,0,1-.637.208l-1.849.5c-.808.22-1.8.478-2.952.735s-2.449.576-3.944.845-3.074.6-4.8.857-3.6.527-5.56.784c-3.919.441-8.254.784-12.81.894a124,124,0,0,1-12.847-.318c-1.972-.171-3.846-.306-5.585-.527s-3.368-.429-4.838-.649-2.817-.465-3.98-.674-2.168-.4-2.976-.588l-1.886-.429a3.824,3.824,0,0,1-.637-.171,2.682,2.682,0,0,1,.661.086l1.886.331c.821.159,1.825.343,3,.527s2.449.416,3.968.6,3.1.416,4.838.588,3.674.331,5.572.49c3.931.245,8.267.367,12.81.282s8.867-.441,12.774-.857c1.96-.245,3.821-.453,5.548-.735s3.343-.539,4.8-.808,2.792-.551,3.944-.784,2.155-.453,2.964-.649l1.874-.429a4.632,4.632,0,0,1,.661-.11Z" transform="translate(-9.306 -20.23)" fill="#263238"/>
      <path id="Path_213" data-name="Path 213" d="M278.581,288.66a1.518,1.518,0,0,1-.38.184l-1.114.478c-.98.392-2.449.943-4.189,1.58-3.552,1.3-8.5,2.939-14.084,4.433a87.332,87.332,0,0,1-14.5,2.719c-.943.086-1.8.147-2.547.147h-1.935l-1.225-.086a1.408,1.408,0,0,1-.416-.061,1.594,1.594,0,0,1,.416,0h1.225a18.388,18.388,0,0,0,1.923-.073c.7-.073,1.592-.11,2.523-.208a97.98,97.98,0,0,0,14.427-2.854c5.56-1.482,10.52-3.074,14.084-4.287l4.237-1.445,1.151-.392a1.947,1.947,0,0,1,.4-.135Z" transform="translate(-7.663 -32.216)" fill="#263238"/>
      <path id="Path_214" data-name="Path 214" d="M230.877,302.77a21.124,21.124,0,0,0-.625,2.315,9.21,9.21,0,0,0,1.1,6.2l.073.135-.1.135a17.5,17.5,0,0,0-3.013,7.005,18.59,18.59,0,0,0,.527,9.1,16.718,16.718,0,0,0,2.266,4.617l.122.171-.11.184a17.673,17.673,0,0,0-2.584,7.654,18.727,18.727,0,0,0,.465,6.5,24.228,24.228,0,0,0,2.278,5.462,2.12,2.12,0,0,1-.269-.318,11.7,11.7,0,0,1-.661-.98,16.984,16.984,0,0,1-1.739-4.066,18.6,18.6,0,0,1-.625-6.65,18.212,18.212,0,0,1,2.609-7.948v.355a17.146,17.146,0,0,1-2.376-4.789,18.787,18.787,0,0,1-.49-9.406,17.452,17.452,0,0,1,3.209-7.189v.269a9.406,9.406,0,0,1-.955-6.5,8.576,8.576,0,0,1,.576-1.715,2.179,2.179,0,0,1,.318-.539Z" transform="translate(-10.099 -29.045)" fill="#263238"/>
      <path id="Path_215" data-name="Path 215" d="M259.153,400.479a2.57,2.57,0,0,1-.331-.257c-.208-.184-.514-.453-.894-.833a17.956,17.956,0,0,1-2.743-3.8A19.338,19.338,0,0,1,253,388.55a18.371,18.371,0,0,1,1.457-9.565v.245a17.244,17.244,0,0,1-2.792-9.638,17.44,17.44,0,0,1,3.674-10.728v.416a17.93,17.93,0,0,1-5.242-15.431,16.85,16.85,0,0,1,1-3.76,10.1,10.1,0,0,0,.882-3.515,4.9,4.9,0,0,0-1.384-3.123,14.927,14.927,0,0,1-2.107-3.013,11.561,11.561,0,0,1-1.09-6.969c.392-2.3,1.408-4.311,1.543-6.368s-.821-3.931-1.359-5.854a13.888,13.888,0,0,1-.355-5.683,14.182,14.182,0,0,1,4.409-8.414v.208a15.922,15.922,0,0,1-1.372-8.365,11.246,11.246,0,0,1,.674-2.964,5.6,5.6,0,0,1-.147.759,20.249,20.249,0,0,0-.331,2.217,16.228,16.228,0,0,0,1.506,8.193l.061.122-.1.1a13.888,13.888,0,0,0-4.189,8.206,13.593,13.593,0,0,0,.38,5.487c.514,1.825,1.58,3.76,1.421,6.026s-1.225,4.25-1.519,6.43a11.022,11.022,0,0,0,1.053,6.6,14.281,14.281,0,0,0,2.045,2.89,5.548,5.548,0,0,1,1.531,3.5,10.668,10.668,0,0,1-.918,3.748,16.106,16.106,0,0,0-.967,3.674,17.317,17.317,0,0,0,5.021,14.88l.208.2-.171.22a17.146,17.146,0,0,0-.968,19.706l.074.122v.122a17.99,17.99,0,0,0-1.506,9.32,19.179,19.179,0,0,0,2.021,6.944,20.514,20.514,0,0,0,3.7,4.984Z" transform="translate(-5.663 -32.807)" fill="#263238"/>
      <path id="Path_216" data-name="Path 216" d="M279.388,324a11.777,11.777,0,0,1-1.813.343c-1.163.172-2.866.4-4.96.661-4.2.5-10.018,1.09-16.46,1.531s-12.247.637-16.509.7h-5.009a10.014,10.014,0,0,1-1.837-.1,9.672,9.672,0,0,1,1.837-.159l5-.208c4.225-.171,10.055-.453,16.485-.882s12.247-.955,16.448-1.347l4.985-.453a9.011,9.011,0,0,1,1.837-.086Z" transform="translate(-8.875 -24.277)" fill="#263238"/>
      <path id="Path_217" data-name="Path 217" d="M282.549,305.26a12.7,12.7,0,0,1-1.874.441c-1.225.257-2.964.588-5.144.968-4.348.747-10.386,1.641-17.146,2.364s-12.8,1.139-17.146,1.335c-2.2.1-3.993.147-5.229.159a12.813,12.813,0,0,1-1.911,0,9.488,9.488,0,0,1,1.9-.208l5.217-.367c4.4-.306,10.471-.8,17.146-1.506s12.725-1.555,17.146-2.192l5.168-.747a9.5,9.5,0,0,1,1.874-.245Z" transform="translate(-8.582 -28.486)" fill="#263238"/>
      <path id="Path_218" data-name="Path 218" d="M270.84,289.13c4.972-2.449,19.963.343,22.3,5.4a7.7,7.7,0,0,1,12.994,2.927,8.573,8.573,0,0,1,11.353-5.2c2.854-3.441,7.348-4.9,11.622-6.283a11.586,11.586,0,0,1,5.866-.784c2.743.6,4.629,3.049,6.271,5.327,2.78,3.858,5.658,7.973,6.038,12.712s-2.854,10.1-7.605,10.2a8.083,8.083,0,0,1-12.455,6.858,11.022,11.022,0,0,1-15.015,3.417,8.426,8.426,0,0,1-12.149,3.049,10.41,10.41,0,0,1-14.843-1.225" transform="translate(-0.327 -33.017)" fill="#455a64"/>
      <path id="Path_219" data-name="Path 219" d="M288.764,326.834a3.575,3.575,0,0,1-1.225-.086,10.08,10.08,0,0,1-3.111-1.09,15.554,15.554,0,0,1-6.932-8.169,28.61,28.61,0,0,1-1.592-10.655c0-1.384.1-2.449.171-3.27a4.112,4.112,0,0,1,.184-1.225c.1,0,0,1.715.1,4.446a31.354,31.354,0,0,0,1.727,10.447,15.982,15.982,0,0,0,6.564,8,17.6,17.6,0,0,0,4.115,1.6Z" transform="translate(0.806 -29.142)" fill="#263238"/>
      <path id="Path_220" data-name="Path 220" d="M292.918,316.447a14.547,14.547,0,0,1-1.4-3.343,42.862,42.862,0,0,1-1.849-8.573,41.764,41.764,0,0,1,0-8.757,14.522,14.522,0,0,1,.637-3.564,35.737,35.737,0,0,1-.184,3.6,53.68,53.68,0,0,0,.22,8.646,55.193,55.193,0,0,0,1.641,8.5A31.713,31.713,0,0,1,292.918,316.447Z" transform="translate(3.853 -31.418)" fill="#263238"/>
      <path id="Path_221" data-name="Path 221" d="M304.428,311.446a8.073,8.073,0,0,1-1.506-2.253,24.641,24.641,0,0,1-2.756-12.7,8.451,8.451,0,0,1,.429-2.682,47.833,47.833,0,0,0,.71,9.087A46.272,46.272,0,0,0,304.428,311.446Z" transform="translate(6.255 -31.059)" fill="#263238"/>
      <path id="Path_222" data-name="Path 222" d="M318.165,317.177c-.1,0-.2-1.555-.784-4.017a93.187,93.187,0,0,0-2.878-9.43c-1.323-3.613-2.658-6.846-3.748-9.124s-1.911-3.6-1.825-3.674.282.282.686.87a25.721,25.721,0,0,1,1.531,2.6,72.666,72.666,0,0,1,3.956,9.112,66.641,66.641,0,0,1,2.719,9.553,26.517,26.517,0,0,1,.392,2.988A3.5,3.5,0,0,1,318.165,317.177Z" transform="translate(8.231 -31.707)" fill="#263238"/>
      <path id="Path_223" data-name="Path 223" d="M282.6,288.44a22.044,22.044,0,0,0-7.924,10.483A14,14,0,0,1,282.6,288.44Z" transform="translate(0.536 -32.265)" fill="#263238"/>
      <path id="Path_224" data-name="Path 224" d="M363.432,100.86a25.511,25.511,0,0,0-7.275,17.795c0,2.964.514,6.124-.649,8.781-1.225,2.9-4.262,4.9-4.9,8.071-.453,2.339.576,4.678,1.384,6.92s1.359,4.9.073,6.907a23.974,23.974,0,0,1-2.939,2.964c-2.449,2.792-2.266,7.005-1.886,10.741l35.149-1.494Z" transform="translate(16.791 -74.416)" fill="#263238"/>
      <path id="Path_225" data-name="Path 225" d="M418.34,122.526c-2.3-9.8-4.666-20-12.786-25.952-7.226-5.3-15.321-6.577-24.261-5.915-4.4.331-9.32,2.523-13.08,4.825-5.168,3.16-7.214,9.271-9.565,14.843-4.74,11.169-3.613,26.05,0,30.079L405.419,163.2c8-4.507,13.374-6.662,15.235-15.652C421.9,141.436,419.8,128.613,418.34,122.526Z" transform="translate(18.697 -76.744)" fill="#263238"/>
      <path id="Path_226" data-name="Path 226" d="M402.935,110.931l-27.8-14.219h0c-9.369-1.053-15.676,10.447-16.338,19.853-.723,10.447-1.225,23.269,0,31.034,2.376,15.627,14.292,16.3,14.39,16.325l.1,6.332L373.2,180.74h0c3.858,12.712,16.742,11.182,32.847,4.58h0l-3.025-74.389Z" transform="translate(19.271 -75.363)" fill="#ffbe9d"/>
      <path id="Path_227" data-name="Path 227" d="M362.43,124.332a2.021,2.021,0,0,0,1.935,2.045,1.923,1.923,0,0,0,2.082-1.8,2.009,2.009,0,0,0-1.923-2.045,1.935,1.935,0,0,0-2.094,1.8Z" transform="translate(20.254 -69.548)" fill="#263238"/>
      <path id="Path_228" data-name="Path 228" d="M360.846,120.058c.245.257,1.776-.857,3.944-.833s3.735,1.114,3.98.845-.135-.588-.821-1.1a5.646,5.646,0,0,0-3.233-.968,5.364,5.364,0,0,0-3.148.992C360.956,119.457,360.723,119.935,360.846,120.058Z" transform="translate(19.891 -70.564)" fill="#263238"/>
      <path id="Path_229" data-name="Path 229" d="M378.5,124.332a2.021,2.021,0,0,0,1.923,2.045,1.935,1.935,0,0,0,2.094-1.8,2.021,2.021,0,0,0-1.923-2.045,1.935,1.935,0,0,0-2.094,1.8Z" transform="translate(23.865 -69.548)" fill="#263238"/>
      <path id="Path_230" data-name="Path 230" d="M377.063,119.7c.245.269,1.776-.857,3.944-.833s3.748,1.114,3.98.845-.135-.588-.821-1.09a5.462,5.462,0,0,0-3.184-1,5.279,5.279,0,0,0-3.148.98C377.173,119.114,376.989,119.58,377.063,119.7Z" transform="translate(23.539 -70.65)" fill="#263238"/>
      <path id="Path_231" data-name="Path 231" d="M372.7,135.175a14.257,14.257,0,0,0-3.5-.661c-.551,0-1.078-.171-1.163-.551a2.658,2.658,0,0,1,.38-1.629l1.653-4.2c2.315-5.977,3.993-10.888,3.748-11.022s-2.3,4.666-4.617,10.643c-.551,1.482-1.09,2.878-1.592,4.225a3.2,3.2,0,0,0-.306,2.168,1.372,1.372,0,0,0,.906.808,4.139,4.139,0,0,0,.931.147A14.562,14.562,0,0,0,372.7,135.175Z" transform="translate(21.334 -70.765)" fill="#263238"/>
      <path id="Path_232" data-name="Path 232" d="M370.32,152.52a39.8,39.8,0,0,0,21.028-5.45s-5.266,10.937-20.942,9.357Z" transform="translate(22.027 -64.032)" fill="#eb996e"/>
      <path id="Path_233" data-name="Path 233" d="M378.863,135.5a3.454,3.454,0,0,0-2.878-1.592,4.507,4.507,0,0,0-4.139,2.008,2.817,2.817,0,0,0-.2,2.021c.147.355,0,.184.294.416a7.911,7.911,0,0,0,3.221,2.033,3.392,3.392,0,0,0,3.6-1.3,3.478,3.478,0,0,0,.1-3.588Z" transform="translate(22.303 -66.994)" fill="#eb996e"/>
      <path id="Path_234" data-name="Path 234" d="M378.5,133.18c-.343,0-.38,2.327-2.449,3.968s-4.531,1.359-4.556,1.678.551.465,1.617.514a5.879,5.879,0,0,0,3.8-1.225,5.119,5.119,0,0,0,1.874-3.331C378.912,133.756,378.655,133.168,378.5,133.18Z" transform="translate(22.29 -67.153)" fill="#263238"/>
      <path id="Path_235" data-name="Path 235" d="M377.331,114.011c.171.6,2.339.465,4.9.931s4.519,1.225,4.9.784c.159-.245-.159-.821-.943-1.433a8.573,8.573,0,0,0-7.434-1.31C377.748,113.288,377.258,113.729,377.331,114.011Z" transform="translate(23.601 -71.768)" fill="#263238"/>
      <path id="Path_236" data-name="Path 236" d="M360.848,116.361c.5.4,2.057-.392,4.029-.759s3.674-.331,3.993-.894c.122-.282-.233-.723-1.041-1.053a6.332,6.332,0,0,0-3.417-.208,6.123,6.123,0,0,0-3.037,1.543C360.763,115.614,360.628,116.153,360.848,116.361Z" transform="translate(19.877 -71.62)" fill="#263238"/>
      <path id="Path_237" data-name="Path 237" d="M372.241,95.31a2.869,2.869,0,0,1-.061.343h.061Z" transform="translate(22.445 -75.663)" fill="#263238"/>
      <path id="Path_238" data-name="Path 238" d="M375.873,95.948l-.955-.367c-3-1.445-4.985-3.123-9.467,1.078a28.1,28.1,0,0,0-6.062,9.038,36.007,36.007,0,0,0-3.209,9.663,41.639,41.639,0,0,0,0,12.027c2.609-1.837,3.882-5.021,4.642-8.12s1.225-6.332,2.658-9.161a24.493,24.493,0,0,0-.257,7.948,3.307,3.307,0,0,0,.918,1.947,1.384,1.384,0,0,0,1.947,0,17.146,17.146,0,0,1-.245-9.418,48.8,48.8,0,0,1,3.307-8.953,47.053,47.053,0,0,0,1.041,15.921,4.1,4.1,0,0,0,.955,2.058,3.748,3.748,0,0,0,3.258.588,7.691,7.691,0,0,1,3.4-.245,45.154,45.154,0,0,1-1.935-24Z" transform="translate(18.752 -75.958)" fill="#263238"/>
      <path id="Path_239" data-name="Path 239" d="M407.59,158.45c-.882-1.225-2.645-1.433-4.189-1.47h-.061" transform="translate(29.447 -61.805)" fill="#263238"/>
      <path id="Path_240" data-name="Path 240" d="M423.949,151.472c.686-2.829,1.678-5.793.845-8.573-.759-2.584-2.976-4.629-3.343-7.348-.318-2.315.845-4.654.441-6.944-.478-2.67-2.878-4.47-4.654-6.515-3.674-4.286-4.629-18.3-12.749-24.066l-.735,1.433A25.646,25.646,0,0,0,395,95.209a44.3,44.3,0,0,0-23.147-.282l-.11.637a34.709,34.709,0,0,0,3.062,18.591,12.774,12.774,0,0,0,3.013,4.36,5.719,5.719,0,0,0,4.9,1.433,21.273,21.273,0,0,1-4.666-12.039c2,4.4,4.042,8.867,7.348,12.431a18.371,18.371,0,0,0,6.748,4.7,13.839,13.839,0,0,0,1.225,3.87c1.127,2.449,2.56,4.9,2.449,7.63s-1.568,4.764-2.609,7.079a22.424,22.424,0,0,0-.171,17.648,236.078,236.078,0,0,0,31.842-1.482C422.957,157.608,423.251,154.3,423.949,151.472Z" transform="translate(22.298 -76.064)" fill="#263238"/>
      <path id="Path_241" data-name="Path 241" d="M382.088,435.43l10.3,41.285-48.9,13.019c-1-4.972,23.772-21.9,23.772-21.9l-7.569-27.568Z" transform="translate(15.991 0.765)" fill="#243244"/>
      <g id="Group_8" data-name="Group 8" transform="translate(393.731 462.697)" opacity="0.6">
        <path id="Path_242" data-name="Path 242" d="M373.41,457.095a2.168,2.168,0,0,1,2.021,2.021,2,2,0,0,1-1.861,2.045,2.278,2.278,0,0,1-2.119-2.143c.061-1.053,1.225-2.168,2.168-1.911" transform="translate(-371.45 -457.069)" fill="#fff"/>
      </g>
      <g id="Group_9" data-name="Group 9" transform="translate(359.336 473.364)" opacity="0.6">
        <path id="Path_243" data-name="Path 243" d="M392.4,469.9l-1.225-4.115L344.743,479.8s-1.923,1.568-1.225,3.111Z" transform="translate(-343.365 -465.78)" fill="#fff"/>
      </g>
      <path id="Path_244" data-name="Path 244" d="M362.381,462.529c.073.245,1.3,0,2.682.527s2.29,1.384,2.449,1.225-.539-1.506-2.229-2.07S362.271,462.309,362.381,462.529Z" transform="translate(20.242 6.732)" fill="#263238"/>
      <path id="Path_245" data-name="Path 245" d="M357.65,465.762c0,.257,1.151.4,2.241,1.225s1.629,1.9,1.862,1.825,0-1.531-1.359-2.547S357.589,465.517,357.65,465.762Z" transform="translate(19.18 7.529)" fill="#263238"/>
      <path id="Path_246" data-name="Path 246" d="M357.245,472.087c.233,0,.233-1.335-.735-2.547s-2.241-1.457-2.29-1.225.845.784,1.629,1.788S357,472.123,357.245,472.087Z" transform="translate(18.409 8.136)" fill="#263238"/>
      <path id="Path_247" data-name="Path 247" d="M361.214,457.047c.159.2,1.225-.441,2.535-.7s2.547-.1,2.609-.343-1.225-.87-2.792-.539S361.042,456.876,361.214,457.047Z" transform="translate(19.977 5.246)" fill="#263238"/>
      <path id="Path_248" data-name="Path 248" d="M359.17,452.969a4.638,4.638,0,0,0,2.449-.661,11.019,11.019,0,0,0,2.339-1.506,13.116,13.116,0,0,0,1.225-1.151,3.122,3.122,0,0,0,.576-.808,1.225,1.225,0,0,0-.233-1.359,1.335,1.335,0,0,0-1.225-.294,3.294,3.294,0,0,0-.882.38,8.9,8.9,0,0,0-1.384.955,9.346,9.346,0,0,0-1.849,2.119,4.335,4.335,0,0,0-.882,2.449c.123,0,.478-.87,1.384-2.094a9.8,9.8,0,0,1,1.849-1.862,8.577,8.577,0,0,1,1.286-.833c.478-.282.918-.4,1.114-.2s.086.11,0,.306a2.572,2.572,0,0,1-.429.576,13.68,13.68,0,0,1-1.09,1.127,13.317,13.317,0,0,1-2.119,1.58A18.483,18.483,0,0,0,359.17,452.969Z" transform="translate(19.522 3.397)" fill="#263238"/>
      <path id="Path_249" data-name="Path 249" d="M360.4,453.534a4.36,4.36,0,0,0,0-2.658,9.149,9.149,0,0,0-1.065-2.719,9.8,9.8,0,0,0-1.041-1.384,2.131,2.131,0,0,0-1.911-.882,1.225,1.225,0,0,0-.833.98,4.017,4.017,0,0,0,0,1.016,6.392,6.392,0,0,0,.453,1.727,6.318,6.318,0,0,0,1.751,2.376c1.31,1.065,2.376,1.1,2.376,1.016a11.547,11.547,0,0,1-1.984-1.494,6.124,6.124,0,0,1-1.408-2.2,5.916,5.916,0,0,1-.343-1.494c-.073-.563,0-1.053.22-1.053a1.824,1.824,0,0,1,1.078.612,8.829,8.829,0,0,1,.968,1.225,10.055,10.055,0,0,1,1.151,2.449C360.261,452.529,360.261,453.534,360.4,453.534Z" transform="translate(18.7 3.114)" fill="#263238"/>
      <path id="Path_250" data-name="Path 250" d="M417.929,443l-.784,42.546-50.6-.147c.318-5.058,28.646-14.966,28.646-14.966l-.135-28.585Z" transform="translate(21.178 2.207)" fill="#243244"/>
      <g id="Group_10" data-name="Group 10" transform="translate(427.431 470.16)" opacity="0.6">
        <path id="Path_251" data-name="Path 251" d="M401.457,463.208a2.168,2.168,0,0,1,1.421,2.449,1.972,1.972,0,0,1-2.327,1.494,2.278,2.278,0,0,1-1.543-2.6,2.057,2.057,0,0,1,2.6-1.286" transform="translate(-398.967 -463.164)" fill="#fff"/>
      </g>
      <g id="Group_11" data-name="Group 11" transform="translate(387.699 483.456)" opacity="0.6">
        <path id="Path_252" data-name="Path 252" d="M417.148,478.319l-.11-4.3-48.486,1.47s-2.253,1.029-2.009,2.682Z" transform="translate(-366.525 -474.02)" fill="#fff"/>
      </g>
      <path id="Path_253" data-name="Path 253" d="M389.31,465.622c0,.257,1.225.38,2.449,1.225s1.862,1.923,2.082,1.825-.135-1.592-1.617-2.584S389.261,465.389,389.31,465.622Z" transform="translate(26.294 7.497)" fill="#263238"/>
      <path id="Path_254" data-name="Path 254" d="M383.891,467.549c-.061.245,1,.7,1.837,1.788s1.078,2.253,1.323,2.253.4-1.482-.661-2.829S383.891,467.3,383.891,467.549Z" transform="translate(25.076 7.959)" fill="#263238"/>
      <path id="Path_255" data-name="Path 255" d="M381.85,473.567c.22.061.576-1.225-.061-2.658s-1.764-1.935-1.886-1.764.612.968,1.114,2.143S381.6,473.543,381.85,473.567Z" transform="translate(24.177 8.334)" fill="#263238"/>
      <path id="Path_256" data-name="Path 256" d="M389.662,459.943c.1.245,1.225-.11,2.633,0s2.449.563,2.609.343-.919-1.139-2.56-1.225S389.539,459.747,389.662,459.943Z" transform="translate(26.371 6.073)" fill="#263238"/>
      <path id="Path_257" data-name="Path 257" d="M389,455.37a4.569,4.569,0,0,0,2.523,0,10.8,10.8,0,0,0,2.658-.845,10.109,10.109,0,0,0,1.457-.808,2.83,2.83,0,0,0,.771-.625,1.151,1.151,0,0,0,.122-1.372,1.347,1.347,0,0,0-1.078-.6,3.587,3.587,0,0,0-.955.135,10.005,10.005,0,0,0-1.58.563,9.087,9.087,0,0,0-2.339,1.6c-1.225,1.139-1.592,2.107-1.506,2.155s.686-.723,1.886-1.666a10.046,10.046,0,0,1,2.266-1.323,7.816,7.816,0,0,1,1.457-.465c.539-.147.992-.147,1.139.1s0,.135,0,.294a2.218,2.218,0,0,1-.563.453,12.1,12.1,0,0,1-1.347.8,12.882,12.882,0,0,1-2.449.98A14.127,14.127,0,0,0,389,455.37Z" transform="translate(26.225 4.29)" fill="#263238"/>
      <path id="Path_258" data-name="Path 258" d="M389.816,456.436a4.409,4.409,0,0,0,.674-2.56,8.83,8.83,0,0,0-.331-2.915,7.946,7.946,0,0,0-.637-1.6,2.094,2.094,0,0,0-1.617-1.347,1.225,1.225,0,0,0-1.053.735,3.675,3.675,0,0,0-.269.968,6.258,6.258,0,0,0,1.065,4.531c.98,1.384,2.009,1.69,2.033,1.6a10.5,10.5,0,0,1-1.531-1.947,6.32,6.32,0,0,1-.784-2.449,5.377,5.377,0,0,1,0-1.531c.086-.563.282-1.017.49-.968a1.836,1.836,0,0,1,.882.87,9.115,9.115,0,0,1,.612,1.445,9.909,9.909,0,0,1,.49,2.658C389.951,455.432,389.681,456.4,389.816,456.436Z" transform="translate(25.666 3.591)" fill="#263238"/>
      <path id="Path_259" data-name="Path 259" d="M350.089,270s-21.163,123.879-18.775,132.917,30.618,101.136,30.618,101.136L396.665,493.1l-21.837-87.162s14.317-68.363,14.317-69.49,5.732-50.825,5.732-50.825Z" transform="translate(13.22 -36.409)" fill="#263238"/>
      <path id="Path_260" data-name="Path 260" d="M434.226,300.707a150.064,150.064,0,0,0-8.12-38.517c-1.91.992-53.446,27.936-53.446,27.936L382.629,407.7l5.781,100.157h30.054s4.727-85.46,6.124-103.525C424.514,404.244,436.137,323.413,434.226,300.707Z" transform="translate(22.553 -38.164)" fill="#263238"/>
      <path id="Path_261" data-name="Path 261" d="M370.068,382.588c-.073.061-.821-.8-2.192-2a26.72,26.72,0,0,0-5.9-3.882,26.394,26.394,0,0,0-6.736-2.192c-1.788-.318-2.927-.343-2.927-.453a8.683,8.683,0,0,1,3,0,21.908,21.908,0,0,1,6.932,2.058,22.191,22.191,0,0,1,5.94,4.127,8.438,8.438,0,0,1,1.886,2.339Z" transform="translate(17.98 -13.054)" fill="#455a64"/>
      <path id="Path_262" data-name="Path 262" d="M412.621,389.882a3.318,3.318,0,0,1-.931.4,24.485,24.485,0,0,1-2.621.759,34.475,34.475,0,0,1-17.893-.625,22.721,22.721,0,0,1-2.572-.943,3.673,3.673,0,0,1-.894-.465c0-.1,1.372.392,3.588.967a40.122,40.122,0,0,0,17.673.625C411.224,390.225,412.559,389.772,412.621,389.882Z" transform="translate(25.935 -9.669)" fill="#455a64"/>
      <path id="Path_263" data-name="Path 263" d="M330.055,302.5a11.022,11.022,0,0,0,5.315-2.756,18.219,18.219,0,0,0,2.817-3.674,15.8,15.8,0,0,0,2.8-7.348c.147-2.645-1.715-7.85-4.152-8.9-1.421-.625-3.882-.539-4.764,1.041a17.7,17.7,0,0,0-1.678,5.217c-.282,1.984.478,4.433-1.041,5.744-.723.637-1.788.772-2.449,1.421-1.225,1.163-.747,3.221,0,4.764a30.79,30.79,0,0,0,2.682,4.654" transform="translate(12.104 -34.284)" fill="#ffbe9d"/>
      <path id="Path_264" data-name="Path 264" d="M329.564,302.706a2.133,2.133,0,0,1-.392-.465c-.233-.306-.576-.784-.968-1.421a26.951,26.951,0,0,1-1.347-2.449,7.213,7.213,0,0,1-.857-3.49,2.694,2.694,0,0,1,1.041-1.972c.637-.478,1.421-.661,2.009-1.065a2.523,2.523,0,0,0,1.041-1.862,17.3,17.3,0,0,0,0-2.535,10.055,10.055,0,0,1,.343-2.756,19.734,19.734,0,0,1,.87-2.743,8.124,8.124,0,0,1,.661-1.359,2.9,2.9,0,0,1,1.225-1.041,4.985,4.985,0,0,1,3.16-.2,4.629,4.629,0,0,1,2.547,1.9,12.249,12.249,0,0,1,1.433,2.609,11.622,11.622,0,0,1,.943,5.548,14.242,14.242,0,0,1-1.653,4.813,33.212,33.212,0,0,1-2.351,3.674,11.378,11.378,0,0,1-4.9,3.993,10.179,10.179,0,0,1-1.653.514,2.451,2.451,0,0,1-.6.074,13.072,13.072,0,0,0,2.155-.821,11.623,11.623,0,0,0,4.666-4.017,37.578,37.578,0,0,0,2.241-3.674,13.73,13.73,0,0,0,1.519-4.593,11.17,11.17,0,0,0-.931-5.242,11.865,11.865,0,0,0-1.359-2.511,3.944,3.944,0,0,0-2.192-1.641,4.36,4.36,0,0,0-2.743.147,2.265,2.265,0,0,0-.992.821,8.948,8.948,0,0,0-.612,1.225,14.7,14.7,0,0,0-1.225,5.266,18.606,18.606,0,0,1-.061,2.609,3.1,3.1,0,0,1-1.31,2.229c-.723.465-1.47.625-2.008,1.029a2.168,2.168,0,0,0-.882,1.6,6.748,6.748,0,0,0,.8,3.368c.441.955.857,1.764,1.225,2.449C329.148,302,329.6,302.682,329.564,302.706Z" transform="translate(12.068 -34.346)" fill="#eb996e"/>
      <path id="Path_265" data-name="Path 265" d="M332.94,286.256a6.123,6.123,0,0,1,3.074.8,2.07,2.07,0,0,1,.674,2.792c-.649.821-1.9.735-2.927.576a4.9,4.9,0,0,1,2.449.747,1.727,1.727,0,0,1,.527,2.3,2.351,2.351,0,0,1-1.874.649,19.5,19.5,0,0,1-4.458-.4,4.789,4.789,0,0,1-2.9-1.457,2.009,2.009,0,0,1,.306-2.9,3.98,3.98,0,0,1-2.033-2.8c-.208-1.163.208-1.6-.637-2.449-1.555-1.629-2.315-3.172-1.029-5.425s3.735-2.3,6.283-4.715l8.928,8.818Z" transform="translate(11.497 -35.519)" fill="#ffbe9d"/>
      <path id="Path_266" data-name="Path 266" d="M342.169,283.712c-6.442,5.9-11.782-1.837-12.382-.576s-2.29,3.282-3.772,3.282-2.449-.269-2.364-2.609,6.773-10.19,6.773-10.19Z" transform="translate(11.539 -35.595)" fill="#ffbe9d"/>
      <path id="Path_267" data-name="Path 267" d="M342.211,283.772a9.048,9.048,0,0,1-.955-.735l-2.449-2.045c-2.119-1.751-5.07-4.189-8.487-7.091h.416a68.274,68.274,0,0,0-5.854,8.022,5.01,5.01,0,0,0-.821,2.266c0,.808.135,1.629.8,1.849a3.479,3.479,0,0,0,1.1.159,1.972,1.972,0,0,0,1.016-.233,5.683,5.683,0,0,0,1.69-1.421,8.292,8.292,0,0,0,.637-.87,4.547,4.547,0,0,0,.269-.465l.073-.122a.453.453,0,0,1,.2-.208.6.6,0,0,1,.478,0,10.115,10.115,0,0,1,1.862,1.139,11.536,11.536,0,0,0,3.294,1.617,6.589,6.589,0,0,0,5.132-.7c1.1-.674,1.58-1.1,1.653-1.1a6.208,6.208,0,0,1-1.531,1.31,6.736,6.736,0,0,1-5.364.931,11.684,11.684,0,0,1-3.478-1.617,13.088,13.088,0,0,0-1.715-1.041h0l-.061.11a4.191,4.191,0,0,1-.282.514,9.536,9.536,0,0,1-.674.943,6.282,6.282,0,0,1-1.874,1.592,2.744,2.744,0,0,1-1.3.306,3.969,3.969,0,0,1-1.323-.208,1.69,1.69,0,0,1-1.016-1.065,4.042,4.042,0,0,1-.184-1.359,5.5,5.5,0,0,1,.906-2.584,62.609,62.609,0,0,1,5.964-8.083l.184-.233.233.2c3.478,3.037,6.405,5.646,8.438,7.458l2.339,2.119A4.9,4.9,0,0,1,342.211,283.772Z" transform="translate(11.497 -35.656)" fill="#eb996e"/>
      <path id="Path_268" data-name="Path 268" d="M326.818,287a1.225,1.225,0,0,0-.416,1.886,3.674,3.674,0,0,0,1.849,1.163,14.157,14.157,0,0,0,6.724,1.286c.735-.086,1.568-.416,1.764-1.127s-.576-1.555-1.335-1.947a15.921,15.921,0,0,0-5.658-1.225" transform="translate(12.095 -32.589)" fill="#ffbe9d"/>
      <path id="Path_269" data-name="Path 269" d="M329.769,287.007a2.682,2.682,0,0,1,.87,0,18.173,18.173,0,0,1,2.352.245,7.826,7.826,0,0,1,3.343,1.31,2.2,2.2,0,0,1,.674.931,1.4,1.4,0,0,1-.147,1.225,2.8,2.8,0,0,1-2.2.968,11.488,11.488,0,0,1-4.311-.612,20.233,20.233,0,0,1-3.294-1.323,2.2,2.2,0,0,1-.943-1.1,1.616,1.616,0,0,1,0-1.09c.257-.588.71-.588.686-.563a.979.979,0,0,0-.453.649,1.323,1.323,0,0,0,.061.882,1.813,1.813,0,0,0,.833.833,25.285,25.285,0,0,0,3.233,1.151,11.378,11.378,0,0,0,4.091.539,2.339,2.339,0,0,0,1.739-.674c.318-.441,0-1.029-.4-1.421a8.034,8.034,0,0,0-3.049-1.31C330.994,287.227,329.745,287.117,329.769,287.007Z" transform="translate(12.071 -32.595)" fill="#eb996e"/>
      <path id="Path_270" data-name="Path 270" d="M333.011,287.543a1.867,1.867,0,0,1,.539-.086,4.14,4.14,0,0,0,1.323-.269c.478-.208.992-.808.772-1.384s-1.041-.882-1.947-1.065a24.971,24.971,0,0,0-4.617-.821,17.26,17.26,0,0,1-1.96,0,3.675,3.675,0,0,1,1.96-.416,17.147,17.147,0,0,1,4.764.649,6.688,6.688,0,0,1,1.359.429,1.923,1.923,0,0,1,.992,1.065,1.433,1.433,0,0,1-.245,1.335,1.936,1.936,0,0,1-.906.661,3.343,3.343,0,0,1-1.506.1C333.195,287.641,333.011,287.58,333.011,287.543Z" transform="translate(12.32 -33.377)" fill="#eb996e"/>
      <path id="Path_271" data-name="Path 271" d="M458.658,298.521q-2.449-7.091-4.9-14.158c-1.972-5.658-4.091-11.537-8.377-15.713s-12.97-6.6-17.868-3.16l-3.674,54c-1.115,1.384-.38,3.588,1.053,4.6a8.572,8.572,0,0,0,5.083,1.139,44.689,44.689,0,0,0,21.053-5.425c4.262-2.315,8.4-5.744,9.381-10.5C461.107,305.673,459.882,302,458.658,298.521Z" transform="translate(33.932 -37.79)" fill="#455a64"/>
      <path id="Path_272" data-name="Path 272" d="M450.737,292.455c-2.376-17.293-7.85-38.664-7.85-38.664s4.789-26.686,3.76-42.081c-.71-10.655-1.935-30.25-2.621-41.309a11.61,11.61,0,0,0-8.365-10.422l-16.705-4.9L383.9,161.106l-17.477,3.833a21.555,21.555,0,0,0-9.332,4.593A34.635,34.635,0,0,0,346.074,187.2C343.82,195.912,338,248.06,338,248.06l-15,52.013,24.1,14.182s4.348-21.236,5.56-25.217C350,301.2,337.77,347.959,332.957,382.177l46.073,1.751,6.662-17.942,3.993,18.371,57.169,2.094S456.04,331.07,450.737,292.455Z" transform="translate(11.394 -62.232)" fill="#243244"/>
      <path id="Path_273" data-name="Path 273" d="M358.762,178.33a1.566,1.566,0,0,1-.171.294l-.539.8a26.945,26.945,0,0,0-1.886,3.209,44.494,44.494,0,0,0-3.931,13.043A71.44,71.44,0,0,0,352.1,215.9a213.159,213.159,0,0,1,1.433,24.935c0,4.421.147,8.744-.122,12.933a97.662,97.662,0,0,1-1.457,11.978c-1.4,7.556-3.1,14.256-4.323,19.914s-2.2,10.263-2.854,13.472c-.318,1.555-.563,2.78-.747,3.674-.086.392-.159.7-.208.943a1.115,1.115,0,0,1-.1.331,1.222,1.222,0,0,1,0-.343l.147-.955q.22-1.341.625-3.674c.576-3.184,1.445-7.8,2.658-13.472s2.829-12.406,4.189-19.938a101.53,101.53,0,0,0,1.421-11.9c.245-4.152.135-8.463.1-12.9a220.441,220.441,0,0,0-1.384-24.862,71.133,71.133,0,0,1,.269-20.379,42.865,42.865,0,0,1,4.164-13.08,23.267,23.267,0,0,1,2-3.172l.6-.772a1.224,1.224,0,0,1,.257-.306Z" transform="translate(16.048 -57.008)" fill="#263238"/>
      <path id="Path_274" data-name="Path 274" d="M367.855,165.046l-.735-10.4c10.471.551,28.94-1.335,40.17-4.789l1.911,9.455Z" transform="translate(21.308 -63.405)" fill="#243244"/>
      <path id="Path_275" data-name="Path 275" d="M377.266,153.63a4.757,4.757,0,0,1,0,.551c0,.392.086.919.147,1.6.11,1.457.269,3.539.465,6.209.416,5.389.906,13.2,1.445,22.853,1.053,19.3,2.045,46.012,1.666,75.528s-2.119,56.19-3.674,75.454c-.808,9.638-1.531,17.428-2.094,22.8-.282,2.67-.5,4.74-.661,6.185l-.184,1.617a1.382,1.382,0,0,1-.086.539v-.551c0-.367.061-.919.122-1.617.122-1.445.306-3.527.527-6.2.5-5.376,1.151-13.178,1.911-22.816,1.482-19.265,3.123-45.927,3.527-75.43s-.539-56.19-1.482-75.491c-.478-9.651-.906-17.464-1.225-22.865-.147-2.67-.269-4.752-.355-6.209a13.767,13.767,0,0,0-.073-1.617C377.254,153.814,377.266,153.63,377.266,153.63Z" transform="translate(22.919 -62.558)" fill="#263238"/>
      <path id="Path_276" data-name="Path 276" d="M385.344,181.769a1.93,1.93,0,0,1,.906,0,3.907,3.907,0,0,1,2.156,1.225,3.845,3.845,0,0,1,.833,3.674,4.066,4.066,0,0,1-7.458.98,3.8,3.8,0,0,1-.135-3.674,3.968,3.968,0,0,1,1.739-1.8,1.641,1.641,0,0,1,.882-.257s-.294.159-.759.465a4.189,4.189,0,0,0-1.457,1.776,3.429,3.429,0,0,0,.233,3.221,3.5,3.5,0,0,0,6.393-.845,3.368,3.368,0,0,0-.625-3.16,4.078,4.078,0,0,0-1.862-1.347A6.211,6.211,0,0,1,385.344,181.769Z" transform="translate(24.48 -56.246)" fill="#263238"/>
      <path id="Path_277" data-name="Path 277" d="M385.344,231.009a1.929,1.929,0,0,1,.906,0,3.907,3.907,0,0,1,2.156,1.286,3.846,3.846,0,0,1,.833,3.674,4.066,4.066,0,0,1-7.458.98,3.8,3.8,0,0,1-.135-3.674,3.968,3.968,0,0,1,1.739-1.8c.539-.269.87-.282.882-.245a8.565,8.565,0,0,1-.759.453,4.163,4.163,0,0,0-1.457,1.788,3.4,3.4,0,0,0,.233,3.209,3.5,3.5,0,0,0,6.393-.845,3.368,3.368,0,0,0-.625-3.16,4.078,4.078,0,0,0-1.862-1.347A6.211,6.211,0,0,1,385.344,231.009Z" transform="translate(24.48 -45.181)" fill="#263238"/>
      <path id="Path_278" data-name="Path 278" d="M385.344,280.168a2.163,2.163,0,0,1,.906,0,3.944,3.944,0,0,1,2.156,1.3,3.821,3.821,0,0,1,.833,3.613,4.066,4.066,0,0,1-7.458.98,3.8,3.8,0,0,1-.135-3.674,3.968,3.968,0,0,1,1.739-1.8c.539-.269.87-.282.882-.245a8.572,8.572,0,0,1-.759.453,4.164,4.164,0,0,0-1.457,1.788,3.4,3.4,0,0,0,.233,3.209,3.5,3.5,0,0,0,6.393-.845,3.368,3.368,0,0,0-.625-3.16,3.944,3.944,0,0,0-1.862-1.335C385.662,280.241,385.332,280.229,385.344,280.168Z" transform="translate(24.48 -34.134)" fill="#263238"/>
      <g id="Group_12" data-name="Group 12" transform="translate(395.225 160.807)" opacity="0.3">
        <path id="Path_279" data-name="Path 279" d="M373.295,211.452c14.868,15.37,31.744,30.226,52.515,35.357a8.328,8.328,0,0,0,4.091.269,3.123,3.123,0,0,0,2.449-2.939c-5.952,1.286-15.848-5.45-23.416-9.418-13.08-6.858-23.661-16.436-36.264-24.151" transform="translate(-372.67 -210.57)"/>
      </g>
      <g id="Group_13" data-name="Group 13" transform="translate(362.612 148.719)" opacity="0.3">
        <path id="Path_280" data-name="Path 280" d="M350.669,200.7A46.036,46.036,0,0,0,347,222.034c.49,7.226,1.788,14.378,2,21.616.355,11.7-3.956,25.89-2.731,36.484l.588.808C357.221,247.447,352.58,227.484,350.669,200.7Z" transform="translate(-346.041 -200.7)"/>
      </g>
      <path id="Path_281" data-name="Path 281" d="M408.979,157a6.908,6.908,0,0,1-1.482.747c-.49.233-1.115.453-1.825.71s-1.543.539-2.449.808a82.5,82.5,0,0,1-14.7,2.731,119.28,119.28,0,0,1-14.941.588c-1.923,0-3.466-.147-4.531-.245a7.79,7.79,0,0,1-1.653-.22,9.368,9.368,0,0,1,1.666,0c1.065,0,2.609.061,4.519,0,3.821,0,9.087-.184,14.88-.772a96.385,96.385,0,0,0,14.7-2.535c.919-.233,1.751-.465,2.449-.7s1.347-.416,1.837-.612a9.171,9.171,0,0,1,1.531-.5Z" transform="translate(21.371 -61.801)" fill="#263238"/>
      <path id="Path_282" data-name="Path 282" d="M419.541,162.161c.061.1-1.09.857-2.707,2.376a25.156,25.156,0,0,0-7.63,15.1c-.269,2.192-.2,3.576-.306,3.588a2.669,2.669,0,0,1-.147-.967,14.863,14.863,0,0,1,0-2.67,22.828,22.828,0,0,1,2.376-8.451,23.2,23.2,0,0,1,5.389-6.932,17,17,0,0,1,2.143-1.592C419.21,162.283,419.516,162.124,419.541,162.161Z" transform="translate(30.649 -60.642)" fill="#263238"/>
      <path id="Path_283" data-name="Path 283" d="M359.872,166.32a54.055,54.055,0,0,1-1.384,5.793,56.921,56.921,0,0,1-1.335,5.805,18.287,18.287,0,0,1,.723-5.952A18.736,18.736,0,0,1,359.872,166.32Z" transform="translate(19.065 -59.706)" fill="#263238"/>
      <path id="Path_284" data-name="Path 284" d="M352,166.753c-.735,1.678,13.815,90.788,93.078,131.681a47.006,47.006,0,0,0-1.359-11.145s-59.251-44.873-69.808-81.884L362.758,162.65S353.6,163.164,352,166.753Z" transform="translate(17.906 -60.531)" fill="#455a64"/>
      <path id="Path_285" data-name="Path 285" d="M425.24,159.08s11.157,1.984,14.329,10.618c4.054,11.022,8.732,37.6,9.687,56.214s-12.419,29.993-19.118,30.263-60.709-36.129-60.709-36.129l12.529-19.424L418.7,217.768Z" transform="translate(21.827 -61.333)" fill="#243244"/>
      <path id="Path_286" data-name="Path 286" d="M417.95,184.88a2.791,2.791,0,0,1,0,.465l.074,1.4c0,1.225.122,3.05.208,5.364.171,4.691.4,11.463.7,19.889v.355l-.318-.147L381.87,195.057l.38-.11L369.77,214.42l-.086-.429,7.85,5.205c11.561,7.605,22.645,14.7,32.908,20.943,5.132,3.062,10.055,5.964,14.843,8.267a26.94,26.94,0,0,0,3.588,1.457,5.277,5.277,0,0,0,.894.22h.441a3.011,3.011,0,0,0,.453,0l.894-.122.882-.257a18.261,18.261,0,0,0,6.013-3.527,29.392,29.392,0,0,0,7.348-9.528,31.509,31.509,0,0,0,2.878-8.7,27.85,27.85,0,0,0,.441-3.331,18.365,18.365,0,0,0,.11-2.449v-1.519a2.738,2.738,0,0,1,0-.514,2.738,2.738,0,0,1,0,.514v1.519a17.614,17.614,0,0,1-.061,2.449,25.076,25.076,0,0,1-.392,3.356,30.616,30.616,0,0,1-2.792,8.818,29.664,29.664,0,0,1-7.213,9.712,18.81,18.81,0,0,1-6.123,3.674l-.919.269a6.7,6.7,0,0,0-.955.147h-1a4.9,4.9,0,0,1-.968-.22,27.909,27.909,0,0,1-3.674-1.482c-4.838-2.3-9.8-5.18-14.917-8.242-10.288-6.124-21.4-13.3-32.945-20.918l-7.826-5.2-.269-.184.171-.257,12.529-19.412.147-.22.245.11L419,211.824l-.306.2c-.22-8.426-.38-15.2-.5-19.9,0-2.315-.073-4.1-.1-5.364v-1.4a2.71,2.71,0,0,1-.147-.478Z" transform="translate(21.769 -55.536)" fill="#263238"/>
      <path id="Path_287" data-name="Path 287" d="M429.255,219.645c-.086,0-.833-1.078-2.278-2.731a29.748,29.748,0,0,0-14.256-8.965c-2.107-.588-3.454-.772-3.441-.882a2.927,2.927,0,0,1,.968,0,17.733,17.733,0,0,1,2.6.429,26.282,26.282,0,0,1,14.464,9.136,17.594,17.594,0,0,1,1.506,2.155C429.145,219.314,429.292,219.621,429.255,219.645Z" transform="translate(30.782 -50.559)" fill="#263238"/>
      <g id="Group_14" data-name="Group 14" transform="translate(433.816 129.344)" opacity="0.3">
        <path id="Path_288" data-name="Path 288" d="M410.083,184.88a65.4,65.4,0,0,1-5.9,24.017c2.241.943,4.9,1.849,6.687,3.515.6-.441,0-.87,0-1.6-.441-8.181-.318-17.758-.759-25.927" transform="translate(-404.18 -184.88)"/>
      </g>
      <g id="Group_15" data-name="Group 15" transform="translate(440.723 156.445)" opacity="0.3">
        <path id="Path_289" data-name="Path 289" d="M409.82,207.17a63.6,63.6,0,0,1,9.038,0,12.345,12.345,0,0,1,4.176.747,12.1,12.1,0,0,1,2.9,1.9c1.984,1.617,3.98,3.539,4.47,6.05a2.731,2.731,0,0,1-.086,1.629,1.347,1.347,0,0,1-1.286.857,2.082,2.082,0,0,1-1.225-.821c-.808-.87-1.6-1.739-2.449-2.547-4.017-3.772-10.006-7.348-15.5-7.777" transform="translate(-409.82 -207.009)"/>
      </g>
      <path id="Path_290" data-name="Path 290" d="M369.823,210.9c5.866,2.021,6.124.392,6.124.392l8.965-14.121s-3.613-9.6-4.691-11.3-4.776-10.079-4.776-10.079a5.377,5.377,0,0,0-2.339,4.74c0,3.417,2.743,8.45,2.743,8.45l-8.573-2.057-11.39-.135s-1.911,1.323,0,3.4h0a3.417,3.417,0,0,0,0,3.907l1.408,2.07s-.759.453-.1,1.874a10.668,10.668,0,0,0,3.294,3.037s-2.449,1.433-1.506,2.952S369.823,210.9,369.823,210.9Z" transform="translate(18.593 -57.578)" fill="#ffbe9d"/>
      <path id="Path_291" data-name="Path 291" d="M366.611,190.057c-.086.171-2.364-1.029-5.425-1.666s-5.634-.478-5.646-.674a11.451,11.451,0,0,1,5.781,0A11.574,11.574,0,0,1,366.611,190.057Z" transform="translate(18.706 -54.981)" fill="#eb996e"/>
      <path id="Path_292" data-name="Path 292" d="M364.44,194.675a28.768,28.768,0,0,1-3.907-1.225,30.854,30.854,0,0,1-3.944-1.151,8.928,8.928,0,0,1,4.127.551,8.684,8.684,0,0,1,3.723,1.825Z" transform="translate(18.942 -53.879)" fill="#eb996e"/>
      <path id="Path_293" data-name="Path 293" d="M363.367,199.912c-.122.135-1.139-.625-2.376-1.519s-2.266-1.641-2.18-1.788,1.225.331,2.547,1.225S363.477,199.789,363.367,199.912Z" transform="translate(19.44 -52.907)" fill="#eb996e"/>
      <path id="Path_294" data-name="Path 294" d="M105.183,443.551l-1.041,26.38s26.466,9.92,26.76,14.807l-51.242-.184V443.38Z" transform="translate(-43.286 2.551)" fill="#243244"/>
      <path id="Path_295" data-name="Path 295" d="M86.994,463.2a2.106,2.106,0,0,0-1.457,2.388,2.008,2.008,0,0,0,2.351,1.457,2.2,2.2,0,0,0,1.531-2.523A2.07,2.07,0,0,0,86.81,463.3" transform="translate(-41.973 7.002)" fill="#e0e0e0"/>
      <path id="Path_296" data-name="Path 296" d="M79.66,477.762l.159-4.152,49.062,1.7s2.278.992,2.021,2.6Z" transform="translate(-43.286 9.344)" fill="#263238"/>
      <path id="Path_297" data-name="Path 297" d="M101.18,464.886c0,.245-1.225.355-2.449,1.163s-1.886,1.849-2.119,1.751.147-1.555,1.653-2.449S101.229,464.653,101.18,464.886Z" transform="translate(-39.491 7.339)" fill="#263238"/>
      <path id="Path_298" data-name="Path 298" d="M105.336,466.7c.061.245-1.029.661-1.886,1.715s-1.1,2.18-1.347,2.168-.4-1.433.686-2.719S105.336,466.454,105.336,466.7Z" transform="translate(-38.283 7.768)" fill="#263238"/>
      <path id="Path_299" data-name="Path 299" d="M107.233,472.732c-.22,0-.563-1.225.086-2.572s1.813-1.911,1.923-1.7-.625.943-1.139,2.082S107.49,472.708,107.233,472.732Z" transform="translate(-37.155 8.177)" fill="#263238"/>
      <path id="Path_300" data-name="Path 300" d="M146.376,443.086l-1.041,26.392s26.466,9.908,26.748,14.807l-51.23-.172L120.78,443Z" transform="translate(-34.046 2.466)" fill="#243244"/>
      <path id="Path_301" data-name="Path 301" d="M128.174,462.765a2.106,2.106,0,0,0-1.457,2.388,2.009,2.009,0,0,0,2.351,1.457,2.217,2.217,0,0,0,1.531-2.535,2.094,2.094,0,0,0-2.621-1.225" transform="translate(-32.72 6.901)" fill="#e0e0e0"/>
      <path id="Path_302" data-name="Path 302" d="M120.84,477.332,121,473.18l49.062,1.715s2.278,1,2.009,2.609Z" transform="translate(-34.033 9.247)" fill="#263238"/>
      <path id="Path_303" data-name="Path 303" d="M142.36,464.448c0,.245-1.225.355-2.449,1.151s-1.886,1.849-2.119,1.751.147-1.543,1.653-2.449S142.409,464.215,142.36,464.448Z" transform="translate(-30.238 7.239)" fill="#263238"/>
      <path id="Path_304" data-name="Path 304" d="M146.516,466.263c.061.233-1.029.661-1.886,1.715s-1.1,2.18-1.347,2.168-.4-1.433.686-2.719S146.516,465.969,146.516,466.263Z" transform="translate(-29.03 7.665)" fill="#263238"/>
      <path id="Path_305" data-name="Path 305" d="M148.413,472.292c-.22,0-.563-1.225.086-2.572s1.813-1.911,1.923-1.7-.625.943-1.139,2.07S148.67,472.268,148.413,472.292Z" transform="translate(-27.902 8.078)" fill="#263238"/>
      <path id="Path_306" data-name="Path 306" d="M77.4,281.37s-1.555,27.776-2.106,34.72,3.294,187.662,3.294,187.662h29.662s10.826-103.99,11.365-120.474,6.124-63,6.124-63V280.06l-46.8,1.568" transform="translate(-44.28 -34.148)" fill="#263238"/>
      <path id="Path_307" data-name="Path 307" d="M111.44,321.964c7.838,1.837,9.136,98.846,9.136,98.846l.2,88.179,30.348.257s4.433-38.639,6.124-76.716c1.09-24.6,2.609-45.706,2.609-45.706s3.025-31.842,3.245-58.431-2.609-64-2.609-64L115.4,274.935Z" transform="translate(-36.145 -37.669)" fill="#263238"/>
      <path id="Path_308" data-name="Path 308" d="M118.153,290.88a18.162,18.162,0,0,1,.269,3.735c0,2.315,0,5.511-.257,9.038s-.7,6.7-1.1,8.977a18.223,18.223,0,0,1-.833,3.674,26.221,26.221,0,0,1,.392-3.674c.282-2.29.649-5.45.906-8.965s.392-6.687.441-8.989A26.732,26.732,0,0,1,118.153,290.88Z" transform="translate(-35.069 -31.717)" fill="#455a64"/>
      <path id="Path_309" data-name="Path 309" d="M92.093,289.23a6.982,6.982,0,0,1-1.225,2.449,18.444,18.444,0,0,1-4.482,4.776,18.175,18.175,0,0,1-5.866,2.89,7.2,7.2,0,0,1-2.67.4,26.944,26.944,0,0,0,8.157-3.809,27.274,27.274,0,0,0,6.087-6.711Z" transform="translate(-43.693 -32.088)" fill="#455a64"/>
      <path id="Path_310" data-name="Path 310" d="M153.041,304.919a9.674,9.674,0,0,1-3.111-.674,21.016,21.016,0,0,1-11.586-9.724,9.675,9.675,0,0,1-1.225-2.952c.1,0,.563,1.078,1.58,2.719a23.771,23.771,0,0,0,4.9,5.683,24.187,24.187,0,0,0,6.442,3.858C151.878,304.54,153.066,304.809,153.041,304.919Z" transform="translate(-30.375 -31.562)" fill="#455a64"/>
      <path id="Path_311" data-name="Path 311" d="M111.567,290.2a.871.871,0,0,1,.453-.306,2.192,2.192,0,0,1,1.506,0,2.436,2.436,0,1,1-3.2,2.2,2.29,2.29,0,0,1,.49-1.421c.233-.269.429-.331.453-.306a2.878,2.878,0,0,0-.49,1.715,2.082,2.082,0,0,0,.845,1.58,1.984,1.984,0,0,0,2.9-2,2.156,2.156,0,0,0-1.225-1.359A3.025,3.025,0,0,0,111.567,290.2Z" transform="translate(-36.395 -31.968)" fill="#455a64"/>
      <path id="Path_312" data-name="Path 312" d="M108.22,382.16a20.464,20.464,0,0,1-2.584,2.817,74.49,74.49,0,0,1-6.981,6.013,76.518,76.518,0,0,1-7.642,5.156,19.754,19.754,0,0,1-3.392,1.739,26.358,26.358,0,0,1,3.16-2.131c1.96-1.225,4.642-3.111,7.5-5.278s5.3-4.286,7.054-5.842a25.486,25.486,0,0,1,2.89-2.474Z" transform="translate(-41.498 -11.206)" fill="#455a64"/>
      <path id="Path_313" data-name="Path 313" d="M145.1,374.49a19.819,19.819,0,0,1-2.339,2.927c-1.531,1.739-3.674,4.066-6.246,6.515s-4.9,4.568-6.736,6.026a19.132,19.132,0,0,1-3,2.241,26.821,26.821,0,0,1,2.707-2.584c1.715-1.543,4.054-3.674,6.589-6.124s4.752-4.715,6.356-6.368a24.387,24.387,0,0,1,2.67-2.633Z" transform="translate(-32.698 -12.929)" fill="#455a64"/>
      <path id="Path_314" data-name="Path 314" d="M60.62,296.144v13.9l3.037,7.1s15.137,8.3,16.852,8.3,2.364-.135,2.106-1.58-5.536-10.006-5.536-10.006l-.527-8.573s1.323-3.674,2.9-3.294,4.335,5.536,4.74,6.2,3.16,3.674,5.658,3.086l-1.445-5.989-5.793-9.614-6.234-4.9Z" transform="translate(-47.565 -31.739)" fill="#db8a76"/>
      <path id="Path_315" data-name="Path 315" d="M78.176,322.092a9.233,9.233,0,0,1-2.2-1.874,26.513,26.513,0,0,1-4.127-5.621,26.821,26.821,0,0,1-2.547-6.5,9.32,9.32,0,0,1-.416-2.854,49.6,49.6,0,0,0,3.515,9.051A49.234,49.234,0,0,0,78.176,322.092Z" transform="translate(-45.709 -28.49)" fill="#a45b4a"/>
      <path id="Path_316" data-name="Path 316" d="M71.268,318.025a5.43,5.43,0,0,1-1.555-1.09,13.288,13.288,0,0,1-2.633-3.809,24.027,24.027,0,0,1-1.531-4.286,5.316,5.316,0,0,1-.318-1.849,5.842,5.842,0,0,1,.747,1.715c.4,1.078.931,2.584,1.678,4.14a16.948,16.948,0,0,0,2.376,3.674C70.778,317.461,71.317,317.914,71.268,318.025Z" transform="translate(-46.529 -28.097)" fill="#a45b4a"/>
      <path id="Path_317" data-name="Path 317" d="M71.794,301.031c0,.184-.931.294-1.739,1s-1.066,1.6-1.225,1.58-.135-.282,0-.686a2.8,2.8,0,0,1,2.351-2.033C71.512,300.81,71.794,300.908,71.794,301.031Z" transform="translate(-45.745 -29.474)" fill="#a45b4a"/>
      <path id="Path_318" data-name="Path 318" d="M65.3,302.01c.073.159-.551.588-.857,1.408s-.184,1.531-.355,1.6-.674-.784-.233-1.849S65.3,301.814,65.3,302.01Z" transform="translate(-46.878 -29.229)" fill="#a45b4a"/>
      <path id="Path_319" data-name="Path 319" d="M178.336,286.17v5.107s-4.544,4.14-5.058,5.181-1.3,9.638-1.3,9.638,2.6,6.43,3.172,6.564,2.217.257,1.923-1.947-1.225-5.83-1.225-5.83l2.449-4.274,2.327,4.4v7.716s-4.666,2.915-4.335,4.091a1.9,1.9,0,0,0,2.449,1.555,28.05,28.05,0,0,0,3.882-1.433s1.3,2.964,3.76,1.482l2.449-1.482s1.813,2.449,3.5,1.9a3.515,3.515,0,0,0,2.192-2.253l2.756-9.5a22.289,22.289,0,0,0,.857-7.52l-.747-13.08Z" transform="translate(-22.541 -32.775)" fill="#db8a76"/>
      <path id="Path_320" data-name="Path 320" d="M176.8,299.263a8.034,8.034,0,0,1,2.094-3.282c.723-.674,1.862-1.225,2.645-.612a1.568,1.568,0,0,1,.5,1.543,3.184,3.184,0,0,1-.8,1.482,2.339,2.339,0,0,1,2.266.122,1.555,1.555,0,0,1,.1,1.91,4.47,4.47,0,0,1-1.555,1.347c.514-.38,1.3.159,1.4.784a2.621,2.621,0,0,1-.625,1.788,5.487,5.487,0,0,1-1.935,1.923,2.241,2.241,0,0,1-2.572-.306,1.421,1.421,0,0,1,.5-2.253,1.58,1.58,0,0,1-2-.5A2.915,2.915,0,0,1,176,301.1a5.976,5.976,0,0,1,.784-1.788" transform="translate(-21.638 -30.768)" fill="#ffbe9d"/>
      <path id="Path_321" data-name="Path 321" d="M186.676,301.65a42.1,42.1,0,0,1-.992,7.25,5.132,5.132,0,0,1-1,2.8,4.52,4.52,0,0,1-2.217,1,6.809,6.809,0,0,0-1.457.465c-.318.159-.478.282-.514.245s.073-.208.38-.453a5.069,5.069,0,0,1,1.457-.686,4.494,4.494,0,0,0,1.923-.98,5.034,5.034,0,0,0,.808-2.449A42.863,42.863,0,0,1,186.676,301.65Z" transform="translate(-20.63 -29.297)" fill="#a45b4a"/>
      <path id="Path_322" data-name="Path 322" d="M189.775,304.15a9.21,9.21,0,0,1-.87,5.229,6.675,6.675,0,0,1-2.18,3.147c-.882.576-1.58.429-1.555.355a5.153,5.153,0,0,0,1.3-.71,8.022,8.022,0,0,0,1.849-3.025C189.42,306.5,189.591,304.126,189.775,304.15Z" transform="translate(-19.577 -28.735)" fill="#a45b4a"/>
      <path id="Path_323" data-name="Path 323" d="M86.433,154S72.8,160.124,67.143,178.825s-20.318,89.649-16.509,112.5c0,0,8.769,35.137,10.165,36.349l19.791-6.956L91.393,192.3Z" transform="translate(-49.949 -62.475)" fill="#243244"/>
      <path id="Path_324" data-name="Path 324" d="M152.16,152.9l-33.067-8.01s-35.884,8.046-38.346,11.145S76.9,277.905,75.849,284.2c-1.335,7.887,0,33.692,0,33.692l95.417,3.98,4.666-15.554-4.666-142.593Z" transform="translate(-44.276 -64.522)" fill="#243244"/>
      <path id="Path_325" data-name="Path 325" d="M175.193,314.436s-25.376-68.045-24.347-77.463,2.253-53.238,2.253-53.238l1.225-23.465a23.147,23.147,0,0,1,14.439,17.758c2.278,13.7,11.806,55.981,11.806,55.981s23.147,72,21.628,80.757Z" transform="translate(-27.297 -61.066)" fill="#243244"/>
      <path id="Path_326" data-name="Path 326" d="M89.512,171.49a2.374,2.374,0,0,1,.1.355,7.428,7.428,0,0,0,.22,1.053l.343,1.715.294,2.376a60.415,60.415,0,0,1-.429,15.2,178.355,178.355,0,0,1-5.046,22.045,197.544,197.544,0,0,0-5.817,26.944c-1.372,9.687-2.082,19-2.449,27.47s-.527,16.117-.625,22.535-.147,11.573-.2,15.211c0,1.764-.073,3.147-.086,4.127V311.6a1.42,1.42,0,0,1,0,.367V291.132c0-6.417.122-14.072.49-22.559s1.053-17.819,2.449-27.531a191.532,191.532,0,0,1,5.879-27,185.815,185.815,0,0,0,5.156-21.91,62.289,62.289,0,0,0,.429-15.113c-.086-.882-.171-1.678-.233-2.364s-.208-1.225-.282-1.727-.122-.784-.159-1.065A1.4,1.4,0,0,1,89.512,171.49Z" transform="translate(-44.149 -58.545)" fill="#263238"/>
      <path id="Path_327" data-name="Path 327" d="M155.758,177.89a5.523,5.523,0,0,1,0,.943c0,.686-.1,1.592-.171,2.719-.171,2.351-.38,5.756-.576,9.969-.416,8.414-.612,20.073-.147,32.932s1.347,24.494,1.947,32.9c.294,4.152.527,7.544.7,9.957.073,1.139.122,2.033.171,2.719a5.524,5.524,0,0,1,0,.943,4.8,4.8,0,0,1-.147-.931c-.073-.686-.159-1.58-.282-2.707-.22-2.449-.527-5.805-.906-9.945-.71-8.414-1.653-20.036-2.131-32.92s-.2-24.494.331-32.969c.257-4.213.527-7.618.784-9.969.11-1.127.208-2.021.282-2.694A4.9,4.9,0,0,1,155.758,177.89Z" transform="translate(-26.588 -57.107)" fill="#263238"/>
      <path id="Path_328" data-name="Path 328" d="M146.51,244.53a2.325,2.325,0,0,1-.331.49c-.282.367-.625.8-1.029,1.335-.894,1.151-2.278,2.768-4.054,4.691s-3.993,4.139-6.564,6.466a102.081,102.081,0,0,1-18.285,13.166c-3.025,1.7-5.817,3.111-8.206,4.176s-4.36,1.874-5.744,2.351l-1.592.563a1.678,1.678,0,0,1-.576.147,3.588,3.588,0,0,1,.527-.269l1.555-.674c1.347-.551,3.282-1.408,5.634-2.535s5.119-2.547,8.12-4.262,6.124-3.784,9.418-6.124,6.124-4.727,8.757-6.993,4.825-4.458,6.626-6.344,3.233-3.441,4.189-4.544l1.127-1.225a2.352,2.352,0,0,1,.429-.416Z" transform="translate(-38.686 -42.132)" fill="#263238"/>
      <path id="Path_329" data-name="Path 329" d="M144.6,207.42a2.216,2.216,0,0,1-.135.625c-.135.478-.294,1.066-.5,1.776-.441,1.531-1.225,3.674-2.143,6.405a97.965,97.965,0,0,1-3.87,9.247,113.88,113.88,0,0,1-5.707,10.826c-2.2,3.674-4.544,7.2-6.748,10.263s-4.36,5.707-6.234,7.863-3.429,3.858-4.556,4.985l-1.31,1.225a3.292,3.292,0,0,1-.478.429,3.407,3.407,0,0,1,.392-.514l1.225-1.372c1.078-1.225,2.584-2.915,4.4-5.107s3.895-4.9,6.124-7.912,4.458-6.5,6.675-10.239,4.1-7.409,5.732-10.79,2.939-6.515,3.968-9.173,1.825-4.813,2.339-6.319c.245-.686.453-1.225.612-1.727A2.107,2.107,0,0,1,144.6,207.42Z" transform="translate(-35.812 -50.471)" fill="#263238"/>
      <g id="Group_16" data-name="Group 16" transform="translate(31.562 138.321)" opacity="0.3">
        <path id="Path_330" data-name="Path 330" d="M90.206,192.21c-12.443,34.7-15.762,72-14.06,108.815,4.617-4.47,6.124-11.292,6.124-17.709s-1.445-12.761-1.715-19.179C79.526,239.79,94.786,216.141,90.206,192.21Z" transform="translate(-75.731 -192.21)"/>
      </g>
      <g id="Group_17" data-name="Group 17" transform="translate(82.288 162.73)" opacity="0.3">
        <path id="Path_331" data-name="Path 331" d="M141.73,212.189c.392-1.127-2.731,17.832-7.042,24.96a51.683,51.683,0,0,1-17.538,17.428S133.451,235.862,141.73,212.189Z" transform="translate(-117.15 -212.141)"/>
      </g>
      <g id="Group_18" data-name="Group 18" transform="translate(127.676 128.07)" opacity="0.3">
        <path id="Path_332" data-name="Path 332" d="M154.21,184.869s.22,71.253,3.013,75.124c0,0,.772-18.2,1.225-27.311.845-16.338-1.519-32.663-3.895-48.841" transform="translate(-154.21 -183.84)"/>
      </g>
      <path id="Path_333" data-name="Path 333" d="M91.335,188.164a4.825,4.825,0,0,1-1.225,0,29.1,29.1,0,0,1-3.245-.343,76.264,76.264,0,0,1-10.508-2.18,77.761,77.761,0,0,1-10.128-3.613c-1.225-.551-2.253-1.041-2.939-1.4a4.9,4.9,0,0,1-1.029-.612,38.637,38.637,0,0,1,4.152,1.592,103.1,103.1,0,0,0,20.5,5.732A42.954,42.954,0,0,1,91.335,188.164Z" transform="translate(-47.196 -56.628)" fill="#fff"/>
      <path id="Path_334" data-name="Path 334" d="M168.457,182.477c0,.171-18.04-.11-40.281-.625s-40.268-1.078-40.256-1.225,18.028.11,40.281.625S168.457,182.318,168.457,182.477Z" transform="translate(-41.43 -56.501)" fill="#fff"/>
      <path id="Path_335" data-name="Path 335" d="M172.038,189.65a63.489,63.489,0,0,1-8.365,3.245,60.939,60.939,0,0,1-8.573,2.633,63.685,63.685,0,0,1,8.365-3.233,64.2,64.2,0,0,1,8.573-2.645Z" transform="translate(-26.334 -54.464)" fill="#fff"/>
      <path id="Path_336" data-name="Path 336" d="M83.982,223.172a4.005,4.005,0,0,1-1.225.074,33.066,33.066,0,0,1-3.331-.135,51.952,51.952,0,0,1-20.967-6.479,32.016,32.016,0,0,1-2.829-1.764,5.634,5.634,0,0,1-.98-.747c.061-.1,1.543.833,4.029,2.119a63.992,63.992,0,0,0,10.1,4.152,62.63,62.63,0,0,0,10.679,2.266C82.243,223,83.994,223.062,83.982,223.172Z" transform="translate(-48.906 -48.967)" fill="#fff"/>
      <path id="Path_337" data-name="Path 337" d="M145.653,220.414a2.767,2.767,0,0,1-.649.1l-1.874.159c-1.629.135-3.993.233-6.907.294a152.6,152.6,0,0,1-45.081-6.124c-2.792-.833-5.046-1.568-6.577-2.131l-1.825-.661a2.609,2.609,0,0,1-.6-.269,2.119,2.119,0,0,1,.649.147l1.788.539c1.555.49,3.821,1.163,6.626,1.935a177.279,177.279,0,0,0,22.277,4.568,176.1,176.1,0,0,0,22.669,1.555c2.915,0,5.278,0,6.907-.1h1.874a2.339,2.339,0,0,1,.723-.012Z" transform="translate(-42.729 -49.491)" fill="#fff"/>
      <path id="Path_338" data-name="Path 338" d="M156.458,212.23a11.918,11.918,0,0,1-2.817.821,71.843,71.843,0,0,1-13.974,1.69,12.149,12.149,0,0,1-2.927-.122,14.7,14.7,0,0,1,2.9-.331c1.788-.135,4.262-.355,6.981-.686s5.168-.71,6.932-.992A15.175,15.175,0,0,1,156.458,212.23Z" transform="translate(-30.46 -49.39)" fill="#fff"/>
      <path id="Path_339" data-name="Path 339" d="M177.939,219.25a14.78,14.78,0,0,1-2.988,1.421c-1.886.772-4.531,1.751-7.507,2.682s-5.719,1.629-7.716,2.057a14.622,14.622,0,0,1-3.258.539,19.6,19.6,0,0,1,3.147-.98c1.972-.539,4.666-1.3,7.63-2.229s5.621-1.825,7.544-2.449a20.158,20.158,0,0,1,3.148-1.041Z" transform="translate(-26.026 -47.813)" fill="#fff"/>
      <path id="Path_340" data-name="Path 340" d="M81.913,258.428a4.981,4.981,0,0,1-1.347,0,32.684,32.684,0,0,1-3.674-.318,58.872,58.872,0,0,1-22.8-7.875c-1.335-.8-2.376-1.494-3.074-2.009a5.352,5.352,0,0,1-1.053-.845c.061-.086,1.653.967,4.348,2.449a70.271,70.271,0,0,0,11.022,4.9,71.417,71.417,0,0,0,11.622,2.952C80.014,258.171,81.925,258.318,81.913,258.428Z" transform="translate(-49.96 -41.493)" fill="#fff"/>
      <path id="Path_341" data-name="Path 341" d="M138.466,256.84a2.631,2.631,0,0,1-.637,0h-8.487c-5.646-.135-13.472-.588-21.971-1.617s-16.227-2.449-21.726-3.674c-2.756-.612-4.972-1.139-6.5-1.543l-1.751-.478a4.259,4.259,0,0,1-.6-.208,2.07,2.07,0,0,1,.637.073l1.776.367c1.543.331,3.772.8,6.528,1.347,5.523,1.1,13.19,2.449,21.714,3.478s16.289,1.555,21.91,1.813c2.8.122,5.083.208,6.662.245l1.813.073a2.217,2.217,0,0,1,.637.122Z" transform="translate(-43.931 -41.056)" fill="#fff"/>
      <path id="Path_342" data-name="Path 342" d="M161.136,251a3.943,3.943,0,0,1-1.127.355c-.735.2-1.813.429-3.148.686a78.164,78.164,0,0,1-10.52,1.225,76.99,76.99,0,0,1-10.606-.22c-1.347-.122-2.449-.257-3.184-.38a4.786,4.786,0,0,1-1.151-.245,41.96,41.96,0,0,1,4.372.184,103.134,103.134,0,0,0,10.532,0c4.1-.22,7.814-.625,10.483-1.017a41.035,41.035,0,0,1,4.348-.588Z" transform="translate(-31.66 -40.678)" fill="#fff"/>
      <path id="Path_343" data-name="Path 343" d="M190.922,257.16a4.609,4.609,0,0,1-.943.661c-.625.392-1.555.919-2.719,1.531a67.1,67.1,0,0,1-9.479,4.017,65.82,65.82,0,0,1-9.994,2.449c-1.3.22-2.351.355-3.086.416a4.338,4.338,0,0,1-1.151,0,40.312,40.312,0,0,1,4.152-.906,86.316,86.316,0,0,0,19.363-6.491A41.191,41.191,0,0,1,190.922,257.16Z" transform="translate(-24.436 -39.294)" fill="#fff"/>
      <path id="Path_344" data-name="Path 344" d="M79.7,280.48a18.369,18.369,0,0,1-3.368,1.543,57.667,57.667,0,0,1-8.573,2.511,55.84,55.84,0,0,1-8.867,1.139,17.315,17.315,0,0,1-3.674-.061,30.3,30.3,0,0,1,3.674-.392,78.649,78.649,0,0,0,8.769-1.31,80.432,80.432,0,0,0,8.573-2.315A27.941,27.941,0,0,1,79.7,280.48Z" transform="translate(-48.778 -34.054)" fill="#fff"/>
      <path id="Path_345" data-name="Path 345" d="M173.129,280.9a8.387,8.387,0,0,1-.968.171l-2.8.38c-2.449.318-5.964.71-10.337,1.115-8.744.808-20.82,1.519-34.292,1.482s-25.535-.87-34.292-1.751c-4.372-.429-7.9-.845-10.324-1.225l-2.8-.4a5.3,5.3,0,0,1-.968-.184,7.492,7.492,0,0,1,.992.061l2.8.282c2.449.269,5.977.612,10.349.992,8.732.759,20.82,1.494,34.218,1.543s25.486-.588,34.231-1.286c4.372-.343,7.912-.661,10.349-.906l2.817-.269A4.9,4.9,0,0,1,173.129,280.9Z" transform="translate(-44.032 -34.054)" fill="#fff"/>
      <path id="Path_346" data-name="Path 346" d="M168.583,159.939c0,.184-18.885-.073-42.167-.563s-42.179-1.041-42.167-1.225,18.885.073,42.179.576S168.6,159.768,168.583,159.939Z" transform="translate(-42.255 -61.555)" fill="#fff"/>
      <path id="Path_347" data-name="Path 347" d="M177.024,287.534a8.046,8.046,0,0,1-1.715-3.588,8.242,8.242,0,0,1-.4-3.956,29.3,29.3,0,0,1,1.017,3.784A29.169,29.169,0,0,1,177.024,287.534Z" transform="translate(-21.903 -34.164)" fill="#263238"/>
      <path id="Path_348" data-name="Path 348" d="M184.512,287.6a26.613,26.613,0,0,1-2.792-7.814,14.085,14.085,0,0,1,1.69,3.8,14.341,14.341,0,0,1,1.1,4.017Z" transform="translate(-20.353 -34.209)" fill="#263238"/>
      <path id="Path_349" data-name="Path 349" d="M64.624,296.647a21.36,21.36,0,0,1-1.849-4.9,22.142,22.142,0,0,1-1.225-5.058,21.03,21.03,0,0,1,1.862,4.9,21.7,21.7,0,0,1,1.212,5.058Z" transform="translate(-47.356 -32.658)" fill="#263238"/>
      <path id="Path_350" data-name="Path 350" d="M70.657,293.981a18.271,18.271,0,0,1-1.813-4.421,18.947,18.947,0,0,1-1.225-4.629,17.709,17.709,0,0,1,1.813,4.421A17.451,17.451,0,0,1,70.657,293.981Z" transform="translate(-45.992 -33.054)" fill="#263238"/>
      <path id="Path_351" data-name="Path 351" d="M109.822,169.228h0a8.573,8.573,0,0,1-.759-4.091l3.674-53.1c0-14.831,8.573-27.225,23.343-26.944l1.359.11a26.515,26.515,0,0,1,24.347,26.466c0,12.847-.2,27.042-.845,33.888-1.335,14.17-15.7,15.211-15.7,15.211l-.686,5.511s.747,9.651-10.508,12.48c-8.659,2.18-17.832-3.564-21.6-6.344a8.377,8.377,0,0,1-2.621-3.184Z" transform="translate(-36.683 -77.96)" fill="#db8a76"/>
      <path id="Path_352" data-name="Path 352" d="M142.038,148.2A34.525,34.525,0,0,1,123.9,141.24s3.527,10.557,17.783,10.447Z" transform="translate(-33.345 -65.342)" fill="#a45b4a"/>
      <path id="Path_353" data-name="Path 353" d="M149.344,117.367a2.021,2.021,0,0,1-2.119,1.886,1.935,1.935,0,0,1-1.935-2,2.033,2.033,0,0,1,2.119-1.886,1.947,1.947,0,0,1,1.935,2Z" transform="translate(-28.539 -71.156)" fill="#263238"/>
      <path id="Path_354" data-name="Path 354" d="M150.643,112.761c-.269.245-1.715-1.017-3.895-1.225s-3.87.784-4.078.5.184-.588.931-1.041a5.5,5.5,0,0,1,3.294-.723,5.377,5.377,0,0,1,3.062,1.225C150.594,112.161,150.778,112.651,150.643,112.761Z" transform="translate(-29.14 -72.306)" fill="#263238"/>
      <path id="Path_355" data-name="Path 355" d="M132.462,116.427a2.045,2.045,0,0,1-2.107,1.886,1.947,1.947,0,0,1-1.935-2,2.021,2.021,0,0,1,2.119-1.886,1.935,1.935,0,0,1,1.923,2Z" transform="translate(-32.33 -71.367)" fill="#263238"/>
      <path id="Path_356" data-name="Path 356" d="M133.124,111.659c-.269.245-1.715-1.017-3.895-1.225s-3.858.8-4.078.5.184-.576.931-1.029a5.5,5.5,0,0,1,3.294-.723,5.376,5.376,0,0,1,3.074,1.225C133.075,111.046,133.259,111.548,133.124,111.659Z" transform="translate(-33.078 -72.551)" fill="#263238"/>
      <path id="Path_357" data-name="Path 357" d="M137,128.266a14.61,14.61,0,0,1,3.588-.343c.563,0,1.1-.086,1.225-.453a2.939,2.939,0,0,0-.233-1.678l-1.3-4.372c-1.8-6.222-3.037-11.316-2.792-11.39s1.911,4.9,3.674,11.133l1.225,4.4a3.209,3.209,0,0,1,.11,2.2,1.421,1.421,0,0,1-.98.747,4.447,4.447,0,0,1-.955,0A14.158,14.158,0,0,1,137,128.266Z" transform="translate(-30.401 -72.355)" fill="#263238"/>
      <path id="Path_358" data-name="Path 358" d="M131.771,125.72c.355,0,.171,2.376,2.057,4.225s4.421,1.788,4.409,2.119-.6.416-1.666.355a5.928,5.928,0,0,1-3.674-1.629,5.168,5.168,0,0,1-1.568-3.527C131.294,126.259,131.612,125.7,131.771,125.72Z" transform="translate(-31.676 -68.83)" fill="#263238"/>
      <path id="Path_359" data-name="Path 359" d="M134.518,104.64c-.257.576-2.449.11-5,.22s-4.7.625-5,0c-.135-.269.269-.8,1.151-1.3a8.671,8.671,0,0,1,7.618-.22C134.2,103.869,134.641,104.322,134.518,104.64Z" transform="translate(-33.21 -74.032)" fill="#263238"/>
      <path id="Path_360" data-name="Path 360" d="M150.294,107.587c-.429.453-1.886-.184-3.674-.355s-3.368,0-3.674-.478c-.135-.269.147-.747.857-1.225a5.364,5.364,0,0,1,5.928.674C150.368,106.828,150.478,107.354,150.294,107.587Z" transform="translate(-29.073 -73.501)" fill="#263238"/>
      <path id="Path_361" data-name="Path 361" d="M114.81,119.254a3.858,3.858,0,0,0-3.846-4.054c-2.67,0-5.732,1.3-6,6.773-.49,9.724,9.369,8.206,9.393,7.936S114.651,123.32,114.81,119.254Z" transform="translate(-37.604 -71.193)" fill="#db8a76"/>
      <path id="Path_362" data-name="Path 362" d="M111.817,125.558a4.037,4.037,0,0,1-.478.233,1.727,1.727,0,0,1-1.225,0c-1-.429-1.788-2.106-1.751-3.858a5.609,5.609,0,0,1,.6-2.449,1.923,1.923,0,0,1,1.335-1.225.87.87,0,0,1,.98.514c.11.282,0,.465.086.49s.22-.159.159-.563a1,1,0,0,0-.343-.625,1.31,1.31,0,0,0-.931-.294,2.376,2.376,0,0,0-1.837,1.421,5.56,5.56,0,0,0-.723,2.682c0,1.96.87,3.846,2.253,4.311a1.825,1.825,0,0,0,1.568-.171C111.744,125.79,111.842,125.582,111.817,125.558Z" transform="translate(-36.988 -70.614)" fill="#a45b4a"/>
      <path id="Path_363" data-name="Path 363" d="M163.15,112.632c.073,1.96,2.841-4.58,1.886-6.319a5.119,5.119,0,1,0,1.8-10.006,4.593,4.593,0,0,0-.637-5.6,6.822,6.822,0,0,0-2.829-1.225,6.9,6.9,0,0,0-.686-3.49,8.573,8.573,0,0,0-13.264-3.025,8.573,8.573,0,0,0-14.109,0,8.132,8.132,0,0,0-12,3.588,6.332,6.332,0,0,0-7.593.87A23.957,23.957,0,0,1,113.451,90a21.224,21.224,0,0,1-3.6,1.617,6.9,6.9,0,0,0-1.96,10.251,15.921,15.921,0,0,0-3.76,3.552,5.487,5.487,0,0,0-.857,4.9c.747,1.935,2.89,3.086,3.674,5.034.331.906.331,1.9.649,2.8a5.548,5.548,0,0,0,3.294,3.172c.772,3.956,3.454,5.119,3.49,6.271.343,12.125,5.6,5.3,9.063-20.1.821-5.964-1.225-9.1,3.674-12.6a26.659,26.659,0,0,1,1.641,2.449,8.083,8.083,0,0,0,11.916.882A6.907,6.907,0,0,0,151.7,99.772c1.69,1.617,5.658,4.409,8.842,1.715A26.111,26.111,0,0,1,163.15,112.632Z" transform="translate(-38.034 -79.268)" fill="#263238"/>
      <path id="Path_364" data-name="Path 364" d="M149.308,152.316c-1.69-2.449-5.928-1.984-9.259-1.629-9.149.955-19.191-.98-26.245-5.928a19.524,19.524,0,0,0-2.67-1.764c-2.976-1.421-4.323.343-4.617,1.972s-.686,3.282-1.225,5.928c-1.58,5.266,2.535,9.8,8.842,13.227s14.219,4.078,21.763,3.956c3.123,0,6.43-.282,8.94-1.825,3.564-2.18,4.384-6.258,4.9-9.908a5.389,5.389,0,0,0-.429-4.029Z" transform="translate(-37.603 -65.065)" fill="#243244"/>
      <path id="Path_365" data-name="Path 365" d="M149.648,155a2.315,2.315,0,0,1,.1.612,7.078,7.078,0,0,1-.171,1.788,9.136,9.136,0,0,1-3.772,5.327,12.247,12.247,0,0,1-4.225,1.764,28.65,28.65,0,0,1-5.193.588,77.226,77.226,0,0,1-11.9-.257,24.25,24.25,0,0,1-11.218-3.956,18.469,18.469,0,0,1-6.124-7.544,13.864,13.864,0,0,1-1.225-6.442c0-.367.073-.71.1-1.029a4.193,4.193,0,0,1,.159-.735,2.229,2.229,0,0,1,.171-.6,2.45,2.45,0,0,1,0,.625l-.1.735V146.9a14.353,14.353,0,0,0,1.372,6.246,18.481,18.481,0,0,0,6.124,7.25,24.261,24.261,0,0,0,11.022,3.809,84.428,84.428,0,0,0,11.806.294c3.613-.061,6.92-.612,9.173-2.143a9.051,9.051,0,0,0,3.784-5.009,12.394,12.394,0,0,0,.122-2.339Z" transform="translate(-37.391 -64.605)" fill="#263238"/>
      <g id="Group_19" data-name="Group 19" transform="translate(68.624 81.691)" opacity="0.3">
        <path id="Path_366" data-name="Path 366" d="M127.973,163.961c-3.674-.269-9.149-.845-12.517-2.449-6.038-2.792-8.7-8.9-9.332-15.542v1.359a16.338,16.338,0,0,0,4.507,13.472,22.792,22.792,0,0,0,12.872,6.5,37.966,37.966,0,0,0,14.574-.735c3.037-.686,6.307-1.837,7.838-4.544A43.49,43.49,0,0,1,127.973,163.961Z" transform="translate(-105.993 -145.97)"/>
      </g>
      <path id="Path_367" data-name="Path 367" d="M112.279,159.943a7.054,7.054,0,0,1-.429-2.155,16.913,16.913,0,0,1,.1-5.352,9.051,9.051,0,0,1,2.449-4.764,3.674,3.674,0,0,1,1.911-1.151,21.411,21.411,0,0,0-1.58,1.457,9.883,9.883,0,0,0-2.18,4.58,22.045,22.045,0,0,0-.269,5.193,7.838,7.838,0,0,1,0,2.192Z" transform="translate(-36.09 -64.156)" fill="#263238"/>
      <path id="Path_368" data-name="Path 368" d="M126.07,164.261a53.884,53.884,0,0,0,1.31-7.348,52.134,52.134,0,0,0-.367-7.483,19.473,19.473,0,0,1-.943,14.856Z" transform="translate(-32.858 -63.502)" fill="#263238"/>
      <path id="Path_369" data-name="Path 369" d="M138.083,149.12a1.254,1.254,0,0,1,.625.245,3.4,3.4,0,0,1,1.066,1.47,10.1,10.1,0,0,1,.355,5.805,10.716,10.716,0,0,1-2.768,5.132,4.9,4.9,0,0,1-1.96,1.408c-.061-.086.7-.612,1.629-1.715a11.745,11.745,0,0,0,2.449-4.9,11.023,11.023,0,0,0-.159-5.511,3.943,3.943,0,0,0-1.237-1.935Z" transform="translate(-30.762 -63.571)" fill="#263238"/>
    </g>
    <g id="freepik--Floor--inject-23" transform="translate(52.014 577.899)">
      <path id="Path_370" data-name="Path 370" d="M546.666,477.208c0,.184-112.244.318-250.661.318s-250.685-.135-250.685-.318,112.22-.318,250.685-.318S546.666,477.025,546.666,477.208Z" transform="translate(-45.32 -476.89)" fill="#263238"/>
    </g>
  </g>
</svg>
