<?xml version="1.0" encoding="utf-8"?>
<!-- Generator: Adobe Illustrator 24.3.0, SVG Export Plug-In . SVG Version: 6.00 Build 0)  -->
<svg version="1.1" xmlns="http://www.w3.org/2000/svg" xmlns:xlink="http://www.w3.org/1999/xlink" x="0px" y="0px"
	 viewBox="0 0 3710 3710" style="enable-background:new 0 0 3710 3710;" xml:space="preserve">
<style type="text/css">
	.st0{display:none;}
	.st1{fill:#F4F7FA;}
	.st2{fill:url(#SVGID_1_);}
	.st3{fill:url(#SVGID_2_);}
	.st4{opacity:0.74;fill:#FFFFFF;}
	.st5{fill:url(#SVGID_3_);}
	.st6{fill:url(#SVGID_4_);}
	.st7{fill:url(#SVGID_5_);}
	.st8{fill:url(#SVGID_6_);}
	.st9{opacity:0.25;fill:url(#SVGID_7_);}
	.st10{opacity:0.25;fill:url(#SVGID_8_);}
	.st11{fill:url(#SVGID_9_);}
	.st12{opacity:0.25;fill:url(#SVGID_10_);}
	.st13{opacity:0.25;fill:url(#SVGID_11_);}
	.st14{fill:url(#SVGID_12_);}
	.st15{fill:url(#SVGID_13_);}
	.st16{fill:url(#SVGID_14_);}
	.st17{fill:url(#SVGID_15_);}
	.st18{enable-background:new    ;}
	.st19{fill:url(#SVGID_16_);}
	.st20{fill:url(#SVGID_17_);}
	.st21{fill:#413974;}
	.st22{fill:#26264F;}
	.st23{fill:url(#SVGID_18_);}
	.st24{fill:#FFFFFF;}
	.st25{fill:url(#SVGID_19_);}
	.st26{fill:#D8DEE8;}
	.st27{opacity:0.48;fill:#FFFFFF;}
	.st28{fill:url(#SVGID_20_);}
	.st29{fill:url(#SVGID_21_);}
	.st30{fill:url(#SVGID_22_);}
	.st31{fill:url(#SVGID_23_);}
	.st32{fill:url(#SVGID_24_);}
	.st33{fill:url(#SVGID_25_);}
	.st34{fill:url(#SVGID_26_);}
	.st35{fill:url(#SVGID_27_);}
	.st36{fill:url(#SVGID_28_);}
	.st37{fill:url(#SVGID_29_);}
	.st38{fill:url(#SVGID_30_);}
	.st39{fill:url(#SVGID_31_);}
	.st40{fill:url(#SVGID_32_);}
	.st41{fill:url(#SVGID_33_);}
	.st42{fill:url(#SVGID_34_);}
	.st43{fill:url(#SVGID_35_);}
	.st44{fill:url(#SVGID_36_);}
	.st45{fill:url(#SVGID_37_);}
	.st46{fill:url(#SVGID_38_);}
	.st47{fill:url(#SVGID_39_);}
	.st48{fill:#9B305E;}
	.st49{fill:url(#SVGID_40_);}
	.st50{fill:url(#SVGID_41_);}
</style>
<g id="Background" class="st0">
</g>
<g id="Illustration">
	<g id="Cyber_security_software">
		<path class="st1" d="M1125.07,623.29c-94.43,135.18,16.29,354.35-123.83,456.02c-136.4,98.97-303.96-63.25-432.5,21.94
			c-190.69,126.38-155.87,704.65,122.93,1063.94c83.84,108.05,153.9,150.09,184.93,272.29c66.63,262.4-167.53,418.49-122.97,548.26
			c100.33,292.21,1643.37,537.41,2262.5-340.78c289.16-410.15,332.43-1002.41,74.07-1452.24
			C2623.35,379.9,1336.96,319.96,1125.07,623.29z"/>
		<g>
			<linearGradient id="SVGID_1_" gradientUnits="userSpaceOnUse" x1="1419.8998" y1="2284.8313" x2="-73.6501" y2="1379.9811">
				<stop  offset="0" style="stop-color:#FF9085"/>
				<stop  offset="1" style="stop-color:#FB6FBB"/>
			</linearGradient>
			<path class="st2" d="M1354.69,1945.49l-45.13-0.38c-3.63-20.43-8.94-40.3-15.93-59.39l39.15-22.17
				c10.68-6.05,14.34-19.66,8.18-30.39l-38.6-67.23c-6.18-10.76-19.87-14.6-30.58-8.57l-39.66,22.33
				c-13.22-15.78-27.77-30.43-43.52-43.76l23.01-39.36c6.2-10.61,2.52-24.36-8.23-30.7l-67.34-39.73
				c-10.79-6.37-24.59-2.91-30.83,7.72l-23.16,39.48c-19.17-7.19-39.16-12.73-59.74-16.61v-46.25c0-12.42-10.15-22.65-22.69-22.86
				l-78.54-1.32c-12.59-0.21-22.8,9.71-22.8,22.16v46.39c-20.73,3.27-40.89,8.22-60.27,14.88l-23.45-40.45
				c-6.32-10.91-20.34-14.84-31.31-8.77l-68.7,38.01c-11.01,6.09-14.78,19.89-8.42,30.82l23.54,40.47
				c-16.11,13.06-31.01,27.51-44.58,43.15l-40.79-23.67c-11.04-6.41-25.17-2.87-31.56,7.9l-39.96,67.46
				c-6.4,10.8-2.6,24.74,8.48,31.13l40.5,23.36c-7.23,19.26-12.71,39.36-16.46,60.07l-46.77-0.39c-12.8-0.11-23.19,9.99-23.19,22.55
				v78.55c0,12.56,10.39,22.8,23.19,22.87l46.4,0.25c3.65,20.88,9.07,41.16,16.23,60.64l-39.9,22.46
				c-11.08,6.24-14.87,20.12-8.48,31.01l39.96,68.01c6.38,10.86,20.51,14.59,31.56,8.34l39.59-22.42
				c13.65,16.09,28.71,30.96,44.97,44.45l-22.75,38.78c-6.36,10.84-2.58,24.69,8.42,30.93l68.7,38.96
				c10.97,6.22,24.98,2.48,31.31-8.34l22.46-38.43c19.68,7.09,40.19,12.43,61.26,16.04v44.36c0,12.45,10.21,22.52,22.8,22.48
				l78.54-0.23c12.53-0.04,22.69-10.13,22.69-22.55v-44.23c20.93-3.66,41.26-9.02,60.73-16.12l22.18,38.12
				c6.24,10.72,20.04,14.36,30.83,8.15l67.34-38.8c10.75-6.19,14.43-19.88,8.23-30.58l-22.23-38.34
				c15.9-13.32,30.6-27.98,43.91-43.83l38.5,22.21c10.71,6.18,24.4,2.53,30.58-8.14l38.6-66.69c6.17-10.65,2.51-24.31-8.18-30.51
				l-38.56-22.38c6.93-19.11,12.18-39.01,15.71-59.5l44.78,0.24c12.32,0.07,22.3-9.86,22.3-22.17v-76.99
				C1376.99,1955.66,1367.01,1945.6,1354.69,1945.49z M960.36,1777.22c126.45,1.56,228.4,104.06,228.4,228.95
				c0,124.89-101.95,225.99-228.4,225.8c-127.22-0.19-230.91-102.7-230.91-228.97C729.45,1876.74,833.15,1775.66,960.36,1777.22z"/>
			<g>
				<linearGradient id="SVGID_2_" gradientUnits="userSpaceOnUse" x1="1550.9658" y1="718.3464" x2="1329.3149" y2="2006.6892">
					<stop  offset="0" style="stop-color:#FF9085"/>
					<stop  offset="1" style="stop-color:#FB6FBB"/>
				</linearGradient>
				<path class="st3" d="M1849.68,1056.33l-40.85-1.12c-3.29-18.07-8.09-35.69-14.43-52.65l35.45-18.84
					c9.67-5.14,12.98-17.06,7.4-26.64l-34.94-60c-5.6-9.61-18-13.26-27.71-8.15l-35.97,18.93c-12-14.18-25.21-27.4-39.51-39.49
					l20.89-34.29c5.63-9.24,2.29-21.45-7.47-27.27l-61.2-36.5c-9.81-5.85-22.38-3.09-28.05,6.17l-21.09,34.43
					c-17.47-6.76-35.69-12.07-54.46-15.93v-40.93c0-10.99-9.26-20.27-20.7-20.72l-71.77-2.87c-11.51-0.46-20.86,8.11-20.86,19.15
					v41.11c-18.97,2.46-37.44,6.44-55.2,11.94l-21.51-36.38c-5.8-9.81-18.66-13.6-28.72-8.45l-63.12,32.3
					c-10.12,5.18-13.59,17.36-7.75,27.21l21.65,36.43c-14.81,11.28-28.52,23.82-40.99,37.45l-37.55-21.85
					c-10.17-5.92-23.2-3.06-29.08,6.4l-36.86,59.25c-5.91,9.49-2.4,21.97,7.82,27.87l37.35,21.54c-6.67,17-11.72,34.78-15.18,53.14
					l-43.16-1.18c-11.82-0.32-21.42,8.48-21.42,19.67v69.95c0,11.19,9.59,20.47,21.42,20.75l42.82,0.99
					c3.37,18.63,8.36,36.76,14.97,54.21l-36.79,19.37c-10.22,5.38-13.73,17.68-7.82,27.47l36.86,61.11
					c5.88,9.76,18.91,13.27,29.08,7.87l36.45-19.37c12.56,14.5,26.41,27.92,41.36,40.13l-20.92,34.15
					c-5.85,9.55-2.38,21.9,7.75,27.6l63.12,35.48c10.06,5.66,22.92,2.52,28.72-7l20.59-33.8c18.04,6.55,36.82,11.54,56.11,15.02
					v39.32c0,11.04,9.34,20.08,20.86,20.2l71.77,0.75c11.44,0.12,20.7-8.69,20.7-19.68v-39.14c19.09-2.97,37.62-7.45,55.35-13.47
					l20.19,33.98c5.68,9.55,18.24,12.95,28.05,7.59l61.2-33.41c9.76-5.33,13.1-17.36,7.47-26.89l-20.19-34.15
					c14.44-11.54,27.79-24.27,39.86-38.08l34.91,20.14c9.71,5.6,22.11,2.57,27.71-6.76l34.94-58.23c5.58-9.3,2.27-21.39-7.4-27.01
					l-34.92-20.31c6.28-16.74,11.03-34.21,14.23-52.22l40.52,0.93c11.14,0.26,20.17-8.33,20.17-19.17v-67.82
					C1869.85,1065.67,1860.82,1056.63,1849.68,1056.33z M1491.21,900.41c115.35,3.84,208.08,96.32,208.08,206.6
					c0,110.28-92.73,198.1-208.08,196.13c-116.43-1.99-211.62-94.54-211.62-206.69S1374.78,896.54,1491.21,900.41z"/>
				<g>
					<path class="st4" d="M1491.21,490.71c-356.18-17.71-652.5,247.91-652.5,593.74s296.31,626.38,652.5,626.63
						c346.28,0.24,620-265.95,620-594.56C2111.21,787.91,1837.49,507.92,1491.21,490.71z M1491.21,1565.16
						c-270.09-1.77-493.38-215.21-493.38-476.7s223.29-463.68,493.38-451.84c264.35,11.59,474.57,224.71,474.57,476.23
						S1755.56,1566.89,1491.21,1565.16z"/>
					<g>
						<linearGradient id="SVGID_3_" gradientUnits="userSpaceOnUse" x1="874.6259" y1="437.8223" x2="1161.8445" y2="1897.4584">
							<stop  offset="0" style="stop-color:#FFC444"/>
							<stop  offset="0.9964" style="stop-color:#F36F56"/>
						</linearGradient>
						<path class="st5" d="M1058.5,1315.26l-137.06,72.41c53.38,91.45,129.77,168.89,221.27,225.06l78.08-127.64
							C1153.56,1441.99,1097.56,1383.68,1058.5,1315.26z"/>
						<linearGradient id="SVGID_4_" gradientUnits="userSpaceOnUse" x1="1783.0343" y1="306.8176" x2="2063.8616" y2="1733.9736">
							<stop  offset="0" style="stop-color:#FFC444"/>
							<stop  offset="0.9964" style="stop-color:#F36F56"/>
						</linearGradient>
						<path class="st6" d="M1881.51,849.05l127.38-67.13c-52.24-78.48-122.3-145.62-204.84-195.64l-74.43,121.83
							C1790.14,744.32,1841.97,792.55,1881.51,849.05z"/>
						<linearGradient id="SVGID_5_" gradientUnits="userSpaceOnUse" x1="1041.3219" y1="418.3546" x2="1321.7626" y2="1843.5453">
							<stop  offset="0" style="stop-color:#FFC444"/>
							<stop  offset="0.9964" style="stop-color:#F36F56"/>
						</linearGradient>
						<path class="st7" d="M1088.27,820.58c42.01-55.17,96.66-100.48,159.87-132.41l-77.84-131.35
							c-87.44,43.64-162.61,106.79-219.24,184.02L1088.27,820.58z"/>
						<linearGradient id="SVGID_6_" gradientUnits="userSpaceOnUse" x1="789.3118" y1="440.6259" x2="1079.5629" y2="1915.6733">
							<stop  offset="0" style="stop-color:#FFC444"/>
							<stop  offset="0.9964" style="stop-color:#F36F56"/>
						</linearGradient>
						<path class="st8" d="M997.83,1088.45c0-5.59,0.24-11.12,0.45-16.67l-159.33-4.12c-0.16,5.57-0.24,11.16-0.24,16.78
							c0,99.44,24.8,193.88,68.75,277.93l137.64-72.54C1014.86,1228.44,997.83,1160.16,997.83,1088.45z"/>
						<linearGradient id="SVGID_7_" gradientUnits="userSpaceOnUse" x1="1839.7734" y1="304.9963" x2="2116.9792" y2="1713.7478">
							<stop  offset="0" style="stop-color:#FFC444"/>
							<stop  offset="0.9964" style="stop-color:#F36F56"/>
						</linearGradient>
						<path class="st9" d="M1965.78,1112.85c0,68.98-15.77,134.02-43.89,192.16l126.93,73.76c39.96-78.84,62.4-167.77,62.4-262.25
							c0-5.33-0.08-10.65-0.22-15.95l-145.63-3.77C1965.55,1102.13,1965.78,1107.47,1965.78,1112.85z"/>
						<linearGradient id="SVGID_8_" gradientUnits="userSpaceOnUse" x1="1678.3058" y1="340.3168" x2="1953.9526" y2="1741.1455">
							<stop  offset="0" style="stop-color:#FFC444"/>
							<stop  offset="0.9964" style="stop-color:#F36F56"/>
						</linearGradient>
						<path class="st10" d="M1909.38,1329.14c-36.6,65.1-89.45,120.42-153.51,161.12l74.34,125.61
							c85.97-53.45,156.81-126.82,205.82-213.29L1909.38,1329.14z"/>
						<linearGradient id="SVGID_9_" gradientUnits="userSpaceOnUse" x1="1873.3707" y1="301.356" x2="2151.0403" y2="1712.465">
							<stop  offset="0" style="stop-color:#FFC444"/>
							<stop  offset="0.9964" style="stop-color:#F36F56"/>
						</linearGradient>
						<path class="st11" d="M1896.91,872.34c36.41,59.07,59.9,126.09,66.72,197.28l145.99,3.94
							c-6.99-96.72-37.4-187.95-85.87-268.23L1896.91,872.34z"/>
						<linearGradient id="SVGID_10_" gradientUnits="userSpaceOnUse" x1="1087.537" y1="402.6087" x2="1373.7318" y2="1857.0424">
							<stop  offset="0" style="stop-color:#FFC444"/>
							<stop  offset="0.9964" style="stop-color:#F36F56"/>
						</linearGradient>
						<path class="st12" d="M1476.79,1564.71c-83.56-2.9-162.31-26.04-230.99-64.66l-77.84,127.41
							c91.92,51,197.3,80.97,308.82,83.43V1564.71z"/>
						<linearGradient id="SVGID_11_" gradientUnits="userSpaceOnUse" x1="1403.3204" y1="386.6595" x2="1680.2524" y2="1794.0199">
							<stop  offset="0" style="stop-color:#FFC444"/>
							<stop  offset="0.9964" style="stop-color:#F36F56"/>
						</linearGradient>
						<path class="st13" d="M1731.87,1504.46c-66.41,36.87-143.44,58.65-226.26,60.44v146c110.28-2.28,212.7-31.54,300.66-80.89
							L1731.87,1504.46z"/>
						<linearGradient id="SVGID_12_" gradientUnits="userSpaceOnUse" x1="1308.9626" y1="377.3792" x2="1585.5167" y2="1782.8188">
							<stop  offset="0" style="stop-color:#FFC444"/>
							<stop  offset="0.9964" style="stop-color:#F36F56"/>
						</linearGradient>
						<path class="st14" d="M1274.01,676.04c61.73-26.66,130.46-40.84,202.79-39.71V490.16c-100.25-2.84-195.53,16.79-280.55,54.47
							L1274.01,676.04z"/>
						<linearGradient id="SVGID_13_" gradientUnits="userSpaceOnUse" x1="856.3631" y1="434.3101" x2="1146.3091" y2="1907.8069">
							<stop  offset="0" style="stop-color:#FFC444"/>
							<stop  offset="0.9964" style="stop-color:#F36F56"/>
						</linearGradient>
						<path class="st15" d="M1000.15,1043.63c7.37-73.56,32.67-141.56,71.69-200.13l-136.98-79.43
							c-53.11,80.27-86.66,173.94-94.39,275.25L1000.15,1043.63z"/>
						<linearGradient id="SVGID_14_" gradientUnits="userSpaceOnUse" x1="1587.1512" y1="323.6337" x2="1879.7754" y2="1810.741">
							<stop  offset="0" style="stop-color:#FFC444"/>
							<stop  offset="0.9964" style="stop-color:#F36F56"/>
						</linearGradient>
						<path class="st16" d="M1505.61,637.6c71.75,5.17,139.16,25.1,199.08,56.49l74.66-122.05
							c-81.67-44.82-174.53-73.39-273.74-80.44V637.6z"/>
					</g>
				</g>
			</g>
			<linearGradient id="SVGID_15_" gradientUnits="userSpaceOnUse" x1="685.4439" y1="1179.8339" x2="578.7416" y2="1800.0391">
				<stop  offset="0" style="stop-color:#FFC444"/>
				<stop  offset="0.9964" style="stop-color:#F36F56"/>
			</linearGradient>
			<path class="st17" d="M828.86,1336.36l-19.92,0.16c-1.6-8.67-3.94-17.09-7.03-25.16l17.28-9.73c4.72-2.66,6.33-8.48,3.61-13
				l-17.04-28.33c-2.73-4.53-8.77-6.06-13.49-3.41l-17.49,9.81c-5.83-6.61-12.24-12.74-19.18-18.28l10.14-16.93
				c2.73-4.56,1.11-10.38-3.63-12.99l-29.67-16.36c-4.75-2.62-10.83-1.04-13.57,3.53l-10.19,16.97c-8.44-2.91-17.23-5.1-26.28-6.59
				v-19.65c0-5.28-4.46-9.54-9.98-9.53l-34.51,0.08c-5.53,0.01-10.01,4.31-10.01,9.6v19.7c-9.1,1.55-17.95,3.82-26.45,6.79
				l-10.29-16.98c-2.77-4.58-8.92-6.13-13.73-3.47l-30.11,16.67c-4.82,2.67-6.47,8.55-3.69,13.14l10.31,16.98
				c-7.06,5.66-13.58,11.91-19.52,18.64l-17.86-9.72c-4.83-2.63-11.02-1.03-13.81,3.59l-17.48,28.89c-2.8,4.62-1.14,10.5,3.71,13.13
				l17.72,9.6c-3.16,8.22-5.56,16.78-7.2,25.58l-20.46,0.17c-5.6,0.05-10.14,4.4-10.14,9.72v33.28c0,5.32,4.54,9.59,10.14,9.53
				l20.29-0.21c1.6,8.82,3.97,17.38,7.1,25.59l-17.45,9.78c-4.84,2.72-6.5,8.63-3.71,13.2l17.48,28.57
				c2.79,4.57,8.98,6.06,13.81,3.34l17.33-9.76c5.98,6.74,12.57,12.95,19.7,18.57l-9.97,16.59c-2.78,4.64-1.13,10.49,3.69,13.07
				l30.11,16.11c4.81,2.57,10.95,0.9,13.73-3.73l9.85-16.45c8.64,2.89,17.63,5.03,26.89,6.44v18.84c0,5.29,4.48,9.5,10.01,9.41
				l34.51-0.56c5.51-0.09,9.98-4.44,9.98-9.72v-18.79c9.21-1.68,18.15-4.09,26.71-7.22l9.76,16.07c2.75,4.52,8.82,5.99,13.57,3.28
				l29.67-16.91c4.74-2.7,6.36-8.55,3.63-13.06l-9.8-16.17c7.01-5.77,13.49-12.1,19.35-18.93l16.98,9.2
				c4.73,2.56,10.77,0.92,13.49-3.66l17.04-28.64c2.72-4.58,1.11-10.37-3.61-12.94l-17.02-9.27c3.06-8.18,5.37-16.69,6.93-25.44
				l19.76-0.2c5.44-0.06,9.85-4.35,9.85-9.6v-32.79C838.71,1340.53,834.3,1336.32,828.86,1336.36z M655.17,1267.72
				c55.61-0.3,100.5,42.52,100.5,95.65c0,53.13-44.9,96.78-100.5,97.52c-55.86,0.73-101.32-42.08-101.32-95.64
				C553.85,1311.69,599.31,1268.02,655.17,1267.72z"/>
		</g>
		<g>
			<g class="st18">
				<g>
					<linearGradient id="SVGID_16_" gradientUnits="userSpaceOnUse" x1="2154.0098" y1="991.6627" x2="3139.9294" y2="991.6627">
						<stop  offset="0" style="stop-color:#311944"/>
						<stop  offset="1" style="stop-color:#A03976"/>
					</linearGradient>
					<path class="st19" d="M2699.94,698.21c109.8,5.75,202.65,104.05,207.36,219.52c0.45,10.98,0.1,21.75-1.06,32.21
						c19.04-7.46,40.12-11.05,62.43-9.88c90.62,4.75,167.22,85.84,171.11,181.14c3.7,90.6-59.58,161.38-143.64,164.12
						c-4.41,0.12-8.88,0.1-13.39-0.13l-751.06-41.9c-42.32-10.33-75.69-50.66-77.59-97.14c-2.14-52.37,36.53-92.74,86.38-90.13
						c10.53,0.55,20.76,2.97,30.3,6.98c-4.34-16.41-6.99-33.38-7.7-50.73c-4.87-119.38,83.18-211.35,196.7-205.4
						c21.1,1.11,41.58,5.56,61.01,12.76C2547.06,744.3,2616.34,693.82,2699.94,698.21z"/>
				</g>
				<g>
					<linearGradient id="SVGID_17_" gradientUnits="userSpaceOnUse" x1="2204.1023" y1="953.646" x2="3190.022" y2="953.646">
						<stop  offset="0" style="stop-color:#FF9085"/>
						<stop  offset="1" style="stop-color:#FB6FBB"/>
					</linearGradient>
					<path class="st20" d="M2750.03,660.19c109.8,5.75,202.65,104.05,207.36,219.52c0.45,10.98,0.1,21.75-1.06,32.21
						c19.04-7.46,40.12-11.05,62.43-9.88c90.62,4.75,167.22,85.84,171.11,181.14c3.7,90.6-59.58,161.38-143.64,164.12
						c-4.41,0.12-8.88,0.1-13.39-0.13l-751.06-41.9c-42.32-10.33-75.69-50.66-77.59-97.14c-2.14-52.37,36.53-92.74,86.38-90.13
						c10.53,0.55,20.76,2.97,30.3,6.98c-4.34-16.41-6.99-33.38-7.7-50.73c-4.87-119.38,83.18-211.35,196.7-205.4
						c21.1,1.11,41.58,5.56,61.01,12.76C2597.16,706.28,2666.43,655.81,2750.03,660.19z"/>
				</g>
			</g>
		</g>
		<g>
			<g>
				<path class="st21" d="M2513.04,1324.06c-11.08,0-20.05-8.98-20.05-20.05v-62.67c0-11.08,8.98-20.05,20.05-20.05
					s20.05,8.98,20.05,20.05V1304C2533.09,1315.08,2524.11,1324.06,2513.04,1324.06z"/>
				<path class="st21" d="M2513.04,1516.74c-11.08,0-20.05-8.98-20.05-20.05v-96.34c0-11.08,8.98-20.05,20.05-20.05
					s20.05,8.98,20.05,20.05v96.34C2533.09,1507.76,2524.11,1516.74,2513.04,1516.74z"/>
				<path class="st21" d="M2513.04,1675.75c-11.08,0-20.05-8.98-20.05-20.05v-62.67c0-11.08,8.98-20.05,20.05-20.05
					s20.05,8.98,20.05,20.05v62.67C2533.09,1666.78,2524.11,1675.75,2513.04,1675.75z"/>
			</g>
		</g>
		<g>
			<g>
				<path class="st21" d="M1383.32,1566.49c-11.08,0-20.05-8.98-20.05-20.05v-62.67c0-11.08,8.98-20.05,20.05-20.05
					c11.08,0,20.05,8.98,20.05,20.05v62.67C1403.38,1557.51,1394.4,1566.49,1383.32,1566.49z"/>
				<path class="st21" d="M1383.32,1759.17c-11.08,0-20.05-8.98-20.05-20.05v-96.34c0-11.08,8.98-20.05,20.05-20.05
					c11.08,0,20.05,8.98,20.05,20.05v96.34C1403.38,1750.19,1394.4,1759.17,1383.32,1759.17z"/>
				<path class="st21" d="M1383.32,1918.18c-11.08,0-20.05-8.98-20.05-20.05v-62.67c0-11.08,8.98-20.05,20.05-20.05
					c11.08,0,20.05,8.98,20.05,20.05v62.67C1403.38,1909.21,1394.4,1918.18,1383.32,1918.18z"/>
			</g>
		</g>
		<g>
			<g>
				<path class="st21" d="M1965.77,1237.91c-11.08,0-20.05-8.98-20.05-20.05v-62.67c0-11.08,8.98-20.05,20.05-20.05
					c11.08,0,20.05,8.98,20.05,20.05v62.67C1985.83,1228.94,1976.85,1237.91,1965.77,1237.91z"/>
				<path class="st21" d="M1965.77,1430.6c-11.08,0-20.05-8.98-20.05-20.05v-96.34c0-11.08,8.98-20.05,20.05-20.05
					c11.08,0,20.05,8.98,20.05,20.05v96.34C1985.83,1421.62,1976.85,1430.6,1965.77,1430.6z"/>
				<path class="st21" d="M1965.77,1589.61c-11.08,0-20.05-8.98-20.05-20.05v-62.67c0-11.08,8.98-20.05,20.05-20.05
					c11.08,0,20.05,8.98,20.05,20.05v62.67C1985.83,1580.63,1976.85,1589.61,1965.77,1589.61z"/>
			</g>
		</g>
		<g>
			<g>
				<path class="st21" d="M962.76,1922.45c-11.08,0-20.05-8.98-20.05-20.05v-62.67c0-11.08,8.98-20.05,20.05-20.05
					s20.05,8.98,20.05,20.05v62.67C982.81,1913.47,973.83,1922.45,962.76,1922.45z"/>
				<path class="st21" d="M962.76,2115.13c-11.08,0-20.05-8.98-20.05-20.05v-96.34c0-11.08,8.98-20.05,20.05-20.05
					s20.05,8.98,20.05,20.05v96.34C982.81,2106.16,973.83,2115.13,962.76,2115.13z"/>
				<path class="st21" d="M962.76,2274.15c-11.08,0-20.05-8.98-20.05-20.05v-62.67c0-11.08,8.98-20.05,20.05-20.05
					s20.05,8.98,20.05,20.05v62.67C982.81,2265.17,973.83,2274.15,962.76,2274.15z"/>
			</g>
		</g>
		<g>
			<path class="st22" d="M2488.42,2956.71l-1715.6-14.62v43.27c0,11.74,7.48,21.73,17.62,23.51l485.12,85.2
				c5.76,1.01,11.6,1.28,17.41,0.8l1176.82-97.15c10.51-0.87,18.64-10.88,18.64-22.95V2956.71z"/>
			<g>
				<path class="st22" d="M1865.84,2887.37l-1075.28,79.16c-19.24,1.42-34.89-13.63-34.89-33.62v-800.73
					c0-19.99,15.64-36.19,34.89-36.19h1075.28c15.85,0,28.67,14.65,28.67,32.71v723.84
					C1894.51,2870.62,1881.69,2886.21,1865.84,2887.37z"/>
				<linearGradient id="SVGID_18_" gradientUnits="userSpaceOnUse" x1="772.8186" y1="2531.3071" x2="1911.6506" y2="2531.3071">
					<stop  offset="0" style="stop-color:#444B8C"/>
					<stop  offset="0.9964" style="stop-color:#26264F"/>
				</linearGradient>
				<path class="st23" d="M1882.98,2887.37L807.7,2966.53c-19.24,1.42-34.89-13.63-34.89-33.62v-800.73
					c0-19.99,15.64-36.19,34.89-36.19h1075.28c15.85,0,28.67,14.65,28.67,32.71v723.84
					C1911.65,2870.62,1898.83,2886.21,1882.98,2887.37z"/>
				<path class="st24" d="M1849.48,2836.34L847.98,2905.1c-15.66,1.07-28.38-11.28-28.38-27.59v-701.04
					c0-16.32,12.72-29.6,28.38-29.67l1001.51-4.32c13.08-0.06,23.65,11.95,23.65,26.81v638.52
					C1873.14,2822.67,1862.56,2835.44,1849.48,2836.34z"/>
				<path class="st24" d="M1383.32,2117.89c0,7.44-5.53,13.49-12.37,13.51c-6.84,0.02-12.4-6.01-12.4-13.46
					c0-7.46,5.55-13.51,12.4-13.51C1377.78,2104.43,1383.32,2110.45,1383.32,2117.89z"/>
			</g>
			<linearGradient id="SVGID_19_" gradientUnits="userSpaceOnUse" x1="772.8186" y1="2969.1914" x2="2488.4226" y2="2969.1914">
				<stop  offset="0" style="stop-color:#444B8C"/>
				<stop  offset="0.9964" style="stop-color:#26264F"/>
			</linearGradient>
			<path class="st25" d="M1925.84,2882.98L772.82,2966.3l502.74,88.3c5.76,1.01,11.6,1.28,17.41,0.8l1195.46-98.69l-544.24-73.16
				C1938.09,2882.73,1931.96,2882.54,1925.84,2882.98z"/>
			<polygon class="st22" points="941.06,2967.02 1900.99,2896.62 2198.07,2936.24 1246.42,3011.49 			"/>
			<g>
				<path class="st26" d="M1252.08,2876.18l-408.56,27.49c-11.99,0.81-22.15-8.7-22.15-20.71v-715.55
					c0-11.43,9.24-20.71,20.68-20.76l410.04-1.66V2876.18z"/>
				<polygon class="st26" points="1779.69,2485.98 1349.23,2501.11 1349.23,2457.58 1779.69,2444.09 				"/>
				<polygon class="st26" points="1779.69,2554.61 1349.23,2572.41 1349.23,2528.89 1779.69,2512.72 				"/>
				<polygon class="st24" points="1209.94,2493.8 962.76,2502.23 962.76,2469.69 1209.94,2461.95 				"/>
				<polygon class="st24" points="1209.94,2545.98 962.76,2555.52 962.76,2522.99 1209.94,2514.13 				"/>
				<polygon class="st24" points="1209.94,2598.16 962.76,2608.81 962.76,2576.28 1209.94,2566.31 				"/>
				<polygon class="st24" points="1209.94,2650.35 962.76,2662.11 962.76,2629.58 1209.94,2618.49 				"/>
				<polygon class="st26" points="1539.45,2634.67 1349.23,2643.72 1349.23,2600.19 1539.45,2591.86 				"/>
				<g>
					<path class="st26" d="M1508.82,2293.6v65.38c0,18.9,15.9,33.81,35.46,33.3l48.49-1.27c19.32-0.5,34.94-16.08,34.94-34.78
						v-64.69L1508.82,2293.6z M1553.48,2361.19l9.01-27.31c-3.86-1.99-6.48-5.92-6.48-10.49c0-6.71,5.63-12.26,12.56-12.39
						c6.93-0.13,12.53,5.19,12.53,11.89c0,4.56-2.61,8.59-6.46,10.74l8.98,26.86L1553.48,2361.19z"/>
					<path class="st26" d="M1613.93,2285.88c-5.14,0.09-9.32-3.9-9.32-8.89c0-19.22-16.13-34.65-36.03-34.39
						c-19.97,0.26-36.26,16.2-36.26,35.54c0,5.03-4.23,9.18-9.45,9.27c-5.23,0.09-9.47-3.93-9.47-8.97c0-29.44,24.82-53.66,55.19-54
						c30.2-0.34,54.65,23.1,54.65,52.25C1623.23,2281.68,1619.06,2285.8,1613.93,2285.88z"/>
				</g>
			</g>
			<path class="st27" d="M807.7,2966.53l1069.84-78.75l5.44-0.4c7.27-0.54,13.89-4.13,18.94-9.58
				c-76.99-4.21-124.8-31.53-155.65-59.76c-61.95-56.69-51.2-112.6-118-149.87c-83.32-46.49-148.83,12.42-212.06-45.71
				c-38.33-35.24-19.51-61.52-66.68-114.18c-52.24-58.33-86.25-38.72-138.75-91.21c-66.38-66.37-33.18-118.01-90.36-165.67
				c-69.37-57.81-144.18-4.3-210.21-59.75c-28.48-23.91-44.11-58.68-52.27-95.65h-50.24c-19.24,0-34.89,16.2-34.89,36.19v800.73
				C772.82,2952.89,788.46,2967.94,807.7,2966.53z"/>
		</g>
		<g>
			<linearGradient id="SVGID_20_" gradientUnits="userSpaceOnUse" x1="2759.1587" y1="1422.1974" x2="2417.3301" y2="1750.7515">
				<stop  offset="0" style="stop-color:#FF9085"/>
				<stop  offset="1" style="stop-color:#FB6FBB"/>
			</linearGradient>
			<path class="st28" d="M2077.1,2958.49c-30.15,0.87-59.57-6.73-85.04-21.99c-77.62-46.53-192.31-123.37-295.5-223.95
				c-130.93-127.64-206.16-257.38-222.62-384.78l-0.26-2l-3.19-543.62c0-107.44,70.08-194.65,201.64-251.95
				c108.7-47.34,252.77-70.8,404.97-66.4c150.43,4.35,289.63,35.39,392.66,87.11c122.47,61.48,186.73,147.88,186.73,250.31
				l-2.91,519.44l-0.24,1.91c-15.04,122-84.26,248.11-206.59,375.63c-98.12,102.28-209.01,183.34-285.16,233.56
				C2136.4,2948.36,2107.19,2957.62,2077.1,2958.49z"/>
			<linearGradient id="SVGID_21_" gradientUnits="userSpaceOnUse" x1="1826.9082" y1="2503.6777" x2="1242.9069" y2="3477.0117">
				<stop  offset="0" style="stop-color:#FF9085"/>
				<stop  offset="1" style="stop-color:#FB6FBB"/>
			</linearGradient>
			<path class="st29" d="M2106.96,2958.49c-29.76,0.87-58.78-6.73-83.92-21.99c-76.59-46.53-189.77-123.37-291.59-223.95
				c-129.2-127.64-203.43-257.38-219.68-384.78l-0.26-2l-3.15-543.62c0-107.44,69.15-194.65,198.97-251.95
				c107.26-47.34,249.43-70.8,399.62-66.4c148.44,4.35,285.8,35.39,387.47,87.11c120.86,61.48,184.27,147.88,184.27,250.31
				l-2.88,519.44l-0.23,1.91c-14.84,122-83.14,248.11-203.86,375.63c-96.83,102.28-206.24,183.34-281.39,233.56
				C2165.47,2948.36,2136.65,2957.62,2106.96,2958.49z"/>
			<linearGradient id="SVGID_22_" gradientUnits="userSpaceOnUse" x1="2359.3301" y1="2579.1086" x2="1415.6511" y2="681.5652">
				<stop  offset="0" style="stop-color:#FF9085"/>
				<stop  offset="1" style="stop-color:#FB6FBB"/>
			</linearGradient>
			<path class="st30" d="M1544.26,1782.53l3.17,540.88c35.6,275.97,359.93,499.4,501.19,584.29c40.47,24.32,92.2,22.88,132.38-3.56
				c138.31-91.01,444.87-320.12,477.62-585.46l2.91-518C2661.53,1416.36,1544.26,1381.22,1544.26,1782.53z"/>
			<linearGradient id="SVGID_23_" gradientUnits="userSpaceOnUse" x1="1651.3511" y1="2210.9885" x2="2562.5229" y2="2210.9885">
				<stop  offset="0" style="stop-color:#311944"/>
				<stop  offset="1" style="stop-color:#893976"/>
			</linearGradient>
			<path class="st31" d="M2114.97,2824.33c-2.59,0.06-6.51-0.37-10.47-2.77c-58.16-35.22-170.91-108.99-268.99-205.34
				c-105.94-104.07-167.05-205.25-181.06-300.28l-3.11-531.92c0.13-51.04,40.53-94.72,119.72-129.67
				c88.41-39.02,213.96-59.49,343.9-56.41c128.64,3.05,250.53,28.95,334.97,70.85c74.69,37.06,112.46,80.76,112.58,130.03
				l-2.9,513.5c-13.08,91.96-70.43,191.09-171.12,295.3c-94.68,97.98-205.27,175.66-263.08,213.43
				C2121.48,2823.65,2117.56,2824.27,2114.97,2824.33z"/>
			<path class="st1" d="M2101.7,2787.97c-58.74-36.18-163.18-106.03-254.31-195.71c-99.56-97.99-157.18-192.01-170.72-279.02
				l-3.08-528.83c0.09-36.49,33.63-69.96,99.44-99.1c83.75-37.08,203.74-56.62,328.67-53.82c123.73,2.78,240.36,27.22,320.51,66.87
				c62.27,30.81,93.78,64.42,93.86,100.01l-2.89,511.62c-12.71,84.41-67.05,176.73-162.09,274.91
				C2262.86,2676.05,2160.17,2749.34,2101.7,2787.97z"/>
			<g>
				<linearGradient id="SVGID_24_" gradientUnits="userSpaceOnUse" x1="2397.1638" y1="1740.8813" x2="2022.4143" y2="2433.5991">
					<stop  offset="3.597120e-03" style="stop-color:#E38DDD"/>
					<stop  offset="1" style="stop-color:#9571F6"/>
				</linearGradient>
				<path class="st32" d="M2311.87,2095.58l-395.52,3.52c-30.41,0.27-55.18,23.97-55.18,52.93v253.42
					c0,28.78,24.68,51.09,54.97,49.85l394.13-16.14c28.03-1.15,50.77-24.35,50.91-51.85l1.25-242.09
					C2362.57,2117.56,2340,2095.33,2311.87,2095.58z"/>
				<linearGradient id="SVGID_25_" gradientUnits="userSpaceOnUse" x1="2065.9055" y1="2287.9385" x2="2168.2239" y2="2287.9385">
					<stop  offset="0" style="stop-color:#311944"/>
					<stop  offset="1" style="stop-color:#893976"/>
				</linearGradient>
				<path class="st33" d="M2168.22,2240.9c0.09-27.99-23.93-50.11-53.27-48.26c-25.97,1.64-47.51,22.61-48.97,47.78
					c-1.13,19.52,9.43,36.44,25.5,45.02c6.83,3.65,10.21,11.3,8.86,18.85l-11.43,64.02c-1.45,8.15,5,15.32,13.52,15.02l28.93-1.02
					c8.46-0.3,14.89-7.88,13.5-15.89l-11.06-63.41c-1.32-7.57,2.58-15.08,9.44-19.2C2158.16,2274.85,2168.17,2258.89,2168.22,2240.9
					z"/>
				<linearGradient id="SVGID_26_" gradientUnits="userSpaceOnUse" x1="2288.8787" y1="1682.3009" x2="1914.1294" y2="2375.0183">
					<stop  offset="3.597120e-03" style="stop-color:#E38DDD"/>
					<stop  offset="1" style="stop-color:#9571F6"/>
				</linearGradient>
				<path class="st34" d="M2306.31,2070.45c-11.88,0.08-21.48-9.36-21.43-21.08l0.24-55.2c0.24-55.44-45.59-101.05-102.72-101.62
					l-129.1-1.28c-59.12-0.59-107.73,45.51-107.78,102.71l-0.05,56.95c-0.01,12.09-10.3,21.96-23.02,22.04
					c-12.74,0.08-23.09-9.69-23.09-21.83l0.02-57.18c0.03-81.74,69.65-147.39,154-146.21l129.16,1.8
					c81.14,1.13,145.95,66.07,145.57,144.66l-0.26,54.98C2327.8,2060.85,2318.16,2070.37,2306.31,2070.45z"/>
			</g>
		</g>
		<g>
			<g>
				
					<linearGradient id="SVGID_27_" gradientUnits="userSpaceOnUse" x1="1854.2871" y1="1799.6434" x2="2017.2815" y2="2004.7111" gradientTransform="matrix(1 0 0 1 365.4937 0)">
					<stop  offset="0" style="stop-color:#FFC444"/>
					<stop  offset="0.9964" style="stop-color:#F36F56"/>
				</linearGradient>
				<path class="st35" d="M2342.22,1907.58l-31.01-33.84c-5.75-6.79-14.73-15.89-27.58-23.78c-24.95-15.3-59.28-22.8-64.42-14.07
					c-5.83,9.91,26.78,39.28,37.88,48.96c15.33,11.14,30.67,22.28,46,33.41L2342.22,1907.58z"/>
				<linearGradient id="SVGID_28_" gradientUnits="userSpaceOnUse" x1="2211.9456" y1="2214.5278" x2="6613.9341" y2="495.8476">
					<stop  offset="0" style="stop-color:#FFC444"/>
					<stop  offset="0.9964" style="stop-color:#F36F56"/>
				</linearGradient>
				<path class="st36" d="M3004.66,1677.6c8.42,3.18,136.87,54.27,163.27,188.33c2.13,10.83,22.77,126.01-55.34,207.38
					c-87.59,91.24-256.25,88.98-323.19,12.7c-15.61-17.79-23.85-37.5-28.46-54.07l0,0l17.64-46.86c21.52-25.98,50.83-32.14,66.48-36
					c38.58-9.51,67.71,7.68,89.81-10.93c12.23-10.29,14.66-25.11,16.83-38.35c7.39-45.08-18.05-72.83-19.91-100.63
					c-1.38-20.78-8.66-66.32,18.47-96.01C2967.43,1684.36,2991.22,1679.24,3004.66,1677.6z"/>
				
					<linearGradient id="SVGID_29_" gradientUnits="userSpaceOnUse" x1="2338.0867" y1="3300.5972" x2="2390.7322" y2="3347.4255" gradientTransform="matrix(0.9902 -0.14 0.14 0.9902 262.6509 206.9384)">
					<stop  offset="0" style="stop-color:#444B8C"/>
					<stop  offset="0.9964" style="stop-color:#26264F"/>
				</linearGradient>
				<path class="st37" d="M3054.71,3171.68c1.5-8.25,28.15-15.72,41.35-4.67c6.55,5.49,11.07,16.62,7.27,21.64
					c-1.38,1.83,4.27,5.04-1.14,5.11C3084.24,3193.96,3053.22,3179.88,3054.71,3171.68z"/>
				
					<linearGradient id="SVGID_30_" gradientUnits="userSpaceOnUse" x1="1463.5334" y1="3347.498" x2="1463.5334" y2="3255.7856" gradientTransform="matrix(0.9902 -0.14 0.14 0.9902 1178.8521 77.4224)">
					<stop  offset="0" style="stop-color:#FFC444"/>
					<stop  offset="0.9964" style="stop-color:#F36F56"/>
				</linearGradient>
				<path class="st38" d="M3082.65,3174.68l27.41-3.87c-12.7-15.29-10.35-63.98-10.35-63.98l-29.15,6.51c0,0,3.32,13.36,8.97,33.08
					C3081.47,3153.16,3082.33,3163.72,3082.65,3174.68z"/>
				
					<linearGradient id="SVGID_31_" gradientUnits="userSpaceOnUse" x1="2343.3796" y1="3294.6477" x2="2396.0251" y2="3341.4761" gradientTransform="matrix(0.9902 -0.14 0.14 0.9902 262.6509 206.9384)">
					<stop  offset="0" style="stop-color:#444B8C"/>
					<stop  offset="0.9964" style="stop-color:#26264F"/>
				</linearGradient>
				<path class="st39" d="M3080.22,3171.3c0,0,33-7.6,36.57-1.06c3.57,6.55,6.34,24.07-14.6,23.51
					C3081.25,3193.19,3078.36,3176.85,3080.22,3171.3z"/>
				
					<linearGradient id="SVGID_32_" gradientUnits="userSpaceOnUse" x1="2301.7876" y1="3176.9668" x2="2354.4355" y2="3223.7974" gradientTransform="matrix(1 0 0 1 365.4937 0)">
					<stop  offset="0" style="stop-color:#444B8C"/>
					<stop  offset="0.9964" style="stop-color:#26264F"/>
				</linearGradient>
				<path class="st40" d="M2678.6,3202.62c2.64-7.96,30.07-11.63,41.6,1.16c5.72,6.35,8.63,18,4.17,22.44
					c-1.62,1.62,3.52,5.59-1.85,4.9C2704.72,3228.82,2675.98,3210.54,2678.6,3202.62z"/>
				
					<linearGradient id="SVGID_33_" gradientUnits="userSpaceOnUse" x1="1427.1909" y1="3223.8901" x2="1427.1909" y2="3132.1733" gradientTransform="matrix(1 0 0 1 1290.804 0)">
					<stop  offset="0" style="stop-color:#FFC444"/>
					<stop  offset="0.9964" style="stop-color:#F36F56"/>
				</linearGradient>
				<path class="st41" d="M2705.84,3209.51h27.68c-10.43-16.92-1.29-64.8-1.29-64.8l-29.77,2.36c0,0,1.42,13.7,4.25,34.01
					C2707.69,3188.03,2707.06,3198.61,2705.84,3209.51z"/>
				<linearGradient id="SVGID_34_" gradientUnits="userSpaceOnUse" x1="2907.8408" y1="3246.7424" x2="2785.5691" y2="2390.8401">
					<stop  offset="3.597120e-03" style="stop-color:#E38DDD"/>
					<stop  offset="1" style="stop-color:#9571F6"/>
				</linearGradient>
				<path class="st42" d="M2634.1,2162.64c-12.82,42.35-31.14,110.7-42.93,196.45c-33.63,244.6,37.84,252.4,24.5,523.45
					c-4.26,86.52,74.95,286.02,81.94,290.43c3.38,0.33,7.05,0.55,10.96,0.43c6.89-0.21,16.6-1.26,27.9-4.65
					c12.55-2.16,57.79-124.7,47.3-197.56c-7.42-51.57-5.27-106.91-0.97-217.59c0.7-17.93,46.58-348.92,46.58-348.92l0,0
					c13.96,122.51,30.01,226.61,43.93,307.31c44.71,259.3,190.08,416.24,197.66,418.76c1.5,0.6,15.14,5.56,26.29-1.79
					c4.96-3.27,6.65-7.49,6.65-7.49c3.89-3.05-1.15-258.88-45.49-451.42c-64.36-279.46-36.33-344.85-56.72-469.68
					C2984.06,2092.36,2634.1,2162.64,2634.1,2162.64z"/>
				<linearGradient id="SVGID_35_" gradientUnits="userSpaceOnUse" x1="2203.9946" y1="2194.1599" x2="6606.0039" y2="475.4714">
					<stop  offset="0" style="stop-color:#FFC444"/>
					<stop  offset="0.9964" style="stop-color:#F36F56"/>
				</linearGradient>
				<path class="st43" d="M2894.06,1655.78c-42.73-1.26-140.94-16.34-195.04,32.34c-0.94,0.84,10.14,6.77,4.68,13.16
					c-5.07,5.94-22.44,26.71-38.19,54.8c-11.41,20.34-21.71,44.06-32.1,79.4c-18.33,62.33-23.58,115.41-25.34,138.53
					c-9.89,130.05-0.08,190.04,8.81,230.85c38.63,19.84,138.18,55.35,256.8,37.71c54.17-8.06,97.52-26.08,128.02-42.17
					c-30.78-93.19-6.63-143.06,4.76-189.02c16.24-65.54,16.51-60.58,29.88-112.65c22.07-85.9,25.69-173.68,10.53-191.64
					C3005.98,1658.66,2932.31,1656.91,2894.06,1655.78z"/>
				
					<linearGradient id="SVGID_36_" gradientUnits="userSpaceOnUse" x1="2307.0806" y1="3171.0176" x2="2359.728" y2="3217.8477" gradientTransform="matrix(1 0 0 1 365.4937 0)">
					<stop  offset="0" style="stop-color:#444B8C"/>
					<stop  offset="0.9964" style="stop-color:#26264F"/>
				</linearGradient>
				<path class="st44" d="M2703.91,3205.82c0,0,33.74-2.91,36.36,4.07c2.62,6.98,2.91,24.72-17.74,21.23
					C2701.87,3227.64,2701.29,3211.06,2703.91,3205.82z"/>
				<g>
					
						<linearGradient id="SVGID_37_" gradientUnits="userSpaceOnUse" x1="-712.0821" y1="1679.3906" x2="-602.5947" y2="1465.5476" gradientTransform="matrix(-1 0 0 1 2143.2136 0)">
						<stop  offset="0" style="stop-color:#FFC444"/>
						<stop  offset="0.9964" style="stop-color:#F36F56"/>
					</linearGradient>
					<path class="st45" d="M2773.8,1606.79c-13.23-22.38-7.34-47.94-6.01-53.46c5.57-23.13,7.64-26.63,11.93-31.53l6.07-6.42
						c0,0,0.38-0.28,0.78-0.56c4.22-2.9,19.98-7.62,23.38-7.79c10.87-0.55,32.98,38.43,45.65,98.48c1.03,2.14,2.05,4.31,3.06,6.5
						c6.28,13.63,11.67,27.03,16.3,40.09c73.44,6.21,83.64,14.83,83.97,19.8c0.69,10.48-41.16,22.58-72.63,27.19
						c-68.64,10.05-139.19-8.05-138.87-20.85c0.14-5.57,13.78-12.83,71.97-20.45c-1.36-9.63-2.72-19.26-4.08-28.89
						C2810.57,1627.86,2783.55,1623.28,2773.8,1606.79z"/>
					<linearGradient id="SVGID_38_" gradientUnits="userSpaceOnUse" x1="2825.0144" y1="1463.8116" x2="2837.8911" y2="1910.8257">
						<stop  offset="0" style="stop-color:#AB316D"/>
						<stop  offset="1" style="stop-color:#792D3D"/>
					</linearGradient>
					<path class="st46" d="M2760,1504.24c4.95,18.33,18.82,35.62,24.06,37.6c0.68,0.26,4.55,1.93,8.58,5.49
						c0.55,0.48,1.08,1.08,1.62,1.89c7.1,10.49-7.66,29-2.73,33.23c3.58,3.07,14.73-5.28,17.08-2.44c2.21,2.68-6.48,11.77-3.92,15
						c1.94,2.44,7.65-1.79,12.81,1.36c2.57,1.57,2.42,3.4,6.27,9.27c2.17,3.32,4.92,6.85,6.82,8.72c9.21,9.08,28.22,8.23,30.53,3
						c0.64-1.46-0.45-2.25-0.55-6.54c0,0-0.09-3.98,1.36-8.99c2.07-7.16,9.86-13.97,17.17-22.9c13.54-16.53,15.35-28.03,15.79-31.87
						c0.16-1.37,0.21-2.38,0.25-3.11c0.75-14.69-4.52-34.56-13.86-45.15c-15.64-17.75-36.03-1.91-60.24-17.17
						c-27.93-17.61-23.54-53.03-36.25-53.42C2770.78,1427.76,2750.84,1470.34,2760,1504.24z"/>
					
						<linearGradient id="SVGID_39_" gradientUnits="userSpaceOnUse" x1="2365.5923" y1="1496.9869" x2="2650.7012" y2="1855.6904" gradientTransform="matrix(1 0 0 1 365.4937 0)">
						<stop  offset="0" style="stop-color:#FFC444"/>
						<stop  offset="0.9964" style="stop-color:#F36F56"/>
					</linearGradient>
					<path class="st47" d="M2796.98,1576.38c2.85-7.38,12.3-3.68,14.48,4.3c2.18,7.98-3.35,18.36-11.29,18.78
						C2792.24,1599.89,2793.15,1586.3,2796.98,1576.38z"/>
				</g>
				<path class="st48" d="M2988.09,2141.19c-0.5,0-0.93-0.38-0.99-0.89c-5.1-45.9,4.38-79.14,12.74-108.47
					c2.04-7.16,3.97-13.92,5.65-20.69c9.23-37.25,13.27-51.63,17.55-66.85c2.78-9.89,5.65-20.11,10.1-37.19
					c0.14-0.53,0.67-0.85,1.21-0.71c0.53,0.14,0.85,0.68,0.71,1.21c-4.45,17.1-7.33,27.33-10.11,37.22
					c-4.28,15.21-8.31,29.58-17.54,66.79c-1.69,6.8-3.62,13.58-5.67,20.76c-8.31,29.15-17.74,62.2-12.68,107.71
					c0.06,0.55-0.33,1.04-0.88,1.1C2988.17,2141.19,2988.13,2141.19,2988.09,2141.19z"/>
				<linearGradient id="SVGID_40_" gradientUnits="userSpaceOnUse" x1="2779.6646" y1="1465.1184" x2="2792.541" y2="1912.1311">
					<stop  offset="0" style="stop-color:#AB316D"/>
					<stop  offset="1" style="stop-color:#792D3D"/>
				</linearGradient>
				<path class="st49" d="M2797.07,1562.03l-6.81,16.35c0,0-6.81,19.63-15.81,12.27c-7.35-6.01-8.69-5.48-8.94-5.08
					c-0.05,0.08-0.04,0.17-0.06,0.17c-0.1,0-0.2-3.91-0.27-7.36c-1.71,4.73-3.82,12.22-3.82,21.54c0,9.05,0,18.75,7.09,26.17
					c0.41,0.43,8.13,8.28,18.53,7.91c0,0,4.09-0.15,19.63-7.36c0,0-21.26-8.18-22.35-11.18c-2.96-8.15,7.41-15.75,11.45-35.16
					C2797.26,1572.8,2797.3,1566.38,2797.07,1562.03z"/>
				<linearGradient id="SVGID_41_" gradientUnits="userSpaceOnUse" x1="2156.2849" y1="2071.9619" x2="6558.2905" y2="353.275">
					<stop  offset="0" style="stop-color:#FFC444"/>
					<stop  offset="0.9964" style="stop-color:#F36F56"/>
				</linearGradient>
				<path class="st50" d="M2325.06,1883.4c-15.45,10.81-23.74,25.5-28.04,34.87c11.36,26.66,37.13,76.18,90.46,112.67
					c87.44,59.83,215.66,61.84,304.96-6.39c106.7-81.51,124.52-237.83,79.71-304.77c-5.16-7.71-22.12-33.04-48.45-35.95
					c-16.63-1.84-39.26,5.02-75.02,46.89c-74.51,87.24-48.19,141.71-92.21,167.23C2490.46,1936.23,2392.37,1836.3,2325.06,1883.4z"
					/>
				<path class="st48" d="M2625.42,2061.24c-0.46,0-0.87-0.32-0.97-0.79c-0.12-0.54,0.22-1.07,0.76-1.18
					c1.04-0.23,104.56-24.07,151.18-152.68c0.19-0.52,0.77-0.79,1.27-0.6c0.52,0.19,0.79,0.76,0.6,1.28
					c-24.56,67.75-64.72,105.99-94.08,126.14c-31.85,21.85-58.28,27.75-58.54,27.81
					C2625.56,2061.23,2625.49,2061.24,2625.42,2061.24z"/>
			</g>
		</g>
		<path class="st24" d="M2835.62,970.7l-15.12,0.12c-1.22-6.58-2.99-12.97-5.33-19.09l13.11-7.38c3.58-2.01,4.8-6.43,2.74-9.86
			L2818.09,913c-2.07-3.44-6.65-4.6-10.24-2.59l-13.27,7.44c-4.42-5.02-9.29-9.66-14.55-13.87l7.69-12.84
			c2.07-3.46,0.84-7.88-2.75-9.86l-22.51-12.41c-3.6-1.99-8.22-0.79-10.3,2.68l-7.73,12.88c-6.4-2.2-13.07-3.87-19.94-5v-14.91
			c0-4-3.39-7.24-7.57-7.23l-26.18,0.06c-4.19,0.01-7.59,3.27-7.59,7.28v14.94c-6.9,1.18-13.62,2.9-20.07,5.15l-7.81-12.88
			c-2.1-3.47-6.77-4.65-10.41-2.63l-22.84,12.65c-3.66,2.02-4.91,6.49-2.8,9.97l7.82,12.88c-5.35,4.3-10.31,9.03-14.81,14.14
			l-13.55-7.38c-3.67-2-8.36-0.78-10.48,2.72l-13.26,21.92c-2.12,3.51-0.86,7.97,2.81,9.96l13.44,7.29
			c-2.4,6.23-4.22,12.73-5.46,19.41l-15.52,0.13c-4.25,0.03-7.69,3.34-7.69,7.37v25.25c0,4.04,3.44,7.27,7.69,7.23l15.4-0.16
			c1.21,6.69,3.01,13.19,5.39,19.42l-13.24,7.42c-3.68,2.06-4.93,6.54-2.81,10.01l13.26,21.67c2.12,3.46,6.81,4.6,10.48,2.53
			l13.15-7.4c4.54,5.11,9.54,9.82,14.95,14.09l-7.56,12.59c-2.11,3.52-0.86,7.96,2.8,9.91l22.84,12.23
			c3.65,1.95,8.31,0.69,10.41-2.83l7.48-12.48c6.55,2.19,13.38,3.82,20.4,4.88v14.29c0,4.01,3.4,7.21,7.59,7.14l26.18-0.43
			c4.18-0.07,7.57-3.37,7.57-7.37v-14.26c6.99-1.28,13.77-3.1,20.27-5.48l7.41,12.19c2.08,3.43,6.69,4.54,10.3,2.49l22.51-12.83
			c3.59-2.05,4.83-6.48,2.75-9.91l-7.43-12.27c5.32-4.37,10.23-9.18,14.68-14.36l12.88,6.98c3.59,1.94,8.17,0.7,10.24-2.78
			l12.93-21.73c2.07-3.47,0.84-7.86-2.74-9.81l-12.91-7.03c2.32-6.21,4.08-12.66,5.26-19.3l14.99-0.15c4.13-0.04,7.47-3.3,7.47-7.28
			v-24.88C2843.1,973.86,2839.75,970.66,2835.62,970.7z M2703.85,918.62c42.19-0.23,76.25,32.26,76.25,72.57
			c0,40.31-34.06,73.43-76.25,73.98c-42.38,0.56-76.87-31.93-76.87-72.56C2626.98,951.98,2661.47,918.85,2703.85,918.62z"/>
	</g>
</g>
</svg>
