<?xml version="1.0"?>
<svg xmlns="http://www.w3.org/2000/svg" xmlns:xlink="http://www.w3.org/1999/xlink" xmlns:svgjs="http://svgjs.com/svgjs" version="1.1" width="512" height="512" x="0" y="0" viewBox="0 0 512 512" style="enable-background:new 0 0 512 512" xml:space="preserve" class=""><g><g xmlns="http://www.w3.org/2000/svg"><g><path d="m307.313 453.727v-125.147c0-8.816-7.448-16.265-16.264-16.265h-188.722c-8.816 0-16.264 7.448-16.264 16.265v125.146c0 8.816 7.448 16.265 16.264 16.265h188.722c8.816 0 16.264-7.448 16.264-16.264zm-20-3.736h-181.25v-117.676h181.25z" fill="#ffffff" data-original="#000000" style="" class=""/><path d="m145.468 393.996c5.523 0 10-4.478 10-10v-15.902c0-5.522-4.477-10-10-10s-10 4.478-10 10v15.902c0 5.523 4.477 10 10 10z" fill="#ffffff" data-original="#000000" style="" class=""/><path d="m247.936 393.996c5.523 0 10-4.478 10-10v-15.902c0-5.522-4.477-10-10-10s-10 4.478-10 10v15.902c0 5.523 4.477 10 10 10z" fill="#ffffff" data-original="#000000" style="" class=""/><path d="m361.345 318.58h-12.929c-4.755-27.381-28.661-48.273-57.367-48.273h-16.219v-35.75c0-5.522-4.477-10-10-10s-10 4.478-10 10v35.75h-116.284v-35.75c0-5.522-4.477-10-10-10s-10 4.478-10 10v35.75h-16.219c-28.706 0-52.612 20.892-57.367 48.273h-12.929c-17.658 0-32.024 14.379-32.024 32.053v81.041c0 17.674 14.366 32.053 32.024 32.053h12.929c4.755 27.381 28.66 48.273 57.367 48.273h49.462c5.523 0 10-4.478 10-10s-4.477-10-10-10h-49.462c-21.087 0-38.243-17.169-38.243-38.273v-125.147c0-21.104 17.156-38.273 38.243-38.273h188.722c21.087 0 38.243 17.169 38.243 38.273v125.146c0 21.104-17.156 38.273-38.243 38.273h-49.462c-5.523 0-10 4.478-10 10s4.477 10 10 10h49.462c28.706 0 52.612-20.892 57.367-48.273h12.929c17.658 0 32.024-14.379 32.024-32.053v-81.041c0-17.673-14.366-32.052-32.024-32.052zm-317.262 125.147h-12.052c-6.63 0-12.024-5.407-12.024-12.053v-81.041c0-6.646 5.394-12.053 12.024-12.053h12.053v105.147zm329.286-12.053c0 6.646-5.394 12.053-12.024 12.053h-12.053v-105.147h12.053c6.63 0 12.024 5.407 12.024 12.053z" fill="#ffffff" data-original="#000000" style="" class=""/><path d="m488.274 0h-222.651c-13.079 0-23.719 10.628-23.719 23.691v118.117c0 13.063 10.64 23.691 23.719 23.691h14.689v29.202c0 3.53 1.861 6.799 4.897 8.6 1.571.933 3.336 1.4 5.103 1.4 1.647 0 3.297-.407 4.792-1.223l69.558-37.979h123.612c13.079 0 23.719-10.628 23.719-23.691v-118.117c0-13.063-10.64-23.691-23.719-23.691zm3.719 141.809c0 1.967-1.738 3.691-3.719 3.691h-126.164c-1.675 0-3.322.421-4.792 1.223l-57.005 31.126v-22.349c0-5.522-4.477-10-10-10h-24.689c-2.016 0-3.719-1.69-3.719-3.691v-118.118c0-2.001 1.703-3.691 3.719-3.691h222.651c2.016 0 3.719 1.69 3.719 3.691v118.118z" fill="#ffffff" data-original="#000000" style="" class=""/><path d="m293.912 68.5h29.167c5.523 0 10-4.478 10-10s-4.477-10-10-10h-29.167c-5.523 0-10 4.478-10 10s4.477 10 10 10z" fill="#ffffff" data-original="#000000" style="" class=""/><path d="m459.958 48.5h-86.368c-5.523 0-10 4.478-10 10s4.477 10 10 10h86.368c5.523 0 10-4.478 10-10s-4.478-10-10-10z" fill="#ffffff" data-original="#000000" style="" class=""/><path d="m459.958 97h-29.139c-5.523 0-10 4.478-10 10s4.477 10 10 10h29.139c5.523 0 10-4.478 10-10s-4.478-10-10-10z" fill="#ffffff" data-original="#000000" style="" class=""/><path d="m380.308 97h-86.396c-5.523 0-10 4.478-10 10s4.477 10 10 10h86.396c5.523 0 10-4.478 10-10s-4.477-10-10-10z" fill="#ffffff" data-original="#000000" style="" class=""/><path d="m196.688 492c-5.523 0-10 4.478-10 10s4.477 10 10 10h.057c5.523 0 9.972-4.478 9.972-10s-4.506-10-10.029-10z" fill="#ffffff" data-original="#000000" style="" class=""/></g></g></g></svg>
